<svg xmlns="http://www.w3.org/2000/svg" xmlns:xlink="http://www.w3.org/1999/xlink" version="1.1" class="marks" width="1371" height="161" viewBox="0 0 1371 161"><rect width="1371" height="161" fill="white"/><g fill="none" stroke-miterlimit="10" transform="translate(5,56)"><g class="mark-group role-frame root" role="graphics-object" aria-roledescription="group mark container"><g transform="translate(0,0)"><path class="background" aria-hidden="true" d="M0,0h0v0h0Z"/><g><g class="mark-group role-column-title column-title" role="graphics-object" aria-roledescription="group mark container"><g transform="translate(650,-30)"><path class="background" aria-hidden="true" d="M0,0h0v0h0Z"/><g><g class="mark-group role-title"><g transform="translate(0,-21)"><path class="background" aria-hidden="true" d="M0,0h0v0h0Z" pointer-events="none"/><g><g class="mark-text role-title-text" role="graphics-symbol" aria-roledescription="title" aria-label="Title text 'sub_location'" pointer-events="none"><text text-anchor="middle" transform="translate(0,9)" font-family="sans-serif" font-size="11px" font-weight="bold" fill="#000" opacity="1">sub_location</text></g></g><path class="foreground" aria-hidden="true" d="" pointer-events="none" display="none"/></g></g></g><path class="foreground" aria-hidden="true" d="" display="none"/></g></g><g class="mark-group role-column-header column_header" role="graphics-object" aria-roledescription="group mark container"><g transform="translate(0,0)"><path class="background" aria-hidden="true" d="M0,0h100v0h-100Z"/><g><g class="mark-group role-title"><g transform="translate(50,-20)"><path class="background" aria-hidden="true" d="M0,0h0v0h0Z" pointer-events="none"/><g><g class="mark-text role-title-text" role="graphics-symbol" aria-roledescription="title" aria-label="Title text 'Cell membrane'" pointer-events="none"><text text-anchor="middle" transform="translate(0,8)" font-family="sans-serif" font-size="10px" fill="#000" opacity="1">Cell membrane</text></g></g><path class="foreground" aria-hidden="true" d="" pointer-events="none" display="none"/></g></g></g><path class="foreground" aria-hidden="true" d="" display="none"/></g><g transform="translate(120,0)"><path class="background" aria-hidden="true" d="M0,0h100v0h-100Z"/><g><g class="mark-group role-title"><g transform="translate(50,-20)"><path class="background" aria-hidden="true" d="M0,0h0v0h0Z" pointer-events="none"/><g><g class="mark-text role-title-text" role="graphics-symbol" aria-roledescription="title" aria-label="Title text 'Cell projection'" pointer-events="none"><text text-anchor="middle" transform="translate(0,8)" font-family="sans-serif" font-size="10px" fill="#000" opacity="1">Cell projection</text></g></g><path class="foreground" aria-hidden="true" d="" pointer-events="none" display="none"/></g></g></g><path class="foreground" aria-hidden="true" d="" display="none"/></g><g transform="translate(240,0)"><path class="background" aria-hidden="true" d="M0,0h100v0h-100Z"/><g><g class="mark-group role-title"><g transform="translate(50,-20)"><path class="background" aria-hidden="true" d="M0,0h0v0h0Z" pointer-events="none"/><g><g class="mark-text role-title-text" role="graphics-symbol" aria-roledescription="title" aria-label="Title text 'Cytoplasm'" pointer-events="none"><text text-anchor="middle" transform="translate(0,8)" font-family="sans-serif" font-size="10px" fill="#000" opacity="1">Cytoplasm</text></g></g><path class="foreground" aria-hidden="true" d="" pointer-events="none" display="none"/></g></g></g><path class="foreground" aria-hidden="true" d="" display="none"/></g><g transform="translate(360,0)"><path class="background" aria-hidden="true" d="M0,0h100v0h-100Z"/><g><g class="mark-group role-title"><g transform="translate(50,-20)"><path class="background" aria-hidden="true" d="M0,0h0v0h0Z" pointer-events="none"/><g><g class="mark-text role-title-text" role="graphics-symbol" aria-roledescription="title" aria-label="Title text 'Endoplasmic reticulum membrane'" pointer-events="none"><text text-anchor="middle" transform="translate(0,8)" font-family="sans-serif" font-size="10px" fill="#000" opacity="1">Endoplasmic reticulum membrane</text></g></g><path class="foreground" aria-hidden="true" d="" pointer-events="none" display="none"/></g></g></g><path class="foreground" aria-hidden="true" d="" display="none"/></g><g transform="translate(480,0)"><path class="background" aria-hidden="true" d="M0,0h100v0h-100Z"/><g><g class="mark-group role-title"><g transform="translate(50,-20)"><path class="background" aria-hidden="true" d="M0,0h0v0h0Z" pointer-events="none"/><g><g class="mark-text role-title-text" role="graphics-symbol" aria-roledescription="title" aria-label="Title text 'Golgi apparatus'" pointer-events="none"><text text-anchor="middle" transform="translate(0,8)" font-family="sans-serif" font-size="10px" fill="#000" opacity="1">Golgi apparatus</text></g></g><path class="foreground" aria-hidden="true" d="" pointer-events="none" display="none"/></g></g></g><path class="foreground" aria-hidden="true" d="" display="none"/></g><g transform="translate(600,0)"><path class="background" aria-hidden="true" d="M0,0h100v0h-100Z"/><g><g class="mark-group role-title"><g transform="translate(50,-20)"><path class="background" aria-hidden="true" d="M0,0h0v0h0Z" pointer-events="none"/><g><g class="mark-text role-title-text" role="graphics-symbol" aria-roledescription="title" aria-label="Title text 'Lysosome'" pointer-events="none"><text text-anchor="middle" transform="translate(0,8)" font-family="sans-serif" font-size="10px" fill="#000" opacity="1">Lysosome</text></g></g><path class="foreground" aria-hidden="true" d="" pointer-events="none" display="none"/></g></g></g><path class="foreground" aria-hidden="true" d="" display="none"/></g><g transform="translate(720,0)"><path class="background" aria-hidden="true" d="M0,0h100v0h-100Z"/><g><g class="mark-group role-title"><g transform="translate(50,-20)"><path class="background" aria-hidden="true" d="M0,0h0v0h0Z" pointer-events="none"/><g><g class="mark-text role-title-text" role="graphics-symbol" aria-roledescription="title" aria-label="Title text 'Lysosome membrane'" pointer-events="none"><text text-anchor="middle" transform="translate(0,8)" font-family="sans-serif" font-size="10px" fill="#000" opacity="1">Lysosome membrane</text></g></g><path class="foreground" aria-hidden="true" d="" pointer-events="none" display="none"/></g></g></g><path class="foreground" aria-hidden="true" d="" display="none"/></g><g transform="translate(840,0)"><path class="background" aria-hidden="true" d="M0,0h100v0h-100Z"/><g><g class="mark-group role-title"><g transform="translate(50,-20)"><path class="background" aria-hidden="true" d="M0,0h0v0h0Z" pointer-events="none"/><g><g class="mark-text role-title-text" role="graphics-symbol" aria-roledescription="title" aria-label="Title text 'Membrane'" pointer-events="none"><text text-anchor="middle" transform="translate(0,8)" font-family="sans-serif" font-size="10px" fill="#000" opacity="1">Membrane</text></g></g><path class="foreground" aria-hidden="true" d="" pointer-events="none" display="none"/></g></g></g><path class="foreground" aria-hidden="true" d="" display="none"/></g><g transform="translate(960,0)"><path class="background" aria-hidden="true" d="M0,0h100v0h-100Z"/><g><g class="mark-group role-title"><g transform="translate(50,-20)"><path class="background" aria-hidden="true" d="M0,0h0v0h0Z" pointer-events="none"/><g><g class="mark-text role-title-text" role="graphics-symbol" aria-roledescription="title" aria-label="Title text 'Mitochondrion'" pointer-events="none"><text text-anchor="middle" transform="translate(0,8)" font-family="sans-serif" font-size="10px" fill="#000" opacity="1">Mitochondrion</text></g></g><path class="foreground" aria-hidden="true" d="" pointer-events="none" display="none"/></g></g></g><path class="foreground" aria-hidden="true" d="" display="none"/></g><g transform="translate(1080,0)"><path class="background" aria-hidden="true" d="M0,0h100v0h-100Z"/><g><g class="mark-group role-title"><g transform="translate(50,-20)"><path class="background" aria-hidden="true" d="M0,0h0v0h0Z" pointer-events="none"/><g><g class="mark-text role-title-text" role="graphics-symbol" aria-roledescription="title" aria-label="Title text 'Nucleus'" pointer-events="none"><text text-anchor="middle" transform="translate(0,8)" font-family="sans-serif" font-size="10px" fill="#000" opacity="1">Nucleus</text></g></g><path class="foreground" aria-hidden="true" d="" pointer-events="none" display="none"/></g></g></g><path class="foreground" aria-hidden="true" d="" display="none"/></g><g transform="translate(1200,0)"><path class="background" aria-hidden="true" d="M0,0h100v0h-100Z"/><g><g class="mark-group role-title"><g transform="translate(50,-20)"><path class="background" aria-hidden="true" d="M0,0h0v0h0Z" pointer-events="none"/><g><g class="mark-text role-title-text" role="graphics-symbol" aria-roledescription="title" aria-label="Title text 'Secreted'" pointer-events="none"><text text-anchor="middle" transform="translate(0,8)" font-family="sans-serif" font-size="10px" fill="#000" opacity="1">Secreted</text></g></g><path class="foreground" aria-hidden="true" d="" pointer-events="none" display="none"/></g></g></g><path class="foreground" aria-hidden="true" d="" display="none"/></g></g><g class="mark-group role-scope cell" role="graphics-object" aria-roledescription="group mark container"><g transform="translate(0,0)"><path class="background" aria-hidden="true" d="M0,0h100v100h-100Z" stroke="#ddd" stroke-width="0"/><g><g class="mark-arc role-mark child_layer_0_marks" role="graphics-object" aria-roledescription="arc mark container"><path aria-label="kind: PGC; values: 75" role="graphics-symbol" aria-roledescription="arc mark" transform="translate(50,50)" d="M-42.37048156080432,-26.546982734494346A50,50,0,0,0,-15.965076506799003,47.382658559140125L0,0Z" fill="#D56E3B"/><path aria-label="kind: RPLC; values: 42" role="graphics-symbol" aria-roledescription="arc mark" transform="translate(50,50)" d="M-9.184850993605149e-15,-50A50,50,0,0,0,-42.37048156080432,-26.546982734494346L0,0Z" fill="#58728C"/><path aria-label="kind: Both; values: 144" role="graphics-symbol" aria-roledescription="arc mark" transform="translate(50,50)" d="M-15.965076506799003,47.382658559140125A50,50,0,1,0,3.061616997868383e-15,-50L0,0Z" fill="#AAAAAA"/></g><g class="mark-text role-mark child_layer_1_marks" role="graphics-object" aria-roledescription="text mark container"><text aria-label="kind: PGC; values: 75" role="graphics-symbol" aria-roledescription="text mark" text-anchor="middle" transform="translate(50,53)" font-family="sans-serif" font-size="11px" fill="#D56E3B">75</text><text aria-label="kind: RPLC; values: 42" role="graphics-symbol" aria-roledescription="text mark" text-anchor="middle" transform="translate(50,53)" font-family="sans-serif" font-size="11px" fill="#58728C">42</text><text aria-label="kind: Both; values: 144" role="graphics-symbol" aria-roledescription="text mark" text-anchor="middle" transform="translate(50,53)" font-family="sans-serif" font-size="11px" fill="#AAAAAA">144</text></g></g><path class="foreground" aria-hidden="true" d="" display="none"/></g><g transform="translate(120,0)"><path class="background" aria-hidden="true" d="M0,0h100v100h-100Z" stroke="#ddd" stroke-width="0"/><g><g class="mark-arc role-mark child_layer_0_marks" role="graphics-object" aria-roledescription="arc mark container"><path aria-label="kind: PGC; values: 11" role="graphics-symbol" aria-roledescription="arc mark" transform="translate(50,50)" d="M-48.47001329696653,12.274274357039953A50,50,0,0,0,23.797369651853682,43.97368756032445L0,0Z" fill="#D56E3B"/><path aria-label="kind: RPLC; values: 11" role="graphics-symbol" aria-roledescription="arc mark" transform="translate(50,50)" d="M-9.184850993605149e-15,-50A50,50,0,0,0,-48.47001329696653,12.274274357039953L0,0Z" fill="#58728C"/><path aria-label="kind: Both; values: 16" role="graphics-symbol" aria-roledescription="arc mark" transform="translate(50,50)" d="M23.797369651853682,43.97368756032445A50,50,0,0,0,3.061616997868383e-15,-50L0,0Z" fill="#AAAAAA"/></g><g class="mark-text role-mark child_layer_1_marks" role="graphics-object" aria-roledescription="text mark container"><text aria-label="kind: PGC; values: 11" role="graphics-symbol" aria-roledescription="text mark" text-anchor="middle" transform="translate(50,53)" font-family="sans-serif" font-size="11px" fill="#D56E3B">11</text><text aria-label="kind: RPLC; values: 11" role="graphics-symbol" aria-roledescription="text mark" text-anchor="middle" transform="translate(50,53)" font-family="sans-serif" font-size="11px" fill="#58728C">11</text><text aria-label="kind: Both; values: 16" role="graphics-symbol" aria-roledescription="text mark" text-anchor="middle" transform="translate(50,53)" font-family="sans-serif" font-size="11px" fill="#AAAAAA">16</text></g></g><path class="foreground" aria-hidden="true" d="" display="none"/></g><g transform="translate(240,0)"><path class="background" aria-hidden="true" d="M0,0h100v100h-100Z" stroke="#ddd" stroke-width="0"/><g><g class="mark-arc role-mark child_layer_0_marks" role="graphics-object" aria-roledescription="arc mark container"><path aria-label="kind: PGC; values: 289" role="graphics-symbol" aria-roledescription="arc mark" transform="translate(50,50)" d="M-31.95068299273608,-38.45976932195103A50,50,0,0,0,-49.11850333228426,9.347332795850363L0,0Z" fill="#D56E3B"/><path aria-label="kind: RPLC; values: 188" role="graphics-symbol" aria-roledescription="arc mark" transform="translate(50,50)" d="M-9.184850993605149e-15,-50A50,50,0,0,0,-31.95068299273608,-38.45976932195103L0,0Z" fill="#58728C"/><path aria-label="kind: Both; values: 1227" role="graphics-symbol" aria-roledescription="arc mark" transform="translate(50,50)" d="M-49.11850333228426,9.347332795850363A50,50,0,1,0,3.061616997868383e-15,-50L0,0Z" fill="#AAAAAA"/></g><g class="mark-text role-mark child_layer_1_marks" role="graphics-object" aria-roledescription="text mark container"><text aria-label="kind: PGC; values: 289" role="graphics-symbol" aria-roledescription="text mark" text-anchor="middle" transform="translate(50,53)" font-family="sans-serif" font-size="11px" fill="#D56E3B">289</text><text aria-label="kind: RPLC; values: 188" role="graphics-symbol" aria-roledescription="text mark" text-anchor="middle" transform="translate(50,53)" font-family="sans-serif" font-size="11px" fill="#58728C">188</text><text aria-label="kind: Both; values: 1227" role="graphics-symbol" aria-roledescription="text mark" text-anchor="middle" transform="translate(50,53)" font-family="sans-serif" font-size="11px" fill="#AAAAAA">1227</text></g></g><path class="foreground" aria-hidden="true" d="" display="none"/></g><g transform="translate(360,0)"><path class="background" aria-hidden="true" d="M0,0h100v100h-100Z" stroke="#ddd" stroke-width="0"/><g><g class="mark-arc role-mark child_layer_0_marks" role="graphics-object" aria-roledescription="arc mark container"><path aria-label="kind: PGC; values: 40" role="graphics-symbol" aria-roledescription="arc mark" transform="translate(50,50)" d="M-35.239931524235224,-35.470371102755784A50,50,0,0,0,-48.393298762953,12.573330300265381L0,0Z" fill="#D56E3B"/><path aria-label="kind: RPLC; values: 30" role="graphics-symbol" aria-roledescription="arc mark" transform="translate(50,50)" d="M-9.184850993605149e-15,-50A50,50,0,0,0,-35.239931524235224,-35.470371102755784L0,0Z" fill="#58728C"/><path aria-label="kind: Both; values: 171" role="graphics-symbol" aria-roledescription="arc mark" transform="translate(50,50)" d="M-48.393298762953,12.573330300265381A50,50,0,1,0,3.061616997868383e-15,-50L0,0Z" fill="#AAAAAA"/></g><g class="mark-text role-mark child_layer_1_marks" role="graphics-object" aria-roledescription="text mark container"><text aria-label="kind: PGC; values: 40" role="graphics-symbol" aria-roledescription="text mark" text-anchor="middle" transform="translate(50,53)" font-family="sans-serif" font-size="11px" fill="#D56E3B">40</text><text aria-label="kind: RPLC; values: 30" role="graphics-symbol" aria-roledescription="text mark" text-anchor="middle" transform="translate(50,53)" font-family="sans-serif" font-size="11px" fill="#58728C">30</text><text aria-label="kind: Both; values: 171" role="graphics-symbol" aria-roledescription="text mark" text-anchor="middle" transform="translate(50,53)" font-family="sans-serif" font-size="11px" fill="#AAAAAA">171</text></g></g><path class="foreground" aria-hidden="true" d="" display="none"/></g><g transform="translate(480,0)"><path class="background" aria-hidden="true" d="M0,0h100v100h-100Z" stroke="#ddd" stroke-width="0"/><g><g class="mark-arc role-mark child_layer_0_marks" role="graphics-object" aria-roledescription="arc mark container"><path aria-label="kind: PGC; values: 18" role="graphics-symbol" aria-roledescription="arc mark" transform="translate(50,50)" d="M-40.19985651834704,-29.731658815214313A50,50,0,0,0,-31.41099986478212,38.90178771592197L0,0Z" fill="#D56E3B"/><path aria-label="kind: RPLC; values: 11" role="graphics-symbol" aria-roledescription="arc mark" transform="translate(50,50)" d="M-9.184850993605149e-15,-50A50,50,0,0,0,-40.19985651834704,-29.731658815214313L0,0Z" fill="#58728C"/><path aria-label="kind: Both; values: 45" role="graphics-symbol" aria-roledescription="arc mark" transform="translate(50,50)" d="M-31.41099986478212,38.90178771592197A50,50,0,1,0,3.061616997868383e-15,-50L0,0Z" fill="#AAAAAA"/></g><g class="mark-text role-mark child_layer_1_marks" role="graphics-object" aria-roledescription="text mark container"><text aria-label="kind: PGC; values: 18" role="graphics-symbol" aria-roledescription="text mark" text-anchor="middle" transform="translate(50,53)" font-family="sans-serif" font-size="11px" fill="#D56E3B">18</text><text aria-label="kind: RPLC; values: 11" role="graphics-symbol" aria-roledescription="text mark" text-anchor="middle" transform="translate(50,53)" font-family="sans-serif" font-size="11px" fill="#58728C">11</text><text aria-label="kind: Both; values: 45" role="graphics-symbol" aria-roledescription="text mark" text-anchor="middle" transform="translate(50,53)" font-family="sans-serif" font-size="11px" fill="#AAAAAA">45</text></g></g><path class="foreground" aria-hidden="true" d="" display="none"/></g><g transform="translate(600,0)"><path class="background" aria-hidden="true" d="M0,0h100v100h-100Z" stroke="#ddd" stroke-width="0"/><g><g class="mark-arc role-mark child_layer_0_marks" role="graphics-object" aria-roledescription="arc mark container"><path aria-label="kind: PGC; values: 11" role="graphics-symbol" aria-roledescription="arc mark" transform="translate(50,50)" d="M-46.19397662556433,-19.134171618254502A50,50,0,0,0,9.754516100806427,49.039264020161525L0,0Z" fill="#D56E3B"/><path aria-label="kind: RPLC; values: 6" role="graphics-symbol" aria-roledescription="arc mark" transform="translate(50,50)" d="M-9.184850993605149e-15,-50A50,50,0,0,0,-46.19397662556433,-19.134171618254502L0,0Z" fill="#58728C"/><path aria-label="kind: Both; values: 15" role="graphics-symbol" aria-roledescription="arc mark" transform="translate(50,50)" d="M9.754516100806427,49.039264020161525A50,50,0,0,0,3.061616997868383e-15,-50L0,0Z" fill="#AAAAAA"/></g><g class="mark-text role-mark child_layer_1_marks" role="graphics-object" aria-roledescription="text mark container"><text aria-label="kind: PGC; values: 11" role="graphics-symbol" aria-roledescription="text mark" text-anchor="middle" transform="translate(50,53)" font-family="sans-serif" font-size="11px" fill="#D56E3B">11</text><text aria-label="kind: RPLC; values: 6" role="graphics-symbol" aria-roledescription="text mark" text-anchor="middle" transform="translate(50,53)" font-family="sans-serif" font-size="11px" fill="#58728C">6</text><text aria-label="kind: Both; values: 15" role="graphics-symbol" aria-roledescription="text mark" text-anchor="middle" transform="translate(50,53)" font-family="sans-serif" font-size="11px" fill="#AAAAAA">15</text></g></g><path class="foreground" aria-hidden="true" d="" display="none"/></g><g transform="translate(720,0)"><path class="background" aria-hidden="true" d="M0,0h100v100h-100Z" stroke="#ddd" stroke-width="0"/><g><g class="mark-arc role-mark child_layer_0_marks" role="graphics-object" aria-roledescription="arc mark container"><path aria-label="kind: PGC; values: 13" role="graphics-symbol" aria-roledescription="arc mark" transform="translate(50,50)" d="M-37.7874787177129,-32.743036697264266A50,50,0,1,0,49.49107209404664,7.1157419136642535L0,0Z" fill="#D56E3B"/><path aria-label="kind: RPLC; values: 3" role="graphics-symbol" aria-roledescription="arc mark" transform="translate(50,50)" d="M-9.184850993605149e-15,-50A50,50,0,0,0,-37.7874787177129,-32.743036697264266L0,0Z" fill="#58728C"/><path aria-label="kind: Both; values: 6" role="graphics-symbol" aria-roledescription="arc mark" transform="translate(50,50)" d="M49.49107209404664,7.1157419136642535A50,50,0,0,0,3.061616997868383e-15,-50L0,0Z" fill="#AAAAAA"/></g><g class="mark-text role-mark child_layer_1_marks" role="graphics-object" aria-roledescription="text mark container"><text aria-label="kind: PGC; values: 13" role="graphics-symbol" aria-roledescription="text mark" text-anchor="middle" transform="translate(50,53)" font-family="sans-serif" font-size="11px" fill="#D56E3B">13</text><text aria-label="kind: RPLC; values: 3" role="graphics-symbol" aria-roledescription="text mark" text-anchor="middle" transform="translate(50,53)" font-family="sans-serif" font-size="11px" fill="#58728C">3</text><text aria-label="kind: Both; values: 6" role="graphics-symbol" aria-roledescription="text mark" text-anchor="middle" transform="translate(50,53)" font-family="sans-serif" font-size="11px" fill="#AAAAAA">6</text></g></g><path class="foreground" aria-hidden="true" d="" display="none"/></g><g transform="translate(840,0)"><path class="background" aria-hidden="true" d="M0,0h100v100h-100Z" stroke="#ddd" stroke-width="0"/><g><g class="mark-arc role-mark child_layer_0_marks" role="graphics-object" aria-roledescription="arc mark container"><path aria-label="kind: PGC; values: 46" role="graphics-symbol" aria-roledescription="arc mark" transform="translate(50,50)" d="M-49.6354437049027,-6.026834012766163A50,50,0,0,0,0.9294117516944046,49.99136119166803L0,0Z" fill="#D56E3B"/><path aria-label="kind: RPLC; values: 39" role="graphics-symbol" aria-roledescription="arc mark" transform="translate(50,50)" d="M-9.184850993605149e-15,-50A50,50,0,0,0,-49.6354437049027,-6.026834012766163L0,0Z" fill="#58728C"/><path aria-label="kind: Both; values: 84" role="graphics-symbol" aria-roledescription="arc mark" transform="translate(50,50)" d="M0.9294117516944046,49.99136119166803A50,50,0,0,0,3.061616997868383e-15,-50L0,0Z" fill="#AAAAAA"/></g><g class="mark-text role-mark child_layer_1_marks" role="graphics-object" aria-roledescription="text mark container"><text aria-label="kind: PGC; values: 46" role="graphics-symbol" aria-roledescription="text mark" text-anchor="middle" transform="translate(50,53)" font-family="sans-serif" font-size="11px" fill="#D56E3B">46</text><text aria-label="kind: RPLC; values: 39" role="graphics-symbol" aria-roledescription="text mark" text-anchor="middle" transform="translate(50,53)" font-family="sans-serif" font-size="11px" fill="#58728C">39</text><text aria-label="kind: Both; values: 84" role="graphics-symbol" aria-roledescription="text mark" text-anchor="middle" transform="translate(50,53)" font-family="sans-serif" font-size="11px" fill="#AAAAAA">84</text></g></g><path class="foreground" aria-hidden="true" d="" display="none"/></g><g transform="translate(960,0)"><path class="background" aria-hidden="true" d="M0,0h100v100h-100Z" stroke="#ddd" stroke-width="0"/><g><g class="mark-arc role-mark child_layer_0_marks" role="graphics-object" aria-roledescription="arc mark container"><path aria-label="kind: PGC; values: 39" role="graphics-symbol" aria-roledescription="arc mark" transform="translate(50,50)" d="M-34.03196282648155,-36.63093646328166A50,50,0,0,0,-48.788536588160134,10.939775938553767L0,0Z" fill="#D56E3B"/><path aria-label="kind: RPLC; values: 28" role="graphics-symbol" aria-roledescription="arc mark" transform="translate(50,50)" d="M-9.184850993605149e-15,-50A50,50,0,0,0,-34.03196282648155,-36.63093646328166L0,0Z" fill="#58728C"/><path aria-label="kind: Both; values: 168" role="graphics-symbol" aria-roledescription="arc mark" transform="translate(50,50)" d="M-48.788536588160134,10.939775938553767A50,50,0,1,0,3.061616997868383e-15,-50L0,0Z" fill="#AAAAAA"/></g><g class="mark-text role-mark child_layer_1_marks" role="graphics-object" aria-roledescription="text mark container"><text aria-label="kind: PGC; values: 39" role="graphics-symbol" aria-roledescription="text mark" text-anchor="middle" transform="translate(50,53)" font-family="sans-serif" font-size="11px" fill="#D56E3B">39</text><text aria-label="kind: RPLC; values: 28" role="graphics-symbol" aria-roledescription="text mark" text-anchor="middle" transform="translate(50,53)" font-family="sans-serif" font-size="11px" fill="#58728C">28</text><text aria-label="kind: Both; values: 168" role="graphics-symbol" aria-roledescription="text mark" text-anchor="middle" transform="translate(50,53)" font-family="sans-serif" font-size="11px" fill="#AAAAAA">168</text></g></g><path class="foreground" aria-hidden="true" d="" display="none"/></g><g transform="translate(1080,0)"><path class="background" aria-hidden="true" d="M0,0h100v100h-100Z" stroke="#ddd" stroke-width="0"/><g><g class="mark-arc role-mark child_layer_0_marks" role="graphics-object" aria-roledescription="arc mark container"><path aria-label="kind: PGC; values: 260" role="graphics-symbol" aria-roledescription="arc mark" transform="translate(50,50)" d="M-34.32140166582176,-36.35988706931482A50,50,0,0,0,-46.33611582786878,18.787346006989054L0,0Z" fill="#D56E3B"/><path aria-label="kind: RPLC; values: 164" role="graphics-symbol" aria-roledescription="arc mark" transform="translate(50,50)" d="M-9.184850993605149e-15,-50A50,50,0,0,0,-34.32140166582176,-36.35988706931482L0,0Z" fill="#58728C"/><path aria-label="kind: Both; values: 938" role="graphics-symbol" aria-roledescription="arc mark" transform="translate(50,50)" d="M-46.33611582786878,18.787346006989054A50,50,0,1,0,3.061616997868383e-15,-50L0,0Z" fill="#AAAAAA"/></g><g class="mark-text role-mark child_layer_1_marks" role="graphics-object" aria-roledescription="text mark container"><text aria-label="kind: PGC; values: 260" role="graphics-symbol" aria-roledescription="text mark" text-anchor="middle" transform="translate(50,53)" font-family="sans-serif" font-size="11px" fill="#D56E3B">260</text><text aria-label="kind: RPLC; values: 164" role="graphics-symbol" aria-roledescription="text mark" text-anchor="middle" transform="translate(50,53)" font-family="sans-serif" font-size="11px" fill="#58728C">164</text><text aria-label="kind: Both; values: 938" role="graphics-symbol" aria-roledescription="text mark" text-anchor="middle" transform="translate(50,53)" font-family="sans-serif" font-size="11px" fill="#AAAAAA">938</text></g></g><path class="foreground" aria-hidden="true" d="" display="none"/></g><g transform="translate(1200,0)"><path class="background" aria-hidden="true" d="M0,0h100v100h-100Z" stroke="#ddd" stroke-width="0"/><g><g class="mark-arc role-mark child_layer_0_marks" role="graphics-object" aria-roledescription="arc mark container"><path aria-label="kind: PGC; values: 27" role="graphics-symbol" aria-roledescription="arc mark" transform="translate(50,50)" d="M-49.86018985905901,-3.7365046793211767A50,50,0,0,0,-1.495773308469912,49.97762161417516L0,0Z" fill="#D56E3B"/><path aria-label="kind: RPLC; values: 25" role="graphics-symbol" aria-roledescription="arc mark" transform="translate(50,50)" d="M-9.184850993605149e-15,-50A50,50,0,0,0,-49.86018985905901,-3.7365046793211767L0,0Z" fill="#58728C"/><path aria-label="kind: Both; values: 53" role="graphics-symbol" aria-roledescription="arc mark" transform="translate(50,50)" d="M-1.495773308469912,49.97762161417516A50,50,0,1,0,3.061616997868383e-15,-50L0,0Z" fill="#AAAAAA"/></g><g class="mark-text role-mark child_layer_1_marks" role="graphics-object" aria-roledescription="text mark container"><text aria-label="kind: PGC; values: 27" role="graphics-symbol" aria-roledescription="text mark" text-anchor="middle" transform="translate(50,53)" font-family="sans-serif" font-size="11px" fill="#D56E3B">27</text><text aria-label="kind: RPLC; values: 25" role="graphics-symbol" aria-roledescription="text mark" text-anchor="middle" transform="translate(50,53)" font-family="sans-serif" font-size="11px" fill="#58728C">25</text><text aria-label="kind: Both; values: 53" role="graphics-symbol" aria-roledescription="text mark" text-anchor="middle" transform="translate(50,53)" font-family="sans-serif" font-size="11px" fill="#AAAAAA">53</text></g></g><path class="foreground" aria-hidden="true" d="" display="none"/></g></g><g class="mark-group role-legend" role="graphics-symbol" aria-roledescription="legend" aria-label="Symbol legend titled 'kind' for fill color with 3 values: PGC, RPLC, Both"><g transform="translate(1318,0)"><path class="background" aria-hidden="true" d="M0,0h43v53h-43Z" pointer-events="none"/><g><g class="mark-group role-legend-entry"><g transform="translate(0,16)"><path class="background" aria-hidden="true" d="M0,0h0v0h0Z" pointer-events="none"/><g><g class="mark-group role-scope" role="graphics-object" aria-roledescription="group mark container"><g transform="translate(0,0)"><path class="background" aria-hidden="true" d="M0,0h42.6748046875v11h-42.6748046875Z" pointer-events="none" opacity="1"/><g><g class="mark-symbol role-legend-symbol" pointer-events="none"><path transform="translate(6,6)" d="M5,0A5,5,0,1,1,-5,0A5,5,0,1,1,5,0" fill="#D56E3B" stroke-width="1.5" opacity="1"/></g><g class="mark-text role-legend-label" pointer-events="none"><text text-anchor="start" transform="translate(16,9)" font-family="sans-serif" font-size="10px" fill="#000" opacity="1">PGC</text></g></g><path class="foreground" aria-hidden="true" d="" pointer-events="none" display="none"/></g><g transform="translate(0,13)"><path class="background" aria-hidden="true" d="M0,0h42.6748046875v11h-42.6748046875Z" pointer-events="none" opacity="1"/><g><g class="mark-symbol role-legend-symbol" pointer-events="none"><path transform="translate(6,6)" d="M5,0A5,5,0,1,1,-5,0A5,5,0,1,1,5,0" fill="#58728C" stroke-width="1.5" opacity="1"/></g><g class="mark-text role-legend-label" pointer-events="none"><text text-anchor="start" transform="translate(16,9)" font-family="sans-serif" font-size="10px" fill="#000" opacity="1">RPLC</text></g></g><path class="foreground" aria-hidden="true" d="" pointer-events="none" display="none"/></g><g transform="translate(0,26)"><path class="background" aria-hidden="true" d="M0,0h42.6748046875v11h-42.6748046875Z" pointer-events="none" opacity="1"/><g><g class="mark-symbol role-legend-symbol" pointer-events="none"><path transform="translate(6,6)" d="M5,0A5,5,0,1,1,-5,0A5,5,0,1,1,5,0" fill="#AAAAAA" stroke-width="1.5" opacity="1"/></g><g class="mark-text role-legend-label" pointer-events="none"><text text-anchor="start" transform="translate(16,9)" font-family="sans-serif" font-size="10px" fill="#000" opacity="1">Both</text></g></g><path class="foreground" aria-hidden="true" d="" pointer-events="none" display="none"/></g></g></g><path class="foreground" aria-hidden="true" d="" pointer-events="none" display="none"/></g></g><g class="mark-text role-legend-title" pointer-events="none"><text text-anchor="start" transform="translate(0,9)" font-family="sans-serif" font-size="11px" font-weight="bold" fill="#000" opacity="1">kind</text></g></g><path class="foreground" aria-hidden="true" d="" pointer-events="none" display="none"/></g></g></g><path class="foreground" aria-hidden="true" d="" display="none"/></g></g></g></svg>