<svg xmlns="http://www.w3.org/2000/svg" xmlns:xlink="http://www.w3.org/1999/xlink" version="1.1" class="marks" width="581" height="370" viewBox="0 0 581 370"><rect width="581" height="370" fill="white"/><g fill="none" stroke-miterlimit="10" transform="translate(107,6)"><g class="mark-group role-frame root" role="graphics-object" aria-roledescription="group mark container"><g transform="translate(0,0)"><path class="background" aria-hidden="true" d="M0,0h0v0h0Z"/><g><g class="mark-group role-row-title row-title" role="graphics-object" aria-roledescription="group mark container"><g transform="translate(-81,161)"><path class="background" aria-hidden="true" d="M0,0h0v0h0Z"/><g><g class="mark-group role-title"><g transform="translate(-21.000000000000004,0)"><path class="background" aria-hidden="true" d="M0,0h0v0h0Z" pointer-events="none"/><g><g class="mark-text role-title-text" role="graphics-symbol" aria-roledescription="title" aria-label="Title text 'sample'" pointer-events="none"><text text-anchor="middle" transform="translate(0,0) rotate(-90) translate(0,9)" font-family="sans-serif" font-size="11px" font-weight="bold" fill="#000" opacity="1">sample</text></g></g><path class="foreground" aria-hidden="true" d="" pointer-events="none" display="none"/></g></g></g><path class="foreground" aria-hidden="true" d="" display="none"/></g></g><g class="mark-group role-row-header row_header" role="graphics-object" aria-roledescription="group mark container"><g transform="translate(-1,0)"><path class="background" aria-hidden="true" d="M0,0h0v150h0Z"/><g><g class="mark-group role-axis" role="graphics-symbol" aria-roledescription="axis" aria-label="Y-axis titled 'density' for a linear scale with values from 0.00 to 0.04"><g transform="translate(0.5,0.5)"><path class="background" aria-hidden="true" d="M0,0h0v0h0Z" pointer-events="none"/><g><g class="mark-rule role-axis-tick" pointer-events="none"><line transform="translate(0,150)" x2="-5" y2="0" stroke="#888" stroke-width="1" opacity="1"/><line transform="translate(0,117)" x2="-5" y2="0" stroke="#888" stroke-width="1" opacity="1"/><line transform="translate(0,83)" x2="-5" y2="0" stroke="#888" stroke-width="1" opacity="1"/><line transform="translate(0,50)" x2="-5" y2="0" stroke="#888" stroke-width="1" opacity="1"/><line transform="translate(0,17)" x2="-5" y2="0" stroke="#888" stroke-width="1" opacity="1"/></g><g class="mark-text role-axis-label" pointer-events="none"><text text-anchor="end" transform="translate(-7,154)" font-family="sans-serif" font-size="14px" font-weight="600" fill="#000" opacity="1">0.00</text><text text-anchor="end" transform="translate(-7,120.66666666666667)" font-family="sans-serif" font-size="14px" font-weight="600" fill="#000" opacity="1">0.01</text><text text-anchor="end" transform="translate(-7,87.33333333333334)" font-family="sans-serif" font-size="14px" font-weight="600" fill="#000" opacity="1">0.02</text><text text-anchor="end" transform="translate(-7,54.00000000000001)" font-family="sans-serif" font-size="14px" font-weight="600" fill="#000" opacity="1">0.03</text><text text-anchor="end" transform="translate(-7,20.666666666666657)" font-family="sans-serif" font-size="14px" font-weight="600" fill="#000" opacity="1">0.04</text></g><g class="mark-rule role-axis-domain" pointer-events="none"><line transform="translate(0,150)" x2="0" y2="-150" stroke="#888" stroke-width="1" opacity="1"/></g><g class="mark-text role-axis-title" pointer-events="none"><text text-anchor="middle" transform="translate(-38.248046875,75) rotate(-90) translate(0,-2)" font-family="sans-serif" font-size="11px" font-weight="bold" fill="#000" opacity="1">density</text></g></g><path class="foreground" aria-hidden="true" d="" pointer-events="none" display="none"/></g></g><g class="mark-group role-title"><g transform="translate(-69.248046875,75)"><path class="background" aria-hidden="true" d="M0,0h0v0h0Z" pointer-events="none"/><g><g class="mark-text role-title-text" role="graphics-symbol" aria-roledescription="title" aria-label="Title text 'MT10'" pointer-events="none"><text text-anchor="middle" transform="translate(0,0) rotate(-90) translate(0,8)" font-family="sans-serif" font-size="10px" fill="#000" opacity="1">MT10</text></g></g><path class="foreground" aria-hidden="true" d="" pointer-events="none" display="none"/></g></g></g><path class="foreground" aria-hidden="true" d="" display="none"/></g><g transform="translate(-1,172)"><path class="background" aria-hidden="true" d="M0,0h0v150h0Z"/><g><g class="mark-group role-axis" role="graphics-symbol" aria-roledescription="axis" aria-label="Y-axis titled 'density' for a linear scale with values from 0.00 to 0.04"><g transform="translate(0.5,0.5)"><path class="background" aria-hidden="true" d="M0,0h0v0h0Z" pointer-events="none"/><g><g class="mark-rule role-axis-tick" pointer-events="none"><line transform="translate(0,150)" x2="-5" y2="0" stroke="#888" stroke-width="1" opacity="1"/><line transform="translate(0,117)" x2="-5" y2="0" stroke="#888" stroke-width="1" opacity="1"/><line transform="translate(0,83)" x2="-5" y2="0" stroke="#888" stroke-width="1" opacity="1"/><line transform="translate(0,50)" x2="-5" y2="0" stroke="#888" stroke-width="1" opacity="1"/><line transform="translate(0,17)" x2="-5" y2="0" stroke="#888" stroke-width="1" opacity="1"/></g><g class="mark-text role-axis-label" pointer-events="none"><text text-anchor="end" transform="translate(-7,154)" font-family="sans-serif" font-size="14px" font-weight="600" fill="#000" opacity="1">0.00</text><text text-anchor="end" transform="translate(-7,120.66666666666667)" font-family="sans-serif" font-size="14px" font-weight="600" fill="#000" opacity="1">0.01</text><text text-anchor="end" transform="translate(-7,87.33333333333334)" font-family="sans-serif" font-size="14px" font-weight="600" fill="#000" opacity="1">0.02</text><text text-anchor="end" transform="translate(-7,54.00000000000001)" font-family="sans-serif" font-size="14px" font-weight="600" fill="#000" opacity="1">0.03</text><text text-anchor="end" transform="translate(-7,20.666666666666657)" font-family="sans-serif" font-size="14px" font-weight="600" fill="#000" opacity="1">0.04</text></g><g class="mark-rule role-axis-domain" pointer-events="none"><line transform="translate(0,150)" x2="0" y2="-150" stroke="#888" stroke-width="1" opacity="1"/></g><g class="mark-text role-axis-title" pointer-events="none"><text text-anchor="middle" transform="translate(-38.248046875,75) rotate(-90) translate(0,-2)" font-family="sans-serif" font-size="11px" font-weight="bold" fill="#000" opacity="1">density</text></g></g><path class="foreground" aria-hidden="true" d="" pointer-events="none" display="none"/></g></g><g class="mark-group role-title"><g transform="translate(-69.248046875,75)"><path class="background" aria-hidden="true" d="M0,0h0v0h0Z" pointer-events="none"/><g><g class="mark-text role-title-text" role="graphics-symbol" aria-roledescription="title" aria-label="Title text 'T10'" pointer-events="none"><text text-anchor="middle" transform="translate(0,0) rotate(-90) translate(0,8)" font-family="sans-serif" font-size="10px" fill="#000" opacity="1">T10</text></g></g><path class="foreground" aria-hidden="true" d="" pointer-events="none" display="none"/></g></g></g><path class="foreground" aria-hidden="true" d="" display="none"/></g></g><g class="mark-group role-column-footer column_footer" role="graphics-object" aria-roledescription="group mark container"><g transform="translate(0,323)"><path class="background" aria-hidden="true" d="M0,0h400v0h-400Z"/><g><g class="mark-group role-axis" role="graphics-symbol" aria-roledescription="axis" aria-label="X-axis titled 'Retention Time (min)' for a linear scale with values from 0 to 80"><g transform="translate(0.5,0.5)"><path class="background" aria-hidden="true" d="M0,0h0v0h0Z" pointer-events="none"/><g><g class="mark-rule role-axis-tick" pointer-events="none"><line transform="translate(0,0)" x2="0" y2="5" stroke="#888" stroke-width="1" opacity="1"/><line transform="translate(50,0)" x2="0" y2="5" stroke="#888" stroke-width="1" opacity="1"/><line transform="translate(100,0)" x2="0" y2="5" stroke="#888" stroke-width="1" opacity="1"/><line transform="translate(150,0)" x2="0" y2="5" stroke="#888" stroke-width="1" opacity="1"/><line transform="translate(200,0)" x2="0" y2="5" stroke="#888" stroke-width="1" opacity="1"/><line transform="translate(250,0)" x2="0" y2="5" stroke="#888" stroke-width="1" opacity="1"/><line transform="translate(300,0)" x2="0" y2="5" stroke="#888" stroke-width="1" opacity="1"/><line transform="translate(350,0)" x2="0" y2="5" stroke="#888" stroke-width="1" opacity="1"/><line transform="translate(400,0)" x2="0" y2="5" stroke="#888" stroke-width="1" opacity="1"/></g><g class="mark-text role-axis-label" pointer-events="none"><text text-anchor="middle" transform="translate(0,18)" font-family="sans-serif" font-size="14px" font-weight="600" fill="#000" opacity="1">0</text><text text-anchor="middle" transform="translate(50,18)" font-family="sans-serif" font-size="14px" font-weight="600" fill="#000" opacity="1">10</text><text text-anchor="middle" transform="translate(100,18)" font-family="sans-serif" font-size="14px" font-weight="600" fill="#000" opacity="1">20</text><text text-anchor="middle" transform="translate(150,18)" font-family="sans-serif" font-size="14px" font-weight="600" fill="#000" opacity="1">30</text><text text-anchor="middle" transform="translate(200,18)" font-family="sans-serif" font-size="14px" font-weight="600" fill="#000" opacity="1">40</text><text text-anchor="middle" transform="translate(250,18)" font-family="sans-serif" font-size="14px" font-weight="600" fill="#000" opacity="1">50</text><text text-anchor="middle" transform="translate(300,18)" font-family="sans-serif" font-size="14px" font-weight="600" fill="#000" opacity="1">60</text><text text-anchor="middle" transform="translate(350,18)" font-family="sans-serif" font-size="14px" font-weight="600" fill="#000" opacity="1">70</text><text text-anchor="middle" transform="translate(400,18)" font-family="sans-serif" font-size="14px" font-weight="600" fill="#000" opacity="1">80</text></g><g class="mark-rule role-axis-domain" pointer-events="none"><line transform="translate(0,0)" x2="400" y2="0" stroke="#888" stroke-width="1" opacity="1"/></g><g class="mark-text role-axis-title" pointer-events="none"><text text-anchor="middle" transform="translate(200,34)" font-family="sans-serif" font-size="11px" font-weight="bold" fill="#000" opacity="1">Retention Time (min)</text></g></g><path class="foreground" aria-hidden="true" d="" pointer-events="none" display="none"/></g></g></g><path class="foreground" aria-hidden="true" d="" display="none"/></g></g><g class="mark-group role-scope cell" role="graphics-object" aria-roledescription="group mark container"><g transform="translate(0,0)"><path class="background" aria-hidden="true" d="M0.5,0.5h400v150h-400Z" stroke="#ddd"/><g><g class="mark-group role-axis" aria-hidden="true"><g transform="translate(0.5,150.5)"><path class="background" aria-hidden="true" d="M0,0h0v0h0Z" pointer-events="none"/><g><g class="mark-rule role-axis-grid" pointer-events="none"><line transform="translate(0,-150)" x2="0" y2="150" stroke="#ddd" stroke-width="1" opacity="1"/><line transform="translate(50,-150)" x2="0" y2="150" stroke="#ddd" stroke-width="1" opacity="1"/><line transform="translate(100,-150)" x2="0" y2="150" stroke="#ddd" stroke-width="1" opacity="1"/><line transform="translate(150,-150)" x2="0" y2="150" stroke="#ddd" stroke-width="1" opacity="1"/><line transform="translate(200,-150)" x2="0" y2="150" stroke="#ddd" stroke-width="1" opacity="1"/><line transform="translate(250,-150)" x2="0" y2="150" stroke="#ddd" stroke-width="1" opacity="1"/><line transform="translate(300,-150)" x2="0" y2="150" stroke="#ddd" stroke-width="1" opacity="1"/><line transform="translate(350,-150)" x2="0" y2="150" stroke="#ddd" stroke-width="1" opacity="1"/><line transform="translate(400,-150)" x2="0" y2="150" stroke="#ddd" stroke-width="1" opacity="1"/></g></g><path class="foreground" aria-hidden="true" d="" pointer-events="none" display="none"/></g></g><g class="mark-group role-axis" aria-hidden="true"><g transform="translate(0.5,0.5)"><path class="background" aria-hidden="true" d="M0,0h0v0h0Z" pointer-events="none"/><g><g class="mark-rule role-axis-grid" pointer-events="none"><line transform="translate(0,150)" x2="400" y2="0" stroke="#ddd" stroke-width="1" opacity="1"/><line transform="translate(0,117)" x2="400" y2="0" stroke="#ddd" stroke-width="1" opacity="1"/><line transform="translate(0,83)" x2="400" y2="0" stroke="#ddd" stroke-width="1" opacity="1"/><line transform="translate(0,50)" x2="400" y2="0" stroke="#ddd" stroke-width="1" opacity="1"/><line transform="translate(0,17)" x2="400" y2="0" stroke="#ddd" stroke-width="1" opacity="1"/></g></g><path class="foreground" aria-hidden="true" d="" pointer-events="none" display="none"/></g></g><g class="mark-group role-scope child_pathgroup" role="graphics-object" aria-roledescription="group mark container"><g transform="translate(0,0)"><path class="background" aria-hidden="true" d="M0,0h400v150h-400Z"/><g><g class="mark-area role-mark child_marks" role="graphics-object" aria-roledescription="area mark container"><path aria-label="column: PGC; Retention Time (min): 12.76485; density: 0.000155002118845" role="graphics-symbol" aria-roledescription="area mark" d="M63.82424999999999,149.48332627051693L67.08923999999999,149.39827545311698L70.35423,149.34359648103865L76.88421,149.28105513309552L80.1492,149.2201310485498L83.41419,149.10116669682836L85.04668500000001,149.01443016937077L86.67918,148.9088205000488L89.94417,148.6462780696106L103.00412999999999,147.41841584706646L106.26912,147.14712697551246L107.90161499999999,146.99620992061338L109.53411,146.8204074621752L112.7991,146.34199773189198L114.431595,146.01360526780667L116.06409,145.61107243710612L119.32908,144.5569513545803L120.961575,143.90138537556922L122.59407,143.16377118298954L125.85906,141.47103298632962L127.491555,140.53410122893104L129.12405,139.54925177143195L132.38904,137.46748250338328L135.65403,135.27743215032697L142.18401,130.77244411587532L145.449,128.59599834975398L148.71399,126.54751906857507L155.24397000000002,122.62977271936897L158.50896,120.44573949830819L160.141455,119.21646436391697L161.77395,117.87383437031556L163.40644500000002,116.40973928720481L165.03894000000003,114.82307083971229L168.30393,111.30652322662587L171.56892,107.40396460469512L174.83391,103.1939561794912L178.09890000000004,98.69733416131572L181.36389000000003,93.86335738040827L184.62887999999998,88.6034146123712L187.89387000000002,82.85111649888488L194.42385000000002,69.98237464406445L207.48381,41.88256285164789L214.01379,28.279863592727857L217.27878000000004,22.32666481061299L220.54377,17.297802748436613L223.80876,13.242662586594395L227.07375000000002,9.970059658685143L228.70624500000005,8.532547508236854L230.33874000000006,7.185172980804539L233.60373,4.728864166948349L236.86872,2.7407121750664842L240.13371,1.6019838139363474L241.76620500000007,1.477167217782538L243.39870000000005,1.6917427790428596L246.66369,3.1532420708816455L249.92868,5.855472101547276L253.19367000000003,9.552940011907973L254.82616500000006,11.715522293800602L256.45866000000007,14.072614146297862L259.72365,19.355662397027896L272.78361,45.01333179002638L285.84357,68.5718817826943L292.37355,79.94662056811403L295.63854,85.15054248515182L298.90353,89.80232301280344L311.96349000000004,106.40453332638592L318.49347000000006,115.78921655496988L320.12596500000006,117.9815090441625L321.75846000000007,120.0061993482758L325.02345,123.4135870601113L328.28844000000004,125.90346021514803L331.55343000000005,127.63203660351303L334.81842,128.91599203655392L338.08341,130.07260447003443L341.34839999999997,131.29587846477529L344.61339,132.62430415319855L351.14337,135.32242393788286L354.40836,136.57298063140098L357.67335,137.76126119432675L364.20333000000005,140.09904545637005L370.7333100000001,142.3995452671614L373.99830000000003,143.4296263169967L377.26329,144.30872324497616L380.52828000000005,145.02372455527467L383.79327000000006,145.6174859729586L387.05826,146.17387895565946L390.32325000000003,146.77104869209847L390.32325000000003,150L387.05826,150L383.79327000000006,150L380.52828000000005,150L377.26329,150L373.99830000000003,150L370.7333100000001,150L364.20333000000005,150L357.67335,150L354.40836,150L351.14337,150L344.61339,150L341.34839999999997,150L338.08341,150L334.81842,150L331.55343000000005,150L328.28844000000004,150L325.02345,150L321.75846000000007,150L320.12596500000006,150L318.49347000000006,150L311.96349000000004,150L298.90353,150L295.63854,150L292.37355,150L285.84357,150L272.78361,150L259.72365,150L256.45866000000007,150L254.82616500000006,150L253.19367000000003,150L249.92868,150L246.66369,150L243.39870000000005,150L241.76620500000007,150L240.13371,150L236.86872,150L233.60373,150L230.33874000000006,150L228.70624500000005,150L227.07375000000002,150L223.80876,150L220.54377,150L217.27878000000004,150L214.01379,150L207.48381,150L194.42385000000002,150L187.89387000000002,150L184.62887999999998,150L181.36389000000003,150L178.09890000000004,150L174.83391,150L171.56892,150L168.30393,150L165.03894000000003,150L163.40644500000002,150L161.77395,150L160.141455,150L158.50896,150L155.24397000000002,150L148.71399,150L145.449,150L142.18401,150L135.65403,150L132.38904,150L129.12405,150L127.491555,150L125.85906,150L122.59407,150L120.961575,150L119.32908,150L116.06409,150L114.431595,150L112.7991,150L109.53411,150L107.90161499999999,150L106.26912,150L103.00412999999999,150L89.94417,150L86.67918,150L85.04668500000001,150L83.41419,150L80.1492,150L76.88421,150L70.35423,150L67.08923999999999,150L63.82424999999999,150Z" fill="#D56E3B" opacity="0.6"/></g></g><path class="foreground" aria-hidden="true" d="" display="none"/></g><g transform="translate(0,0)"><path class="background" aria-hidden="true" d="M0,0h400v150h-400Z"/><g><g class="mark-area role-mark child_marks" role="graphics-object" aria-roledescription="area mark container"><path aria-label="column: RPLC; Retention Time (min): 2.89049; density: 0.000120857528051" role="graphics-symbol" aria-roledescription="area mark" d="M14.45245,149.59714157316472L22.052906,149.39761035459694L25.853134000000004,149.24012630422897L29.653362000000005,148.99371543096143L33.45359,148.60220717598074L35.35370400000001,148.3293038843345L37.253818,147.98984086638424L41.054046000000014,147.0557290017967L42.954160000000016,146.42958353569375L44.854274000000004,145.67493276671988L48.65450200000001,143.71626186175055L50.55461600000001,142.48726586657068L52.454730000000005,141.0838276247677L56.254958,137.77875816949444L60.055186000000006,133.96107573618244L63.855413999999996,129.97751668274225L65.75552800000001,128.07479139866095L67.655642,126.32163945560285L69.555756,124.78330659632621L71.45587,123.51652684917497L75.25609800000001,121.951613742294L77.15621200000001,121.6827692479373L79.05632600000001,121.74056785324385L82.85655400000002,122.66973890174332L84.75666800000002,123.42048945044975L86.65678200000002,124.2671916456815L90.45701000000001,125.96104698986869L94.257238,127.25125997888144L98.057466,127.81968921565144L99.95758000000002,127.78925488691753L101.85769400000002,127.54636607106022L105.65792200000001,126.45361481459412L109.45815,124.62894863031552L111.35826400000002,123.47300730117004L113.25837800000002,122.17006715129875L117.05860600000003,119.1666572326888L120.85883400000002,115.70946388717131L136.05974600000002,100.04619699614594L139.85997400000002,96.52828559115284L143.660202,93.41204325808705L151.260658,87.98649737556491L153.160772,86.60837884161991L155.060886,85.13279220282813L158.86111400000001,81.71437918076201L162.66134200000005,77.46192721569393L166.46157000000002,72.30235668704059L181.662482,48.10858056756502L185.46271000000004,43.00431545619365L189.26293800000002,38.64012254933787L193.06316600000002,34.94697492468594L196.86339400000003,31.809509033113265L200.66362199999998,29.15919782403365L202.563736,28.02713558040128L204.46385000000004,27.048012256926246L208.26407800000007,25.672448015393268L212.06430600000004,25.326409365186763L215.86453400000005,26.294334805528962L219.66476200000002,28.735219979969408L223.46499,32.61670581109157L225.36510400000003,35.03632373153466L227.26521800000006,37.724869323222244L242.46613000000002,63.65947657030087L250.06658600000003,76.18638884487252L257.66704200000004,87.3579090266276L261.4672700000001,92.39712588174206L265.26749800000005,97.02959251154829L269.067726,101.25147345124866L272.86795400000005,105.13317286371195L288.068866,119.66074561365964L291.869094,122.96860639305956L295.669322,125.81413555612525L299.46955,128.093801207324L301.36966400000006,129.0277591311719L303.26977800000003,129.8431813219334L307.0700060000001,131.19637150025616L310.8702340000001,132.29786373094726L314.67046200000004,133.22697021720552L318.47069000000005,133.97705324699982L320.3708040000001,134.2675744273535L322.27091800000005,134.49166333122585L326.07114600000006,134.72543840349144L327.9712600000001,134.73745298127758L329.871374,134.687723613713L333.671602,134.4441527354116L335.57171600000004,134.27314962789274L337.47183,134.08357607151143L341.27205799999996,133.68242593319945L345.072286,133.2971943162918L346.97240000000005,133.1284917205464L348.8725140000001,132.9889293983881L352.672742,132.85358544948465L354.57285600000006,132.89170965002205L356.4729700000001,133.02417881621943L358.3730840000001,133.26693910883395L360.27319800000004,133.63194610964212L364.0734260000001,134.7467160287215L365.9735400000001,135.4880045421852L367.87365400000004,136.33479786594754L371.67388200000005,138.2618071107158L379.274338,142.3745665507821L381.17445200000003,143.33172062808634L383.074566,144.23029345389781L386.874794,145.81993128534037L388.77490800000004,146.50254893264108L390.67502200000007,147.10876309978667L392.5751360000001,147.63978900987502L394.4752500000001,148.0983933606896L394.4752500000001,150L392.5751360000001,150L390.67502200000007,150L388.77490800000004,150L386.874794,150L383.074566,150L381.17445200000003,150L379.274338,150L371.67388200000005,150L367.87365400000004,150L365.9735400000001,150L364.0734260000001,150L360.27319800000004,150L358.3730840000001,150L356.4729700000001,150L354.57285600000006,150L352.672742,150L348.8725140000001,150L346.97240000000005,150L345.072286,150L341.27205799999996,150L337.47183,150L335.57171600000004,150L333.671602,150L329.871374,150L327.9712600000001,150L326.07114600000006,150L322.27091800000005,150L320.3708040000001,150L318.47069000000005,150L314.67046200000004,150L310.8702340000001,150L307.0700060000001,150L303.26977800000003,150L301.36966400000006,150L299.46955,150L295.669322,150L291.869094,150L288.068866,150L272.86795400000005,150L269.067726,150L265.26749800000005,150L261.4672700000001,150L257.66704200000004,150L250.06658600000003,150L242.46613000000002,150L227.26521800000006,150L225.36510400000003,150L223.46499,150L219.66476200000002,150L215.86453400000005,150L212.06430600000004,150L208.26407800000007,150L204.46385000000004,150L202.563736,150L200.66362199999998,150L196.86339400000003,150L193.06316600000002,150L189.26293800000002,150L185.46271000000004,150L181.662482,150L166.46157000000002,150L162.66134200000005,150L158.86111400000001,150L155.060886,150L153.160772,150L151.260658,150L143.660202,150L139.85997400000002,150L136.05974600000002,150L120.85883400000002,150L117.05860600000003,150L113.25837800000002,150L111.35826400000002,150L109.45815,150L105.65792200000001,150L101.85769400000002,150L99.95758000000002,150L98.057466,150L94.257238,150L90.45701000000001,150L86.65678200000002,150L84.75666800000002,150L82.85655400000002,150L79.05632600000001,150L77.15621200000001,150L75.25609800000001,150L71.45587,150L69.555756,150L67.655642,150L65.75552800000001,150L63.855413999999996,150L60.055186000000006,150L56.254958,150L52.454730000000005,150L50.55461600000001,150L48.65450200000001,150L44.854274000000004,150L42.954160000000016,150L41.054046000000014,150L37.253818,150L35.35370400000001,150L33.45359,150L29.653362000000005,150L25.853134000000004,150L22.052906,150L14.45245,150Z" fill="#58728C" opacity="0.6"/></g></g><path class="foreground" aria-hidden="true" d="" display="none"/></g></g></g><path class="foreground" aria-hidden="true" d="" display="none"/></g><g transform="translate(0,172)"><path class="background" aria-hidden="true" d="M0.5,0.5h400v150h-400Z" stroke="#ddd"/><g><g class="mark-group role-axis" aria-hidden="true"><g transform="translate(0.5,150.5)"><path class="background" aria-hidden="true" d="M0,0h0v0h0Z" pointer-events="none"/><g><g class="mark-rule role-axis-grid" pointer-events="none"><line transform="translate(0,-150)" x2="0" y2="150" stroke="#ddd" stroke-width="1" opacity="1"/><line transform="translate(50,-150)" x2="0" y2="150" stroke="#ddd" stroke-width="1" opacity="1"/><line transform="translate(100,-150)" x2="0" y2="150" stroke="#ddd" stroke-width="1" opacity="1"/><line transform="translate(150,-150)" x2="0" y2="150" stroke="#ddd" stroke-width="1" opacity="1"/><line transform="translate(200,-150)" x2="0" y2="150" stroke="#ddd" stroke-width="1" opacity="1"/><line transform="translate(250,-150)" x2="0" y2="150" stroke="#ddd" stroke-width="1" opacity="1"/><line transform="translate(300,-150)" x2="0" y2="150" stroke="#ddd" stroke-width="1" opacity="1"/><line transform="translate(350,-150)" x2="0" y2="150" stroke="#ddd" stroke-width="1" opacity="1"/><line transform="translate(400,-150)" x2="0" y2="150" stroke="#ddd" stroke-width="1" opacity="1"/></g></g><path class="foreground" aria-hidden="true" d="" pointer-events="none" display="none"/></g></g><g class="mark-group role-axis" aria-hidden="true"><g transform="translate(0.5,0.5)"><path class="background" aria-hidden="true" d="M0,0h0v0h0Z" pointer-events="none"/><g><g class="mark-rule role-axis-grid" pointer-events="none"><line transform="translate(0,150)" x2="400" y2="0" stroke="#ddd" stroke-width="1" opacity="1"/><line transform="translate(0,117)" x2="400" y2="0" stroke="#ddd" stroke-width="1" opacity="1"/><line transform="translate(0,83)" x2="400" y2="0" stroke="#ddd" stroke-width="1" opacity="1"/><line transform="translate(0,50)" x2="400" y2="0" stroke="#ddd" stroke-width="1" opacity="1"/><line transform="translate(0,17)" x2="400" y2="0" stroke="#ddd" stroke-width="1" opacity="1"/></g></g><path class="foreground" aria-hidden="true" d="" pointer-events="none" display="none"/></g></g><g class="mark-group role-scope child_pathgroup" role="graphics-object" aria-roledescription="group mark container"><g transform="translate(0,0)"><path class="background" aria-hidden="true" d="M0,0h400v150h-400Z"/><g><g class="mark-area role-mark child_marks" role="graphics-object" aria-roledescription="area mark container"><path aria-label="column: PGC; Retention Time (min): 13.37815; density: 0.000156049263984" role="graphics-symbol" aria-roledescription="area mark" d="M66.89075,149.4798357867203L73.37272499999999,149.33141026513226L79.8547,149.2418680666384L83.0956875,149.16643886770723L86.336675,149.03767668040294L87.95716875000001,148.94893509835282L89.57766249999999,148.84369174558017L92.81865,148.58951768596222L105.78259999999999,147.37942563171552L107.40309375000001,147.2163545718008L109.0235875,147.0362533075123L112.264575,146.58513200665797L113.88506875000002,146.29160048506506L115.5055625,145.93733390480642L117.12605625,145.5115747654708L118.74655000000001,145.00514130216038L120.36704375000001,144.41116646546737L121.98753750000002,143.7257454776788L125.22852500000002,142.08254155264484L126.84901875000001,141.1351746402719L128.4695125,140.11700796562678L130.09000625,139.04178494947317L131.71050000000002,137.92557785504343L138.192475,133.3982172867013L139.81296875,132.32820070098103L141.4334625,131.30367139283643L144.67444999999998,129.39446317476924L151.15642499999998,125.83009640985384L152.77691875000002,124.87076178169676L154.3974125,123.83301474488802L156.01790625,122.6935970088759L157.63840000000002,121.43404017191676L160.8793875,118.5138399468788L162.49988125000002,116.85159475969672L164.120375,115.06552613927234L167.3613625,111.18732960439753L170.60235,107.03061824828293L177.084325,98.30460605707148L180.3253125,93.68766732849532L183.56629999999998,88.70074054705337L186.8072875,83.17682096885227L190.04827499999996,77.06539504625376L196.53025,63.73169901796754L209.4942,38.47114112368334L215.97617499999998,26.438103472156715L219.21716249999997,20.702306353567312L222.45815000000002,15.50514483149179L224.07864375000003,13.174504731500686L225.6991375,11.037588177277064L228.940125,7.337918252542175L232.18111249999998,4.3785230568596125L233.80160625000005,3.191130407673881L235.4221,2.2297620787324335L238.66308750000002,1.1420909618656272L241.90407499999998,1.442835415839211L243.52456875000001,2.1798225522331958L245.14506250000002,3.304099759857304L248.38605,6.564659757754049L251.6270375,10.763039325837271L254.868025,15.374627827536575L261.34999999999997,24.87912738496268L264.5909875,29.966290830220093L267.831975,35.52193074084014L274.31395,47.87417190411361L280.79592499999995,60.47357175239741L287.2779,72.05237912541105L290.5188875,77.32444604770481L293.759875,82.23073055196271L300.24185,91.10952819544202L306.723825,99.57824274708734L313.20579999999995,108.6142981159529L316.4467875,113.21990776633879L319.687775,117.54648294971759L321.30826875,119.50657952827787L322.92876250000006,121.28724009599989L326.16975,124.23989041193614L327.79024375000006,125.40970617592868L329.41073750000004,126.39564661617345L331.03123125,127.22650588712582L332.65172500000006,127.93757017057797L335.8927125,129.14758766008603L339.1337,130.27712736782723L352.09765,135.06329340844707L358.579625,137.23125253195232L361.82061250000004,138.3452735205892L365.06160000000006,139.52622918770032L371.54357500000003,141.97656876509254L374.7845625,143.10439556100883L376.40505625000003,143.61163592035393L378.02555,144.07461600723943L379.64604375,144.49340557784316L381.2665375,144.87230497990313L384.507525,145.54491100095274L390.9895,146.83516539769934L390.9895,150L384.507525,150L381.2665375,150L379.64604375,150L378.02555,150L376.40505625000003,150L374.7845625,150L371.54357500000003,150L365.06160000000006,150L361.82061250000004,150L358.579625,150L352.09765,150L339.1337,150L335.8927125,150L332.65172500000006,150L331.03123125,150L329.41073750000004,150L327.79024375000006,150L326.16975,150L322.92876250000006,150L321.30826875,150L319.687775,150L316.4467875,150L313.20579999999995,150L306.723825,150L300.24185,150L293.759875,150L290.5188875,150L287.2779,150L280.79592499999995,150L274.31395,150L267.831975,150L264.5909875,150L261.34999999999997,150L254.868025,150L251.6270375,150L248.38605,150L245.14506250000002,150L243.52456875000001,150L241.90407499999998,150L238.66308750000002,150L235.4221,150L233.80160625000005,150L232.18111249999998,150L228.940125,150L225.6991375,150L224.07864375000003,150L222.45815000000002,150L219.21716249999997,150L215.97617499999998,150L209.4942,150L196.53025,150L190.04827499999996,150L186.8072875,150L183.56629999999998,150L180.3253125,150L177.084325,150L170.60235,150L167.3613625,150L164.120375,150L162.49988125000002,150L160.8793875,150L157.63840000000002,150L156.01790625,150L154.3974125,150L152.77691875000002,150L151.15642499999998,150L144.67444999999998,150L141.4334625,150L139.81296875,150L138.192475,150L131.71050000000002,150L130.09000625,150L128.4695125,150L126.84901875000001,150L125.22852500000002,150L121.98753750000002,150L120.36704375000001,150L118.74655000000001,150L117.12605625,150L115.5055625,150L113.88506875000002,150L112.264575,150L109.0235875,150L107.40309375000001,150L105.78259999999999,150L92.81865,150L89.57766249999999,150L87.95716875000001,150L86.336675,150L83.0956875,150L79.8547,150L73.37272499999999,150L66.89075,150Z" fill="#D56E3B" opacity="0.6"/></g></g><path class="foreground" aria-hidden="true" d="" display="none"/></g><g transform="translate(0,0)"><path class="background" aria-hidden="true" d="M0,0h400v150h-400Z"/><g><g class="mark-area role-mark child_marks" role="graphics-object" aria-roledescription="area mark container"><path aria-label="column: RPLC; Retention Time (min): 5.9139; density: 0.00027254359487" role="graphics-symbol" aria-roledescription="area mark" d="M29.569499999999998,149.09152135043269L31.39425333333333,148.86793278630623L33.219006666666665,148.59520632821534L36.86851333333333,147.86369031070197L38.69326666666667,147.38267197134087L40.51802000000001,146.8083591202567L44.16752666666667,145.32770821592473L45.99228,144.39650939188738L47.81703333333333,143.32438243511862L49.64178666666667,142.10527865002658L51.466539999999995,140.73842253191648L53.291293333333336,139.2299457543572L55.116046666666676,137.59433174024247L58.76555333333333,134.04676754156984L62.41505999999999,130.39842223499522L64.23981333333333,128.66414810179296L66.06456666666666,127.0648742484288L67.88932,125.65467943442576L69.71407333333333,124.48076154034058L73.36358,122.97265029508469L75.18833333333333,122.66611366034684L77.01308666666667,122.64814836189409L78.83783999999999,122.89053821080394L80.66259333333333,123.3506019007279L82.48734666666667,123.9744859115723L84.3121,124.701275779819L87.96160666666665,126.21145069136736L91.61111333333332,127.41783808362274L93.43586666666667,127.79698007282305L95.26061999999999,127.99033556784714L98.91012666666667,127.77981879656723L100.73488000000002,127.38093697410291L102.55963333333334,126.8022871883854L106.20913999999999,125.17962272125729L109.85864666666667,123.06786219934331L111.6834,121.8721212208411L113.50815333333333,120.60049259060057L117.15765999999999,117.86174099014116L120.80716666666666,114.89006828849574L124.45667333333333,111.7011239054623L131.75568666666666,104.77929541055443L139.0547,97.58532729895705L146.3537133333333,90.8029016322436L153.65272666666664,84.42086138382743L157.30223333333333,81.03967917336537L159.12698666666668,79.21631101496025L160.95174,77.2767173970269L164.60124666666664,73.00059892882669L168.25075333333334,68.1929486320349L175.5497666666667,57.52592931790519L182.84878,47.01602647228977L186.49828666666664,42.33922218195529L190.14779333333334,38.18546306494088L193.7973,34.57279894826129L197.44680666666667,31.48666656068838L201.0963133333333,28.923258792754407L204.74581999999998,26.93693064856828L208.39532666666662,25.673320563014908L210.22008,25.382364318025196L212.04483333333332,25.362189836495077L215.69434000000004,26.257373369383895L219.34384666666665,28.542088533553507L222.9933533333333,32.24298240252367L224.81810666666667,34.58014681926581L226.64286,37.19593469102077L230.2923666666667,43.08093631914608L233.94187333333335,49.508866160991374L248.53990000000002,74.94609690587173L255.83891333333332,85.9788957581221L259.48842,90.97436854514814L263.13792666666666,95.59612259993354L266.7874333333333,99.84930865738893L270.43694,103.78048597758998L277.7359533333333,111.0190854863365L285.0349666666666,117.79270508550844L288.68447333333324,120.89369635202833L290.5092266666666,122.31747307015854L292.33398,123.63586750562962L295.9834866666667,125.91992638791967L299.63299333333333,127.73720310013067L303.28249999999997,129.1794418111857L305.10725333333335,129.80604116860914L306.93200666666667,130.39492073349783L310.58151333333336,131.51471451665097L314.23102,132.59042402526896L316.0557733333333,133.1007723275137L317.8805266666667,133.57692668985572L321.5300333333334,134.36664632638048L323.35478666666677,134.6526477989249L325.17954000000003,134.8531374206408L328.8290466666667,134.9882214140619L330.65380000000005,134.93131697320976L332.47855333333337,134.80467270015302L336.12805999999995,134.39902721283903L343.4270733333334,133.39471232786426L347.07658000000004,132.99672084576346L348.90133333333335,132.86002357913364L350.7260866666667,132.77853286521616L354.3755933333333,132.82542772608053L356.2003466666667,132.97609682427918L358.02509999999995,133.2248344018798L359.84985333333333,133.57870496681508L361.6746066666667,134.04113536170917L365.32411333333334,135.28268561662694L367.1488666666667,136.04534996409217L368.97362,136.88448139765146L372.6231266666667,138.72035094596376L379.92213999999996,142.50058763318418L381.74689333333333,143.37706359003937L383.57164666666665,144.20459181739318L385.39639999999997,144.97674098707475L387.22115333333335,145.68909810327804L390.87066,146.92495948297469L392.69541333333336,147.44710041437565L394.5201666666667,147.90642739058114L394.5201666666667,150L392.69541333333336,150L390.87066,150L387.22115333333335,150L385.39639999999997,150L383.57164666666665,150L381.74689333333333,150L379.92213999999996,150L372.6231266666667,150L368.97362,150L367.1488666666667,150L365.32411333333334,150L361.6746066666667,150L359.84985333333333,150L358.02509999999995,150L356.2003466666667,150L354.3755933333333,150L350.7260866666667,150L348.90133333333335,150L347.07658000000004,150L343.4270733333334,150L336.12805999999995,150L332.47855333333337,150L330.65380000000005,150L328.8290466666667,150L325.17954000000003,150L323.35478666666677,150L321.5300333333334,150L317.8805266666667,150L316.0557733333333,150L314.23102,150L310.58151333333336,150L306.93200666666667,150L305.10725333333335,150L303.28249999999997,150L299.63299333333333,150L295.9834866666667,150L292.33398,150L290.5092266666666,150L288.68447333333324,150L285.0349666666666,150L277.7359533333333,150L270.43694,150L266.7874333333333,150L263.13792666666666,150L259.48842,150L255.83891333333332,150L248.53990000000002,150L233.94187333333335,150L230.2923666666667,150L226.64286,150L224.81810666666667,150L222.9933533333333,150L219.34384666666665,150L215.69434000000004,150L212.04483333333332,150L210.22008,150L208.39532666666662,150L204.74581999999998,150L201.0963133333333,150L197.44680666666667,150L193.7973,150L190.14779333333334,150L186.49828666666664,150L182.84878,150L175.5497666666667,150L168.25075333333334,150L164.60124666666664,150L160.95174,150L159.12698666666668,150L157.30223333333333,150L153.65272666666664,150L146.3537133333333,150L139.0547,150L131.75568666666666,150L124.45667333333333,150L120.80716666666666,150L117.15765999999999,150L113.50815333333333,150L111.6834,150L109.85864666666667,150L106.20913999999999,150L102.55963333333334,150L100.73488000000002,150L98.91012666666667,150L95.26061999999999,150L93.43586666666667,150L91.61111333333332,150L87.96160666666665,150L84.3121,150L82.48734666666667,150L80.66259333333333,150L78.83783999999999,150L77.01308666666667,150L75.18833333333333,150L73.36358,150L69.71407333333333,150L67.88932,150L66.06456666666666,150L64.23981333333333,150L62.41505999999999,150L58.76555333333333,150L55.116046666666676,150L53.291293333333336,150L51.466539999999995,150L49.64178666666667,150L47.81703333333333,150L45.99228,150L44.16752666666667,150L40.51802000000001,150L38.69326666666667,150L36.86851333333333,150L33.219006666666665,150L31.39425333333333,150L29.569499999999998,150Z" fill="#58728C" opacity="0.6"/></g></g><path class="foreground" aria-hidden="true" d="" display="none"/></g></g></g><path class="foreground" aria-hidden="true" d="" display="none"/></g></g><g class="mark-group role-legend" role="graphics-symbol" aria-roledescription="legend" aria-label="Symbol legend titled 'column' for fill color with 2 values: PGC, RPLC"><g transform="translate(426,0)"><path class="background" aria-hidden="true" d="M0,0h43v40h-43Z" pointer-events="none"/><g><g class="mark-group role-legend-entry"><g transform="translate(0,16)"><path class="background" aria-hidden="true" d="M0,0h0v0h0Z" pointer-events="none"/><g><g class="mark-group role-scope" role="graphics-object" aria-roledescription="group mark container"><g transform="translate(0,0)"><path class="background" aria-hidden="true" d="M0,0h42.6748046875v11h-42.6748046875Z" pointer-events="none" opacity="1"/><g><g class="mark-symbol role-legend-symbol" pointer-events="none"><path transform="translate(6,6)" d="M5,0A5,5,0,1,1,-5,0A5,5,0,1,1,5,0" fill="#D56E3B" stroke-width="1.5" opacity="0.6"/></g><g class="mark-text role-legend-label" pointer-events="none"><text text-anchor="start" transform="translate(16,9)" font-family="sans-serif" font-size="10px" fill="#000" opacity="1">PGC</text></g></g><path class="foreground" aria-hidden="true" d="" pointer-events="none" display="none"/></g><g transform="translate(0,13)"><path class="background" aria-hidden="true" d="M0,0h42.6748046875v11h-42.6748046875Z" pointer-events="none" opacity="1"/><g><g class="mark-symbol role-legend-symbol" pointer-events="none"><path transform="translate(6,6)" d="M5,0A5,5,0,1,1,-5,0A5,5,0,1,1,5,0" fill="#58728C" stroke-width="1.5" opacity="0.6"/></g><g class="mark-text role-legend-label" pointer-events="none"><text text-anchor="start" transform="translate(16,9)" font-family="sans-serif" font-size="10px" fill="#000" opacity="1">RPLC</text></g></g><path class="foreground" aria-hidden="true" d="" pointer-events="none" display="none"/></g></g></g><path class="foreground" aria-hidden="true" d="" pointer-events="none" display="none"/></g></g><g class="mark-text role-legend-title" pointer-events="none"><text text-anchor="start" transform="translate(0,9)" font-family="sans-serif" font-size="11px" font-weight="bold" fill="#000" opacity="1">column</text></g></g><path class="foreground" aria-hidden="true" d="" pointer-events="none" display="none"/></g></g></g><path class="foreground" aria-hidden="true" d="" display="none"/></g></g></g></svg>