<svg xmlns="http://www.w3.org/2000/svg" xmlns:xlink="http://www.w3.org/1999/xlink" version="1.1" class="marks" width="445" height="332" viewBox="0 0 445 332"><rect width="445" height="332" fill="white"/><g fill="none" stroke-miterlimit="10" transform="translate(107,6)"><g class="mark-group role-frame root" role="graphics-object" aria-roledescription="group mark container"><g transform="translate(0,0)"><path class="background" aria-hidden="true" d="M0,0h0v0h0Z"/><g><g class="mark-group role-row-title row-title" role="graphics-object" aria-roledescription="group mark container"><g transform="translate(-81,142)"><path class="background" aria-hidden="true" d="M0,0h0v0h0Z"/><g><g class="mark-group role-title"><g transform="translate(-21.000000000000004,0)"><path class="background" aria-hidden="true" d="M0,0h0v0h0Z" pointer-events="none"/><g><g class="mark-text role-title-text" role="graphics-symbol" aria-roledescription="title" aria-label="Title text 'sample'" pointer-events="none"><text text-anchor="middle" transform="translate(0,0) rotate(-90) translate(0,9)" font-family="sans-serif" font-size="11px" font-weight="bold" fill="#000" opacity="1">sample</text></g></g><path class="foreground" aria-hidden="true" d="" pointer-events="none" display="none"/></g></g></g><path class="foreground" aria-hidden="true" d="" display="none"/></g></g><g class="mark-group role-row-header row_header" role="graphics-object" aria-roledescription="group mark container"><g transform="translate(-1,0)"><path class="background" aria-hidden="true" d="M0,0h0v131h0Z"/><g><g class="mark-group role-axis" role="graphics-symbol" aria-roledescription="axis" aria-label="Y-axis titled 'density' for a linear scale with values from 0.00 to 0.04"><g transform="translate(0.5,0.5)"><path class="background" aria-hidden="true" d="M0,0h0v0h0Z" pointer-events="none"/><g><g class="mark-rule role-axis-tick" pointer-events="none"><line transform="translate(0,131)" x2="-5" y2="0" stroke="#888" stroke-width="1" opacity="1"/><line transform="translate(0,102)" x2="-5" y2="0" stroke="#888" stroke-width="1" opacity="1"/><line transform="translate(0,73)" x2="-5" y2="0" stroke="#888" stroke-width="1" opacity="1"/><line transform="translate(0,44)" x2="-5" y2="0" stroke="#888" stroke-width="1" opacity="1"/><line transform="translate(0,15)" x2="-5" y2="0" stroke="#888" stroke-width="1" opacity="1"/></g><g class="mark-text role-axis-label" pointer-events="none"><text text-anchor="end" transform="translate(-7,135)" font-family="sans-serif" font-size="14px" font-weight="600" fill="#000" opacity="1">0.00</text><text text-anchor="end" transform="translate(-7,105.88888888888889)" font-family="sans-serif" font-size="14px" font-weight="600" fill="#000" opacity="1">0.01</text><text text-anchor="end" transform="translate(-7,76.77777777777779)" font-family="sans-serif" font-size="14px" font-weight="600" fill="#000" opacity="1">0.02</text><text text-anchor="end" transform="translate(-7,47.66666666666667)" font-family="sans-serif" font-size="14px" font-weight="600" fill="#000" opacity="1">0.03</text><text text-anchor="end" transform="translate(-7,18.55555555555555)" font-family="sans-serif" font-size="14px" font-weight="600" fill="#000" opacity="1">0.04</text></g><g class="mark-rule role-axis-domain" pointer-events="none"><line transform="translate(0,131)" x2="0" y2="-131" stroke="#888" stroke-width="1" opacity="1"/></g><g class="mark-text role-axis-title" pointer-events="none"><text text-anchor="middle" transform="translate(-38.248046875,65.5) rotate(-90) translate(0,-2)" font-family="sans-serif" font-size="11px" font-weight="bold" fill="#000" opacity="1">density</text></g></g><path class="foreground" aria-hidden="true" d="" pointer-events="none" display="none"/></g></g><g class="mark-group role-title"><g transform="translate(-69.248046875,65.5)"><path class="background" aria-hidden="true" d="M0,0h0v0h0Z" pointer-events="none"/><g><g class="mark-text role-title-text" role="graphics-symbol" aria-roledescription="title" aria-label="Title text 'MT10'" pointer-events="none"><text text-anchor="middle" transform="translate(0,0) rotate(-90) translate(0,8)" font-family="sans-serif" font-size="10px" fill="#000" opacity="1">MT10</text></g></g><path class="foreground" aria-hidden="true" d="" pointer-events="none" display="none"/></g></g></g><path class="foreground" aria-hidden="true" d="" display="none"/></g><g transform="translate(-1,153)"><path class="background" aria-hidden="true" d="M0,0h0v131h0Z"/><g><g class="mark-group role-axis" role="graphics-symbol" aria-roledescription="axis" aria-label="Y-axis titled 'density' for a linear scale with values from 0.00 to 0.04"><g transform="translate(0.5,0.5)"><path class="background" aria-hidden="true" d="M0,0h0v0h0Z" pointer-events="none"/><g><g class="mark-rule role-axis-tick" pointer-events="none"><line transform="translate(0,131)" x2="-5" y2="0" stroke="#888" stroke-width="1" opacity="1"/><line transform="translate(0,102)" x2="-5" y2="0" stroke="#888" stroke-width="1" opacity="1"/><line transform="translate(0,73)" x2="-5" y2="0" stroke="#888" stroke-width="1" opacity="1"/><line transform="translate(0,44)" x2="-5" y2="0" stroke="#888" stroke-width="1" opacity="1"/><line transform="translate(0,15)" x2="-5" y2="0" stroke="#888" stroke-width="1" opacity="1"/></g><g class="mark-text role-axis-label" pointer-events="none"><text text-anchor="end" transform="translate(-7,135)" font-family="sans-serif" font-size="14px" font-weight="600" fill="#000" opacity="1">0.00</text><text text-anchor="end" transform="translate(-7,105.88888888888889)" font-family="sans-serif" font-size="14px" font-weight="600" fill="#000" opacity="1">0.01</text><text text-anchor="end" transform="translate(-7,76.77777777777779)" font-family="sans-serif" font-size="14px" font-weight="600" fill="#000" opacity="1">0.02</text><text text-anchor="end" transform="translate(-7,47.66666666666667)" font-family="sans-serif" font-size="14px" font-weight="600" fill="#000" opacity="1">0.03</text><text text-anchor="end" transform="translate(-7,18.55555555555555)" font-family="sans-serif" font-size="14px" font-weight="600" fill="#000" opacity="1">0.04</text></g><g class="mark-rule role-axis-domain" pointer-events="none"><line transform="translate(0,131)" x2="0" y2="-131" stroke="#888" stroke-width="1" opacity="1"/></g><g class="mark-text role-axis-title" pointer-events="none"><text text-anchor="middle" transform="translate(-38.248046875,65.5) rotate(-90) translate(0,-2)" font-family="sans-serif" font-size="11px" font-weight="bold" fill="#000" opacity="1">density</text></g></g><path class="foreground" aria-hidden="true" d="" pointer-events="none" display="none"/></g></g><g class="mark-group role-title"><g transform="translate(-69.248046875,65.5)"><path class="background" aria-hidden="true" d="M0,0h0v0h0Z" pointer-events="none"/><g><g class="mark-text role-title-text" role="graphics-symbol" aria-roledescription="title" aria-label="Title text 'T10'" pointer-events="none"><text text-anchor="middle" transform="translate(0,0) rotate(-90) translate(0,8)" font-family="sans-serif" font-size="10px" fill="#000" opacity="1">T10</text></g></g><path class="foreground" aria-hidden="true" d="" pointer-events="none" display="none"/></g></g></g><path class="foreground" aria-hidden="true" d="" display="none"/></g></g><g class="mark-group role-column-footer column_footer" role="graphics-object" aria-roledescription="group mark container"><g transform="translate(0,285)"><path class="background" aria-hidden="true" d="M0,0h260v0h-260Z"/><g><g class="mark-group role-axis" role="graphics-symbol" aria-roledescription="axis" aria-label="X-axis titled 'Retention Time (min)' for a linear scale with values from 0 to 100"><g transform="translate(0.5,0.5)"><path class="background" aria-hidden="true" d="M0,0h0v0h0Z" pointer-events="none"/><g><g class="mark-rule role-axis-tick" pointer-events="none"><line transform="translate(0,0)" x2="0" y2="5" stroke="#888" stroke-width="1" opacity="1"/><line transform="translate(52,0)" x2="0" y2="5" stroke="#888" stroke-width="1" opacity="1"/><line transform="translate(104,0)" x2="0" y2="5" stroke="#888" stroke-width="1" opacity="1"/><line transform="translate(156,0)" x2="0" y2="5" stroke="#888" stroke-width="1" opacity="1"/><line transform="translate(208,0)" x2="0" y2="5" stroke="#888" stroke-width="1" opacity="1"/><line transform="translate(260,0)" x2="0" y2="5" stroke="#888" stroke-width="1" opacity="1"/></g><g class="mark-text role-axis-label" pointer-events="none"><text text-anchor="middle" transform="translate(0,18)" font-family="sans-serif" font-size="14px" font-weight="600" fill="#000" opacity="1">0</text><text text-anchor="middle" transform="translate(52,18)" font-family="sans-serif" font-size="14px" font-weight="600" fill="#000" opacity="1">20</text><text text-anchor="middle" transform="translate(104,18)" font-family="sans-serif" font-size="14px" font-weight="600" fill="#000" opacity="1">40</text><text text-anchor="middle" transform="translate(156,18)" font-family="sans-serif" font-size="14px" font-weight="600" fill="#000" opacity="1">60</text><text text-anchor="middle" transform="translate(208,18)" font-family="sans-serif" font-size="14px" font-weight="600" fill="#000" opacity="1">80</text><text text-anchor="middle" transform="translate(260,18)" font-family="sans-serif" font-size="14px" font-weight="600" fill="#000" opacity="1">100</text></g><g class="mark-rule role-axis-domain" pointer-events="none"><line transform="translate(0,0)" x2="260" y2="0" stroke="#888" stroke-width="1" opacity="1"/></g><g class="mark-text role-axis-title" pointer-events="none"><text text-anchor="middle" transform="translate(130,34)" font-family="sans-serif" font-size="11px" font-weight="bold" fill="#000" opacity="1">Retention Time (min)</text></g></g><path class="foreground" aria-hidden="true" d="" pointer-events="none" display="none"/></g></g></g><path class="foreground" aria-hidden="true" d="" display="none"/></g></g><g class="mark-group role-scope cell" role="graphics-object" aria-roledescription="group mark container"><g transform="translate(0,0)"><path class="background" aria-hidden="true" d="M0.5,0.5h260v131h-260Z" stroke="#ddd"/><g><g class="mark-group role-axis" aria-hidden="true"><g transform="translate(0.5,131.5)"><path class="background" aria-hidden="true" d="M0,0h0v0h0Z" pointer-events="none"/><g><g class="mark-rule role-axis-grid" pointer-events="none"><line transform="translate(0,-131)" x2="0" y2="131" stroke="#ddd" stroke-width="1" opacity="1"/><line transform="translate(52,-131)" x2="0" y2="131" stroke="#ddd" stroke-width="1" opacity="1"/><line transform="translate(104,-131)" x2="0" y2="131" stroke="#ddd" stroke-width="1" opacity="1"/><line transform="translate(156,-131)" x2="0" y2="131" stroke="#ddd" stroke-width="1" opacity="1"/><line transform="translate(208,-131)" x2="0" y2="131" stroke="#ddd" stroke-width="1" opacity="1"/><line transform="translate(260,-131)" x2="0" y2="131" stroke="#ddd" stroke-width="1" opacity="1"/></g></g><path class="foreground" aria-hidden="true" d="" pointer-events="none" display="none"/></g></g><g class="mark-group role-axis" aria-hidden="true"><g transform="translate(0.5,0.5)"><path class="background" aria-hidden="true" d="M0,0h0v0h0Z" pointer-events="none"/><g><g class="mark-rule role-axis-grid" pointer-events="none"><line transform="translate(0,131)" x2="260" y2="0" stroke="#ddd" stroke-width="1" opacity="1"/><line transform="translate(0,102)" x2="260" y2="0" stroke="#ddd" stroke-width="1" opacity="1"/><line transform="translate(0,73)" x2="260" y2="0" stroke="#ddd" stroke-width="1" opacity="1"/><line transform="translate(0,44)" x2="260" y2="0" stroke="#ddd" stroke-width="1" opacity="1"/><line transform="translate(0,15)" x2="260" y2="0" stroke="#ddd" stroke-width="1" opacity="1"/></g></g><path class="foreground" aria-hidden="true" d="" pointer-events="none" display="none"/></g></g><g class="mark-group role-scope child_pathgroup" role="graphics-object" aria-roledescription="group mark container"><g transform="translate(0,0)"><path class="background" aria-hidden="true" d="M0,0h260v131h-260Z"/><g><g class="mark-area role-mark child_marks" role="graphics-object" aria-roledescription="area mark container"><path aria-label="column: PGC; Retention Time (min): 12.76485; density: 0.000155002118845" role="graphics-symbol" aria-roledescription="area mark" d="M33.18861,130.54877160958478L34.886404799999994,130.47449389572216L36.584199600000005,130.42674092677373L39.9797892,130.37212148290342L41.677584,130.31891444906682L43.3753788,130.2150189152301L44.224276200000006,130.13926901458382L45.073173600000004,130.04703657004262L46.7709684,129.81774951412658L53.562147599999996,128.74541650643806L55.2599424,128.50849089194756L56.108839800000005,128.3766899973357L56.9577372,128.2231558502997L58.655531999999994,127.80534468585232L59.5044294,127.51854860055116L60.3533268,127.16700326173934L62.051121599999995,126.24640418300012L62.900019,125.67387656133045L63.7489164,125.02969349981085L65.4467112,123.5513688080612L66.29560860000001,122.73311507326643L67.14450599999999,121.87301321371723L68.84230079999999,120.05493471962141L70.5400956,118.14229074461889L73.9356852,114.20793452786444L75.63347999999999,112.30717189211849L77.33127479999999,110.51816665322222L80.72686440000001,107.09666817491556L82.42465920000001,105.18927916185581L83.2735566,104.11571221115415L84.122454,102.94314868340892L84.97135140000002,101.66450564415888L85.82024880000002,100.2788152000154L87.51804360000001,97.20769695125325L89.2158384,93.79946242143373L90.9136332,90.12272173008898L92.61142800000002,86.19567183421573L94.3092228,81.9739987788899L96.0070176,77.38031542813751L97.70481240000001,72.35664174235946L101.100402,61.117940522482954L107.8915812,36.57743822377249L111.2871708,24.697747537648993L112.98496560000002,19.498620601268676L114.68276040000002,15.106747733634643L116.3805552,11.565258658959104L118.07835000000001,8.707185435251692L118.92724740000003,7.451758157193519L119.77614480000003,6.27505106990263L121.47393960000002,4.129874705801558L123.1717344,2.393555299558063L124.86952920000002,1.3990658641710767L125.71842660000003,1.2900593701967498L126.56732400000003,1.4774553603640974L128.2651188,2.7538314085699707L129.9629136,5.113778968684621L131.66070840000003,8.342900943732964L132.50960580000003,10.231556136585858L133.35850320000003,12.290083021100134L135.05629800000003,16.90394516007103L141.84747720000004,39.31164309662304L148.63865640000003,59.886110090219695L152.034246,69.82004862948625L153.7320408,74.36480710369925L155.4298356,78.42736209784833L162.22101480000003,92.92662577171036L165.61660440000003,101.12258245800703L166.46550180000003,103.03718456523524L167.31439920000005,104.8054140974942L169.01219400000002,107.78119936583053L170.70998880000002,109.95568858789595L172.40778360000002,111.46531196706805L174.1055784,112.5866330452571L175.80337319999998,113.59674123716341L177.501168,114.66506719257042L179.19896279999998,115.82522562712674L182.5945524,118.1815835724177L184.29234720000002,119.27373641809018L185.990142,120.31150144304536L189.3857316,122.35316636522982L192.7813212,124.36226953332094L194.479116,125.26187365017711L196.17691079999997,126.02961830061253L197.87470560000003,126.65405277827321L199.57250040000002,127.17260441638385L201.27029520000002,127.65852095460924L202.96809000000002,128.18004919109933L202.96809000000002,131L201.27029520000002,131L199.57250040000002,131L197.87470560000003,131L196.17691079999997,131L194.479116,131L192.7813212,131L189.3857316,131L185.990142,131L184.29234720000002,131L182.5945524,131L179.19896279999998,131L177.501168,131L175.80337319999998,131L174.1055784,131L172.40778360000002,131L170.70998880000002,131L169.01219400000002,131L167.31439920000005,131L166.46550180000003,131L165.61660440000003,131L162.22101480000003,131L155.4298356,131L153.7320408,131L152.034246,131L148.63865640000003,131L141.84747720000004,131L135.05629800000003,131L133.35850320000003,131L132.50960580000003,131L131.66070840000003,131L129.9629136,131L128.2651188,131L126.56732400000003,131L125.71842660000003,131L124.86952920000002,131L123.1717344,131L121.47393960000002,131L119.77614480000003,131L118.92724740000003,131L118.07835000000001,131L116.3805552,131L114.68276040000002,131L112.98496560000002,131L111.2871708,131L107.8915812,131L101.100402,131L97.70481240000001,131L96.0070176,131L94.3092228,131L92.61142800000002,131L90.9136332,131L89.2158384,131L87.51804360000001,131L85.82024880000002,131L84.97135140000002,131L84.122454,131L83.2735566,131L82.42465920000001,131L80.72686440000001,131L77.33127479999999,131L75.63347999999999,131L73.9356852,131L70.5400956,131L68.84230079999999,131L67.14450599999999,131L66.29560860000001,131L65.4467112,131L63.7489164,131L62.900019,131L62.051121599999995,131L60.3533268,131L59.5044294,131L58.655531999999994,131L56.9577372,131L56.108839800000005,131L55.2599424,131L53.562147599999996,131L46.7709684,131L45.073173600000004,131L44.224276200000006,131L43.3753788,131L41.677584,131L39.9797892,131L36.584199600000005,131L34.886404799999994,131L33.18861,131Z" fill="#D56E3B" opacity="0.6"/></g></g><path class="foreground" aria-hidden="true" d="" display="none"/></g><g transform="translate(0,0)"><path class="background" aria-hidden="true" d="M0,0h260v131h-260Z"/><g><g class="mark-area role-mark child_marks" role="graphics-object" aria-roledescription="area mark container"><path aria-label="column: RPLC; Retention Time (min): 2.89049; density: 0.000120857528051" role="graphics-symbol" aria-roledescription="area mark" d="M7.515273999999999,130.64817030723052L11.467511120000001,130.47391304301465L13.443629680000003,130.33637697235997L15.41974824,130.12117814303966L17.395866800000004,129.77926093368984L18.383926080000002,129.5409253923188L19.371985360000004,129.2444610233089L21.348103920000007,128.42866999490246L22.336163200000005,127.8818362878392L23.324222480000003,127.22277461626868L25.300341040000006,125.51220202592883L26.288400320000004,124.43887885680505L27.276459600000003,123.2132094589638L29.25257816,120.32678213469181L31.228696720000002,116.99267280959934L33.20481528,113.51369790292823L34.19287456000001,111.8519844881639L35.18093384,110.32089845789315L36.16899312,108.97742109412489L37.157052400000005,107.87110011494613L39.13317096,106.50440933493677L40.12123024000001,106.2696184765319L41.109289520000004,106.32009592516629L43.08540808000001,107.13157197418916L44.07346736000001,107.78722745339279L45.06152664000001,108.52668070389518L47.0376452,110.00598103781866L49.01376376,111.13276704822312L50.98988232000001,111.62919524833559L51.97794160000001,111.60261593457464L52.96600088000001,111.39049303539258L54.94211944,110.43615693807887L56.91823800000001,108.84261513714222L57.90629728000001,107.83309304302183L58.89435656000001,106.6951919788009L60.87047512,104.0722139832149L62.84659368000001,101.05293179479628L70.75106792000001,87.37367870996745L72.72718648000001,84.30136941627347L74.70330504,81.57985111206268L78.65554216000001,76.84154104132669L79.64360144000001,75.63798418834806L80.63166072,74.3493051904699L82.60777928,71.36389115119883L84.58389784000002,67.65008310170603L86.56001640000001,63.144058173348775L94.46449064000001,42.01482702900679L96.44060920000001,37.55710216507579L98.41672776000003,33.74570702642174L100.39284632000002,30.520358100892384L102.36896488000001,27.780304555585584L104.34508344000001,25.46569943298939L105.33314272000001,24.477031740217118L106.32120200000001,23.621930704382255L108.29732056000003,22.42060460011012L110.27343912000002,22.11839751226311L112.24955768000001,22.963719063495294L114.22567624000001,25.09542544917328L116.2017948,28.4852564083533L117.18985408000002,30.598389392206933L118.17791336000002,32.94638587561409L126.08238760000002,55.59594287139609L130.03462472,66.536112924522L133.98686184000002,76.29257388325476L135.96298040000002,80.69348993672139L137.93909896000002,84.7391774600855L139.91521752000003,88.42628681409049L141.89133608000003,91.81630430097509L149.79581032000002,104.50371783592942L151.77192888000002,107.39258291660535L153.74804744,109.87767838568271L155.72416600000003,111.86858638772964L156.71222528,112.68424297455681L157.70028456000003,113.3963783544885L159.67640312000003,114.57816444355706L161.65252168000004,115.54013432502727L163.62864024,116.35155398969282L165.60475880000004,117.00662650237985L166.59281808000003,117.26034833322207L167.58087736000002,117.45605264260392L169.55699592000002,117.66021620571584L170.54505520000004,117.67070893698242L171.53311448,117.62727862264269L173.50923304,117.41456005559279L174.49729232,117.265217341693L175.48535159999997,117.09965643578666L177.46147016,116.74931864832753L179.43758872000004,116.41288303622817L180.42564800000002,116.26554943594385L181.41370728,116.14366500792562L183.38982584000001,116.02546462588327L184.37788512000003,116.05875976101925L185.36594440000005,116.17444949949831L186.35400368000006,116.38646015504833L187.34206296000005,116.70523293575413L189.31818152000005,117.67879866508343L190.30624080000004,118.3261906335084L191.29430008000003,119.06572346959419L193.27041864000003,120.74864487669181L197.22265576,124.34045478768304L198.21071504000003,125.17636934852874L199.19877432,125.96112294973743L201.17489288000002,127.34940665586392L202.16295216,127.9455594011732L203.15101144000005,128.47498644048036L204.13907072000006,128.93874906862416L205.12713000000002,129.33926353500226L205.12713000000002,131L204.13907072000006,131L203.15101144000005,131L202.16295216,131L201.17489288000002,131L199.19877432,131L198.21071504000003,131L197.22265576,131L193.27041864000003,131L191.29430008000003,131L190.30624080000004,131L189.31818152000005,131L187.34206296000005,131L186.35400368000006,131L185.36594440000005,131L184.37788512000003,131L183.38982584000001,131L181.41370728,131L180.42564800000002,131L179.43758872000004,131L177.46147016,131L175.48535159999997,131L174.49729232,131L173.50923304,131L171.53311448,131L170.54505520000004,131L169.55699592000002,131L167.58087736000002,131L166.59281808000003,131L165.60475880000004,131L163.62864024,131L161.65252168000004,131L159.67640312000003,131L157.70028456000003,131L156.71222528,131L155.72416600000003,131L153.74804744,131L151.77192888000002,131L149.79581032000002,131L141.89133608000003,131L139.91521752000003,131L137.93909896000002,131L135.96298040000002,131L133.98686184000002,131L130.03462472,131L126.08238760000002,131L118.17791336000002,131L117.18985408000002,131L116.2017948,131L114.22567624000001,131L112.24955768000001,131L110.27343912000002,131L108.29732056000003,131L106.32120200000001,131L105.33314272000001,131L104.34508344000001,131L102.36896488000001,131L100.39284632000002,131L98.41672776000003,131L96.44060920000001,131L94.46449064000001,131L86.56001640000001,131L84.58389784000002,131L82.60777928,131L80.63166072,131L79.64360144000001,131L78.65554216000001,131L74.70330504,131L72.72718648000001,131L70.75106792000001,131L62.84659368000001,131L60.87047512,131L58.89435656000001,131L57.90629728000001,131L56.91823800000001,131L54.94211944,131L52.96600088000001,131L51.97794160000001,131L50.98988232000001,131L49.01376376,131L47.0376452,131L45.06152664000001,131L44.07346736000001,131L43.08540808000001,131L41.109289520000004,131L40.12123024000001,131L39.13317096,131L37.157052400000005,131L36.16899312,131L35.18093384,131L34.19287456000001,131L33.20481528,131L31.228696720000002,131L29.25257816,131L27.276459600000003,131L26.288400320000004,131L25.300341040000006,131L23.324222480000003,131L22.336163200000005,131L21.348103920000007,131L19.371985360000004,131L18.383926080000002,131L17.395866800000004,131L15.41974824,131L13.443629680000003,131L11.467511120000001,131L7.515273999999999,131Z" fill="#58728C" opacity="0.6"/></g></g><path class="foreground" aria-hidden="true" d="" display="none"/></g></g></g><path class="foreground" aria-hidden="true" d="" display="none"/></g><g transform="translate(0,153)"><path class="background" aria-hidden="true" d="M0.5,0.5h260v131h-260Z" stroke="#ddd"/><g><g class="mark-group role-axis" aria-hidden="true"><g transform="translate(0.5,131.5)"><path class="background" aria-hidden="true" d="M0,0h0v0h0Z" pointer-events="none"/><g><g class="mark-rule role-axis-grid" pointer-events="none"><line transform="translate(0,-131)" x2="0" y2="131" stroke="#ddd" stroke-width="1" opacity="1"/><line transform="translate(52,-131)" x2="0" y2="131" stroke="#ddd" stroke-width="1" opacity="1"/><line transform="translate(104,-131)" x2="0" y2="131" stroke="#ddd" stroke-width="1" opacity="1"/><line transform="translate(156,-131)" x2="0" y2="131" stroke="#ddd" stroke-width="1" opacity="1"/><line transform="translate(208,-131)" x2="0" y2="131" stroke="#ddd" stroke-width="1" opacity="1"/><line transform="translate(260,-131)" x2="0" y2="131" stroke="#ddd" stroke-width="1" opacity="1"/></g></g><path class="foreground" aria-hidden="true" d="" pointer-events="none" display="none"/></g></g><g class="mark-group role-axis" aria-hidden="true"><g transform="translate(0.5,0.5)"><path class="background" aria-hidden="true" d="M0,0h0v0h0Z" pointer-events="none"/><g><g class="mark-rule role-axis-grid" pointer-events="none"><line transform="translate(0,131)" x2="260" y2="0" stroke="#ddd" stroke-width="1" opacity="1"/><line transform="translate(0,102)" x2="260" y2="0" stroke="#ddd" stroke-width="1" opacity="1"/><line transform="translate(0,73)" x2="260" y2="0" stroke="#ddd" stroke-width="1" opacity="1"/><line transform="translate(0,44)" x2="260" y2="0" stroke="#ddd" stroke-width="1" opacity="1"/><line transform="translate(0,15)" x2="260" y2="0" stroke="#ddd" stroke-width="1" opacity="1"/></g></g><path class="foreground" aria-hidden="true" d="" pointer-events="none" display="none"/></g></g><g class="mark-group role-scope child_pathgroup" role="graphics-object" aria-roledescription="group mark container"><g transform="translate(0,0)"><path class="background" aria-hidden="true" d="M0,0h260v131h-260Z"/><g><g class="mark-area role-mark child_marks" role="graphics-object" aria-roledescription="area mark container"><path aria-label="column: PGC; Retention Time (min): 13.37815; density: 0.000156049263984" role="graphics-symbol" aria-roledescription="area mark" d="M34.78319,130.54572325373573L38.15381699999999,130.4160982982155L41.524444,130.33789811153088L43.2097575,130.27202327779764L44.895071,130.1595709675519L45.73772775,130.0820699858948L46.580384499999994,129.9901574578067L48.265698,129.76817877907368L55.006952000000005,128.7113650516982L55.84960875000001,128.5689496593727L56.69226550000001,128.4116612218941L58.377579000000004,128.0176819524813L59.22023575000001,127.76133109029014L60.0628925,127.45193827686428L60.90554925,127.08010862851118L61.748206,126.63782340388673L62.59086275000001,126.11908537984151L63.43351950000001,125.5204843838395L65.11883300000001,124.08541962264316L65.96148975000001,123.25805251917082L66.8041465,122.36885362331405L67.64680325,121.4298255225399L68.48946000000001,120.45500466007127L71.860087,116.50110976371913L72.70274375,115.5666286121901L73.5454005,114.67187301641049L75.230714,113.00449783929848L78.601341,109.89161753127235L79.44399775,109.05379862268184L80.2866545,108.14749954386886L81.12931125,107.15240805441829L81.971968,106.05239508347398L83.6572815,103.50208688694083L84.49993825,102.0503927568018L85.342595,100.4905594949645L87.0279085,97.10360118784051L88.71322199999999,93.47340660350044L92.083849,85.85268928984243L93.7691625,81.82056280021925L95.454476,77.46531341109328L97.1397895,72.64109031279764L98.825103,67.30377834039494L102.19573,55.65901714235832L108.936984,33.59812991468345L112.307611,23.089277032350196L113.9929245,18.080014215448784L115.678238,13.54115981950283L116.52089475000001,11.505734132177265L117.3635515,9.639493674821969L119.048865,6.408448607220166L120.7341785,3.8239101363240615L121.57683525,2.7869205560351897L122.41949199999999,1.9473255487596586L124.10480550000001,0.9974261066959811L125.790119,1.260076263166244L126.63277575000001,1.903711695616991L127.47543250000001,2.8855804569420456L129.16074600000002,5.733136188438536L130.8460595,9.399721011231216L132.531373,13.42717496938194L135.902,21.727771249534072L137.5873135,26.170560658392215L139.272627,31.022486180333722L142.64325399999998,41.81011012959255L146.01388099999997,52.81358599709374L149.38450799999998,62.92574443619232L151.0698215,67.53001621499553L152.755135,71.81483801538077L156.12576199999998,79.56898795735269L159.49638899999997,86.96499866578961L162.86701599999998,94.85648702126554L164.55232949999998,98.87871944926921L166.237643,102.65726177608668L167.08029975,104.369079454696L167.92295650000003,105.92418968383991L169.60827,108.50283762642424L170.45092675000004,109.52447672697771L171.2935835,110.38553137812482L172.13624025000004,111.11114847475655L172.97889700000005,111.73214461563809L174.66421050000002,112.78889322314181L176.349524,113.7753579012358L183.090778,117.95527624337711L186.461405,119.84862721123835L188.14671850000002,120.8215388746479L189.832032,121.85290682392495L193.202659,123.99287005484749L194.88797250000002,124.97783878994771L195.73062925000002,125.42082870377577L196.573286,125.82516464632242L197.41594275,126.19090753798304L198.2585995,126.52181301578206L199.943913,127.10922227416538L203.31454000000002,128.2360444473241L203.31454000000002,131L199.943913,131L198.2585995,131L197.41594275,131L196.573286,131L195.73062925000002,131L194.88797250000002,131L193.202659,131L189.832032,131L188.14671850000002,131L186.461405,131L183.090778,131L176.349524,131L174.66421050000002,131L172.97889700000005,131L172.13624025000004,131L171.2935835,131L170.45092675000004,131L169.60827,131L167.92295650000003,131L167.08029975,131L166.237643,131L164.55232949999998,131L162.86701599999998,131L159.49638899999997,131L156.12576199999998,131L152.755135,131L151.0698215,131L149.38450799999998,131L146.01388099999997,131L142.64325399999998,131L139.272627,131L137.5873135,131L135.902,131L132.531373,131L130.8460595,131L129.16074600000002,131L127.47543250000001,131L126.63277575000001,131L125.790119,131L124.10480550000001,131L122.41949199999999,131L121.57683525,131L120.7341785,131L119.048865,131L117.3635515,131L116.52089475000001,131L115.678238,131L113.9929245,131L112.307611,131L108.936984,131L102.19573,131L98.825103,131L97.1397895,131L95.454476,131L93.7691625,131L92.083849,131L88.71322199999999,131L87.0279085,131L85.342595,131L84.49993825,131L83.6572815,131L81.971968,131L81.12931125,131L80.2866545,131L79.44399775,131L78.601341,131L75.230714,131L73.5454005,131L72.70274375,131L71.860087,131L68.48946000000001,131L67.64680325,131L66.8041465,131L65.96148975000001,131L65.11883300000001,131L63.43351950000001,131L62.59086275000001,131L61.748206,131L60.90554925,131L60.0628925,131L59.22023575000001,131L58.377579000000004,131L56.69226550000001,131L55.84960875000001,131L55.006952000000005,131L48.265698,131L46.580384499999994,131L45.73772775,131L44.895071,131L43.2097575,131L41.524444,131L38.15381699999999,131L34.78319,131Z" fill="#D56E3B" opacity="0.6"/></g></g><path class="foreground" aria-hidden="true" d="" display="none"/></g><g transform="translate(0,0)"><path class="background" aria-hidden="true" d="M0,0h260v131h-260Z"/><g><g class="mark-area role-mark child_marks" role="graphics-object" aria-roledescription="area mark container"><path aria-label="column: RPLC; Retention Time (min): 5.9139; density: 0.00027254359487" role="graphics-symbol" aria-roledescription="area mark" d="M15.37614,130.20659531271122L16.325011733333334,130.01132796670743L17.273883466666668,129.77314685997473L19.171626933333332,129.13428953801306L20.12049866666667,128.71420018830435L21.0693704,128.21263363169086L22.967113866666665,126.91953184190758L23.915985600000003,126.10628486891498L24.86485733333333,125.1699606600036L25.813729066666664,124.1052766876899L26.762600799999998,122.91155567787374L27.711472533333335,121.59415262547195L28.660344266666666,120.16571638647841L30.55808773333333,117.06751031963765L32.4558312,113.88128875189582L33.40470293333333,112.36668934223253L34.35357466666666,110.96999017696115L35.3024464,109.7384200393985L36.251318133333335,108.71319841189744L38.149061599999996,107.39611459104063L39.09793333333333,107.12840593003624L40.046805066666664,107.11271623605417L40.9956768,107.32440337076878L41.944548533333325,107.7261923266357L42.893420266666666,108.27105102943982L43.842292,108.90578084770858L45.74003546666666,110.2246669371275L47.63777893333333,111.27824525969719L48.58665066666667,111.60936259693213L49.5355224,111.77822639591983L51.433265866666666,111.59437508233538L52.38213760000001,111.24601829071655L53.33100933333334,110.74066414452325L55.228752799999995,109.3235371765647L57.12649626666666,107.47926632075982L58.075368000000005,106.43498586620122L59.02423973333333,105.32443019579117L60.92198319999999,102.93258713138995L62.81972666666666,100.33732630528628L64.71747013333332,97.55231487743708L68.51295706666667,91.50725132521754L72.30844400000001,85.22451917442248L76.10393093333333,79.30120075882608L79.89941786666667,73.72755227520929L81.79716133333332,70.77465314473909L82.74603306666667,69.1822449530653L83.6949048,67.48833319340349L85.59264826666666,63.75385639784197L87.49039173333334,59.55517513864382L91.28587866666668,50.239311604303865L95.0813656,41.06066311913306L96.97910906666665,36.976254038907626L98.87685253333333,33.3486377433817L100.77459600000002,30.19357774814819L102.67233946666667,27.498355463001186L104.57008293333334,25.259646012338848L106.46782639999998,23.524919433082964L108.36556986666665,22.42136662503302L109.3144416,22.167264837742007L110.26331333333333,22.149645790539033L112.16105680000001,22.931439409261937L114.05880026666667,24.926757319303395L115.95654373333332,28.15887129820401L116.90541546666668,30.19999488882548L117.8542872,32.48444963015814L119.75203066666668,37.624017718720914L121.64977413333334,43.23774311393247L129.240748,65.45292463112797L133.03623493333336,75.08823562875997L134.9339784,79.45094852942937L136.83172186666664,83.48728040394197L138.72946533333334,87.20172956078633L140.62720879999998,90.63495775376192L144.42269573333334,96.95666799140054L148.21818266666665,102.87229577467737L150.11592613333332,105.58049481410474L151.06479786666668,106.8239264812718L152.0136696,107.97532428824987L153.91141306666668,109.97006904544985L155.80915653333332,111.55715737411411L157.7069,112.81671251510218L158.65577173333332,113.36394262058532L159.60464346666666,113.87823077392144L161.50238693333333,114.85618401120853L163.40013040000002,115.79563698206823L164.34900213333333,116.24134116602865L165.29787386666666,116.65718264247401L167.19561733333333,117.34687112503894L168.1444890666667,117.59664574439442L169.09336080000003,117.77174001402629L170.99110426666667,117.88971336828074L171.93997600000003,117.84001682326985L172.88884773333334,117.72941415813365L174.7865912,117.37515043254608L178.58207813333337,116.49804876633479L180.4798216,116.15046953863342L181.42869333333337,116.03108725911004L182.37756506666668,115.95991870228879L184.27530853333334,116.00087354744366L185.22418026666668,116.13245789320383L186.17305199999998,116.34968871097503L187.12192373333335,116.65873567101849L188.0707954666667,117.06259154922601L189.96853893333335,118.14687877185419L190.9174106666667,118.8129389686405L191.8662824,119.5457804206156L193.76402586666666,121.14910649280836L197.5595128,124.45051319964752L198.50838453333333,125.21596886863438L199.45725626666663,125.93867685385672L200.406128,126.61302046204528L201.35499973333333,127.23514567686281L203.2527432,128.31446461513121L204.20161493333333,128.77046769522138L205.15048666666667,129.17161325444084L205.15048666666667,131L204.20161493333333,131L203.2527432,131L201.35499973333333,131L200.406128,131L199.45725626666663,131L198.50838453333333,131L197.5595128,131L193.76402586666666,131L191.8662824,131L190.9174106666667,131L189.96853893333335,131L188.0707954666667,131L187.12192373333335,131L186.17305199999998,131L185.22418026666668,131L184.27530853333334,131L182.37756506666668,131L181.42869333333337,131L180.4798216,131L178.58207813333337,131L174.7865912,131L172.88884773333334,131L171.93997600000003,131L170.99110426666667,131L169.09336080000003,131L168.1444890666667,131L167.19561733333333,131L165.29787386666666,131L164.34900213333333,131L163.40013040000002,131L161.50238693333333,131L159.60464346666666,131L158.65577173333332,131L157.7069,131L155.80915653333332,131L153.91141306666668,131L152.0136696,131L151.06479786666668,131L150.11592613333332,131L148.21818266666665,131L144.42269573333334,131L140.62720879999998,131L138.72946533333334,131L136.83172186666664,131L134.9339784,131L133.03623493333336,131L129.240748,131L121.64977413333334,131L119.75203066666668,131L117.8542872,131L116.90541546666668,131L115.95654373333332,131L114.05880026666667,131L112.16105680000001,131L110.26331333333333,131L109.3144416,131L108.36556986666665,131L106.46782639999998,131L104.57008293333334,131L102.67233946666667,131L100.77459600000002,131L98.87685253333333,131L96.97910906666665,131L95.0813656,131L91.28587866666668,131L87.49039173333334,131L85.59264826666666,131L83.6949048,131L82.74603306666667,131L81.79716133333332,131L79.89941786666667,131L76.10393093333333,131L72.30844400000001,131L68.51295706666667,131L64.71747013333332,131L62.81972666666666,131L60.92198319999999,131L59.02423973333333,131L58.075368000000005,131L57.12649626666666,131L55.228752799999995,131L53.33100933333334,131L52.38213760000001,131L51.433265866666666,131L49.5355224,131L48.58665066666667,131L47.63777893333333,131L45.74003546666666,131L43.842292,131L42.893420266666666,131L41.944548533333325,131L40.9956768,131L40.046805066666664,131L39.09793333333333,131L38.149061599999996,131L36.251318133333335,131L35.3024464,131L34.35357466666666,131L33.40470293333333,131L32.4558312,131L30.55808773333333,131L28.660344266666666,131L27.711472533333335,131L26.762600799999998,131L25.813729066666664,131L24.86485733333333,131L23.915985600000003,131L22.967113866666665,131L21.0693704,131L20.12049866666667,131L19.171626933333332,131L17.273883466666668,131L16.325011733333334,131L15.37614,131Z" fill="#58728C" opacity="0.6"/></g></g><path class="foreground" aria-hidden="true" d="" display="none"/></g></g></g><path class="foreground" aria-hidden="true" d="" display="none"/></g></g><g class="mark-group role-legend" role="graphics-symbol" aria-roledescription="legend" aria-label="Symbol legend titled 'column' for fill color with 2 values: PGC, RPLC"><g transform="translate(290,0)"><path class="background" aria-hidden="true" d="M0,0h43v40h-43Z" pointer-events="none"/><g><g class="mark-group role-legend-entry"><g transform="translate(0,16)"><path class="background" aria-hidden="true" d="M0,0h0v0h0Z" pointer-events="none"/><g><g class="mark-group role-scope" role="graphics-object" aria-roledescription="group mark container"><g transform="translate(0,0)"><path class="background" aria-hidden="true" d="M0,0h42.6748046875v11h-42.6748046875Z" pointer-events="none" opacity="1"/><g><g class="mark-symbol role-legend-symbol" pointer-events="none"><path transform="translate(6,6)" d="M5,0A5,5,0,1,1,-5,0A5,5,0,1,1,5,0" fill="#D56E3B" stroke-width="1.5" opacity="0.6"/></g><g class="mark-text role-legend-label" pointer-events="none"><text text-anchor="start" transform="translate(16,9)" font-family="sans-serif" font-size="10px" fill="#000" opacity="1">PGC</text></g></g><path class="foreground" aria-hidden="true" d="" pointer-events="none" display="none"/></g><g transform="translate(0,13)"><path class="background" aria-hidden="true" d="M0,0h42.6748046875v11h-42.6748046875Z" pointer-events="none" opacity="1"/><g><g class="mark-symbol role-legend-symbol" pointer-events="none"><path transform="translate(6,6)" d="M5,0A5,5,0,1,1,-5,0A5,5,0,1,1,5,0" fill="#58728C" stroke-width="1.5" opacity="0.6"/></g><g class="mark-text role-legend-label" pointer-events="none"><text text-anchor="start" transform="translate(16,9)" font-family="sans-serif" font-size="10px" fill="#000" opacity="1">RPLC</text></g></g><path class="foreground" aria-hidden="true" d="" pointer-events="none" display="none"/></g></g></g><path class="foreground" aria-hidden="true" d="" pointer-events="none" display="none"/></g></g><g class="mark-text role-legend-title" pointer-events="none"><text text-anchor="start" transform="translate(0,9)" font-family="sans-serif" font-size="11px" font-weight="bold" fill="#000" opacity="1">column</text></g></g><path class="foreground" aria-hidden="true" d="" pointer-events="none" display="none"/></g></g></g><path class="foreground" aria-hidden="true" d="" display="none"/></g></g></g></svg>