<?xml version="1.0" encoding="utf-8" standalone="no"?>
<!DOCTYPE svg PUBLIC "-//W3C//DTD SVG 1.1//EN"
  "http://www.w3.org/Graphics/SVG/1.1/DTD/svg11.dtd">
<svg xmlns:xlink="http://www.w3.org/1999/xlink" width="288pt" height="288pt" viewBox="0 0 288 288" xmlns="http://www.w3.org/2000/svg" version="1.1">
 <metadata>
  <rdf:RDF xmlns:dc="http://purl.org/dc/elements/1.1/" xmlns:cc="http://creativecommons.org/ns#" xmlns:rdf="http://www.w3.org/1999/02/22-rdf-syntax-ns#">
   <cc:Work>
    <dc:type rdf:resource="http://purl.org/dc/dcmitype/StillImage"/>
    <dc:date>2023-01-10T11:18:09.806368</dc:date>
    <dc:format>image/svg+xml</dc:format>
    <dc:creator>
     <cc:Agent>
      <dc:title>Matplotlib v3.5.3, https://matplotlib.org/</dc:title>
     </cc:Agent>
    </dc:creator>
   </cc:Work>
  </rdf:RDF>
 </metadata>
 <defs>
  <style type="text/css">*{stroke-linejoin: round; stroke-linecap: butt}</style>
 </defs>
 <g id="figure_1">
  <g id="patch_1">
   <path d="M 0 288 
L 288 288 
L 288 0 
L 0 0 
z
" style="fill: #ffffff"/>
  </g>
  <g id="axes_1">
   <g id="patch_2">
    <path d="M 44.67125 246.04 
L 153.785625 246.04 
L 153.785625 24.72 
L 44.67125 24.72 
z
" style="fill: #ffffff"/>
   </g>
   <g id="PolyCollection_1">
    <defs>
     <path id="mc0947dcb2e" d="M 72.648208 -52.312027 
L 71.25148 -52.312027 
L 68.004401 -53.067246 
L 60.464127 -53.822465 
L 53.230195 -54.577684 
L 52.318523 -55.332903 
L 56.010603 -56.088123 
L 60.154907 -56.843342 
L 63.368498 -57.598561 
L 65.774679 -58.35378 
L 67.483046 -59.108999 
L 68.500496 -59.864218 
L 69.137554 -60.619438 
L 69.759993 -61.374657 
L 70.31056 -62.129876 
L 70.613654 -62.885095 
L 70.775358 -63.640314 
L 70.949598 -64.395533 
L 71.144593 -65.150753 
L 71.33825 -65.905972 
L 71.515784 -66.661191 
L 71.626929 -67.41641 
L 71.646346 -68.171629 
L 71.634214 -68.926848 
L 71.629054 -69.682067 
L 71.637282 -70.437287 
L 71.670414 -71.192506 
L 71.704429 -71.947725 
L 71.716467 -72.702944 
L 71.749937 -73.458163 
L 71.81334 -74.213382 
L 71.846959 -74.968602 
L 71.840291 -75.723821 
L 71.835703 -76.47904 
L 71.86115 -77.234259 
L 71.900575 -77.989478 
L 71.919644 -78.744697 
L 71.910398 -79.499917 
L 71.899078 -80.255136 
L 71.902407 -81.010355 
L 71.915902 -81.765574 
L 71.932853 -82.520793 
L 71.944538 -83.276012 
L 71.946966 -84.031231 
L 71.942041 -84.786451 
L 71.935298 -85.54167 
L 71.931506 -86.296889 
L 71.927887 -87.052108 
L 71.928228 -87.807327 
L 71.936305 -88.562546 
L 71.942704 -89.317766 
L 71.94017 -90.072985 
L 71.93541 -90.828204 
L 71.932321 -91.583423 
L 71.92626 -92.338642 
L 71.927158 -93.093861 
L 71.938613 -93.849081 
L 71.947174 -94.6043 
L 71.949509 -95.359519 
L 71.949278 -96.114738 
L 71.945817 -96.869957 
L 71.935773 -97.625176 
L 71.925829 -98.380395 
L 71.927555 -99.135615 
L 71.933016 -99.890834 
L 71.936328 -100.646053 
L 71.942627 -101.401272 
L 71.947891 -102.156491 
L 71.94885 -102.91171 
L 71.945112 -103.66693 
L 71.935483 -104.422149 
L 71.927502 -105.177368 
L 71.931691 -105.932587 
L 71.942223 -106.687806 
L 71.948246 -107.443025 
L 71.949682 -108.198245 
L 71.949836 -108.953464 
L 71.949844 -109.708683 
L 71.949844 -110.463902 
L 71.949844 -111.219121 
L 71.949844 -111.97434 
L 71.949844 -112.729559 
L 71.949844 -113.484779 
L 71.949844 -114.239998 
L 71.949844 -114.995217 
L 71.949844 -115.750436 
L 71.949844 -116.505655 
L 71.949844 -117.260874 
L 71.949844 -118.016094 
L 71.949844 -118.771313 
L 71.949844 -119.526532 
L 71.949844 -120.281751 
L 71.949844 -121.03697 
L 71.949842 -121.792189 
L 71.949793 -122.547409 
L 71.949198 -123.302628 
L 71.946095 -124.057847 
L 71.939909 -124.813066 
L 71.93783 -125.568285 
L 71.943215 -126.323504 
L 71.948175 -127.078723 
L 71.951513 -127.078723 
L 71.951513 -127.078723 
L 71.956472 -126.323504 
L 71.961857 -125.568285 
L 71.959778 -124.813066 
L 71.953592 -124.057847 
L 71.950489 -123.302628 
L 71.949894 -122.547409 
L 71.949846 -121.792189 
L 71.949844 -121.03697 
L 71.949844 -120.281751 
L 71.949844 -119.526532 
L 71.949844 -118.771313 
L 71.949844 -118.016094 
L 71.949844 -117.260874 
L 71.949844 -116.505655 
L 71.949844 -115.750436 
L 71.949844 -114.995217 
L 71.949844 -114.239998 
L 71.949844 -113.484779 
L 71.949844 -112.729559 
L 71.949844 -111.97434 
L 71.949844 -111.219121 
L 71.949844 -110.463902 
L 71.949844 -109.708683 
L 71.949851 -108.953464 
L 71.950005 -108.198245 
L 71.951442 -107.443025 
L 71.957464 -106.687806 
L 71.967996 -105.932587 
L 71.972186 -105.177368 
L 71.964205 -104.422149 
L 71.954575 -103.66693 
L 71.950837 -102.91171 
L 71.951796 -102.156491 
L 71.95706 -101.401272 
L 71.96336 -100.646053 
L 71.966672 -99.890834 
L 71.972132 -99.135615 
L 71.973858 -98.380395 
L 71.963915 -97.625176 
L 71.95387 -96.869957 
L 71.950409 -96.114738 
L 71.950179 -95.359519 
L 71.952513 -94.6043 
L 71.961075 -93.849081 
L 71.972529 -93.093861 
L 71.973427 -92.338642 
L 71.967367 -91.583423 
L 71.964278 -90.828204 
L 71.959517 -90.072985 
L 71.956984 -89.317766 
L 71.963382 -88.562546 
L 71.971459 -87.807327 
L 71.971801 -87.052108 
L 71.968182 -86.296889 
L 71.96439 -85.54167 
L 71.957647 -84.786451 
L 71.952721 -84.031231 
L 71.955149 -83.276012 
L 71.966834 -82.520793 
L 71.983786 -81.765574 
L 71.99728 -81.010355 
L 72.00061 -80.255136 
L 71.989289 -79.499917 
L 71.980044 -78.744697 
L 71.999113 -77.989478 
L 72.038537 -77.234259 
L 72.063984 -76.47904 
L 72.059397 -75.723821 
L 72.052729 -74.968602 
L 72.086347 -74.213382 
L 72.14975 -73.458163 
L 72.18322 -72.702944 
L 72.195259 -71.947725 
L 72.229273 -71.192506 
L 72.262405 -70.437287 
L 72.270634 -69.682067 
L 72.265474 -68.926848 
L 72.253342 -68.171629 
L 72.272759 -67.41641 
L 72.383903 -66.661191 
L 72.561438 -65.905972 
L 72.755094 -65.150753 
L 72.95009 -64.395533 
L 73.124329 -63.640314 
L 73.286033 -62.885095 
L 73.589128 -62.129876 
L 74.139694 -61.374657 
L 74.762133 -60.619438 
L 75.399191 -59.864218 
L 76.416641 -59.108999 
L 78.125009 -58.35378 
L 80.53119 -57.598561 
L 83.744781 -56.843342 
L 87.889085 -56.088123 
L 91.581165 -55.332903 
L 90.669492 -54.577684 
L 83.435561 -53.822465 
L 75.895287 -53.067246 
L 72.648208 -52.312027 
z
" style="stroke: #3f3f3f; stroke-width: 1.5"/>
    </defs>
    <g clip-path="url(#p52f63ebcf4)">
     <use xlink:href="#mc0947dcb2e" x="0" y="288" style="fill: #3274a1; stroke: #3f3f3f; stroke-width: 1.5"/>
    </g>
   </g>
   <g id="PolyCollection_2">
    <defs>
     <path id="m82dc3265d2" d="M 127.289788 -52.364805 
L 125.724275 -52.364805 
L 122.440671 -53.052901 
L 114.807101 -53.740997 
L 106.693093 -54.429093 
L 104.684156 -55.117188 
L 108.446884 -55.805284 
L 113.368656 -56.49338 
L 117.154137 -57.181475 
L 119.712717 -57.869571 
L 121.499169 -58.557667 
L 122.843388 -59.245762 
L 123.761145 -59.933858 
L 124.291026 -60.621954 
L 124.616023 -61.310049 
L 124.806608 -61.998145 
L 124.940048 -62.686241 
L 125.152352 -63.374337 
L 125.446181 -64.062432 
L 125.708304 -64.750528 
L 125.864384 -65.438624 
L 125.950524 -66.126719 
L 126.046054 -66.814815 
L 126.167711 -67.502911 
L 126.25341 -68.191006 
L 126.256527 -68.879102 
L 126.223813 -69.567198 
L 126.247774 -70.255293 
L 126.317847 -70.943389 
L 126.383042 -71.631485 
L 126.429313 -72.319581 
L 126.431289 -73.007676 
L 126.403149 -73.695772 
L 126.386064 -74.383868 
L 126.378339 -75.071963 
L 126.379314 -75.760059 
L 126.401522 -76.448155 
L 126.440912 -77.13625 
L 126.475252 -77.824346 
L 126.484992 -78.512442 
L 126.47722 -79.200538 
L 126.46942 -79.888633 
L 126.47057 -80.576729 
L 126.478474 -81.264825 
L 126.486706 -81.95292 
L 126.495139 -82.641016 
L 126.502644 -83.329112 
L 126.505966 -84.017207 
L 126.504618 -84.705303 
L 126.493008 -85.393399 
L 126.463461 -86.081494 
L 126.436241 -86.76959 
L 126.44579 -87.457686 
L 126.478256 -88.145782 
L 126.499585 -88.833877 
L 126.505969 -89.521973 
L 126.506949 -90.210069 
L 126.507024 -90.898164 
L 126.506952 -91.58626 
L 126.506234 -92.274356 
L 126.503031 -92.962451 
L 126.496998 -93.650547 
L 126.494453 -94.338643 
L 126.499119 -95.026738 
L 126.50414 -95.714834 
L 126.504001 -96.40293 
L 126.498638 -97.091026 
L 126.492615 -97.779121 
L 126.489227 -98.467217 
L 126.48418 -99.155313 
L 126.482192 -99.843408 
L 126.490693 -100.531504 
L 126.501198 -101.2196 
L 126.505934 -101.907695 
L 126.506924 -102.595791 
L 126.507026 -103.283887 
L 126.507031 -103.971983 
L 126.507031 -104.660078 
L 126.507031 -105.348174 
L 126.507031 -106.03627 
L 126.507031 -106.724365 
L 126.507031 -107.412461 
L 126.507031 -108.100557 
L 126.507031 -108.788652 
L 126.50703 -109.476748 
L 126.507003 -110.164844 
L 126.506669 -110.852939 
L 126.504667 -111.541035 
L 126.499315 -112.229131 
L 126.494242 -112.917227 
L 126.49497 -113.605322 
L 126.49614 -114.293418 
L 126.494011 -114.981514 
L 126.495954 -115.669609 
L 126.501934 -116.357705 
L 126.504694 -117.045801 
L 126.501667 -117.733896 
L 126.4958 -118.421992 
L 126.495012 -119.110088 
L 126.500599 -119.798183 
L 126.505311 -120.486279 
L 126.508751 -120.486279 
L 126.508751 -120.486279 
L 126.513463 -119.798183 
L 126.519051 -119.110088 
L 126.518263 -118.421992 
L 126.512395 -117.733896 
L 126.509368 -117.045801 
L 126.512129 -116.357705 
L 126.518109 -115.669609 
L 126.520051 -114.981514 
L 126.517922 -114.293418 
L 126.519093 -113.605322 
L 126.519821 -112.917227 
L 126.514748 -112.229131 
L 126.509396 -111.541035 
L 126.507394 -110.852939 
L 126.507059 -110.164844 
L 126.507032 -109.476748 
L 126.507031 -108.788652 
L 126.507031 -108.100557 
L 126.507031 -107.412461 
L 126.507031 -106.724365 
L 126.507031 -106.03627 
L 126.507031 -105.348174 
L 126.507031 -104.660078 
L 126.507031 -103.971983 
L 126.507037 -103.283887 
L 126.507138 -102.595791 
L 126.508129 -101.907695 
L 126.512864 -101.2196 
L 126.52337 -100.531504 
L 126.531871 -99.843408 
L 126.529882 -99.155313 
L 126.524836 -98.467217 
L 126.521447 -97.779121 
L 126.515425 -97.091026 
L 126.510062 -96.40293 
L 126.509922 -95.714834 
L 126.514944 -95.026738 
L 126.51961 -94.338643 
L 126.517065 -93.650547 
L 126.511032 -92.962451 
L 126.507828 -92.274356 
L 126.507111 -91.58626 
L 126.507039 -90.898164 
L 126.507114 -90.210069 
L 126.508093 -89.521973 
L 126.514478 -88.833877 
L 126.535806 -88.145782 
L 126.568273 -87.457686 
L 126.577821 -86.76959 
L 126.550601 -86.081494 
L 126.521054 -85.393399 
L 126.509445 -84.705303 
L 126.508097 -84.017207 
L 126.511418 -83.329112 
L 126.518923 -82.641016 
L 126.527356 -81.95292 
L 126.535588 -81.264825 
L 126.543492 -80.576729 
L 126.544643 -79.888633 
L 126.536843 -79.200538 
L 126.529071 -78.512442 
L 126.538811 -77.824346 
L 126.573151 -77.13625 
L 126.61254 -76.448155 
L 126.634748 -75.760059 
L 126.635724 -75.071963 
L 126.627998 -74.383868 
L 126.610914 -73.695772 
L 126.582774 -73.007676 
L 126.584749 -72.319581 
L 126.631021 -71.631485 
L 126.696215 -70.943389 
L 126.766288 -70.255293 
L 126.79025 -69.567198 
L 126.757535 -68.879102 
L 126.760652 -68.191006 
L 126.846352 -67.502911 
L 126.968008 -66.814815 
L 127.063539 -66.126719 
L 127.149678 -65.438624 
L 127.305759 -64.750528 
L 127.567881 -64.062432 
L 127.86171 -63.374337 
L 128.074014 -62.686241 
L 128.207455 -61.998145 
L 128.398039 -61.310049 
L 128.723036 -60.621954 
L 129.252917 -59.933858 
L 130.170674 -59.245762 
L 131.514894 -58.557667 
L 133.301345 -57.869571 
L 135.859925 -57.181475 
L 139.645406 -56.49338 
L 144.567178 -55.805284 
L 148.329906 -55.117188 
L 146.320969 -54.429093 
L 138.206961 -53.740997 
L 130.573392 -53.052901 
L 127.289788 -52.364805 
z
" style="stroke: #3f3f3f; stroke-width: 1.5"/>
    </defs>
    <g clip-path="url(#p52f63ebcf4)">
     <use xlink:href="#m82dc3265d2" x="0" y="288" style="fill: #3274a1; stroke: #3f3f3f; stroke-width: 1.5"/>
    </g>
   </g>
   <g id="matplotlib.axis_1">
    <g id="xtick_1">
     <g id="line2d_1">
      <defs>
       <path id="m156dc70c59" d="M 0 0 
L 0 3.5 
" style="stroke: #000000; stroke-width: 0.8"/>
      </defs>
      <g>
       <use xlink:href="#m156dc70c59" x="71.949844" y="256.04" style="stroke: #000000; stroke-width: 0.8"/>
      </g>
     </g>
     <g id="text_1">
      <!-- T10 -->
      <g transform="translate(62.533437 270.638438)scale(0.1 -0.1)">
       <defs>
        <path id="DejaVuSans-54" d="M -19 4666 
L 3928 4666 
L 3928 4134 
L 2272 4134 
L 2272 0 
L 1638 0 
L 1638 4134 
L -19 4134 
L -19 4666 
z
" transform="scale(0.015625)"/>
        <path id="DejaVuSans-31" d="M 794 531 
L 1825 531 
L 1825 4091 
L 703 3866 
L 703 4441 
L 1819 4666 
L 2450 4666 
L 2450 531 
L 3481 531 
L 3481 0 
L 794 0 
L 794 531 
z
" transform="scale(0.015625)"/>
        <path id="DejaVuSans-30" d="M 2034 4250 
Q 1547 4250 1301 3770 
Q 1056 3291 1056 2328 
Q 1056 1369 1301 889 
Q 1547 409 2034 409 
Q 2525 409 2770 889 
Q 3016 1369 3016 2328 
Q 3016 3291 2770 3770 
Q 2525 4250 2034 4250 
z
M 2034 4750 
Q 2819 4750 3233 4129 
Q 3647 3509 3647 2328 
Q 3647 1150 3233 529 
Q 2819 -91 2034 -91 
Q 1250 -91 836 529 
Q 422 1150 422 2328 
Q 422 3509 836 4129 
Q 1250 4750 2034 4750 
z
" transform="scale(0.015625)"/>
       </defs>
       <use xlink:href="#DejaVuSans-54"/>
       <use xlink:href="#DejaVuSans-31" x="61.083984"/>
       <use xlink:href="#DejaVuSans-30" x="124.707031"/>
      </g>
     </g>
    </g>
    <g id="xtick_2">
     <g id="line2d_2">
      <g>
       <use xlink:href="#m156dc70c59" x="126.507031" y="256.04" style="stroke: #000000; stroke-width: 0.8"/>
      </g>
     </g>
     <g id="text_2">
      <!-- MT10 -->
      <g transform="translate(112.776562 270.638438)scale(0.1 -0.1)">
       <defs>
        <path id="DejaVuSans-4d" d="M 628 4666 
L 1569 4666 
L 2759 1491 
L 3956 4666 
L 4897 4666 
L 4897 0 
L 4281 0 
L 4281 4097 
L 3078 897 
L 2444 897 
L 1241 4097 
L 1241 0 
L 628 0 
L 628 4666 
z
" transform="scale(0.015625)"/>
       </defs>
       <use xlink:href="#DejaVuSans-4d"/>
       <use xlink:href="#DejaVuSans-54" x="86.279297"/>
       <use xlink:href="#DejaVuSans-31" x="147.363281"/>
       <use xlink:href="#DejaVuSans-30" x="210.986328"/>
      </g>
     </g>
    </g>
    <g id="text_3">
     <!-- sample -->
     <g transform="translate(81.049531 284.316562)scale(0.1 -0.1)">
      <defs>
       <path id="DejaVuSans-73" d="M 2834 3397 
L 2834 2853 
Q 2591 2978 2328 3040 
Q 2066 3103 1784 3103 
Q 1356 3103 1142 2972 
Q 928 2841 928 2578 
Q 928 2378 1081 2264 
Q 1234 2150 1697 2047 
L 1894 2003 
Q 2506 1872 2764 1633 
Q 3022 1394 3022 966 
Q 3022 478 2636 193 
Q 2250 -91 1575 -91 
Q 1294 -91 989 -36 
Q 684 19 347 128 
L 347 722 
Q 666 556 975 473 
Q 1284 391 1588 391 
Q 1994 391 2212 530 
Q 2431 669 2431 922 
Q 2431 1156 2273 1281 
Q 2116 1406 1581 1522 
L 1381 1569 
Q 847 1681 609 1914 
Q 372 2147 372 2553 
Q 372 3047 722 3315 
Q 1072 3584 1716 3584 
Q 2034 3584 2315 3537 
Q 2597 3491 2834 3397 
z
" transform="scale(0.015625)"/>
       <path id="DejaVuSans-61" d="M 2194 1759 
Q 1497 1759 1228 1600 
Q 959 1441 959 1056 
Q 959 750 1161 570 
Q 1363 391 1709 391 
Q 2188 391 2477 730 
Q 2766 1069 2766 1631 
L 2766 1759 
L 2194 1759 
z
M 3341 1997 
L 3341 0 
L 2766 0 
L 2766 531 
Q 2569 213 2275 61 
Q 1981 -91 1556 -91 
Q 1019 -91 701 211 
Q 384 513 384 1019 
Q 384 1609 779 1909 
Q 1175 2209 1959 2209 
L 2766 2209 
L 2766 2266 
Q 2766 2663 2505 2880 
Q 2244 3097 1772 3097 
Q 1472 3097 1187 3025 
Q 903 2953 641 2809 
L 641 3341 
Q 956 3463 1253 3523 
Q 1550 3584 1831 3584 
Q 2591 3584 2966 3190 
Q 3341 2797 3341 1997 
z
" transform="scale(0.015625)"/>
       <path id="DejaVuSans-6d" d="M 3328 2828 
Q 3544 3216 3844 3400 
Q 4144 3584 4550 3584 
Q 5097 3584 5394 3201 
Q 5691 2819 5691 2113 
L 5691 0 
L 5113 0 
L 5113 2094 
Q 5113 2597 4934 2840 
Q 4756 3084 4391 3084 
Q 3944 3084 3684 2787 
Q 3425 2491 3425 1978 
L 3425 0 
L 2847 0 
L 2847 2094 
Q 2847 2600 2669 2842 
Q 2491 3084 2119 3084 
Q 1678 3084 1418 2786 
Q 1159 2488 1159 1978 
L 1159 0 
L 581 0 
L 581 3500 
L 1159 3500 
L 1159 2956 
Q 1356 3278 1631 3431 
Q 1906 3584 2284 3584 
Q 2666 3584 2933 3390 
Q 3200 3197 3328 2828 
z
" transform="scale(0.015625)"/>
       <path id="DejaVuSans-70" d="M 1159 525 
L 1159 -1331 
L 581 -1331 
L 581 3500 
L 1159 3500 
L 1159 2969 
Q 1341 3281 1617 3432 
Q 1894 3584 2278 3584 
Q 2916 3584 3314 3078 
Q 3713 2572 3713 1747 
Q 3713 922 3314 415 
Q 2916 -91 2278 -91 
Q 1894 -91 1617 61 
Q 1341 213 1159 525 
z
M 3116 1747 
Q 3116 2381 2855 2742 
Q 2594 3103 2138 3103 
Q 1681 3103 1420 2742 
Q 1159 2381 1159 1747 
Q 1159 1113 1420 752 
Q 1681 391 2138 391 
Q 2594 391 2855 752 
Q 3116 1113 3116 1747 
z
" transform="scale(0.015625)"/>
       <path id="DejaVuSans-6c" d="M 603 4863 
L 1178 4863 
L 1178 0 
L 603 0 
L 603 4863 
z
" transform="scale(0.015625)"/>
       <path id="DejaVuSans-65" d="M 3597 1894 
L 3597 1613 
L 953 1613 
Q 991 1019 1311 708 
Q 1631 397 2203 397 
Q 2534 397 2845 478 
Q 3156 559 3463 722 
L 3463 178 
Q 3153 47 2828 -22 
Q 2503 -91 2169 -91 
Q 1331 -91 842 396 
Q 353 884 353 1716 
Q 353 2575 817 3079 
Q 1281 3584 2069 3584 
Q 2775 3584 3186 3129 
Q 3597 2675 3597 1894 
z
M 3022 2063 
Q 3016 2534 2758 2815 
Q 2500 3097 2075 3097 
Q 1594 3097 1305 2825 
Q 1016 2553 972 2059 
L 3022 2063 
z
" transform="scale(0.015625)"/>
      </defs>
      <use xlink:href="#DejaVuSans-73"/>
      <use xlink:href="#DejaVuSans-61" x="52.099609"/>
      <use xlink:href="#DejaVuSans-6d" x="113.378906"/>
      <use xlink:href="#DejaVuSans-70" x="210.791016"/>
      <use xlink:href="#DejaVuSans-6c" x="274.267578"/>
      <use xlink:href="#DejaVuSans-65" x="302.050781"/>
     </g>
    </g>
   </g>
   <g id="matplotlib.axis_2">
    <g id="ytick_1">
     <g id="line2d_3">
      <defs>
       <path id="mfae354253f" d="M 0 0 
L -3.5 0 
" style="stroke: #000000; stroke-width: 0.8"/>
      </defs>
      <g>
       <use xlink:href="#mfae354253f" x="34.67125" y="233.983032" style="stroke: #000000; stroke-width: 0.8"/>
      </g>
     </g>
     <g id="text_4">
      <!-- 0 -->
      <g transform="translate(21.30875 237.782251)scale(0.1 -0.1)">
       <use xlink:href="#DejaVuSans-30"/>
      </g>
     </g>
    </g>
    <g id="ytick_2">
     <g id="line2d_4">
      <g>
       <use xlink:href="#mfae354253f" x="34.67125" y="199.124488" style="stroke: #000000; stroke-width: 0.8"/>
      </g>
     </g>
     <g id="text_5">
      <!-- 2 -->
      <g transform="translate(21.30875 202.923706)scale(0.1 -0.1)">
       <defs>
        <path id="DejaVuSans-32" d="M 1228 531 
L 3431 531 
L 3431 0 
L 469 0 
L 469 531 
Q 828 903 1448 1529 
Q 2069 2156 2228 2338 
Q 2531 2678 2651 2914 
Q 2772 3150 2772 3378 
Q 2772 3750 2511 3984 
Q 2250 4219 1831 4219 
Q 1534 4219 1204 4116 
Q 875 4013 500 3803 
L 500 4441 
Q 881 4594 1212 4672 
Q 1544 4750 1819 4750 
Q 2544 4750 2975 4387 
Q 3406 4025 3406 3419 
Q 3406 3131 3298 2873 
Q 3191 2616 2906 2266 
Q 2828 2175 2409 1742 
Q 1991 1309 1228 531 
z
" transform="scale(0.015625)"/>
       </defs>
       <use xlink:href="#DejaVuSans-32"/>
      </g>
     </g>
    </g>
    <g id="ytick_3">
     <g id="line2d_5">
      <g>
       <use xlink:href="#mfae354253f" x="34.67125" y="164.265943" style="stroke: #000000; stroke-width: 0.8"/>
      </g>
     </g>
     <g id="text_6">
      <!-- 4 -->
      <g transform="translate(21.30875 168.065162)scale(0.1 -0.1)">
       <defs>
        <path id="DejaVuSans-34" d="M 2419 4116 
L 825 1625 
L 2419 1625 
L 2419 4116 
z
M 2253 4666 
L 3047 4666 
L 3047 1625 
L 3713 1625 
L 3713 1100 
L 3047 1100 
L 3047 0 
L 2419 0 
L 2419 1100 
L 313 1100 
L 313 1709 
L 2253 4666 
z
" transform="scale(0.015625)"/>
       </defs>
       <use xlink:href="#DejaVuSans-34"/>
      </g>
     </g>
    </g>
    <g id="ytick_4">
     <g id="line2d_6">
      <g>
       <use xlink:href="#mfae354253f" x="34.67125" y="129.407398" style="stroke: #000000; stroke-width: 0.8"/>
      </g>
     </g>
     <g id="text_7">
      <!-- 6 -->
      <g transform="translate(21.30875 133.206617)scale(0.1 -0.1)">
       <defs>
        <path id="DejaVuSans-36" d="M 2113 2584 
Q 1688 2584 1439 2293 
Q 1191 2003 1191 1497 
Q 1191 994 1439 701 
Q 1688 409 2113 409 
Q 2538 409 2786 701 
Q 3034 994 3034 1497 
Q 3034 2003 2786 2293 
Q 2538 2584 2113 2584 
z
M 3366 4563 
L 3366 3988 
Q 3128 4100 2886 4159 
Q 2644 4219 2406 4219 
Q 1781 4219 1451 3797 
Q 1122 3375 1075 2522 
Q 1259 2794 1537 2939 
Q 1816 3084 2150 3084 
Q 2853 3084 3261 2657 
Q 3669 2231 3669 1497 
Q 3669 778 3244 343 
Q 2819 -91 2113 -91 
Q 1303 -91 875 529 
Q 447 1150 447 2328 
Q 447 3434 972 4092 
Q 1497 4750 2381 4750 
Q 2619 4750 2861 4703 
Q 3103 4656 3366 4563 
z
" transform="scale(0.015625)"/>
       </defs>
       <use xlink:href="#DejaVuSans-36"/>
      </g>
     </g>
    </g>
    <g id="ytick_5">
     <g id="line2d_7">
      <g>
       <use xlink:href="#mfae354253f" x="34.67125" y="94.548853" style="stroke: #000000; stroke-width: 0.8"/>
      </g>
     </g>
     <g id="text_8">
      <!-- 8 -->
      <g transform="translate(21.30875 98.348072)scale(0.1 -0.1)">
       <defs>
        <path id="DejaVuSans-38" d="M 2034 2216 
Q 1584 2216 1326 1975 
Q 1069 1734 1069 1313 
Q 1069 891 1326 650 
Q 1584 409 2034 409 
Q 2484 409 2743 651 
Q 3003 894 3003 1313 
Q 3003 1734 2745 1975 
Q 2488 2216 2034 2216 
z
M 1403 2484 
Q 997 2584 770 2862 
Q 544 3141 544 3541 
Q 544 4100 942 4425 
Q 1341 4750 2034 4750 
Q 2731 4750 3128 4425 
Q 3525 4100 3525 3541 
Q 3525 3141 3298 2862 
Q 3072 2584 2669 2484 
Q 3125 2378 3379 2068 
Q 3634 1759 3634 1313 
Q 3634 634 3220 271 
Q 2806 -91 2034 -91 
Q 1263 -91 848 271 
Q 434 634 434 1313 
Q 434 1759 690 2068 
Q 947 2378 1403 2484 
z
M 1172 3481 
Q 1172 3119 1398 2916 
Q 1625 2713 2034 2713 
Q 2441 2713 2670 2916 
Q 2900 3119 2900 3481 
Q 2900 3844 2670 4047 
Q 2441 4250 2034 4250 
Q 1625 4250 1398 4047 
Q 1172 3844 1172 3481 
z
" transform="scale(0.015625)"/>
       </defs>
       <use xlink:href="#DejaVuSans-38"/>
      </g>
     </g>
    </g>
    <g id="ytick_6">
     <g id="line2d_8">
      <g>
       <use xlink:href="#mfae354253f" x="34.67125" y="59.690309" style="stroke: #000000; stroke-width: 0.8"/>
      </g>
     </g>
     <g id="text_9">
      <!-- 10 -->
      <g transform="translate(14.94625 63.489528)scale(0.1 -0.1)">
       <use xlink:href="#DejaVuSans-31"/>
       <use xlink:href="#DejaVuSans-30" x="63.623047"/>
      </g>
     </g>
    </g>
    <g id="ytick_7">
     <g id="line2d_9">
      <g>
       <use xlink:href="#mfae354253f" x="34.67125" y="24.831764" style="stroke: #000000; stroke-width: 0.8"/>
      </g>
     </g>
     <g id="text_10">
      <!-- 12 -->
      <g transform="translate(14.94625 28.630983)scale(0.1 -0.1)">
       <use xlink:href="#DejaVuSans-31"/>
       <use xlink:href="#DejaVuSans-32" x="63.623047"/>
      </g>
     </g>
    </g>
    <g id="text_11">
     <!-- percent_diff -->
     <g transform="translate(8.588437 165.112031)rotate(-90)scale(0.1 -0.1)">
      <defs>
       <path id="DejaVuSans-72" d="M 2631 2963 
Q 2534 3019 2420 3045 
Q 2306 3072 2169 3072 
Q 1681 3072 1420 2755 
Q 1159 2438 1159 1844 
L 1159 0 
L 581 0 
L 581 3500 
L 1159 3500 
L 1159 2956 
Q 1341 3275 1631 3429 
Q 1922 3584 2338 3584 
Q 2397 3584 2469 3576 
Q 2541 3569 2628 3553 
L 2631 2963 
z
" transform="scale(0.015625)"/>
       <path id="DejaVuSans-63" d="M 3122 3366 
L 3122 2828 
Q 2878 2963 2633 3030 
Q 2388 3097 2138 3097 
Q 1578 3097 1268 2742 
Q 959 2388 959 1747 
Q 959 1106 1268 751 
Q 1578 397 2138 397 
Q 2388 397 2633 464 
Q 2878 531 3122 666 
L 3122 134 
Q 2881 22 2623 -34 
Q 2366 -91 2075 -91 
Q 1284 -91 818 406 
Q 353 903 353 1747 
Q 353 2603 823 3093 
Q 1294 3584 2113 3584 
Q 2378 3584 2631 3529 
Q 2884 3475 3122 3366 
z
" transform="scale(0.015625)"/>
       <path id="DejaVuSans-6e" d="M 3513 2113 
L 3513 0 
L 2938 0 
L 2938 2094 
Q 2938 2591 2744 2837 
Q 2550 3084 2163 3084 
Q 1697 3084 1428 2787 
Q 1159 2491 1159 1978 
L 1159 0 
L 581 0 
L 581 3500 
L 1159 3500 
L 1159 2956 
Q 1366 3272 1645 3428 
Q 1925 3584 2291 3584 
Q 2894 3584 3203 3211 
Q 3513 2838 3513 2113 
z
" transform="scale(0.015625)"/>
       <path id="DejaVuSans-74" d="M 1172 4494 
L 1172 3500 
L 2356 3500 
L 2356 3053 
L 1172 3053 
L 1172 1153 
Q 1172 725 1289 603 
Q 1406 481 1766 481 
L 2356 481 
L 2356 0 
L 1766 0 
Q 1100 0 847 248 
Q 594 497 594 1153 
L 594 3053 
L 172 3053 
L 172 3500 
L 594 3500 
L 594 4494 
L 1172 4494 
z
" transform="scale(0.015625)"/>
       <path id="DejaVuSans-5f" d="M 3263 -1063 
L 3263 -1509 
L -63 -1509 
L -63 -1063 
L 3263 -1063 
z
" transform="scale(0.015625)"/>
       <path id="DejaVuSans-64" d="M 2906 2969 
L 2906 4863 
L 3481 4863 
L 3481 0 
L 2906 0 
L 2906 525 
Q 2725 213 2448 61 
Q 2172 -91 1784 -91 
Q 1150 -91 751 415 
Q 353 922 353 1747 
Q 353 2572 751 3078 
Q 1150 3584 1784 3584 
Q 2172 3584 2448 3432 
Q 2725 3281 2906 2969 
z
M 947 1747 
Q 947 1113 1208 752 
Q 1469 391 1925 391 
Q 2381 391 2643 752 
Q 2906 1113 2906 1747 
Q 2906 2381 2643 2742 
Q 2381 3103 1925 3103 
Q 1469 3103 1208 2742 
Q 947 2381 947 1747 
z
" transform="scale(0.015625)"/>
       <path id="DejaVuSans-69" d="M 603 3500 
L 1178 3500 
L 1178 0 
L 603 0 
L 603 3500 
z
M 603 4863 
L 1178 4863 
L 1178 4134 
L 603 4134 
L 603 4863 
z
" transform="scale(0.015625)"/>
       <path id="DejaVuSans-66" d="M 2375 4863 
L 2375 4384 
L 1825 4384 
Q 1516 4384 1395 4259 
Q 1275 4134 1275 3809 
L 1275 3500 
L 2222 3500 
L 2222 3053 
L 1275 3053 
L 1275 0 
L 697 0 
L 697 3053 
L 147 3053 
L 147 3500 
L 697 3500 
L 697 3744 
Q 697 4328 969 4595 
Q 1241 4863 1831 4863 
L 2375 4863 
z
" transform="scale(0.015625)"/>
      </defs>
      <use xlink:href="#DejaVuSans-70"/>
      <use xlink:href="#DejaVuSans-65" x="63.476562"/>
      <use xlink:href="#DejaVuSans-72" x="125"/>
      <use xlink:href="#DejaVuSans-63" x="163.863281"/>
      <use xlink:href="#DejaVuSans-65" x="218.84375"/>
      <use xlink:href="#DejaVuSans-6e" x="280.367188"/>
      <use xlink:href="#DejaVuSans-74" x="343.746094"/>
      <use xlink:href="#DejaVuSans-5f" x="382.955078"/>
      <use xlink:href="#DejaVuSans-64" x="432.955078"/>
      <use xlink:href="#DejaVuSans-69" x="496.431641"/>
      <use xlink:href="#DejaVuSans-66" x="524.214844"/>
      <use xlink:href="#DejaVuSans-66" x="559.419922"/>
     </g>
    </g>
   </g>
   <g id="line2d_10">
    <path d="M 71.949844 233.982799 
L 71.949844 225.655239 
" clip-path="url(#p52f63ebcf4)" style="fill: none; stroke: #3f3f3f; stroke-width: 1.5; stroke-linecap: square"/>
   </g>
   <g id="line2d_11">
    <path d="M 71.949844 233.238128 
L 71.949844 230.19803 
" clip-path="url(#p52f63ebcf4)" style="fill: none; stroke: #3f3f3f; stroke-width: 4.5; stroke-linecap: square"/>
   </g>
   <g id="line2d_12">
    <path d="M 126.507031 233.982827 
L 126.507031 226.450595 
" clip-path="url(#p52f63ebcf4)" style="fill: none; stroke: #3f3f3f; stroke-width: 1.5; stroke-linecap: square"/>
   </g>
   <g id="line2d_13">
    <path d="M 126.507031 233.325639 
L 126.507031 230.575465 
" clip-path="url(#p52f63ebcf4)" style="fill: none; stroke: #3f3f3f; stroke-width: 4.5; stroke-linecap: square"/>
   </g>
   <g id="patch_3">
    <path d="M 34.67125 233.983032 
L 34.67125 24.831764 
" style="fill: none; stroke: #000000; stroke-width: 0.8; stroke-linejoin: miter; stroke-linecap: square"/>
   </g>
   <g id="patch_4">
    <path d="M 71.949844 256.04 
L 126.507031 256.04 
" style="fill: none; stroke: #000000; stroke-width: 0.8; stroke-linejoin: miter; stroke-linecap: square"/>
   </g>
   <g id="PathCollection_1">
    <defs>
     <path id="mf8d711ad03" d="M 0 1.5 
C 0.397805 1.5 0.77937 1.341951 1.06066 1.06066 
C 1.341951 0.77937 1.5 0.397805 1.5 0 
C 1.5 -0.397805 1.341951 -0.77937 1.06066 -1.06066 
C 0.77937 -1.341951 0.397805 -1.5 0 -1.5 
C -0.397805 -1.5 -0.77937 -1.341951 -1.06066 -1.06066 
C -1.341951 -0.77937 -1.5 -0.397805 -1.5 0 
C -1.5 0.397805 -1.341951 0.77937 -1.06066 1.06066 
C -0.77937 1.341951 -0.397805 1.5 0 1.5 
z
" style="stroke: #3f3f3f"/>
    </defs>
    <g clip-path="url(#p52f63ebcf4)">
     <use xlink:href="#mf8d711ad03" x="71.949844" y="232.18919" style="fill: #ffffff; stroke: #3f3f3f"/>
    </g>
   </g>
   <g id="PathCollection_2">
    <g clip-path="url(#p52f63ebcf4)">
     <use xlink:href="#mf8d711ad03" x="126.507031" y="232.416623" style="fill: #ffffff; stroke: #3f3f3f"/>
    </g>
   </g>
   <g id="text_12">
    <!-- column = PGC -->
    <g transform="translate(63.074531 18.72)scale(0.1 -0.1)">
     <defs>
      <path id="DejaVuSans-6f" d="M 1959 3097 
Q 1497 3097 1228 2736 
Q 959 2375 959 1747 
Q 959 1119 1226 758 
Q 1494 397 1959 397 
Q 2419 397 2687 759 
Q 2956 1122 2956 1747 
Q 2956 2369 2687 2733 
Q 2419 3097 1959 3097 
z
M 1959 3584 
Q 2709 3584 3137 3096 
Q 3566 2609 3566 1747 
Q 3566 888 3137 398 
Q 2709 -91 1959 -91 
Q 1206 -91 779 398 
Q 353 888 353 1747 
Q 353 2609 779 3096 
Q 1206 3584 1959 3584 
z
" transform="scale(0.015625)"/>
      <path id="DejaVuSans-75" d="M 544 1381 
L 544 3500 
L 1119 3500 
L 1119 1403 
Q 1119 906 1312 657 
Q 1506 409 1894 409 
Q 2359 409 2629 706 
Q 2900 1003 2900 1516 
L 2900 3500 
L 3475 3500 
L 3475 0 
L 2900 0 
L 2900 538 
Q 2691 219 2414 64 
Q 2138 -91 1772 -91 
Q 1169 -91 856 284 
Q 544 659 544 1381 
z
M 1991 3584 
L 1991 3584 
z
" transform="scale(0.015625)"/>
      <path id="DejaVuSans-20" transform="scale(0.015625)"/>
      <path id="DejaVuSans-3d" d="M 678 2906 
L 4684 2906 
L 4684 2381 
L 678 2381 
L 678 2906 
z
M 678 1631 
L 4684 1631 
L 4684 1100 
L 678 1100 
L 678 1631 
z
" transform="scale(0.015625)"/>
      <path id="DejaVuSans-50" d="M 1259 4147 
L 1259 2394 
L 2053 2394 
Q 2494 2394 2734 2622 
Q 2975 2850 2975 3272 
Q 2975 3691 2734 3919 
Q 2494 4147 2053 4147 
L 1259 4147 
z
M 628 4666 
L 2053 4666 
Q 2838 4666 3239 4311 
Q 3641 3956 3641 3272 
Q 3641 2581 3239 2228 
Q 2838 1875 2053 1875 
L 1259 1875 
L 1259 0 
L 628 0 
L 628 4666 
z
" transform="scale(0.015625)"/>
      <path id="DejaVuSans-47" d="M 3809 666 
L 3809 1919 
L 2778 1919 
L 2778 2438 
L 4434 2438 
L 4434 434 
Q 4069 175 3628 42 
Q 3188 -91 2688 -91 
Q 1594 -91 976 548 
Q 359 1188 359 2328 
Q 359 3472 976 4111 
Q 1594 4750 2688 4750 
Q 3144 4750 3555 4637 
Q 3966 4525 4313 4306 
L 4313 3634 
Q 3963 3931 3569 4081 
Q 3175 4231 2741 4231 
Q 1884 4231 1454 3753 
Q 1025 3275 1025 2328 
Q 1025 1384 1454 906 
Q 1884 428 2741 428 
Q 3075 428 3337 486 
Q 3600 544 3809 666 
z
" transform="scale(0.015625)"/>
      <path id="DejaVuSans-43" d="M 4122 4306 
L 4122 3641 
Q 3803 3938 3442 4084 
Q 3081 4231 2675 4231 
Q 1875 4231 1450 3742 
Q 1025 3253 1025 2328 
Q 1025 1406 1450 917 
Q 1875 428 2675 428 
Q 3081 428 3442 575 
Q 3803 722 4122 1019 
L 4122 359 
Q 3791 134 3420 21 
Q 3050 -91 2638 -91 
Q 1578 -91 968 557 
Q 359 1206 359 2328 
Q 359 3453 968 4101 
Q 1578 4750 2638 4750 
Q 3056 4750 3426 4639 
Q 3797 4528 4122 4306 
z
" transform="scale(0.015625)"/>
     </defs>
     <use xlink:href="#DejaVuSans-63"/>
     <use xlink:href="#DejaVuSans-6f" x="54.980469"/>
     <use xlink:href="#DejaVuSans-6c" x="116.162109"/>
     <use xlink:href="#DejaVuSans-75" x="143.945312"/>
     <use xlink:href="#DejaVuSans-6d" x="207.324219"/>
     <use xlink:href="#DejaVuSans-6e" x="304.736328"/>
     <use xlink:href="#DejaVuSans-20" x="368.115234"/>
     <use xlink:href="#DejaVuSans-3d" x="399.902344"/>
     <use xlink:href="#DejaVuSans-20" x="483.691406"/>
     <use xlink:href="#DejaVuSans-50" x="515.478516"/>
     <use xlink:href="#DejaVuSans-47" x="575.78125"/>
     <use xlink:href="#DejaVuSans-43" x="653.271484"/>
    </g>
   </g>
  </g>
  <g id="axes_2">
   <g id="patch_5">
    <path d="M 168.085625 246.04 
L 277.2 246.04 
L 277.2 24.72 
L 168.085625 24.72 
z
" style="fill: #ffffff"/>
   </g>
   <g id="PolyCollection_3">
    <defs>
     <path id="mb92fc41e09" d="M 196.283767 -52.463248 
L 194.444671 -52.463248 
L 187.138218 -53.40536 
L 173.667991 -54.347471 
L 173.541344 -55.289583 
L 182.130893 -56.231694 
L 187.895868 -57.173805 
L 190.579442 -58.115917 
L 192.041827 -59.058028 
L 193.08229 -60.000139 
L 193.755135 -60.942251 
L 194.04905 -61.884362 
L 194.334249 -62.826473 
L 194.634367 -63.768585 
L 194.811765 -64.710696 
L 194.891316 -65.652807 
L 194.974628 -66.594919 
L 195.125979 -67.53703 
L 195.178267 -68.479141 
L 195.184344 -69.421253 
L 195.185938 -70.363364 
L 195.158592 -71.305476 
L 195.162818 -72.247587 
L 195.235699 -73.189698 
L 195.287063 -74.13181 
L 195.290009 -75.073921 
L 195.306223 -76.016032 
L 195.317222 -76.958144 
L 195.319526 -77.900255 
L 195.336932 -78.842366 
L 195.339964 -79.784478 
L 195.340339 -80.726589 
L 195.343003 -81.6687 
L 195.332774 -82.610812 
L 195.329738 -83.552923 
L 195.34776 -84.495035 
L 195.361958 -85.437146 
L 195.362735 -86.379257 
L 195.353555 -87.321369 
L 195.340405 -88.26348 
L 195.34086 -89.205591 
L 195.343328 -90.147703 
L 195.347501 -91.089814 
L 195.358042 -92.031925 
L 195.362941 -92.974037 
L 195.358278 -93.916148 
L 195.351683 -94.858259 
L 195.358115 -95.800371 
L 195.363535 -96.742482 
L 195.364201 -97.684593 
L 195.364219 -98.626705 
L 195.364219 -99.568816 
L 195.364218 -100.510928 
L 195.364133 -101.453039 
L 195.362335 -102.39515 
L 195.35465 -103.337262 
L 195.353029 -104.279373 
L 195.361145 -105.221484 
L 195.362485 -106.163596 
L 195.355358 -107.105707 
L 195.352548 -108.047818 
L 195.36068 -108.98993 
L 195.363972 -109.932041 
L 195.364215 -110.874152 
L 195.364219 -111.816264 
L 195.364219 -112.758375 
L 195.364219 -113.700487 
L 195.364219 -114.642598 
L 195.364219 -115.584709 
L 195.364219 -116.526821 
L 195.364219 -117.468932 
L 195.364219 -118.411043 
L 195.364219 -119.353155 
L 195.364219 -120.295266 
L 195.364219 -121.237377 
L 195.364219 -122.179489 
L 195.364219 -123.1216 
L 195.364219 -124.063711 
L 195.364219 -125.005823 
L 195.364219 -125.947934 
L 195.364219 -126.890045 
L 195.364219 -127.832157 
L 195.364219 -128.774268 
L 195.364219 -129.71638 
L 195.364219 -130.658491 
L 195.364219 -131.600602 
L 195.364219 -132.542714 
L 195.364219 -133.484825 
L 195.364219 -134.426936 
L 195.364219 -135.369048 
L 195.364219 -136.311159 
L 195.364219 -137.25327 
L 195.364219 -138.195382 
L 195.364219 -139.137493 
L 195.364219 -140.079604 
L 195.364215 -141.021716 
L 195.364002 -141.963827 
L 195.360931 -142.905939 
L 195.35276 -143.84805 
L 195.355028 -144.790161 
L 195.362522 -145.732273 
L 195.365915 -145.732273 
L 195.365915 -145.732273 
L 195.37341 -144.790161 
L 195.375678 -143.84805 
L 195.367507 -142.905939 
L 195.364436 -141.963827 
L 195.364222 -141.021716 
L 195.364219 -140.079604 
L 195.364219 -139.137493 
L 195.364219 -138.195382 
L 195.364219 -137.25327 
L 195.364219 -136.311159 
L 195.364219 -135.369048 
L 195.364219 -134.426936 
L 195.364219 -133.484825 
L 195.364219 -132.542714 
L 195.364219 -131.600602 
L 195.364219 -130.658491 
L 195.364219 -129.71638 
L 195.364219 -128.774268 
L 195.364219 -127.832157 
L 195.364219 -126.890045 
L 195.364219 -125.947934 
L 195.364219 -125.005823 
L 195.364219 -124.063711 
L 195.364219 -123.1216 
L 195.364219 -122.179489 
L 195.364219 -121.237377 
L 195.364219 -120.295266 
L 195.364219 -119.353155 
L 195.364219 -118.411043 
L 195.364219 -117.468932 
L 195.364219 -116.526821 
L 195.364219 -115.584709 
L 195.364219 -114.642598 
L 195.364219 -113.700487 
L 195.364219 -112.758375 
L 195.364219 -111.816264 
L 195.364223 -110.874152 
L 195.364466 -109.932041 
L 195.367758 -108.98993 
L 195.375889 -108.047818 
L 195.373079 -107.105707 
L 195.365953 -106.163596 
L 195.367292 -105.221484 
L 195.375408 -104.279373 
L 195.373788 -103.337262 
L 195.366102 -102.39515 
L 195.364304 -101.453039 
L 195.36422 -100.510928 
L 195.364219 -99.568816 
L 195.364219 -98.626705 
L 195.364236 -97.684593 
L 195.364903 -96.742482 
L 195.370323 -95.800371 
L 195.376755 -94.858259 
L 195.37016 -93.916148 
L 195.365496 -92.974037 
L 195.370396 -92.031925 
L 195.380937 -91.089814 
L 195.385109 -90.147703 
L 195.387577 -89.205591 
L 195.388032 -88.26348 
L 195.374882 -87.321369 
L 195.365703 -86.379257 
L 195.366479 -85.437146 
L 195.380678 -84.495035 
L 195.398699 -83.552923 
L 195.395663 -82.610812 
L 195.385434 -81.6687 
L 195.388098 -80.726589 
L 195.388474 -79.784478 
L 195.391505 -78.842366 
L 195.408912 -77.900255 
L 195.411216 -76.958144 
L 195.422215 -76.016032 
L 195.438428 -75.073921 
L 195.441375 -74.13181 
L 195.492739 -73.189698 
L 195.565619 -72.247587 
L 195.569845 -71.305476 
L 195.5425 -70.363364 
L 195.544094 -69.421253 
L 195.55017 -68.479141 
L 195.602459 -67.53703 
L 195.753809 -66.594919 
L 195.837122 -65.652807 
L 195.916673 -64.710696 
L 196.094071 -63.768585 
L 196.394188 -62.826473 
L 196.679388 -61.884362 
L 196.973303 -60.942251 
L 197.646148 -60.000139 
L 198.68661 -59.058028 
L 200.148996 -58.115917 
L 202.83257 -57.173805 
L 208.597545 -56.231694 
L 217.187094 -55.289583 
L 217.060447 -54.347471 
L 203.590219 -53.40536 
L 196.283767 -52.463248 
z
" style="stroke: #3f3f3f; stroke-width: 1.5"/>
    </defs>
    <g clip-path="url(#p676d56b9d9)">
     <use xlink:href="#mb92fc41e09" x="0" y="288" style="fill: #3274a1; stroke: #3f3f3f; stroke-width: 1.5"/>
    </g>
   </g>
   <g id="PolyCollection_4">
    <defs>
     <path id="m29a8ccd584" d="M 250.817653 -52.02 
L 249.025159 -52.02 
L 233.489285 -54.052323 
L 234.978122 -56.084646 
L 244.896896 -58.11697 
L 247.795621 -60.149293 
L 248.835291 -62.181616 
L 249.209654 -64.213939 
L 249.472942 -66.246263 
L 249.656038 -68.278586 
L 249.740467 -70.310909 
L 249.790695 -72.343232 
L 249.837422 -74.375556 
L 249.88644 -76.407879 
L 249.872971 -78.440202 
L 249.849074 -80.472525 
L 249.877217 -82.504848 
L 249.917813 -84.537172 
L 249.920762 -86.569495 
L 249.90825 -88.601818 
L 249.898053 -90.634141 
L 249.910869 -92.666465 
L 249.921275 -94.698788 
L 249.921406 -96.731111 
L 249.921395 -98.763434 
L 249.918905 -100.795758 
L 249.91233 -102.828081 
L 249.920882 -104.860404 
L 249.921406 -106.892727 
L 249.921406 -108.925051 
L 249.921406 -110.957374 
L 249.921406 -112.989697 
L 249.921406 -115.02202 
L 249.921406 -117.054343 
L 249.921406 -119.086667 
L 249.921406 -121.11899 
L 249.921406 -123.151313 
L 249.921406 -125.183636 
L 249.921406 -127.21596 
L 249.921406 -129.248283 
L 249.921406 -131.280606 
L 249.921406 -133.312929 
L 249.921406 -135.345253 
L 249.921406 -137.377576 
L 249.921406 -139.409899 
L 249.921406 -141.442222 
L 249.921406 -143.474545 
L 249.920869 -145.506869 
L 249.912295 -147.539192 
L 249.918947 -149.571515 
L 249.921396 -151.603838 
L 249.921406 -153.636162 
L 249.921406 -155.668485 
L 249.921406 -157.700808 
L 249.921406 -159.733131 
L 249.921406 -161.765455 
L 249.921406 -163.797778 
L 249.921406 -165.830101 
L 249.921406 -167.862424 
L 249.921406 -169.894747 
L 249.921406 -171.927071 
L 249.921406 -173.959394 
L 249.921406 -175.991717 
L 249.921406 -178.02404 
L 249.921406 -180.056364 
L 249.921406 -182.088687 
L 249.921406 -184.12101 
L 249.921406 -186.153333 
L 249.921406 -188.185657 
L 249.921406 -190.21798 
L 249.921406 -192.250303 
L 249.921406 -194.282626 
L 249.921406 -196.314949 
L 249.921406 -198.347273 
L 249.921406 -200.379596 
L 249.921406 -202.411919 
L 249.921406 -204.444242 
L 249.921406 -206.476566 
L 249.921406 -208.508889 
L 249.921406 -210.541212 
L 249.921406 -212.573535 
L 249.921406 -214.605859 
L 249.921406 -216.638182 
L 249.921406 -218.670505 
L 249.921406 -220.702828 
L 249.921406 -222.735152 
L 249.921406 -224.767475 
L 249.921406 -226.799798 
L 249.921406 -228.832121 
L 249.921406 -230.864444 
L 249.921406 -232.896768 
L 249.921406 -234.929091 
L 249.921406 -236.961414 
L 249.921406 -238.993737 
L 249.921406 -241.026061 
L 249.921406 -243.058384 
L 249.921406 -245.090707 
L 249.921404 -247.12303 
L 249.920258 -249.155354 
L 249.911642 -251.187677 
L 249.920084 -253.22 
L 249.922729 -253.22 
L 249.922729 -253.22 
L 249.931171 -251.187677 
L 249.922554 -249.155354 
L 249.921408 -247.12303 
L 249.921406 -245.090707 
L 249.921406 -243.058384 
L 249.921406 -241.026061 
L 249.921406 -238.993737 
L 249.921406 -236.961414 
L 249.921406 -234.929091 
L 249.921406 -232.896768 
L 249.921406 -230.864444 
L 249.921406 -228.832121 
L 249.921406 -226.799798 
L 249.921406 -224.767475 
L 249.921406 -222.735152 
L 249.921406 -220.702828 
L 249.921406 -218.670505 
L 249.921406 -216.638182 
L 249.921406 -214.605859 
L 249.921406 -212.573535 
L 249.921406 -210.541212 
L 249.921406 -208.508889 
L 249.921406 -206.476566 
L 249.921406 -204.444242 
L 249.921406 -202.411919 
L 249.921406 -200.379596 
L 249.921406 -198.347273 
L 249.921406 -196.314949 
L 249.921406 -194.282626 
L 249.921406 -192.250303 
L 249.921406 -190.21798 
L 249.921406 -188.185657 
L 249.921406 -186.153333 
L 249.921406 -184.12101 
L 249.921406 -182.088687 
L 249.921406 -180.056364 
L 249.921406 -178.02404 
L 249.921406 -175.991717 
L 249.921406 -173.959394 
L 249.921406 -171.927071 
L 249.921406 -169.894747 
L 249.921406 -167.862424 
L 249.921406 -165.830101 
L 249.921406 -163.797778 
L 249.921406 -161.765455 
L 249.921406 -159.733131 
L 249.921406 -157.700808 
L 249.921406 -155.668485 
L 249.921406 -153.636162 
L 249.921417 -151.603838 
L 249.923866 -149.571515 
L 249.930517 -147.539192 
L 249.921944 -145.506869 
L 249.921407 -143.474545 
L 249.921406 -141.442222 
L 249.921406 -139.409899 
L 249.921406 -137.377576 
L 249.921406 -135.345253 
L 249.921406 -133.312929 
L 249.921406 -131.280606 
L 249.921406 -129.248283 
L 249.921406 -127.21596 
L 249.921406 -125.183636 
L 249.921406 -123.151313 
L 249.921406 -121.11899 
L 249.921406 -119.086667 
L 249.921406 -117.054343 
L 249.921406 -115.02202 
L 249.921406 -112.989697 
L 249.921406 -110.957374 
L 249.921406 -108.925051 
L 249.921407 -106.892727 
L 249.921931 -104.860404 
L 249.930482 -102.828081 
L 249.923908 -100.795758 
L 249.921417 -98.763434 
L 249.921406 -96.731111 
L 249.921537 -94.698788 
L 249.931944 -92.666465 
L 249.94476 -90.634141 
L 249.934563 -88.601818 
L 249.92205 -86.569495 
L 249.925 -84.537172 
L 249.965595 -82.504848 
L 249.993739 -80.472525 
L 249.969842 -78.440202 
L 249.956372 -76.407879 
L 250.005391 -74.375556 
L 250.052117 -72.343232 
L 250.102346 -70.310909 
L 250.186775 -68.278586 
L 250.36987 -66.246263 
L 250.633158 -64.213939 
L 251.007522 -62.181616 
L 252.047192 -60.149293 
L 254.945917 -58.11697 
L 264.864691 -56.084646 
L 266.353528 -54.052323 
L 250.817653 -52.02 
z
" style="stroke: #3f3f3f; stroke-width: 1.5"/>
    </defs>
    <g clip-path="url(#p676d56b9d9)">
     <use xlink:href="#m29a8ccd584" x="0" y="288" style="fill: #3274a1; stroke: #3f3f3f; stroke-width: 1.5"/>
    </g>
   </g>
   <g id="matplotlib.axis_3">
    <g id="xtick_3">
     <g id="line2d_14">
      <g>
       <use xlink:href="#m156dc70c59" x="195.364219" y="256.04" style="stroke: #000000; stroke-width: 0.8"/>
      </g>
     </g>
     <g id="text_13">
      <!-- T10 -->
      <g transform="translate(185.947813 270.638438)scale(0.1 -0.1)">
       <use xlink:href="#DejaVuSans-54"/>
       <use xlink:href="#DejaVuSans-31" x="61.083984"/>
       <use xlink:href="#DejaVuSans-30" x="124.707031"/>
      </g>
     </g>
    </g>
    <g id="xtick_4">
     <g id="line2d_15">
      <g>
       <use xlink:href="#m156dc70c59" x="249.921406" y="256.04" style="stroke: #000000; stroke-width: 0.8"/>
      </g>
     </g>
     <g id="text_14">
      <!-- MT10 -->
      <g transform="translate(236.190938 270.638438)scale(0.1 -0.1)">
       <use xlink:href="#DejaVuSans-4d"/>
       <use xlink:href="#DejaVuSans-54" x="86.279297"/>
       <use xlink:href="#DejaVuSans-31" x="147.363281"/>
       <use xlink:href="#DejaVuSans-30" x="210.986328"/>
      </g>
     </g>
    </g>
    <g id="text_15">
     <!-- sample -->
     <g transform="translate(204.463906 284.316562)scale(0.1 -0.1)">
      <use xlink:href="#DejaVuSans-73"/>
      <use xlink:href="#DejaVuSans-61" x="52.099609"/>
      <use xlink:href="#DejaVuSans-6d" x="113.378906"/>
      <use xlink:href="#DejaVuSans-70" x="210.791016"/>
      <use xlink:href="#DejaVuSans-6c" x="274.267578"/>
      <use xlink:href="#DejaVuSans-65" x="302.050781"/>
     </g>
    </g>
   </g>
   <g id="matplotlib.axis_4">
    <g id="ytick_8">
     <g id="line2d_16">
      <g>
       <use xlink:href="#mfae354253f" x="158.085625" y="233.983032" style="stroke: #000000; stroke-width: 0.8"/>
      </g>
     </g>
    </g>
    <g id="ytick_9">
     <g id="line2d_17">
      <g>
       <use xlink:href="#mfae354253f" x="158.085625" y="199.124488" style="stroke: #000000; stroke-width: 0.8"/>
      </g>
     </g>
    </g>
    <g id="ytick_10">
     <g id="line2d_18">
      <g>
       <use xlink:href="#mfae354253f" x="158.085625" y="164.265943" style="stroke: #000000; stroke-width: 0.8"/>
      </g>
     </g>
    </g>
    <g id="ytick_11">
     <g id="line2d_19">
      <g>
       <use xlink:href="#mfae354253f" x="158.085625" y="129.407398" style="stroke: #000000; stroke-width: 0.8"/>
      </g>
     </g>
    </g>
    <g id="ytick_12">
     <g id="line2d_20">
      <g>
       <use xlink:href="#mfae354253f" x="158.085625" y="94.548853" style="stroke: #000000; stroke-width: 0.8"/>
      </g>
     </g>
    </g>
    <g id="ytick_13">
     <g id="line2d_21">
      <g>
       <use xlink:href="#mfae354253f" x="158.085625" y="59.690309" style="stroke: #000000; stroke-width: 0.8"/>
      </g>
     </g>
    </g>
    <g id="ytick_14">
     <g id="line2d_22">
      <g>
       <use xlink:href="#mfae354253f" x="158.085625" y="24.831764" style="stroke: #000000; stroke-width: 0.8"/>
      </g>
     </g>
    </g>
   </g>
   <g id="line2d_23">
    <path d="M 195.364219 233.982152 
L 195.364219 227.648788 
" clip-path="url(#p676d56b9d9)" style="fill: none; stroke: #3f3f3f; stroke-width: 1.5; stroke-linecap: square"/>
   </g>
   <g id="line2d_24">
    <path d="M 195.364219 233.468708 
L 195.364219 231.136592 
" clip-path="url(#p676d56b9d9)" style="fill: none; stroke: #3f3f3f; stroke-width: 4.5; stroke-linecap: square"/>
   </g>
   <g id="line2d_25">
    <path d="M 249.921406 233.982339 
L 249.921406 227.688519 
" clip-path="url(#p676d56b9d9)" style="fill: none; stroke: #3f3f3f; stroke-width: 1.5; stroke-linecap: square"/>
   </g>
   <g id="line2d_26">
    <path d="M 249.921406 233.463842 
L 249.921406 231.152061 
" clip-path="url(#p676d56b9d9)" style="fill: none; stroke: #3f3f3f; stroke-width: 4.5; stroke-linecap: square"/>
   </g>
   <g id="patch_6">
    <path d="M 158.085625 233.983032 
L 158.085625 24.831764 
" style="fill: none; stroke: #000000; stroke-width: 0.8; stroke-linejoin: miter; stroke-linecap: square"/>
   </g>
   <g id="patch_7">
    <path d="M 195.364219 256.04 
L 249.921406 256.04 
" style="fill: none; stroke: #000000; stroke-width: 0.8; stroke-linejoin: miter; stroke-linecap: square"/>
   </g>
   <g id="PathCollection_3">
    <g clip-path="url(#p676d56b9d9)">
     <use xlink:href="#mf8d711ad03" x="195.364219" y="232.719039" style="fill: #ffffff; stroke: #3f3f3f"/>
    </g>
   </g>
   <g id="PathCollection_4">
    <g clip-path="url(#p676d56b9d9)">
     <use xlink:href="#mf8d711ad03" x="249.921406" y="232.759751" style="fill: #ffffff; stroke: #3f3f3f"/>
    </g>
   </g>
   <g id="text_16">
    <!-- column = RPLC -->
    <g transform="translate(184.102969 18.72)scale(0.1 -0.1)">
     <defs>
      <path id="DejaVuSans-52" d="M 2841 2188 
Q 3044 2119 3236 1894 
Q 3428 1669 3622 1275 
L 4263 0 
L 3584 0 
L 2988 1197 
Q 2756 1666 2539 1819 
Q 2322 1972 1947 1972 
L 1259 1972 
L 1259 0 
L 628 0 
L 628 4666 
L 2053 4666 
Q 2853 4666 3247 4331 
Q 3641 3997 3641 3322 
Q 3641 2881 3436 2590 
Q 3231 2300 2841 2188 
z
M 1259 4147 
L 1259 2491 
L 2053 2491 
Q 2509 2491 2742 2702 
Q 2975 2913 2975 3322 
Q 2975 3731 2742 3939 
Q 2509 4147 2053 4147 
L 1259 4147 
z
" transform="scale(0.015625)"/>
      <path id="DejaVuSans-4c" d="M 628 4666 
L 1259 4666 
L 1259 531 
L 3531 531 
L 3531 0 
L 628 0 
L 628 4666 
z
" transform="scale(0.015625)"/>
     </defs>
     <use xlink:href="#DejaVuSans-63"/>
     <use xlink:href="#DejaVuSans-6f" x="54.980469"/>
     <use xlink:href="#DejaVuSans-6c" x="116.162109"/>
     <use xlink:href="#DejaVuSans-75" x="143.945312"/>
     <use xlink:href="#DejaVuSans-6d" x="207.324219"/>
     <use xlink:href="#DejaVuSans-6e" x="304.736328"/>
     <use xlink:href="#DejaVuSans-20" x="368.115234"/>
     <use xlink:href="#DejaVuSans-3d" x="399.902344"/>
     <use xlink:href="#DejaVuSans-20" x="483.691406"/>
     <use xlink:href="#DejaVuSans-52" x="515.478516"/>
     <use xlink:href="#DejaVuSans-50" x="584.960938"/>
     <use xlink:href="#DejaVuSans-4c" x="645.263672"/>
     <use xlink:href="#DejaVuSans-43" x="700.976562"/>
    </g>
   </g>
  </g>
 </g>
 <defs>
  <clipPath id="p52f63ebcf4">
   <rect x="44.67125" y="24.72" width="109.114375" height="221.32"/>
  </clipPath>
  <clipPath id="p676d56b9d9">
   <rect x="168.085625" y="24.72" width="109.114375" height="221.32"/>
  </clipPath>
 </defs>
</svg>
