<svg xmlns="http://www.w3.org/2000/svg" xmlns:xlink="http://www.w3.org/1999/xlink" version="1.1" class="marks" width="989" height="218" viewBox="0 0 989 218"><rect width="989" height="218" fill="white"/><g fill="none" stroke-miterlimit="10" transform="translate(89,26)"><g class="mark-group role-frame root" role="graphics-object" aria-roledescription="group mark container"><g transform="translate(0,0)"><path class="background" aria-hidden="true" d="M0,0h0v0h0Z"/><g><g class="mark-group role-row-header row_header" role="graphics-object" aria-roledescription="group mark container"><g transform="translate(-1,0)"><path class="background" aria-hidden="true" d="M0,0h0v150h0Z"/><g><g class="mark-group role-axis" role="graphics-symbol" aria-roledescription="axis" aria-label="Y-axis titled 'density' for a linear scale with values from 0.00 to 0.04"><g transform="translate(0.5,0.5)"><path class="background" aria-hidden="true" d="M0,0h0v0h0Z" pointer-events="none"/><g><g class="mark-rule role-axis-tick" pointer-events="none"><line transform="translate(0,150)" x2="-5" y2="0" stroke="#888" stroke-width="1" opacity="1"/><line transform="translate(0,117)" x2="-5" y2="0" stroke="#888" stroke-width="1" opacity="1"/><line transform="translate(0,83)" x2="-5" y2="0" stroke="#888" stroke-width="1" opacity="1"/><line transform="translate(0,50)" x2="-5" y2="0" stroke="#888" stroke-width="1" opacity="1"/><line transform="translate(0,17)" x2="-5" y2="0" stroke="#888" stroke-width="1" opacity="1"/></g><g class="mark-text role-axis-label" pointer-events="none"><text text-anchor="end" transform="translate(-7,154)" font-family="sans-serif" font-size="14px" font-weight="600" fill="#000" opacity="1">0.00</text><text text-anchor="end" transform="translate(-7,120.66666666666667)" font-family="sans-serif" font-size="14px" font-weight="600" fill="#000" opacity="1">0.01</text><text text-anchor="end" transform="translate(-7,87.33333333333334)" font-family="sans-serif" font-size="14px" font-weight="600" fill="#000" opacity="1">0.02</text><text text-anchor="end" transform="translate(-7,54.00000000000001)" font-family="sans-serif" font-size="14px" font-weight="600" fill="#000" opacity="1">0.03</text><text text-anchor="end" transform="translate(-7,20.666666666666657)" font-family="sans-serif" font-size="14px" font-weight="600" fill="#000" opacity="1">0.04</text></g><g class="mark-rule role-axis-domain" pointer-events="none"><line transform="translate(0,150)" x2="0" y2="-150" stroke="#888" stroke-width="1" opacity="1"/></g><g class="mark-text role-axis-title" pointer-events="none"><text text-anchor="middle" transform="translate(-38.248046875,75) rotate(-90) translate(0,-2)" font-family="sans-serif" font-size="11px" font-weight="bold" fill="#000" opacity="1">density</text></g></g><path class="foreground" aria-hidden="true" d="" pointer-events="none" display="none"/></g></g><g class="mark-group role-title"><g transform="translate(-70.91796875,75)"><path class="background" aria-hidden="true" d="M0,0h0v0h0Z" pointer-events="none"/><g><g class="mark-text role-title-text" role="graphics-symbol" aria-roledescription="title" aria-label="Title text 'F5'" pointer-events="none"><text text-anchor="end" transform="translate(0,3)" font-family="sans-serif" font-size="10px" fill="#000" opacity="1">F5</text></g></g><path class="foreground" aria-hidden="true" d="" pointer-events="none" display="none"/></g></g></g><path class="foreground" aria-hidden="true" d="" display="none"/></g></g><g class="mark-group role-column-header column_header" role="graphics-object" aria-roledescription="group mark container"><g transform="translate(0,-1)"><path class="background" aria-hidden="true" d="M0,0h400v0h-400Z"/><g><g class="mark-group role-title"><g transform="translate(200,-20)"><path class="background" aria-hidden="true" d="M0,0h0v0h0Z" pointer-events="none"/><g><g class="mark-text role-title-text" role="graphics-symbol" aria-roledescription="title" aria-label="Title text 'PGC'" pointer-events="none"><text text-anchor="middle" transform="translate(0,8)" font-family="sans-serif" font-size="10px" fill="#000" opacity="1">PGC</text></g></g><path class="foreground" aria-hidden="true" d="" pointer-events="none" display="none"/></g></g></g><path class="foreground" aria-hidden="true" d="" display="none"/></g><g transform="translate(422,-1)"><path class="background" aria-hidden="true" d="M0,0h400v0h-400Z"/><g><g class="mark-group role-title"><g transform="translate(200,-20)"><path class="background" aria-hidden="true" d="M0,0h0v0h0Z" pointer-events="none"/><g><g class="mark-text role-title-text" role="graphics-symbol" aria-roledescription="title" aria-label="Title text 'RPLC'" pointer-events="none"><text text-anchor="middle" transform="translate(0,8)" font-family="sans-serif" font-size="10px" fill="#000" opacity="1">RPLC</text></g></g><path class="foreground" aria-hidden="true" d="" pointer-events="none" display="none"/></g></g></g><path class="foreground" aria-hidden="true" d="" display="none"/></g></g><g class="mark-group role-column-footer column_footer" role="graphics-object" aria-roledescription="group mark container"><g transform="translate(0,151)"><path class="background" aria-hidden="true" d="M0,0h400v0h-400Z"/><g><g class="mark-group role-axis" role="graphics-symbol" aria-roledescription="axis" aria-label="X-axis titled 'Retention Time (min)' for a linear scale with values from 0 to 100"><g transform="translate(0.5,0.5)"><path class="background" aria-hidden="true" d="M0,0h0v0h0Z" pointer-events="none"/><g><g class="mark-rule role-axis-tick" pointer-events="none"><line transform="translate(0,0)" x2="0" y2="5" stroke="#888" stroke-width="1" opacity="1"/><line transform="translate(40,0)" x2="0" y2="5" stroke="#888" stroke-width="1" opacity="1"/><line transform="translate(80,0)" x2="0" y2="5" stroke="#888" stroke-width="1" opacity="1"/><line transform="translate(120,0)" x2="0" y2="5" stroke="#888" stroke-width="1" opacity="1"/><line transform="translate(160,0)" x2="0" y2="5" stroke="#888" stroke-width="1" opacity="1"/><line transform="translate(200,0)" x2="0" y2="5" stroke="#888" stroke-width="1" opacity="1"/><line transform="translate(240,0)" x2="0" y2="5" stroke="#888" stroke-width="1" opacity="1"/><line transform="translate(280,0)" x2="0" y2="5" stroke="#888" stroke-width="1" opacity="1"/><line transform="translate(320,0)" x2="0" y2="5" stroke="#888" stroke-width="1" opacity="1"/><line transform="translate(360,0)" x2="0" y2="5" stroke="#888" stroke-width="1" opacity="1"/><line transform="translate(400,0)" x2="0" y2="5" stroke="#888" stroke-width="1" opacity="1"/></g><g class="mark-text role-axis-label" pointer-events="none"><text text-anchor="middle" transform="translate(0,18)" font-family="sans-serif" font-size="14px" font-weight="600" fill="#000" opacity="1">0</text><text text-anchor="middle" transform="translate(40,18)" font-family="sans-serif" font-size="14px" font-weight="600" fill="#000" opacity="1">10</text><text text-anchor="middle" transform="translate(80,18)" font-family="sans-serif" font-size="14px" font-weight="600" fill="#000" opacity="1">20</text><text text-anchor="middle" transform="translate(120,18)" font-family="sans-serif" font-size="14px" font-weight="600" fill="#000" opacity="1">30</text><text text-anchor="middle" transform="translate(160,18)" font-family="sans-serif" font-size="14px" font-weight="600" fill="#000" opacity="1">40</text><text text-anchor="middle" transform="translate(200,18)" font-family="sans-serif" font-size="14px" font-weight="600" fill="#000" opacity="1">50</text><text text-anchor="middle" transform="translate(240,18)" font-family="sans-serif" font-size="14px" font-weight="600" fill="#000" opacity="1">60</text><text text-anchor="middle" transform="translate(280,18)" font-family="sans-serif" font-size="14px" font-weight="600" fill="#000" opacity="1">70</text><text text-anchor="middle" transform="translate(320,18)" font-family="sans-serif" font-size="14px" font-weight="600" fill="#000" opacity="1">80</text><text text-anchor="middle" transform="translate(360,18)" font-family="sans-serif" font-size="14px" font-weight="600" fill="#000" opacity="1">90</text><text text-anchor="middle" transform="translate(400,18)" font-family="sans-serif" font-size="14px" font-weight="600" fill="#000" opacity="1">100</text></g><g class="mark-rule role-axis-domain" pointer-events="none"><line transform="translate(0,0)" x2="400" y2="0" stroke="#888" stroke-width="1" opacity="1"/></g><g class="mark-text role-axis-title" pointer-events="none"><text text-anchor="middle" transform="translate(200,34)" font-family="sans-serif" font-size="11px" font-weight="bold" fill="#000" opacity="1">Retention Time (min)</text></g></g><path class="foreground" aria-hidden="true" d="" pointer-events="none" display="none"/></g></g></g><path class="foreground" aria-hidden="true" d="" display="none"/></g><g transform="translate(422,151)"><path class="background" aria-hidden="true" d="M0,0h400v0h-400Z"/><g><g class="mark-group role-axis" role="graphics-symbol" aria-roledescription="axis" aria-label="X-axis titled 'Retention Time (min)' for a linear scale with values from 0 to 100"><g transform="translate(0.5,0.5)"><path class="background" aria-hidden="true" d="M0,0h0v0h0Z" pointer-events="none"/><g><g class="mark-rule role-axis-tick" pointer-events="none"><line transform="translate(0,0)" x2="0" y2="5" stroke="#888" stroke-width="1" opacity="1"/><line transform="translate(40,0)" x2="0" y2="5" stroke="#888" stroke-width="1" opacity="1"/><line transform="translate(80,0)" x2="0" y2="5" stroke="#888" stroke-width="1" opacity="1"/><line transform="translate(120,0)" x2="0" y2="5" stroke="#888" stroke-width="1" opacity="1"/><line transform="translate(160,0)" x2="0" y2="5" stroke="#888" stroke-width="1" opacity="1"/><line transform="translate(200,0)" x2="0" y2="5" stroke="#888" stroke-width="1" opacity="1"/><line transform="translate(240,0)" x2="0" y2="5" stroke="#888" stroke-width="1" opacity="1"/><line transform="translate(280,0)" x2="0" y2="5" stroke="#888" stroke-width="1" opacity="1"/><line transform="translate(320,0)" x2="0" y2="5" stroke="#888" stroke-width="1" opacity="1"/><line transform="translate(360,0)" x2="0" y2="5" stroke="#888" stroke-width="1" opacity="1"/><line transform="translate(400,0)" x2="0" y2="5" stroke="#888" stroke-width="1" opacity="1"/></g><g class="mark-text role-axis-label" pointer-events="none"><text text-anchor="middle" transform="translate(0,18)" font-family="sans-serif" font-size="14px" font-weight="600" fill="#000" opacity="1">0</text><text text-anchor="middle" transform="translate(40,18)" font-family="sans-serif" font-size="14px" font-weight="600" fill="#000" opacity="1">10</text><text text-anchor="middle" transform="translate(80,18)" font-family="sans-serif" font-size="14px" font-weight="600" fill="#000" opacity="1">20</text><text text-anchor="middle" transform="translate(120,18)" font-family="sans-serif" font-size="14px" font-weight="600" fill="#000" opacity="1">30</text><text text-anchor="middle" transform="translate(160,18)" font-family="sans-serif" font-size="14px" font-weight="600" fill="#000" opacity="1">40</text><text text-anchor="middle" transform="translate(200,18)" font-family="sans-serif" font-size="14px" font-weight="600" fill="#000" opacity="1">50</text><text text-anchor="middle" transform="translate(240,18)" font-family="sans-serif" font-size="14px" font-weight="600" fill="#000" opacity="1">60</text><text text-anchor="middle" transform="translate(280,18)" font-family="sans-serif" font-size="14px" font-weight="600" fill="#000" opacity="1">70</text><text text-anchor="middle" transform="translate(320,18)" font-family="sans-serif" font-size="14px" font-weight="600" fill="#000" opacity="1">80</text><text text-anchor="middle" transform="translate(360,18)" font-family="sans-serif" font-size="14px" font-weight="600" fill="#000" opacity="1">90</text><text text-anchor="middle" transform="translate(400,18)" font-family="sans-serif" font-size="14px" font-weight="600" fill="#000" opacity="1">100</text></g><g class="mark-rule role-axis-domain" pointer-events="none"><line transform="translate(0,0)" x2="400" y2="0" stroke="#888" stroke-width="1" opacity="1"/></g><g class="mark-text role-axis-title" pointer-events="none"><text text-anchor="middle" transform="translate(200,34)" font-family="sans-serif" font-size="11px" font-weight="bold" fill="#000" opacity="1">Retention Time (min)</text></g></g><path class="foreground" aria-hidden="true" d="" pointer-events="none" display="none"/></g></g></g><path class="foreground" aria-hidden="true" d="" display="none"/></g></g><g class="mark-group role-scope cell" role="graphics-object" aria-roledescription="group mark container"><g transform="translate(0,0)"><path class="background" aria-hidden="true" d="M0.5,0.5h400v150h-400Z" stroke="#ddd"/><g><g class="mark-group role-scope child_pathgroup" role="graphics-object" aria-roledescription="group mark container"><g transform="translate(0,0)"><path class="background" aria-hidden="true" d="M0,0h400v150h-400Z"/><g><g class="mark-area role-mark child_marks" role="graphics-object" aria-roledescription="area mark container"><path aria-label="column: PGC; Retention Time (min): 25.7024516667; density: 0.000156959066095" role="graphics-symbol" aria-roledescription="area mark" d="M102.80980666666666,149.47680311301713L107.97389646666666,149.31294648244614L110.55594136666667,149.22376128680128L111.84696381666666,149.16920746148793L113.13798626666667,149.1039004998775L114.42900871666666,149.0247220166342L115.72003116666664,148.9288361452059L117.01105361666666,148.81395662537156L118.30207606666664,148.67859153489053L119.59309851666666,148.52223713008183L120.88412096666666,148.34549343194502L122.17514341666667,148.15007889788023L123.46616586666666,147.93872985472578L133.79434546666664,146.09028573291212L136.37639036666664,145.6285072727504L138.95843526666664,145.10862442213323L140.24945771666665,144.80580457343098L141.54048016666664,144.46163643926297L144.12252506666664,143.60969474784633L145.41354751666665,143.08257380890845L146.70456996666664,142.47582379595832L149.28661486666664,140.990860197771L150.57763731666665,140.09873064563848L151.86865976666664,139.09967948892603L154.45070466666664,136.76985040940284L155.74172711666665,135.4392063512351L157.03274956666664,134.0024080279497L159.61479446666664,130.83854530076934L162.19683936666664,127.35322927793501L164.77888426666664,123.63188428881399L169.94297406666664,115.69167802354399L175.10706386666664,107.04868993266032L185.43524346666663,88.11118417070541L195.76342306666663,68.97845168805816L206.09160266666663,46.9969280651819L208.67364756666663,42.13091641689266L211.25569246666663,38.10156152400722L212.54671491666664,36.45238412113454L213.83773736666663,35.054359365171216L216.41978226666666,32.97630536373189L217.71080471666667,32.25990517518346L219.00182716666663,31.726597645650727L221.5838720666666,31.106591180605214L222.87489451666661,30.973365450950308L224.16591696666663,30.93300366101192L226.74796186666663,31.0814803030438L228.0389843166666,31.25483678656209L229.33000676666663,31.488074021228478L231.91205166666663,32.120556306136386L233.20307411666664,32.51168992354189L234.49409656666666,32.94555503777909L237.07614146666663,33.91464343720138L239.65818636666665,34.97625760380522L242.24023126666663,36.101616237107834L243.53125371666664,36.690489654130445L244.8222761666666,37.30345566536044L247.40432106666663,38.6320657660254L248.69534351666664,39.36377291009289L249.98636596666663,40.149590887078936L252.56841086666662,41.89913968979056L253.85943331666664,42.864749040957996L255.15045576666662,43.88881154825258L257.7325006666666,46.099967102616354L260.31454556666665,48.512103629887356L262.8965904666666,51.12575490180478L265.4786353666666,53.96703475366253L268.0606802666666,57.07030159155387L270.64272516666665,60.449702809624625L273.2247700666666,64.07695039469783L278.3888598666666,71.75169007038387L283.5529496666666,79.3290769340189L288.7170394666666,86.31332034466882L291.29908436666665,89.54085733854502L293.8811292666666,92.59676613582322L299.0452190666666,98.35021167492808L301.62726396666665,101.26368355302196L302.91828641666666,102.80828278403506L304.2093088666666,104.44700718761777L306.7913537666666,108.09783241314389L308.0823762166666,110.13835961598264L309.3733986666666,112.32459440147119L319.7015782666666,131.4561475484188L320.99260071666663,133.40939866394922L322.28362316666664,135.15323384088512L323.57464561666666,136.67952946154765L324.8656680666666,137.9901042490244L327.4477129666666,140.0084149614905L328.7387354166666,140.74888445241416L330.0297578666666,141.33373974184002L331.3207803166666,141.7785010533958L332.61180276666664,142.09522552470412L333.90282521666666,142.29200291545385L335.1938476666666,142.37332326470124L337.7758925666666,142.1971285963425L339.0669150166666,141.94387730799164L340.3579374666666,141.58806173396195L341.6489599166666,141.14190928351525L342.93998236666664,140.62463954158548L345.5220272666666,139.49033526850144L348.1040721666666,138.46992552029212L349.3950946166666,138.10376340378735L350.6861170666666,137.88299213874322L351.9771395166666,137.83553237801786L353.26816196666664,137.97852690839818L354.55918441666665,138.31659653934116L355.8502068666666,138.84139894082676L358.4322517666666,140.3597169050704L359.7232742166666,141.2857119748714L361.0142966666666,142.26993337755886L361.0142966666666,150L359.7232742166666,150L358.4322517666666,150L355.8502068666666,150L354.55918441666665,150L353.26816196666664,150L351.9771395166666,150L350.6861170666666,150L349.3950946166666,150L348.1040721666666,150L345.5220272666666,150L342.93998236666664,150L341.6489599166666,150L340.3579374666666,150L339.0669150166666,150L337.7758925666666,150L335.1938476666666,150L333.90282521666666,150L332.61180276666664,150L331.3207803166666,150L330.0297578666666,150L328.7387354166666,150L327.4477129666666,150L324.8656680666666,150L323.57464561666666,150L322.28362316666664,150L320.99260071666663,150L319.7015782666666,150L309.3733986666666,150L308.0823762166666,150L306.7913537666666,150L304.2093088666666,150L302.91828641666666,150L301.62726396666665,150L299.0452190666666,150L293.8811292666666,150L291.29908436666665,150L288.7170394666666,150L283.5529496666666,150L278.3888598666666,150L273.2247700666666,150L270.64272516666665,150L268.0606802666666,150L265.4786353666666,150L262.8965904666666,150L260.31454556666665,150L257.7325006666666,150L255.15045576666662,150L253.85943331666664,150L252.56841086666662,150L249.98636596666663,150L248.69534351666664,150L247.40432106666663,150L244.8222761666666,150L243.53125371666664,150L242.24023126666663,150L239.65818636666665,150L237.07614146666663,150L234.49409656666666,150L233.20307411666664,150L231.91205166666663,150L229.33000676666663,150L228.0389843166666,150L226.74796186666663,150L224.16591696666663,150L222.87489451666661,150L221.5838720666666,150L219.00182716666663,150L217.71080471666667,150L216.41978226666666,150L213.83773736666663,150L212.54671491666664,150L211.25569246666663,150L208.67364756666663,150L206.09160266666663,150L195.76342306666663,150L185.43524346666663,150L175.10706386666664,150L169.94297406666664,150L164.77888426666664,150L162.19683936666664,150L159.61479446666664,150L157.03274956666664,150L155.74172711666665,150L154.45070466666664,150L151.86865976666664,150L150.57763731666665,150L149.28661486666664,150L146.70456996666664,150L145.41354751666665,150L144.12252506666664,150L141.54048016666664,150L140.24945771666665,150L138.95843526666664,150L136.37639036666664,150L133.79434546666664,150L123.46616586666666,150L122.17514341666667,150L120.88412096666666,150L119.59309851666666,150L118.30207606666664,150L117.01105361666666,150L115.72003116666664,150L114.42900871666666,150L113.13798626666667,150L111.84696381666666,150L110.55594136666667,150L107.97389646666666,150L102.80980666666666,150Z" fill="#D56E3B" opacity="0.75"/></g></g><path class="foreground" aria-hidden="true" d="" display="none"/></g></g></g><path class="foreground" aria-hidden="true" d="" display="none"/></g><g transform="translate(422,0)"><path class="background" aria-hidden="true" d="M0.5,0.5h400v150h-400Z" stroke="#ddd"/><g><g class="mark-group role-scope child_pathgroup" role="graphics-object" aria-roledescription="group mark container"><g transform="translate(0,0)"><path class="background" aria-hidden="true" d="M0,0h400v150h-400Z"/><g><g class="mark-area role-mark child_marks" role="graphics-object" aria-roledescription="area mark container"><path aria-label="column: RPLC; Retention Time (min): 2.6418925; density: 0.000824825880105" role="graphics-symbol" aria-roledescription="area mark" d="M10.56757,147.25058039964838L12.260559483333333,147.1424607882023L13.953548966666665,147.13044327882113L15.64653845,147.21379094548826L17.339527933333333,147.381234765676L20.7255069,147.88223746837647L22.418496383333334,148.16201017140395L24.111485866666666,148.42558945753984L27.49746483333333,148.82114040115948L29.19045431666667,148.92589112517848L30.883443800000006,148.95913549231364L34.269422766666665,148.80147671865043L35.96241225,148.60768472570524L37.655401733333335,148.3341421593662L39.34839121666667,147.97686752996418L41.041380700000005,147.53082892775674L42.73437018333334,146.99071590246012L44.42735966666667,146.3519341022444L47.81333863333333,144.76937471944797L49.506328116666666,143.82799151524642L51.19931760000001,142.79352113492047L52.892307083333336,141.67534440029206L54.58529656666668,140.48595111698765L57.97127553333333,137.95709492085385L64.74323346666667,132.84915760453984L66.43622295,131.68125457196723L68.12921243333332,130.58997093921667L69.82220191666666,129.58258121212134L71.51519139999999,128.65836554949757L73.20818088333333,127.80791551395149L74.90117036666666,127.01364114310674L78.28714933333333,125.49445066818764L79.98013881666667,124.71514187023891L81.6731283,123.89059859728744L83.36611778333334,123.00485705790841L85.05910726666667,122.0510568504468L86.75209675,121.03202333873288L88.44508623333334,119.9594261382463L91.8310652,117.73151143226805L95.21704416666667,115.54540965462257L96.91003365,114.51893614265678L98.60302313333334,113.55553344756879L100.29601261666667,112.66310872563113L101.98900210000002,111.84583443243596L103.68199158333333,111.10595671271068L105.37498106666668,110.44575411806954L107.06797055000001,109.8690772782724L108.76096003333333,109.38201535947958L110.45394951666667,108.99248512154152L112.14693900000002,108.70884786209774L113.83992848333332,108.53792754975271L115.53291796666667,108.48294431195309L118.91889693333333,108.70644702169258L120.61188641666666,108.96228043665147L122.30487589999998,109.28944661001132L123.99786538333333,109.66390273833586L125.69085486666664,110.05917006754801L127.38384434999999,110.44816000925472L129.07683383333332,110.8049252558687L132.4628128,111.33214801003442L134.15580228333334,111.4673456584453L135.84879176666666,111.49993673248112L139.23477073333333,111.22288384382736L142.62074969999998,110.43629956752795L144.31373918333333,109.82558353559614L146.00672866666665,109.04965106603639L149.39270763333332,106.92224946806303L151.08569711666667,105.52642062118309L152.7786866,103.8803963908349L156.16466556666666,99.77554044437679L157.85765505,97.30554776739935L159.55064453333333,94.56800451593945L162.9366235,88.39722978862888L166.32260246666664,81.57157590551944L173.09456039999998,67.10659086526078L179.86651833333332,51.07208523696537L186.63847626666666,32.39961079385487L190.02445523333333,23.602428172135525L193.4104342,16.74494798574555L195.10342368333335,14.350721007593547L196.79641316666667,12.735216078767142L200.18239213333337,11.850202551846422L201.8753816166667,12.493771163859662L203.56837109999998,13.760573264365977L206.95435006666668,17.8003762950791L210.34032903333332,23.30650544349826L213.726308,29.871382622795362L217.11228696666666,37.416765173061414L220.4982659333333,46.08028640895171L227.2702238666666,66.97925160422848L234.04218179999998,89.65043147296099L237.42816076666665,99.29347309656718L240.8141397333333,106.53762209113007L242.50712921666667,109.10482248600701L244.2001187,110.96273600733751L247.58609766666666,112.76397539857761L250.9720766333333,112.67478614322584L252.66506611666665,112.24310990221171L254.35805559999997,111.73840783955235L257.74403456666664,111.016427382447L259.43702405,111.00413270391815L261.1300135333333,111.31719482115078L264.5159924999999,113.01881244026148L266.2089819833333,114.38621099115443L267.9019714666666,116.04571332497335L281.4458873333333,132.96579175000508L283.13887681666665,134.9095072001135L284.8318663,136.74691822338346L286.52485578333335,138.46993349921297L288.21784526666664,140.07130069712733L291.6038242333333,142.8833507925964L293.29681371666663,144.08423351227393L294.9898032,145.1453830228509L296.68279268333333,146.06825250270762L298.3757821666667,146.8576174361059L300.06877165000003,147.5214021376041L301.7617611333333,148.0701182239863L305.14774009999996,148.87227395449165L306.8407295833333,149.15191276810512L308.53371906666666,149.36734919320278L310.22670855,149.52985408737604L311.91969803333336,149.64938569236259L313.6126875166667,149.73458545614662L315.305677,149.79288092714037L318.69165596666664,149.85316357323092L322.07763493333334,149.869469798095L328.8495928666666,149.8503443466378L335.62155079999997,149.76778149507905L342.3935087333333,149.62967041630083L345.7794877,149.5898629861503L347.47247718333335,149.5877645085484L349.16546666666665,149.59901735739652L349.16546666666665,150L347.47247718333335,150L345.7794877,150L342.3935087333333,150L335.62155079999997,150L328.8495928666666,150L322.07763493333334,150L318.69165596666664,150L315.305677,150L313.6126875166667,150L311.91969803333336,150L310.22670855,150L308.53371906666666,150L306.8407295833333,150L305.14774009999996,150L301.7617611333333,150L300.06877165000003,150L298.3757821666667,150L296.68279268333333,150L294.9898032,150L293.29681371666663,150L291.6038242333333,150L288.21784526666664,150L286.52485578333335,150L284.8318663,150L283.13887681666665,150L281.4458873333333,150L267.9019714666666,150L266.2089819833333,150L264.5159924999999,150L261.1300135333333,150L259.43702405,150L257.74403456666664,150L254.35805559999997,150L252.66506611666665,150L250.9720766333333,150L247.58609766666666,150L244.2001187,150L242.50712921666667,150L240.8141397333333,150L237.42816076666665,150L234.04218179999998,150L227.2702238666666,150L220.4982659333333,150L217.11228696666666,150L213.726308,150L210.34032903333332,150L206.95435006666668,150L203.56837109999998,150L201.8753816166667,150L200.18239213333337,150L196.79641316666667,150L195.10342368333335,150L193.4104342,150L190.02445523333333,150L186.63847626666666,150L179.86651833333332,150L173.09456039999998,150L166.32260246666664,150L162.9366235,150L159.55064453333333,150L157.85765505,150L156.16466556666666,150L152.7786866,150L151.08569711666667,150L149.39270763333332,150L146.00672866666665,150L144.31373918333333,150L142.62074969999998,150L139.23477073333333,150L135.84879176666666,150L134.15580228333334,150L132.4628128,150L129.07683383333332,150L127.38384434999999,150L125.69085486666664,150L123.99786538333333,150L122.30487589999998,150L120.61188641666666,150L118.91889693333333,150L115.53291796666667,150L113.83992848333332,150L112.14693900000002,150L110.45394951666667,150L108.76096003333333,150L107.06797055000001,150L105.37498106666668,150L103.68199158333333,150L101.98900210000002,150L100.29601261666667,150L98.60302313333334,150L96.91003365,150L95.21704416666667,150L91.8310652,150L88.44508623333334,150L86.75209675,150L85.05910726666667,150L83.36611778333334,150L81.6731283,150L79.98013881666667,150L78.28714933333333,150L74.90117036666666,150L73.20818088333333,150L71.51519139999999,150L69.82220191666666,150L68.12921243333332,150L66.43622295,150L64.74323346666667,150L57.97127553333333,150L54.58529656666668,150L52.892307083333336,150L51.19931760000001,150L49.506328116666666,150L47.81333863333333,150L44.42735966666667,150L42.73437018333334,150L41.041380700000005,150L39.34839121666667,150L37.655401733333335,150L35.96241225,150L34.269422766666665,150L30.883443800000006,150L29.19045431666667,150L27.49746483333333,150L24.111485866666666,150L22.418496383333334,150L20.7255069,150L17.339527933333333,150L15.64653845,150L13.953548966666665,150L12.260559483333333,150L10.56757,150Z" fill="#58728C" opacity="0.75"/></g></g><path class="foreground" aria-hidden="true" d="" display="none"/></g></g></g><path class="foreground" aria-hidden="true" d="" display="none"/></g></g><g class="mark-group role-legend" role="graphics-symbol" aria-roledescription="legend" aria-label="Symbol legend titled 'column' for fill color with 2 values: PGC, RPLC"><g transform="translate(852,0)"><path class="background" aria-hidden="true" d="M0,0h43v40h-43Z" pointer-events="none"/><g><g class="mark-group role-legend-entry"><g transform="translate(0,16)"><path class="background" aria-hidden="true" d="M0,0h0v0h0Z" pointer-events="none"/><g><g class="mark-group role-scope" role="graphics-object" aria-roledescription="group mark container"><g transform="translate(0,0)"><path class="background" aria-hidden="true" d="M0,0h42.6748046875v11h-42.6748046875Z" pointer-events="none" opacity="1"/><g><g class="mark-symbol role-legend-symbol" pointer-events="none"><path transform="translate(6,6)" d="M5,0A5,5,0,1,1,-5,0A5,5,0,1,1,5,0" fill="#D56E3B" stroke-width="1.5" opacity="0.75"/></g><g class="mark-text role-legend-label" pointer-events="none"><text text-anchor="start" transform="translate(16,9)" font-family="sans-serif" font-size="10px" fill="#000" opacity="1">PGC</text></g></g><path class="foreground" aria-hidden="true" d="" pointer-events="none" display="none"/></g><g transform="translate(0,13)"><path class="background" aria-hidden="true" d="M0,0h42.6748046875v11h-42.6748046875Z" pointer-events="none" opacity="1"/><g><g class="mark-symbol role-legend-symbol" pointer-events="none"><path transform="translate(6,6)" d="M5,0A5,5,0,1,1,-5,0A5,5,0,1,1,5,0" fill="#58728C" stroke-width="1.5" opacity="0.75"/></g><g class="mark-text role-legend-label" pointer-events="none"><text text-anchor="start" transform="translate(16,9)" font-family="sans-serif" font-size="10px" fill="#000" opacity="1">RPLC</text></g></g><path class="foreground" aria-hidden="true" d="" pointer-events="none" display="none"/></g></g></g><path class="foreground" aria-hidden="true" d="" pointer-events="none" display="none"/></g></g><g class="mark-text role-legend-title" pointer-events="none"><text text-anchor="start" transform="translate(0,9)" font-family="sans-serif" font-size="11px" font-weight="bold" fill="#000" opacity="1">column</text></g></g><path class="foreground" aria-hidden="true" d="" pointer-events="none" display="none"/></g></g></g><path class="foreground" aria-hidden="true" d="" display="none"/></g></g></g></svg>