<svg xmlns="http://www.w3.org/2000/svg" xmlns:xlink="http://www.w3.org/1999/xlink" version="1.1" class="marks" width="521" height="353" viewBox="0 0 521 353"><rect width="521" height="353" fill="white"/><g fill="none" stroke-miterlimit="10" transform="translate(55,12)"><g class="mark-group role-frame root" role="graphics-object" aria-roledescription="group mark container"><g transform="translate(0,0)"><path class="background" aria-hidden="true" d="M0.5,0.5h400v300h-400Z" stroke="#ddd"/><g><g class="mark-group role-axis" aria-hidden="true"><g transform="translate(0.5,0.5)"><path class="background" aria-hidden="true" d="M0,0h0v0h0Z" pointer-events="none"/><g><g class="mark-rule role-axis-grid" pointer-events="none"><line transform="translate(0,300)" x2="400" y2="0" stroke="#ddd" stroke-width="1" opacity="1"/><line transform="translate(0,275)" x2="400" y2="0" stroke="#ddd" stroke-width="1" opacity="1"/><line transform="translate(0,250)" x2="400" y2="0" stroke="#ddd" stroke-width="1" opacity="1"/><line transform="translate(0,225)" x2="400" y2="0" stroke="#ddd" stroke-width="1" opacity="1"/><line transform="translate(0,200)" x2="400" y2="0" stroke="#ddd" stroke-width="1" opacity="1"/><line transform="translate(0,175)" x2="400" y2="0" stroke="#ddd" stroke-width="1" opacity="1"/><line transform="translate(0,150)" x2="400" y2="0" stroke="#ddd" stroke-width="1" opacity="1"/><line transform="translate(0,125)" x2="400" y2="0" stroke="#ddd" stroke-width="1" opacity="1"/><line transform="translate(0,100)" x2="400" y2="0" stroke="#ddd" stroke-width="1" opacity="1"/><line transform="translate(0,75)" x2="400" y2="0" stroke="#ddd" stroke-width="1" opacity="1"/><line transform="translate(0,50)" x2="400" y2="0" stroke="#ddd" stroke-width="1" opacity="1"/><line transform="translate(0,25)" x2="400" y2="0" stroke="#ddd" stroke-width="1" opacity="1"/><line transform="translate(0,0)" x2="400" y2="0" stroke="#ddd" stroke-width="1" opacity="1"/></g></g><path class="foreground" aria-hidden="true" d="" pointer-events="none" display="none"/></g></g><g class="mark-group role-axis" role="graphics-symbol" aria-roledescription="axis" aria-label="X-axis titled 'Retention Time (min)' for a linear scale with values from 0 to 95"><g transform="translate(0.5,300.5)"><path class="background" aria-hidden="true" d="M0,0h0v0h0Z" pointer-events="none"/><g><g class="mark-rule role-axis-tick" pointer-events="none"><line transform="translate(0,0)" x2="0" y2="5" stroke="#888" stroke-width="1" opacity="1"/><line transform="translate(21,0)" x2="0" y2="5" stroke="#888" stroke-width="1" opacity="1"/><line transform="translate(42,0)" x2="0" y2="5" stroke="#888" stroke-width="1" opacity="1"/><line transform="translate(63,0)" x2="0" y2="5" stroke="#888" stroke-width="1" opacity="1"/><line transform="translate(84,0)" x2="0" y2="5" stroke="#888" stroke-width="1" opacity="1"/><line transform="translate(105,0)" x2="0" y2="5" stroke="#888" stroke-width="1" opacity="1"/><line transform="translate(126,0)" x2="0" y2="5" stroke="#888" stroke-width="1" opacity="1"/><line transform="translate(147,0)" x2="0" y2="5" stroke="#888" stroke-width="1" opacity="1"/><line transform="translate(168,0)" x2="0" y2="5" stroke="#888" stroke-width="1" opacity="1"/><line transform="translate(189,0)" x2="0" y2="5" stroke="#888" stroke-width="1" opacity="1"/><line transform="translate(211,0)" x2="0" y2="5" stroke="#888" stroke-width="1" opacity="1"/><line transform="translate(232,0)" x2="0" y2="5" stroke="#888" stroke-width="1" opacity="1"/><line transform="translate(253,0)" x2="0" y2="5" stroke="#888" stroke-width="1" opacity="1"/><line transform="translate(274,0)" x2="0" y2="5" stroke="#888" stroke-width="1" opacity="1"/><line transform="translate(295,0)" x2="0" y2="5" stroke="#888" stroke-width="1" opacity="1"/><line transform="translate(316,0)" x2="0" y2="5" stroke="#888" stroke-width="1" opacity="1"/><line transform="translate(337,0)" x2="0" y2="5" stroke="#888" stroke-width="1" opacity="1"/><line transform="translate(358,0)" x2="0" y2="5" stroke="#888" stroke-width="1" opacity="1"/><line transform="translate(379,0)" x2="0" y2="5" stroke="#888" stroke-width="1" opacity="1"/><line transform="translate(400,0)" x2="0" y2="5" stroke="#888" stroke-width="1" opacity="1"/></g><g class="mark-text role-axis-label" pointer-events="none"><text text-anchor="middle" transform="translate(0,18)" font-family="sans-serif" font-size="14px" font-weight="600" fill="#000" opacity="1">0</text><text text-anchor="middle" transform="translate(21.052631578947366,18)" font-family="sans-serif" font-size="14px" font-weight="600" fill="#000" opacity="1">5</text><text text-anchor="middle" transform="translate(42.10526315789473,18)" font-family="sans-serif" font-size="14px" font-weight="600" fill="#000" opacity="1">10</text><text text-anchor="middle" transform="translate(63.1578947368421,18)" font-family="sans-serif" font-size="14px" font-weight="600" fill="#000" opacity="1">15</text><text text-anchor="middle" transform="translate(84.21052631578947,18)" font-family="sans-serif" font-size="14px" font-weight="600" fill="#000" opacity="1">20</text><text text-anchor="middle" transform="translate(105.26315789473684,18)" font-family="sans-serif" font-size="14px" font-weight="600" fill="#000" opacity="1">25</text><text text-anchor="middle" transform="translate(126.3157894736842,18)" font-family="sans-serif" font-size="14px" font-weight="600" fill="#000" opacity="1">30</text><text text-anchor="middle" transform="translate(147.36842105263156,18)" font-family="sans-serif" font-size="14px" font-weight="600" fill="#000" opacity="1">35</text><text text-anchor="middle" transform="translate(168.42105263157893,18)" font-family="sans-serif" font-size="14px" font-weight="600" fill="#000" opacity="1">40</text><text text-anchor="middle" transform="translate(189.4736842105263,18)" font-family="sans-serif" font-size="14px" font-weight="600" fill="#000" opacity="1">45</text><text text-anchor="middle" transform="translate(210.52631578947367,18)" font-family="sans-serif" font-size="14px" font-weight="600" fill="#000" opacity="1">50</text><text text-anchor="middle" transform="translate(231.57894736842107,18)" font-family="sans-serif" font-size="14px" font-weight="600" fill="#000" opacity="1">55</text><text text-anchor="middle" transform="translate(252.6315789473684,18)" font-family="sans-serif" font-size="14px" font-weight="600" fill="#000" opacity="1">60</text><text text-anchor="middle" transform="translate(273.6842105263158,18)" font-family="sans-serif" font-size="14px" font-weight="600" fill="#000" opacity="1">65</text><text text-anchor="middle" transform="translate(294.7368421052631,18)" font-family="sans-serif" font-size="14px" font-weight="600" fill="#000" opacity="1">70</text><text text-anchor="middle" transform="translate(315.7894736842105,18)" font-family="sans-serif" font-size="14px" font-weight="600" fill="#000" opacity="1">75</text><text text-anchor="middle" transform="translate(336.84210526315786,18)" font-family="sans-serif" font-size="14px" font-weight="600" fill="#000" opacity="1">80</text><text text-anchor="middle" transform="translate(357.89473684210526,18)" font-family="sans-serif" font-size="14px" font-weight="600" fill="#000" opacity="1">85</text><text text-anchor="middle" transform="translate(378.9473684210526,18)" font-family="sans-serif" font-size="14px" font-weight="600" fill="#000" opacity="1">90</text><text text-anchor="middle" transform="translate(400,18)" font-family="sans-serif" font-size="14px" font-weight="600" fill="#000" opacity="1">95</text></g><g class="mark-rule role-axis-domain" pointer-events="none"><line transform="translate(0,0)" x2="400" y2="0" stroke="#888" stroke-width="1" opacity="1"/></g><g class="mark-text role-axis-title" pointer-events="none"><text text-anchor="middle" transform="translate(200,34)" font-family="sans-serif" font-size="11px" font-weight="bold" fill="#000" opacity="1">Retention Time (min)</text></g></g><path class="foreground" aria-hidden="true" d="" pointer-events="none" display="none"/></g></g><g class="mark-group role-axis" role="graphics-symbol" aria-roledescription="axis" aria-label="Y-axis titled 'GRAVY' for a linear scale with values from −1.4 to 1.0"><g transform="translate(0.5,0.5)"><path class="background" aria-hidden="true" d="M0,0h0v0h0Z" pointer-events="none"/><g><g class="mark-rule role-axis-tick" pointer-events="none"><line transform="translate(0,300)" x2="-5" y2="0" stroke="#888" stroke-width="1" opacity="1"/><line transform="translate(0,275)" x2="-5" y2="0" stroke="#888" stroke-width="1" opacity="1"/><line transform="translate(0,250)" x2="-5" y2="0" stroke="#888" stroke-width="1" opacity="1"/><line transform="translate(0,225)" x2="-5" y2="0" stroke="#888" stroke-width="1" opacity="1"/><line transform="translate(0,200)" x2="-5" y2="0" stroke="#888" stroke-width="1" opacity="1"/><line transform="translate(0,175)" x2="-5" y2="0" stroke="#888" stroke-width="1" opacity="1"/><line transform="translate(0,150)" x2="-5" y2="0" stroke="#888" stroke-width="1" opacity="1"/><line transform="translate(0,125)" x2="-5" y2="0" stroke="#888" stroke-width="1" opacity="1"/><line transform="translate(0,100)" x2="-5" y2="0" stroke="#888" stroke-width="1" opacity="1"/><line transform="translate(0,75)" x2="-5" y2="0" stroke="#888" stroke-width="1" opacity="1"/><line transform="translate(0,50)" x2="-5" y2="0" stroke="#888" stroke-width="1" opacity="1"/><line transform="translate(0,25)" x2="-5" y2="0" stroke="#888" stroke-width="1" opacity="1"/><line transform="translate(0,0)" x2="-5" y2="0" stroke="#888" stroke-width="1" opacity="1"/></g><g class="mark-text role-axis-label" pointer-events="none"><text text-anchor="end" transform="translate(-7,304)" font-family="sans-serif" font-size="14px" font-weight="600" fill="#000" opacity="1">−1.4</text><text text-anchor="end" transform="translate(-7,279)" font-family="sans-serif" font-size="14px" font-weight="600" fill="#000" opacity="1">−1.2</text><text text-anchor="end" transform="translate(-7,254)" font-family="sans-serif" font-size="14px" font-weight="600" fill="#000" opacity="1">−1.0</text><text text-anchor="end" transform="translate(-7,229)" font-family="sans-serif" font-size="14px" font-weight="600" fill="#000" opacity="1">−0.8</text><text text-anchor="end" transform="translate(-7,204.00000000000003)" font-family="sans-serif" font-size="14px" font-weight="600" fill="#000" opacity="1">−0.6</text><text text-anchor="end" transform="translate(-7,179)" font-family="sans-serif" font-size="14px" font-weight="600" fill="#000" opacity="1">−0.4</text><text text-anchor="end" transform="translate(-7,154)" font-family="sans-serif" font-size="14px" font-weight="600" fill="#000" opacity="1">−0.2</text><text text-anchor="end" transform="translate(-7,129)" font-family="sans-serif" font-size="14px" font-weight="600" fill="#000" opacity="1">0.0</text><text text-anchor="end" transform="translate(-7,104.00000000000001)" font-family="sans-serif" font-size="14px" font-weight="600" fill="#000" opacity="1">0.2</text><text text-anchor="end" transform="translate(-7,79)" font-family="sans-serif" font-size="14px" font-weight="600" fill="#000" opacity="1">0.4</text><text text-anchor="end" transform="translate(-7,53.999999999999986)" font-family="sans-serif" font-size="14px" font-weight="600" fill="#000" opacity="1">0.6</text><text text-anchor="end" transform="translate(-7,28.99999999999998)" font-family="sans-serif" font-size="14px" font-weight="600" fill="#000" opacity="1">0.8</text><text text-anchor="end" transform="translate(-7,4)" font-family="sans-serif" font-size="14px" font-weight="600" fill="#000" opacity="1">1.0</text></g><g class="mark-rule role-axis-domain" pointer-events="none"><line transform="translate(0,300)" x2="0" y2="-300" stroke="#888" stroke-width="1" opacity="1"/></g><g class="mark-text role-axis-title" pointer-events="none"><text text-anchor="middle" transform="translate(-38.6376953125,150) rotate(-90) translate(0,-2)" font-family="sans-serif" font-size="11px" font-weight="bold" fill="#000" opacity="1">GRAVY</text></g></g><path class="foreground" aria-hidden="true" d="" pointer-events="none" display="none"/></g></g><g class="mark-group role-scope layer_0_pathgroup" role="graphics-object" aria-roledescription="group mark container"><g transform="translate(0,0)"><path class="background" aria-hidden="true" d="M0,0h400v300h-400Z"/><g><g class="mark-line role-mark layer_0_marks" role="graphics-object" aria-roledescription="line mark container"><path aria-label="column: PGC; Retention Time (min): 10 – 15; GRAVY: −1.09085397627" role="graphics-symbol" aria-roledescription="line mark" d="M52.63157894736842,261.35674703383035L56.14035087719298,260.4644322044312C59.649122807017534,259.5721173750321,66.66666666666666,257.7874877162339,73.68421052631578,249.80828330028808C80.7017543859649,241.8290788843423,87.71929824561403,227.65529971124897,94.73684210526316,217.72996544610956C101.75438596491227,207.8046311809702,108.77192982456141,202.12774182378473,115.78947368421053,197.42425659595463C122.80701754385966,192.7207713681245,129.82456140350877,188.9906902696498,136.8421052631579,185.76436767803276C143.859649122807,182.53804508641574,150.87719298245614,179.81548100165642,157.89473684210526,175.77176010315335C164.91228070175438,171.72803920465026,171.9298245614035,166.36316149240338,178.94736842105263,162.13552909157775C185.96491228070172,157.9078966907521,192.98245614035088,154.81750960134767,200,150.97118575565815C207.01754385964912,147.12486190996864,214.03508771929828,142.52260130799405,221.0526315789474,140.11952918128543C228.07017543859652,137.71645705457678,235.08771929824562,137.51257340313407,242.1052631578947,136.14189363477482C249.1228070175439,134.77121386641556,256.140350877193,132.23373798113974,263.15789473684214,129.65917394974147C270.17543859649123,127.08460991834325,277.1929824561403,124.47295774082257,284.2105263157895,123.79078251963263C291.22807017543863,123.10860729844268,298.2456140350877,124.3559090335835,305.2631578947369,124.78863624096134C312.280701754386,125.2213634483392,319.2982456140351,124.83951612795407,326.3157894736842,126.12206799750476C333.3333333333333,127.40461986705543,340.3508771929825,130.35157092654188,347.3684210526316,136.1094991858698C354.3859649122807,141.8674274451977,361.40350877192986,150.43633290436708,368.42105263157896,155.17303757336234C375.43859649122805,159.90974224235762,382.4561403508772,160.8142461211788,385.96491228070175,161.26649806058938L389.4736842105263,161.71875" stroke="#D56E3B" stroke-width="2"/></g></g><path class="foreground" aria-hidden="true" d="" display="none"/></g><g transform="translate(0,0)"><path class="background" aria-hidden="true" d="M0,0h400v300h-400Z"/><g><g class="mark-line role-mark layer_0_marks" role="graphics-object" aria-roledescription="line mark container"><path aria-label="column: RPLC; Retention Time (min): 0 – 5; GRAVY: −1.30053638073" role="graphics-symbol" aria-roledescription="line mark" d="M10.526315789473683,287.56704759158276L14.035087719298245,282.9146668751219C17.543859649122805,278.2622861586611,24.561403508771928,268.95752472573946,31.57894736842105,263.1893383125946C38.59649122807017,257.4211518994497,45.614035087719294,255.1895405060815,52.63157894736842,251.40282092732932C59.649122807017534,247.61610134857713,66.66666666666666,242.27427358444092,73.68421052631578,235.18350064280162C80.7017543859649,228.0927277011623,87.71929824561403,219.25300958201993,94.73684210526316,211.93821745881485C101.75438596491227,204.62342533560977,108.77192982456141,198.83355920834194,115.78947368421053,192.5042866472243C122.80701754385966,186.17501408610667,129.82456140350877,179.30633509113923,136.8421052631579,173.33999588519058C143.859649122807,167.37365667924192,150.87719298245614,162.30965726231207,157.89473684210526,158.27592112020668C164.91228070175438,154.24218497810128,171.9298245614035,151.2387121108204,178.94736842105263,148.613297205738C185.96491228070172,145.98788230065557,192.98245614035088,143.74052535777165,200,141.44477234957193C207.01754385964912,139.14901934137222,214.03508771929828,136.80487026785673,221.0526315789474,133.63060015863596C228.07017543859652,130.4563300494152,235.08771929824562,126.45193890448915,242.1052631578947,122.59539386410474C249.1228070175439,118.73884882372033,256.140350877193,115.03014988787753,263.15789473684214,111.99322418700262C270.17543859649123,108.95629848612775,277.1929824561403,106.59114602022073,284.2105263157895,104.20567334054142C291.22807017543863,101.8202006608621,298.2456140350877,99.41440776741042,305.2631578947369,96.40858359453036C312.280701754386,93.40275942165032,319.2982456140351,89.79690396934184,326.3157894736842,83.62170979630541C333.3333333333333,77.44651562326901,340.3508771929825,68.70198272950462,347.3684210526316,63.4796952501196C354.3859649122807,58.25740777073455,361.40350877192986,56.55736570572886,364.91228070175447,55.707344673226004L368.42105263157896,54.85732364072315" stroke="#58728C" stroke-width="2"/></g></g><path class="foreground" aria-hidden="true" d="" display="none"/></g></g><g class="mark-group role-scope layer_1_layer_0_pathgroup" role="graphics-object" aria-roledescription="group mark container"><g transform="translate(0,0)"><path class="background" aria-hidden="true" d="M0,0h400v300h-400Z"/><g><g class="mark-area role-mark layer_1_layer_0_marks" role="graphics-object" aria-roledescription="area mark container"><path aria-label="GRAVY: −1.29966955016; upper_gravy: −0.899447250281; column: PGC; Retention Time (min): 10 – 15; Ci1 of gravy: −0.899447250281; Ci0 of gravy: −1.29966955016; Mean of gravy: −1.09085397627; bin_step_5_retention_min_end: 15" role="graphics-symbol" aria-roledescription="errorband" d="M52.63157894736842,287.4586937705427L56.14035087719298,283.86357869806403C59.649122807017534,280.26846362558535,66.66666666666666,273.07823348062794,73.68421052631578,261.818679168725C80.7017543859649,250.559124856822,87.71929824561403,235.23024637797343,94.73684210526316,224.34373274744436C101.75438596491227,213.4572191169153,108.77192982456141,207.01307033470576,115.78947368421053,201.92826300376203C122.80701754385966,196.8434556728183,129.82456140350877,193.11798979314037,136.8421052631579,189.8709721165303C143.859649122807,186.62395443992025,150.87719298245614,183.85538496637813,157.89473684210526,179.77325871984291C164.91228070175438,175.69113247330768,171.9298245614035,170.29544945377936,178.94736842105263,166.00120664933394C185.96491228070172,161.70696384488858,192.98245614035088,158.51416125552612,200,154.69042562618802C207.01754385964912,150.86668999684994,214.03508771929828,146.41202132753622,221.0526315789474,144.05340644287637C228.07017543859652,141.69479155821645,235.08771929824562,141.4322304582104,242.1052631578947,140.05805758107235C249.1228070175439,138.68388470393427,256.140350877193,136.19810004966425,263.15789473684214,133.6375246844564C270.17543859649123,131.07694931924857,277.1929824561403,128.44158324310294,284.2105263157895,127.77184730257473C291.22807017543863,127.10211136204651,298.2456140350877,128.3980055571357,305.2631578947369,129.04030074848222C312.280701754386,129.68259593982876,319.2982456140351,129.6712921274326,326.3157894736842,132.55719757685273C333.3333333333333,135.44310302627287,340.3508771929825,141.2262177375093,347.3684210526316,147.55260348914223C354.3859649122807,153.87898924077518,361.40350877192986,160.74864603280466,368.42105263157896,163.20021562468037C375.43859649122805,165.65178521655608,382.4561403508772,163.68526760827805,385.96491228070175,162.702008804139L389.4736842105263,161.71875L389.4736842105263,161.71875L385.96491228070175,159.78330345258485C382.4561403508772,157.8478569051697,375.43859649122805,153.9769638103394,368.42105263157896,146.97140990652255C361.40350877192986,139.96585600270575,354.3859649122807,129.82564128990236,347.3684210526316,124.63879662780043C340.3508771929825,119.45195196569853,333.3333333333333,119.21847735429806,326.3157894736842,119.43296497746205C319.2982456140351,119.64745260062602,312.280701754386,120.30990245835441,305.2631578947369,120.1405709004199C298.2456140350877,119.97123934248536,291.22807017543863,118.97012636888792,284.2105263157895,119.7749176539649C277.1929824561403,120.5797089390419,270.17543859649123,123.19040448279333,263.15789473684214,125.82121902541324C256.140350877193,128.45203356803316,249.1228070175439,131.10296710952156,242.1052631578947,132.52660658246927C235.08771929824562,133.95024605541698,228.07017543859652,134.146591459824,221.0526315789474,136.53783891974408C214.03508771929828,138.92908637966408,207.01754385964912,143.51523589509716,200,147.30070425904026C192.98245614035088,151.08617262298336,185.96491228070172,154.07095983543653,178.94736842105263,158.23956416100134C171.9298245614035,162.40816848656618,164.91228070175438,167.7605899252427,157.89473684210526,171.8099806231629C150.87719298245614,175.85937132108302,143.859649122807,178.60573127824682,136.8421052631579,181.72658098632255C129.82456140350877,184.8474306943982,122.80701754385966,188.3427701533858,115.78947368421052,192.65409575626987C108.77192982456141,196.965421359154,101.75438596491227,202.09273310593463,94.73684210526316,211.07927207541616C87.71929824561403,220.06581104489763,80.7017543859649,232.91157723708002,73.68421052631578,237.94672080913963C66.66666666666666,242.98186438119924,59.649122807017534,240.20638533313613,56.140350877192986,238.8186458091046L52.63157894736842,237.430906285073Z" fill="#D56E3B" opacity="0.3"/></g></g><path class="foreground" aria-hidden="true" d="" display="none"/></g><g transform="translate(0,0)"><path class="background" aria-hidden="true" d="M0,0h400v300h-400Z"/><g><g class="mark-area role-mark layer_1_layer_0_marks" role="graphics-object" aria-roledescription="area mark container"><path aria-label="GRAVY: −1.3545535662; upper_gravy: −1.24535225679; column: RPLC; Retention Time (min): 0 – 5; Ci1 of gravy: −1.24535225679; Ci0 of gravy: −1.3545535662; Mean of gravy: −1.30053638073; bin_step_5_retention_min_end: 5" role="graphics-symbol" aria-roledescription="errorband" d="M10.526315789473683,294.3191957753177L14.035087719298245,289.3084726060692C17.543859649122805,284.29774943682065,24.561403508771928,274.2763030983235,31.57894736842105,268.0207987570711C38.59649122807017,261.7652944158187,45.614035087719294,259.2757320718109,52.63157894736842,255.3755018352307C59.649122807017534,251.47527159865047,66.66666666666666,246.1643734694978,73.68421052631578,239.00447517369025C80.7017543859649,231.84457687788267,87.71929824561403,222.83567841542023,94.73684210526316,215.41448085313039C101.75438596491227,207.99328329084054,108.77192982456141,202.1597866287233,115.78947368421053,195.84952256270682C122.80701754385966,189.5392584966903,129.82456140350877,182.75222702677456,136.8421052631579,176.80988914660358C143.859649122807,170.86755126643257,150.87719298245614,165.76990697600635,157.89473684210526,161.6696421523362C164.91228070175438,157.56937732866604,171.9298245614035,154.46649197175194,178.94736842105263,151.75985985863608C185.96491228070172,149.05322774552022,192.98245614035088,146.74284887620263,200,144.43391620957559C207.01754385964912,142.1249835429485,214.03508771929828,139.81749707901199,221.0526315789474,136.6227702877015C228.07017543859652,133.428043496391,235.08771929824562,129.34607637770657,242.1052631578947,125.50829469450589C249.1228070175439,121.67051301130523,256.140350877193,118.07691676358833,263.15789473684214,115.0713087731483C270.17543859649123,112.06570078270829,277.1929824561403,109.64808104954513,284.2105263157895,107.32142477787185C291.22807017543863,104.99476850619858,298.2456140350877,102.75907569601519,305.2631578947369,100.15146324064675C312.280701754386,97.54385078527832,319.2982456140351,94.56431868472487,326.3157894736842,90.02047121502068C333.3333333333333,85.47662374531649,340.3508771929825,79.36846090646156,347.3684210526316,78.830828410086C354.3859649122807,78.2931959137104,361.40350877192986,83.32609375981417,364.91228070175447,85.84254268286604L368.42105263157896,88.35899160591792L368.42105263157896,20.541811873664273L364.91228070175436,24.864100975964362C361.40350877192986,29.186390078264456,354.3859649122807,37.83096828286464,347.3684210526316,47.904810431714374C340.3508771929825,57.97865258056411,333.3333333333333,69.4817586736634,326.3157894736842,77.34999036392905C319.2982456140351,85.21822205419467,312.280701754386,89.45157934162665,305.2631578947369,92.7474439391305C298.2456140350877,96.04330853663436,291.22807017543863,98.40168044421006,284.2105263157895,100.8577227610974C277.1929824561403,103.31376507798473,270.17543859649123,105.86747780418368,263.15789473684214,109.04217344359348C256.140350877193,112.21686908300329,249.1228070175439,116.01254763562395,242.1052631578947,119.88203498587598C235.08771929824562,123.751522336128,228.07017543859652,127.6948184840114,221.0526315789474,130.81194431915253C214.03508771929828,133.92907015429364,207.01754385964912,136.22002567669247,200,138.4661287519754C192.98245614035088,140.71223182725825,185.96491228070172,142.91348245542517,178.94736842105263,145.46350294489267C171.9298245614035,148.01352343436017,164.91228070175438,150.91231378512825,157.89473684210526,154.85812432224566C150.87719298245614,158.80393485936307,143.859649122807,163.7967655828298,136.8421052631579,169.83845526641664C129.82456140350877,175.88014495000348,122.80701754385966,182.97069359371048,115.78947368421052,189.3000592088865C108.77192982456141,195.6294248240625,101.75438596491227,201.1976074107075,94.73684210526316,208.34238037808655C87.71929824561403,215.4871533454656,80.7017543859649,224.20851669357876,73.68421052631578,231.3236015163329C66.66666666666666,238.43868633908707,59.649122807017534,243.94749263648225,52.63157894736842,247.57667885012611C45.614035087719294,251.20586506377,38.59649122807017,252.95543119366258,31.57894736842105,258.15755338786863C24.561403508771928,263.3596755820747,17.543859649122805,272.0143538405943,14.035087719298245,276.34169296985414L10.526315789473683,280.6690320991139Z" fill="#58728C" opacity="0.3"/></g></g><path class="foreground" aria-hidden="true" d="" display="none"/></g></g><g class="mark-group role-legend" role="graphics-symbol" aria-roledescription="legend" aria-label="Symbol legend titled 'column' for fill color and stroke color with 2 values: PGC, RPLC"><g transform="translate(418,0)"><path class="background" aria-hidden="true" d="M0,0h43v45h-43Z" pointer-events="none"/><g><g class="mark-group role-legend-entry"><g transform="translate(0,16)"><path class="background" aria-hidden="true" d="M0,0h0v0h0Z" pointer-events="none"/><g><g class="mark-group role-scope" role="graphics-object" aria-roledescription="group mark container"><g transform="translate(0,0)"><path class="background" aria-hidden="true" d="M0,0h42.6748046875v12.5h-42.6748046875Z" pointer-events="none" opacity="1"/><g><g class="mark-symbol role-legend-symbol" pointer-events="none"><path transform="translate(6,6)" d="M5,0A5,5,0,1,1,-5,0A5,5,0,1,1,5,0" fill="#D56E3B" stroke="#D56E3B" stroke-width="1.5" opacity="0.3"/></g><g class="mark-text role-legend-label" pointer-events="none"><text text-anchor="start" transform="translate(16,9)" font-family="sans-serif" font-size="10px" fill="#000" opacity="1">PGC</text></g></g><path class="foreground" aria-hidden="true" d="" pointer-events="none" display="none"/></g><g transform="translate(0,16)"><path class="background" aria-hidden="true" d="M0,0h42.6748046875v12.5h-42.6748046875Z" pointer-events="none" opacity="1"/><g><g class="mark-symbol role-legend-symbol" pointer-events="none"><path transform="translate(6,6)" d="M5,0A5,5,0,1,1,-5,0A5,5,0,1,1,5,0" fill="#58728C" stroke="#58728C" stroke-width="1.5" opacity="0.3"/></g><g class="mark-text role-legend-label" pointer-events="none"><text text-anchor="start" transform="translate(16,9)" font-family="sans-serif" font-size="10px" fill="#000" opacity="1">RPLC</text></g></g><path class="foreground" aria-hidden="true" d="" pointer-events="none" display="none"/></g></g></g><path class="foreground" aria-hidden="true" d="" pointer-events="none" display="none"/></g></g><g class="mark-text role-legend-title" pointer-events="none"><text text-anchor="start" transform="translate(0,9)" font-family="sans-serif" font-size="11px" font-weight="bold" fill="#000" opacity="1">column</text></g></g><path class="foreground" aria-hidden="true" d="" pointer-events="none" display="none"/></g></g></g><path class="foreground" aria-hidden="true" d="" display="none"/></g></g></g></svg>