<svg xmlns="http://www.w3.org/2000/svg" xmlns:xlink="http://www.w3.org/1999/xlink" version="1.1" class="marks" width="530" height="347" viewBox="0 0 530 347"><rect width="530" height="347" fill="white"/><g fill="none" stroke-miterlimit="10" transform="translate(64,10)"><g class="mark-group role-frame root" role="graphics-object" aria-roledescription="group mark container"><g transform="translate(0,0)"><path class="background" aria-hidden="true" d="M0.5,0.5h400v300h-400Z" stroke="#ddd"/><g><g class="mark-group role-axis" aria-hidden="true"><g transform="translate(0.5,300.5)"><path class="background" aria-hidden="true" d="M0,0h0v0h0Z" pointer-events="none"/><g><g class="mark-rule role-axis-grid" pointer-events="none"><line transform="translate(0,-300)" x2="0" y2="300" stroke="#ddd" stroke-width="1" opacity="1"/><line transform="translate(50,-300)" x2="0" y2="300" stroke="#ddd" stroke-width="1" opacity="1"/><line transform="translate(100,-300)" x2="0" y2="300" stroke="#ddd" stroke-width="1" opacity="1"/><line transform="translate(150,-300)" x2="0" y2="300" stroke="#ddd" stroke-width="1" opacity="1"/><line transform="translate(200,-300)" x2="0" y2="300" stroke="#ddd" stroke-width="1" opacity="1"/><line transform="translate(250,-300)" x2="0" y2="300" stroke="#ddd" stroke-width="1" opacity="1"/><line transform="translate(300,-300)" x2="0" y2="300" stroke="#ddd" stroke-width="1" opacity="1"/><line transform="translate(350,-300)" x2="0" y2="300" stroke="#ddd" stroke-width="1" opacity="1"/><line transform="translate(400,-300)" x2="0" y2="300" stroke="#ddd" stroke-width="1" opacity="1"/></g></g><path class="foreground" aria-hidden="true" d="" pointer-events="none" display="none"/></g></g><g class="mark-group role-axis" aria-hidden="true"><g transform="translate(0.5,0.5)"><path class="background" aria-hidden="true" d="M0,0h0v0h0Z" pointer-events="none"/><g><g class="mark-rule role-axis-grid" pointer-events="none"><line transform="translate(0,300)" x2="400" y2="0" stroke="#ddd" stroke-width="1" opacity="1"/><line transform="translate(0,275)" x2="400" y2="0" stroke="#ddd" stroke-width="1" opacity="1"/><line transform="translate(0,250)" x2="400" y2="0" stroke="#ddd" stroke-width="1" opacity="1"/><line transform="translate(0,225)" x2="400" y2="0" stroke="#ddd" stroke-width="1" opacity="1"/><line transform="translate(0,200)" x2="400" y2="0" stroke="#ddd" stroke-width="1" opacity="1"/><line transform="translate(0,175)" x2="400" y2="0" stroke="#ddd" stroke-width="1" opacity="1"/><line transform="translate(0,150)" x2="400" y2="0" stroke="#ddd" stroke-width="1" opacity="1"/><line transform="translate(0,125)" x2="400" y2="0" stroke="#ddd" stroke-width="1" opacity="1"/><line transform="translate(0,100)" x2="400" y2="0" stroke="#ddd" stroke-width="1" opacity="1"/><line transform="translate(0,75)" x2="400" y2="0" stroke="#ddd" stroke-width="1" opacity="1"/><line transform="translate(0,50)" x2="400" y2="0" stroke="#ddd" stroke-width="1" opacity="1"/><line transform="translate(0,25)" x2="400" y2="0" stroke="#ddd" stroke-width="1" opacity="1"/><line transform="translate(0,0)" x2="400" y2="0" stroke="#ddd" stroke-width="1" opacity="1"/></g></g><path class="foreground" aria-hidden="true" d="" pointer-events="none" display="none"/></g></g><g class="mark-group role-axis" role="graphics-symbol" aria-roledescription="axis" aria-label="X-axis titled 'RT (min)' for a linear scale with values from 0 to 80"><g transform="translate(0.5,300.5)"><path class="background" aria-hidden="true" d="M0,0h0v0h0Z" pointer-events="none"/><g><g class="mark-rule role-axis-tick" pointer-events="none"><line transform="translate(0,0)" x2="0" y2="5" stroke="#888" stroke-width="1" opacity="1"/><line transform="translate(50,0)" x2="0" y2="5" stroke="#888" stroke-width="1" opacity="1"/><line transform="translate(100,0)" x2="0" y2="5" stroke="#888" stroke-width="1" opacity="1"/><line transform="translate(150,0)" x2="0" y2="5" stroke="#888" stroke-width="1" opacity="1"/><line transform="translate(200,0)" x2="0" y2="5" stroke="#888" stroke-width="1" opacity="1"/><line transform="translate(250,0)" x2="0" y2="5" stroke="#888" stroke-width="1" opacity="1"/><line transform="translate(300,0)" x2="0" y2="5" stroke="#888" stroke-width="1" opacity="1"/><line transform="translate(350,0)" x2="0" y2="5" stroke="#888" stroke-width="1" opacity="1"/><line transform="translate(400,0)" x2="0" y2="5" stroke="#888" stroke-width="1" opacity="1"/></g><g class="mark-text role-axis-label" pointer-events="none"><text text-anchor="start" transform="translate(0,15)" font-family="sans-serif" font-size="10px" fill="#000" opacity="1">0</text><text text-anchor="middle" transform="translate(50,15)" font-family="sans-serif" font-size="10px" fill="#000" opacity="1">10</text><text text-anchor="middle" transform="translate(100,15)" font-family="sans-serif" font-size="10px" fill="#000" opacity="1">20</text><text text-anchor="middle" transform="translate(150,15)" font-family="sans-serif" font-size="10px" fill="#000" opacity="1">30</text><text text-anchor="middle" transform="translate(200,15)" font-family="sans-serif" font-size="10px" fill="#000" opacity="1">40</text><text text-anchor="middle" transform="translate(250,15)" font-family="sans-serif" font-size="10px" fill="#000" opacity="1">50</text><text text-anchor="middle" transform="translate(300,15)" font-family="sans-serif" font-size="10px" fill="#000" opacity="1">60</text><text text-anchor="middle" transform="translate(350,15)" font-family="sans-serif" font-size="10px" fill="#000" opacity="1">70</text><text text-anchor="end" transform="translate(400,15)" font-family="sans-serif" font-size="10px" fill="#000" opacity="1">80</text></g><g class="mark-rule role-axis-domain" pointer-events="none"><line transform="translate(0,0)" x2="400" y2="0" stroke="#888" stroke-width="1" opacity="1"/></g><g class="mark-text role-axis-title" pointer-events="none"><text text-anchor="middle" transform="translate(200,30)" font-family="sans-serif" font-size="11px" font-weight="bold" fill="#000" opacity="1">RT (min)</text></g></g><path class="foreground" aria-hidden="true" d="" pointer-events="none" display="none"/></g></g><g class="mark-group role-axis" role="graphics-symbol" aria-roledescription="axis" aria-label="Y-axis titled 'Plate Number' for a linear scale with values from 0 to 240,000"><g transform="translate(0.5,0.5)"><path class="background" aria-hidden="true" d="M0,0h0v0h0Z" pointer-events="none"/><g><g class="mark-rule role-axis-tick" pointer-events="none"><line transform="translate(0,300)" x2="-5" y2="0" stroke="#888" stroke-width="1" opacity="1"/><line transform="translate(0,275)" x2="-5" y2="0" stroke="#888" stroke-width="1" opacity="1"/><line transform="translate(0,250)" x2="-5" y2="0" stroke="#888" stroke-width="1" opacity="1"/><line transform="translate(0,225)" x2="-5" y2="0" stroke="#888" stroke-width="1" opacity="1"/><line transform="translate(0,200)" x2="-5" y2="0" stroke="#888" stroke-width="1" opacity="1"/><line transform="translate(0,175)" x2="-5" y2="0" stroke="#888" stroke-width="1" opacity="1"/><line transform="translate(0,150)" x2="-5" y2="0" stroke="#888" stroke-width="1" opacity="1"/><line transform="translate(0,125)" x2="-5" y2="0" stroke="#888" stroke-width="1" opacity="1"/><line transform="translate(0,100)" x2="-5" y2="0" stroke="#888" stroke-width="1" opacity="1"/><line transform="translate(0,75)" x2="-5" y2="0" stroke="#888" stroke-width="1" opacity="1"/><line transform="translate(0,50)" x2="-5" y2="0" stroke="#888" stroke-width="1" opacity="1"/><line transform="translate(0,25)" x2="-5" y2="0" stroke="#888" stroke-width="1" opacity="1"/><line transform="translate(0,0)" x2="-5" y2="0" stroke="#888" stroke-width="1" opacity="1"/></g><g class="mark-text role-axis-label" pointer-events="none"><text text-anchor="end" transform="translate(-7,303)" font-family="sans-serif" font-size="10px" fill="#000" opacity="1">0</text><text text-anchor="end" transform="translate(-7,278)" font-family="sans-serif" font-size="10px" fill="#000" opacity="1">20,000</text><text text-anchor="end" transform="translate(-7,253)" font-family="sans-serif" font-size="10px" fill="#000" opacity="1">40,000</text><text text-anchor="end" transform="translate(-7,228)" font-family="sans-serif" font-size="10px" fill="#000" opacity="1">60,000</text><text text-anchor="end" transform="translate(-7,203.00000000000003)" font-family="sans-serif" font-size="10px" fill="#000" opacity="1">80,000</text><text text-anchor="end" transform="translate(-7,177.99999999999997)" font-family="sans-serif" font-size="10px" fill="#000" opacity="1">100,000</text><text text-anchor="end" transform="translate(-7,153)" font-family="sans-serif" font-size="10px" fill="#000" opacity="1">120,000</text><text text-anchor="end" transform="translate(-7,127.99999999999999)" font-family="sans-serif" font-size="10px" fill="#000" opacity="1">140,000</text><text text-anchor="end" transform="translate(-7,103.00000000000001)" font-family="sans-serif" font-size="10px" fill="#000" opacity="1">160,000</text><text text-anchor="end" transform="translate(-7,78)" font-family="sans-serif" font-size="10px" fill="#000" opacity="1">180,000</text><text text-anchor="end" transform="translate(-7,52.999999999999986)" font-family="sans-serif" font-size="10px" fill="#000" opacity="1">200,000</text><text text-anchor="end" transform="translate(-7,28.00000000000001)" font-family="sans-serif" font-size="10px" fill="#000" opacity="1">220,000</text><text text-anchor="end" transform="translate(-7,3)" font-family="sans-serif" font-size="10px" fill="#000" opacity="1">240,000</text></g><g class="mark-rule role-axis-domain" pointer-events="none"><line transform="translate(0,300)" x2="0" y2="-300" stroke="#888" stroke-width="1" opacity="1"/></g><g class="mark-text role-axis-title" pointer-events="none"><text text-anchor="middle" transform="translate(-47.1474609375,150) rotate(-90) translate(0,-2)" font-family="sans-serif" font-size="11px" font-weight="bold" fill="#000" opacity="1">Plate Number</text></g></g><path class="foreground" aria-hidden="true" d="" pointer-events="none" display="none"/></g></g><g class="mark-group role-scope pathgroup" role="graphics-object" aria-roledescription="group mark container"><g transform="translate(0,0)"><path class="background" aria-hidden="true" d="M0,0h400v300h-400Z"/><g><g class="mark-line role-mark marks" role="graphics-object" aria-roledescription="line mark container"><path aria-label="column: PGC; file: PGC_MT10_DIA_run1; RT (min): 23.4258333333; Plate Number: 9313.66766604" role="graphics-symbol" aria-roledescription="line mark" d="M117.129,288.358L121.367,284.837C125.605,281.317,134.081,274.276,138.815,268.762C143.549,263.247,144.541,259.259,148.706,254.849C152.871,250.438,160.208,245.605,174.753,241.387C189.299,237.17,211.051,233.569,233.64,214.831C256.228,196.093,279.651,162.219,297.972,155.202C316.293,148.184,329.511,168.025,343.967,149.265C358.423,130.506,374.117,73.147,381.964,44.468L389.811,15.788" stroke="#D56E3B" stroke-width="2"/></g></g><path class="foreground" aria-hidden="true" d="" display="none"/></g><g transform="translate(0,0)"><path class="background" aria-hidden="true" d="M0,0h400v300h-400Z"/><g><g class="mark-line role-mark marks" role="graphics-object" aria-roledescription="line mark container"><path aria-label="column: PGC; file: PGC_MT10_DIA_run2; RT (min): 23.5148333333; Plate Number: 11343.4158508" role="graphics-symbol" aria-roledescription="line mark" d="M117.574,285.821L121.745,282.716C125.915,279.611,134.256,273.4,138.858,268.385C143.461,263.37,144.324,259.549,148.486,255.125C152.649,250.7,160.112,245.671,174.711,239.94C189.311,234.208,211.048,227.774,233.706,208.948C256.363,190.123,279.941,158.907,298.23,151.437C316.519,143.966,329.519,160.24,343.908,141.62C358.297,123,374.076,69.486,381.965,42.728L389.854,15.971" stroke="#D56E3B" stroke-width="2"/></g></g><path class="foreground" aria-hidden="true" d="" display="none"/></g><g transform="translate(0,0)"><path class="background" aria-hidden="true" d="M0,0h400v300h-400Z"/><g><g class="mark-line role-mark marks" role="graphics-object" aria-roledescription="line mark container"><path aria-label="column: PGC; file: PGC_T10_DIA_run1; RT (min): 23.7588333333; Plate Number: 10554.3168196" role="graphics-symbol" aria-roledescription="line mark" d="M118.794,286.807L123.417,280.269C128.04,273.731,137.285,260.655,145.726,252.749C154.166,244.843,161.802,242.107,171.726,233.339C181.651,224.57,193.864,209.77,204.774,209.185C215.684,208.601,225.291,222.233,241.562,214.447C257.834,206.661,280.77,177.458,299.167,172.336C317.563,167.215,331.419,186.175,345.789,164.069C360.158,141.964,375.042,78.793,382.483,47.207L389.925,15.622" stroke="#D56E3B" stroke-width="2"/></g></g><path class="foreground" aria-hidden="true" d="" display="none"/></g><g transform="translate(0,0)"><path class="background" aria-hidden="true" d="M0,0h400v300h-400Z"/><g><g class="mark-line role-mark marks" role="graphics-object" aria-roledescription="line mark container"><path aria-label="column: PGC; file: PGC_T10_DIA_run2; RT (min): 23.6721666667; Plate Number: 11510.478745" role="graphics-symbol" aria-roledescription="line mark" d="M118.361,285.612L123.007,280.497C127.653,275.381,136.945,265.151,145.302,257.518C153.659,249.886,161.08,244.852,170.922,235.046C180.763,225.24,193.025,210.662,203.833,208.957C214.641,207.253,223.995,218.421,240.249,207.155C256.503,195.89,279.657,162.192,297.97,155.196C316.283,148.199,329.754,167.904,344.315,154.781C358.875,141.657,374.524,95.705,382.349,72.729L390.173,49.753" stroke="#D56E3B" stroke-width="2"/></g></g><path class="foreground" aria-hidden="true" d="" display="none"/></g><g transform="translate(0,0)"><path class="background" aria-hidden="true" d="M0,0h400v300h-400Z"/><g><g class="mark-line role-mark marks" role="graphics-object" aria-roledescription="line mark container"><path aria-label="column: RPLC; file: RPLC_MT10_DIA_run1; RT (min): 3.19568333333; Plate Number: 594.208995366" role="graphics-symbol" aria-roledescription="line mark" d="M15.978,299.257L24.135,298.491C32.291,297.725,48.603,296.193,59.548,293.971C70.493,291.749,76.07,288.837,99.323,280.681C122.575,272.525,163.503,259.125,185.549,250.365C207.595,241.606,210.759,237.486,218.818,231.013C226.877,224.54,239.83,215.714,257.425,202.086C275.021,188.458,297.258,170.028,312.079,149.304C326.901,128.579,334.306,105.561,338.009,94.051L341.712,82.542" stroke="#58728C" stroke-width="2"/></g></g><path class="foreground" aria-hidden="true" d="" display="none"/></g><g transform="translate(0,0)"><path class="background" aria-hidden="true" d="M0,0h400v300h-400Z"/><g><g class="mark-line role-mark marks" role="graphics-object" aria-roledescription="line mark container"><path aria-label="column: RPLC; file: RPLC_MT10_DIA_run2; RT (min): 3.27221666667; Plate Number: 625.17044478" role="graphics-symbol" aria-roledescription="line mark" d="M16.361,299.219L24.645,298.181C32.929,297.143,49.496,295.067,60.437,292.822C71.378,290.577,76.693,288.164,99.491,280.426C122.289,272.688,162.57,259.624,184.293,251.065C206.016,242.506,209.179,238.452,217.282,230.034C225.384,221.617,238.424,208.836,256.148,195.179C273.873,181.522,296.281,166.99,311.209,148.184C326.138,129.378,333.586,106.297,337.31,94.757L341.034,83.216" stroke="#58728C" stroke-width="2"/></g></g><path class="foreground" aria-hidden="true" d="" display="none"/></g><g transform="translate(0,0)"><path class="background" aria-hidden="true" d="M0,0h400v300h-400Z"/><g><g class="mark-line role-mark marks" role="graphics-object" aria-roledescription="line mark container"><path aria-label="column: RPLC; file: RPLC_T10_DIA_run1; RT (min): 3.1738; Plate Number: 588.002885665" role="graphics-symbol" aria-roledescription="line mark" d="M15.869,299.265L23.955,298.405C32.041,297.545,48.213,295.826,59.041,293.941C69.87,292.056,75.355,290.007,98.603,281.98C121.85,273.953,162.859,259.949,184.966,250.888C207.074,241.826,210.28,237.707,218.295,229.296C226.31,220.884,239.134,208.18,256.684,191.429C274.235,174.677,296.513,153.878,311.439,129.751C326.365,105.624,333.941,78.17,337.728,64.442L341.516,50.715" stroke="#58728C" stroke-width="2"/></g></g><path class="foreground" aria-hidden="true" d="" display="none"/></g><g transform="translate(0,0)"><path class="background" aria-hidden="true" d="M0,0h400v300h-400Z"/><g><g class="mark-line role-mark marks" role="graphics-object" aria-roledescription="line mark container"><path aria-label="column: RPLC; file: RPLC_T10_DIA_run2; RT (min): 3.18826666667; Plate Number: 593.568176545" role="graphics-symbol" aria-roledescription="line mark" d="M15.941,299.258L23.981,298.28C32.02,297.302,48.099,295.347,58.817,293.497C69.535,291.648,74.891,289.905,98.061,282.069C121.231,274.233,162.215,260.305,184.268,252.498C206.32,244.692,209.442,243.006,217.501,234.592C225.56,226.179,238.556,211.038,256.279,196.176C274.003,181.314,296.453,166.731,311.444,147.884C326.435,129.036,333.967,105.924,337.733,94.368L341.499,82.812" stroke="#58728C" stroke-width="2"/></g></g><path class="foreground" aria-hidden="true" d="" display="none"/></g></g><g class="mark-group role-legend" role="graphics-symbol" aria-roledescription="legend" aria-label="Symbol legend titled 'column' for stroke color with 2 values: PGC, RPLC"><g transform="translate(418,0)"><path class="background" aria-hidden="true" d="M0,0h43v40h-43Z" pointer-events="none"/><g><g class="mark-group role-legend-entry"><g transform="translate(0,16)"><path class="background" aria-hidden="true" d="M0,0h0v0h0Z" pointer-events="none"/><g><g class="mark-group role-scope" role="graphics-object" aria-roledescription="group mark container"><g transform="translate(0,0)"><path class="background" aria-hidden="true" d="M0,0h42.6748046875v11h-42.6748046875Z" pointer-events="none" opacity="1"/><g><g class="mark-symbol role-legend-symbol" pointer-events="none"><path transform="translate(6,6)" d="M-5,0L5,0" stroke="#D56E3B" stroke-width="1.5" opacity="1"/></g><g class="mark-text role-legend-label" pointer-events="none"><text text-anchor="start" transform="translate(16,9)" font-family="sans-serif" font-size="10px" fill="#000" opacity="1">PGC</text></g></g><path class="foreground" aria-hidden="true" d="" pointer-events="none" display="none"/></g><g transform="translate(0,13)"><path class="background" aria-hidden="true" d="M0,0h42.6748046875v11h-42.6748046875Z" pointer-events="none" opacity="1"/><g><g class="mark-symbol role-legend-symbol" pointer-events="none"><path transform="translate(6,6)" d="M-5,0L5,0" stroke="#58728C" stroke-width="1.5" opacity="1"/></g><g class="mark-text role-legend-label" pointer-events="none"><text text-anchor="start" transform="translate(16,9)" font-family="sans-serif" font-size="10px" fill="#000" opacity="1">RPLC</text></g></g><path class="foreground" aria-hidden="true" d="" pointer-events="none" display="none"/></g></g></g><path class="foreground" aria-hidden="true" d="" pointer-events="none" display="none"/></g></g><g class="mark-text role-legend-title" pointer-events="none"><text text-anchor="start" transform="translate(0,9)" font-family="sans-serif" font-size="11px" font-weight="bold" fill="#000" opacity="1">column</text></g></g><path class="foreground" aria-hidden="true" d="" pointer-events="none" display="none"/></g></g></g><path class="foreground" aria-hidden="true" d="" display="none"/></g></g></g></svg>