<svg xmlns="http://www.w3.org/2000/svg" xmlns:xlink="http://www.w3.org/1999/xlink" version="1.1" class="marks" width="272" height="373" viewBox="0 0 272 373"><rect width="272" height="373" fill="white"/><g fill="none" stroke-miterlimit="10" transform="translate(47,61)"><g class="mark-group role-frame root" role="graphics-object" aria-roledescription="group mark container"><g transform="translate(0,0)"><path class="background" aria-hidden="true" d="M0,0h0v0h0Z"/><g><g class="mark-group role-column-title column-title" role="graphics-object" aria-roledescription="group mark container"><g transform="translate(80,-35)"><path class="background" aria-hidden="true" d="M0,0h0v0h0Z"/><g><g class="mark-group role-title"><g transform="translate(0,-21)"><path class="background" aria-hidden="true" d="M0,0h0v0h0Z" pointer-events="none"/><g><g class="mark-text role-title-text" role="graphics-symbol" aria-roledescription="title" aria-label="Title text 'column'" pointer-events="none"><text text-anchor="middle" transform="translate(0,9)" font-family="sans-serif" font-size="11px" font-weight="bold" fill="#000" opacity="1">column</text></g></g><path class="foreground" aria-hidden="true" d="" pointer-events="none" display="none"/></g></g></g><path class="foreground" aria-hidden="true" d="" display="none"/></g></g><g class="mark-group role-row-header row_header" role="graphics-object" aria-roledescription="group mark container"><g transform="translate(0,0)"><path class="background" aria-hidden="true" d="M0,0h0v300h0Z"/><g><g class="mark-group role-axis" role="graphics-symbol" aria-roledescription="axis" aria-label="Y-axis titled 'paxdb abundance, normalized' for a linear scale with values from 0.0 to 1.0"><g transform="translate(0.5,0.5)"><path class="background" aria-hidden="true" d="M0,0h0v0h0Z" pointer-events="none"/><g><g class="mark-rule role-axis-tick" pointer-events="none"><line transform="translate(0,300)" x2="-5" y2="0" stroke="#888" stroke-width="1" opacity="1"/><line transform="translate(0,270)" x2="-5" y2="0" stroke="#888" stroke-width="1" opacity="1"/><line transform="translate(0,240)" x2="-5" y2="0" stroke="#888" stroke-width="1" opacity="1"/><line transform="translate(0,210)" x2="-5" y2="0" stroke="#888" stroke-width="1" opacity="1"/><line transform="translate(0,180)" x2="-5" y2="0" stroke="#888" stroke-width="1" opacity="1"/><line transform="translate(0,150)" x2="-5" y2="0" stroke="#888" stroke-width="1" opacity="1"/><line transform="translate(0,120)" x2="-5" y2="0" stroke="#888" stroke-width="1" opacity="1"/><line transform="translate(0,90)" x2="-5" y2="0" stroke="#888" stroke-width="1" opacity="1"/><line transform="translate(0,60)" x2="-5" y2="0" stroke="#888" stroke-width="1" opacity="1"/><line transform="translate(0,30)" x2="-5" y2="0" stroke="#888" stroke-width="1" opacity="1"/><line transform="translate(0,0)" x2="-5" y2="0" stroke="#888" stroke-width="1" opacity="1"/></g><g class="mark-text role-axis-label" pointer-events="none"><text text-anchor="end" transform="translate(-7,304)" font-family="sans-serif" font-size="14px" font-weight="600" fill="#000" opacity="1">0.0</text><text text-anchor="end" transform="translate(-7,274)" font-family="sans-serif" font-size="14px" font-weight="600" fill="#000" opacity="1">0.1</text><text text-anchor="end" transform="translate(-7,244)" font-family="sans-serif" font-size="14px" font-weight="600" fill="#000" opacity="1">0.2</text><text text-anchor="end" transform="translate(-7,214)" font-family="sans-serif" font-size="14px" font-weight="600" fill="#000" opacity="1">0.3</text><text text-anchor="end" transform="translate(-7,184)" font-family="sans-serif" font-size="14px" font-weight="600" fill="#000" opacity="1">0.4</text><text text-anchor="end" transform="translate(-7,154)" font-family="sans-serif" font-size="14px" font-weight="600" fill="#000" opacity="1">0.5</text><text text-anchor="end" transform="translate(-7,124)" font-family="sans-serif" font-size="14px" font-weight="600" fill="#000" opacity="1">0.6</text><text text-anchor="end" transform="translate(-7,94.00000000000001)" font-family="sans-serif" font-size="14px" font-weight="600" fill="#000" opacity="1">0.7</text><text text-anchor="end" transform="translate(-7,63.999999999999986)" font-family="sans-serif" font-size="14px" font-weight="600" fill="#000" opacity="1">0.8</text><text text-anchor="end" transform="translate(-7,33.99999999999999)" font-family="sans-serif" font-size="14px" font-weight="600" fill="#000" opacity="1">0.9</text><text text-anchor="end" transform="translate(-7,4)" font-family="sans-serif" font-size="14px" font-weight="600" fill="#000" opacity="1">1.0</text></g><g class="mark-rule role-axis-domain" pointer-events="none"><line transform="translate(0,300)" x2="0" y2="-300" stroke="#888" stroke-width="1" opacity="1"/></g><g class="mark-text role-axis-title" pointer-events="none"><text text-anchor="middle" transform="translate(-30.4619140625,150) rotate(-90) translate(0,-2)" font-family="sans-serif" font-size="11px" font-weight="bold" fill="#000" opacity="1">paxdb abundance, normalized</text></g></g><path class="foreground" aria-hidden="true" d="" pointer-events="none" display="none"/></g></g></g><path class="foreground" aria-hidden="true" d="" display="none"/></g></g><g class="mark-group role-column-header column_header" role="graphics-object" aria-roledescription="group mark container"><g transform="translate(0,-5)"><path class="background" aria-hidden="true" d="M0,0h53v0h-53Z"/><g><g class="mark-group role-title"><g transform="translate(26.5,-20)"><path class="background" aria-hidden="true" d="M0,0h0v0h0Z" pointer-events="none"/><g><g class="mark-text role-title-text" role="graphics-symbol" aria-roledescription="title" aria-label="Title text 'PGC'" pointer-events="none"><text text-anchor="middle" transform="translate(0,8)" font-family="sans-serif" font-size="10px" fill="#000" opacity="1">PGC</text></g></g><path class="foreground" aria-hidden="true" d="" pointer-events="none" display="none"/></g></g></g><path class="foreground" aria-hidden="true" d="" display="none"/></g><g transform="translate(53,-5)"><path class="background" aria-hidden="true" d="M0,0h53v0h-53Z"/><g><g class="mark-group role-title"><g transform="translate(26.5,-20)"><path class="background" aria-hidden="true" d="M0,0h0v0h0Z" pointer-events="none"/><g><g class="mark-text role-title-text" role="graphics-symbol" aria-roledescription="title" aria-label="Title text 'RPLC'" pointer-events="none"><text text-anchor="middle" transform="translate(0,8)" font-family="sans-serif" font-size="10px" fill="#000" opacity="1">RPLC</text></g></g><path class="foreground" aria-hidden="true" d="" pointer-events="none" display="none"/></g></g></g><path class="foreground" aria-hidden="true" d="" display="none"/></g><g transform="translate(106,-5)"><path class="background" aria-hidden="true" d="M0,0h53v0h-53Z"/><g><g class="mark-group role-title"><g transform="translate(26.5,-20)"><path class="background" aria-hidden="true" d="M0,0h0v0h0Z" pointer-events="none"/><g><g class="mark-text role-title-text" role="graphics-symbol" aria-roledescription="title" aria-label="Title text 'both'" pointer-events="none"><text text-anchor="middle" transform="translate(0,8)" font-family="sans-serif" font-size="10px" fill="#000" opacity="1">both</text></g></g><path class="foreground" aria-hidden="true" d="" pointer-events="none" display="none"/></g></g></g><path class="foreground" aria-hidden="true" d="" display="none"/></g></g><g class="mark-group role-scope cell" role="graphics-object" aria-roledescription="group mark container"><g transform="translate(0,0)"><path class="background" aria-hidden="true" d="M0,0h53v300h-53Z"/><g><g class="mark-group role-axis" aria-hidden="true"><g transform="translate(0.5,0.5)"><path class="background" aria-hidden="true" d="M0,0h0v0h0Z" pointer-events="none"/><g><g class="mark-rule role-axis-grid" pointer-events="none"><line transform="translate(0,300)" x2="53" y2="0" stroke="#ddd" stroke-width="1" opacity="1"/><line transform="translate(0,270)" x2="53" y2="0" stroke="#ddd" stroke-width="1" opacity="1"/><line transform="translate(0,240)" x2="53" y2="0" stroke="#ddd" stroke-width="1" opacity="1"/><line transform="translate(0,210)" x2="53" y2="0" stroke="#ddd" stroke-width="1" opacity="1"/><line transform="translate(0,180)" x2="53" y2="0" stroke="#ddd" stroke-width="1" opacity="1"/><line transform="translate(0,150)" x2="53" y2="0" stroke="#ddd" stroke-width="1" opacity="1"/><line transform="translate(0,120)" x2="53" y2="0" stroke="#ddd" stroke-width="1" opacity="1"/><line transform="translate(0,90)" x2="53" y2="0" stroke="#ddd" stroke-width="1" opacity="1"/><line transform="translate(0,60)" x2="53" y2="0" stroke="#ddd" stroke-width="1" opacity="1"/><line transform="translate(0,30)" x2="53" y2="0" stroke="#ddd" stroke-width="1" opacity="1"/><line transform="translate(0,0)" x2="53" y2="0" stroke="#ddd" stroke-width="1" opacity="1"/></g></g><path class="foreground" aria-hidden="true" d="" pointer-events="none" display="none"/></g></g><g class="mark-symbol role-mark child_layer_0_layer_0_marks" role="graphics-object" aria-roledescription="symbol mark container"><path aria-label="paxdb abundance, normalized: 0.836634993853; column: PGC" role="graphics-symbol" aria-roledescription="point" transform="translate(26.5,49.00950184419912)" d="M2.7386127875258306,0A2.7386127875258306,2.7386127875258306,0,1,1,-2.7386127875258306,0A2.7386127875258306,2.7386127875258306,0,1,1,2.7386127875258306,0" stroke="#D56E3B" stroke-width="2" opacity="0.7"/><path aria-label="paxdb abundance, normalized: 0.836072359348; column: PGC" role="graphics-symbol" aria-roledescription="point" transform="translate(26.5,49.17829219545583)" d="M2.7386127875258306,0A2.7386127875258306,2.7386127875258306,0,1,1,-2.7386127875258306,0A2.7386127875258306,2.7386127875258306,0,1,1,2.7386127875258306,0" stroke="#D56E3B" stroke-width="2" opacity="0.7"/><path aria-label="paxdb abundance, normalized: 0.819844181112; column: PGC" role="graphics-symbol" aria-roledescription="point" transform="translate(26.5,54.046745666288665)" d="M2.7386127875258306,0A2.7386127875258306,2.7386127875258306,0,1,1,-2.7386127875258306,0A2.7386127875258306,2.7386127875258306,0,1,1,2.7386127875258306,0" stroke="#D56E3B" stroke-width="2" opacity="0.7"/><path aria-label="paxdb abundance, normalized: 0.806960911965; column: PGC" role="graphics-symbol" aria-roledescription="point" transform="translate(26.5,57.91172641037251)" d="M2.7386127875258306,0A2.7386127875258306,2.7386127875258306,0,1,1,-2.7386127875258306,0A2.7386127875258306,2.7386127875258306,0,1,1,2.7386127875258306,0" stroke="#D56E3B" stroke-width="2" opacity="0.7"/><path aria-label="paxdb abundance, normalized: 0.793855429022; column: PGC" role="graphics-symbol" aria-roledescription="point" transform="translate(26.5,61.84337129349665)" d="M2.7386127875258306,0A2.7386127875258306,2.7386127875258306,0,1,1,-2.7386127875258306,0A2.7386127875258306,2.7386127875258306,0,1,1,2.7386127875258306,0" stroke="#D56E3B" stroke-width="2" opacity="0.7"/><path aria-label="paxdb abundance, normalized: 0.78078505019; column: PGC" role="graphics-symbol" aria-roledescription="point" transform="translate(26.5,65.76448494293959)" d="M2.7386127875258306,0A2.7386127875258306,2.7386127875258306,0,1,1,-2.7386127875258306,0A2.7386127875258306,2.7386127875258306,0,1,1,2.7386127875258306,0" stroke="#D56E3B" stroke-width="2" opacity="0.7"/><path aria-label="paxdb abundance, normalized: 0.779788439413; column: PGC" role="graphics-symbol" aria-roledescription="point" transform="translate(26.5,66.06346817618312)" d="M2.7386127875258306,0A2.7386127875258306,2.7386127875258306,0,1,1,-2.7386127875258306,0A2.7386127875258306,2.7386127875258306,0,1,1,2.7386127875258306,0" stroke="#D56E3B" stroke-width="2" opacity="0.7"/><path aria-label="paxdb abundance, normalized: 0.767770112427; column: PGC" role="graphics-symbol" aria-roledescription="point" transform="translate(26.5,69.6689662719871)" d="M2.7386127875258306,0A2.7386127875258306,2.7386127875258306,0,1,1,-2.7386127875258306,0A2.7386127875258306,2.7386127875258306,0,1,1,2.7386127875258306,0" stroke="#D56E3B" stroke-width="2" opacity="0.7"/><path aria-label="paxdb abundance, normalized: 0.762874356007; column: PGC" role="graphics-symbol" aria-roledescription="point" transform="translate(26.5,71.13769319803191)" d="M2.7386127875258306,0A2.7386127875258306,2.7386127875258306,0,1,1,-2.7386127875258306,0A2.7386127875258306,2.7386127875258306,0,1,1,2.7386127875258306,0" stroke="#D56E3B" stroke-width="2" opacity="0.7"/><path aria-label="paxdb abundance, normalized: 0.752663849059; column: PGC" role="graphics-symbol" aria-roledescription="point" transform="translate(26.5,74.20084528241685)" d="M2.7386127875258306,0A2.7386127875258306,2.7386127875258306,0,1,1,-2.7386127875258306,0A2.7386127875258306,2.7386127875258306,0,1,1,2.7386127875258306,0" stroke="#D56E3B" stroke-width="2" opacity="0.7"/><path aria-label="paxdb abundance, normalized: 0.710782427441; column: PGC" role="graphics-symbol" aria-roledescription="point" transform="translate(26.5,86.76527176768849)" d="M2.7386127875258306,0A2.7386127875258306,2.7386127875258306,0,1,1,-2.7386127875258306,0A2.7386127875258306,2.7386127875258306,0,1,1,2.7386127875258306,0" stroke="#D56E3B" stroke-width="2" opacity="0.7"/><path aria-label="paxdb abundance, normalized: 0.708090575568; column: PGC" role="graphics-symbol" aria-roledescription="point" transform="translate(26.5,87.57282732953537)" d="M2.7386127875258306,0A2.7386127875258306,2.7386127875258306,0,1,1,-2.7386127875258306,0A2.7386127875258306,2.7386127875258306,0,1,1,2.7386127875258306,0" stroke="#D56E3B" stroke-width="2" opacity="0.7"/><path aria-label="paxdb abundance, normalized: 0.707079538595; column: PGC" role="graphics-symbol" aria-roledescription="point" transform="translate(26.5,87.87613842163331)" d="M2.7386127875258306,0A2.7386127875258306,2.7386127875258306,0,1,1,-2.7386127875258306,0A2.7386127875258306,2.7386127875258306,0,1,1,2.7386127875258306,0" stroke="#D56E3B" stroke-width="2" opacity="0.7"/><path aria-label="paxdb abundance, normalized: 0.705790161556; column: PGC" role="graphics-symbol" aria-roledescription="point" transform="translate(26.5,88.26295153332123)" d="M2.7386127875258306,0A2.7386127875258306,2.7386127875258306,0,1,1,-2.7386127875258306,0A2.7386127875258306,2.7386127875258306,0,1,1,2.7386127875258306,0" stroke="#D56E3B" stroke-width="2" opacity="0.7"/><path aria-label="paxdb abundance, normalized: 0.701457926031; column: PGC" role="graphics-symbol" aria-roledescription="point" transform="translate(26.5,89.56262219084206)" d="M2.7386127875258306,0A2.7386127875258306,2.7386127875258306,0,1,1,-2.7386127875258306,0A2.7386127875258306,2.7386127875258306,0,1,1,2.7386127875258306,0" stroke="#D56E3B" stroke-width="2" opacity="0.7"/><path aria-label="paxdb abundance, normalized: 0.699745116342; column: PGC" role="graphics-symbol" aria-roledescription="point" transform="translate(26.5,90.07646509737123)" d="M2.7386127875258306,0A2.7386127875258306,2.7386127875258306,0,1,1,-2.7386127875258306,0A2.7386127875258306,2.7386127875258306,0,1,1,2.7386127875258306,0" stroke="#D56E3B" stroke-width="2" opacity="0.7"/><path aria-label="paxdb abundance, normalized: 0.258809948854; column: PGC" role="graphics-symbol" aria-roledescription="point" transform="translate(26.5,222.3570153437798)" d="M2.7386127875258306,0A2.7386127875258306,2.7386127875258306,0,1,1,-2.7386127875258306,0A2.7386127875258306,2.7386127875258306,0,1,1,2.7386127875258306,0" stroke="#D56E3B" stroke-width="2" opacity="0.7"/><path aria-label="paxdb abundance, normalized: 0.228867415529; column: PGC" role="graphics-symbol" aria-roledescription="point" transform="translate(26.5,231.33977534129613)" d="M2.7386127875258306,0A2.7386127875258306,2.7386127875258306,0,1,1,-2.7386127875258306,0A2.7386127875258306,2.7386127875258306,0,1,1,2.7386127875258306,0" stroke="#D56E3B" stroke-width="2" opacity="0.7"/><path aria-label="paxdb abundance, normalized: 0.191184779221; column: PGC" role="graphics-symbol" aria-roledescription="point" transform="translate(26.5,242.6445662337423)" d="M2.7386127875258306,0A2.7386127875258306,2.7386127875258306,0,1,1,-2.7386127875258306,0A2.7386127875258306,2.7386127875258306,0,1,1,2.7386127875258306,0" stroke="#D56E3B" stroke-width="2" opacity="0.7"/><path aria-label="paxdb abundance, normalized: 0.191184779221; column: PGC" role="graphics-symbol" aria-roledescription="point" transform="translate(26.5,242.6445662337423)" d="M2.7386127875258306,0A2.7386127875258306,2.7386127875258306,0,1,1,-2.7386127875258306,0A2.7386127875258306,2.7386127875258306,0,1,1,2.7386127875258306,0" stroke="#D56E3B" stroke-width="2" opacity="0.7"/><path aria-label="paxdb abundance, normalized: 0.186932844428; column: PGC" role="graphics-symbol" aria-roledescription="point" transform="translate(26.5,243.92014667168817)" d="M2.7386127875258306,0A2.7386127875258306,2.7386127875258306,0,1,1,-2.7386127875258306,0A2.7386127875258306,2.7386127875258306,0,1,1,2.7386127875258306,0" stroke="#D56E3B" stroke-width="2" opacity="0.7"/><path aria-label="paxdb abundance, normalized: 0.126065460398; column: PGC" role="graphics-symbol" aria-roledescription="point" transform="translate(26.5,262.1803618804973)" d="M2.7386127875258306,0A2.7386127875258306,2.7386127875258306,0,1,1,-2.7386127875258306,0A2.7386127875258306,2.7386127875258306,0,1,1,2.7386127875258306,0" stroke="#D56E3B" stroke-width="2" opacity="0.7"/><path aria-label="paxdb abundance, normalized: 0.119307674794; column: PGC" role="graphics-symbol" aria-roledescription="point" transform="translate(26.5,264.20769756165066)" d="M2.7386127875258306,0A2.7386127875258306,2.7386127875258306,0,1,1,-2.7386127875258306,0A2.7386127875258306,2.7386127875258306,0,1,1,2.7386127875258306,0" stroke="#D56E3B" stroke-width="2" opacity="0.7"/></g><g class="mark-rule role-mark child_layer_0_layer_1_layer_0_marks" aria-hidden="true"><line transform="translate(26.5,221.081434905834)" x2="0" y2="-48.600464106259125" stroke="black"/></g><g class="mark-rule role-mark child_layer_0_layer_1_layer_1_marks" aria-hidden="true"><line transform="translate(26.5,139.67110077278716)" x2="0" y2="-47.27137650353281" stroke="black"/></g><g class="mark-rect role-mark child_layer_1_layer_0_marks" role="graphics-object" aria-roledescription="rect mark container"><path aria-label="paxdb abundance, normalized: 0.425063430668; upper_box_norm10_abundance: 0.534429664091; column: PGC; Max of paxdb abundance, normalized: 0.836634993853; Q3 of paxdb abundance, normalized: 0.534429664091; Median of paxdb abundance, normalized: 0.4806826554; Q1 of paxdb abundance, normalized: 0.425063430668; Min of paxdb abundance, normalized: 0.119307674794" role="graphics-symbol" aria-roledescription="box" d="M6.5,139.67110077278716h40v32.809870026787706h-40Z" fill="#D56E3B"/></g><g class="mark-rect role-mark child_layer_1_layer_1_marks" aria-hidden="true"><path d="M6.5,155.29520338013992h40v1h-40Z" fill="white" opacity="0.7"/></g></g><path class="foreground" aria-hidden="true" d="" display="none"/></g><g transform="translate(53,0)"><path class="background" aria-hidden="true" d="M0,0h53v300h-53Z"/><g><g class="mark-group role-axis" aria-hidden="true"><g transform="translate(0.5,0.5)"><path class="background" aria-hidden="true" d="M0,0h0v0h0Z" pointer-events="none"/><g><g class="mark-rule role-axis-grid" pointer-events="none"><line transform="translate(0,300)" x2="53" y2="0" stroke="#ddd" stroke-width="1" opacity="1"/><line transform="translate(0,270)" x2="53" y2="0" stroke="#ddd" stroke-width="1" opacity="1"/><line transform="translate(0,240)" x2="53" y2="0" stroke="#ddd" stroke-width="1" opacity="1"/><line transform="translate(0,210)" x2="53" y2="0" stroke="#ddd" stroke-width="1" opacity="1"/><line transform="translate(0,180)" x2="53" y2="0" stroke="#ddd" stroke-width="1" opacity="1"/><line transform="translate(0,150)" x2="53" y2="0" stroke="#ddd" stroke-width="1" opacity="1"/><line transform="translate(0,120)" x2="53" y2="0" stroke="#ddd" stroke-width="1" opacity="1"/><line transform="translate(0,90)" x2="53" y2="0" stroke="#ddd" stroke-width="1" opacity="1"/><line transform="translate(0,60)" x2="53" y2="0" stroke="#ddd" stroke-width="1" opacity="1"/><line transform="translate(0,30)" x2="53" y2="0" stroke="#ddd" stroke-width="1" opacity="1"/><line transform="translate(0,0)" x2="53" y2="0" stroke="#ddd" stroke-width="1" opacity="1"/></g></g><path class="foreground" aria-hidden="true" d="" pointer-events="none" display="none"/></g></g><g class="mark-symbol role-mark child_layer_0_layer_0_marks" role="graphics-object" aria-roledescription="symbol mark container"><path aria-label="paxdb abundance, normalized: 0.88330402145; column: RPLC" role="graphics-symbol" aria-roledescription="point" transform="translate(26.5,35.008793565118744)" d="M2.7386127875258306,0A2.7386127875258306,2.7386127875258306,0,1,1,-2.7386127875258306,0A2.7386127875258306,2.7386127875258306,0,1,1,2.7386127875258306,0" stroke="#58728C" stroke-width="2" opacity="0.7"/><path aria-label="paxdb abundance, normalized: 0.878343983203; column: RPLC" role="graphics-symbol" aria-roledescription="point" transform="translate(26.5,36.496805039155056)" d="M2.7386127875258306,0A2.7386127875258306,2.7386127875258306,0,1,1,-2.7386127875258306,0A2.7386127875258306,2.7386127875258306,0,1,1,2.7386127875258306,0" stroke="#58728C" stroke-width="2" opacity="0.7"/><path aria-label="paxdb abundance, normalized: 0.83982402705; column: RPLC" role="graphics-symbol" aria-roledescription="point" transform="translate(26.5,48.05279188491589)" d="M2.7386127875258306,0A2.7386127875258306,2.7386127875258306,0,1,1,-2.7386127875258306,0A2.7386127875258306,2.7386127875258306,0,1,1,2.7386127875258306,0" stroke="#58728C" stroke-width="2" opacity="0.7"/><path aria-label="paxdb abundance, normalized: 0.834406035768; column: RPLC" role="graphics-symbol" aria-roledescription="point" transform="translate(26.5,49.678189269685234)" d="M2.7386127875258306,0A2.7386127875258306,2.7386127875258306,0,1,1,-2.7386127875258306,0A2.7386127875258306,2.7386127875258306,0,1,1,2.7386127875258306,0" stroke="#58728C" stroke-width="2" opacity="0.7"/><path aria-label="paxdb abundance, normalized: 0.819879895314; column: RPLC" role="graphics-symbol" aria-roledescription="point" transform="translate(26.5,54.03603140570209)" d="M2.7386127875258306,0A2.7386127875258306,2.7386127875258306,0,1,1,-2.7386127875258306,0A2.7386127875258306,2.7386127875258306,0,1,1,2.7386127875258306,0" stroke="#58728C" stroke-width="2" opacity="0.7"/><path aria-label="paxdb abundance, normalized: 0.809923977891; column: RPLC" role="graphics-symbol" aria-roledescription="point" transform="translate(26.5,57.02280663262616)" d="M2.7386127875258306,0A2.7386127875258306,2.7386127875258306,0,1,1,-2.7386127875258306,0A2.7386127875258306,2.7386127875258306,0,1,1,2.7386127875258306,0" stroke="#58728C" stroke-width="2" opacity="0.7"/><path aria-label="paxdb abundance, normalized: 0.799114001091; column: RPLC" role="graphics-symbol" aria-roledescription="point" transform="translate(26.5,60.26579967258468)" d="M2.7386127875258306,0A2.7386127875258306,2.7386127875258306,0,1,1,-2.7386127875258306,0A2.7386127875258306,2.7386127875258306,0,1,1,2.7386127875258306,0" stroke="#58728C" stroke-width="2" opacity="0.7"/><path aria-label="paxdb abundance, normalized: 0.794247450113; column: RPLC" role="graphics-symbol" aria-roledescription="point" transform="translate(26.5,61.72576496623525)" d="M2.7386127875258306,0A2.7386127875258306,2.7386127875258306,0,1,1,-2.7386127875258306,0A2.7386127875258306,2.7386127875258306,0,1,1,2.7386127875258306,0" stroke="#58728C" stroke-width="2" opacity="0.7"/><path aria-label="paxdb abundance, normalized: 0.790380611681; column: RPLC" role="graphics-symbol" aria-roledescription="point" transform="translate(26.5,62.88581649579428)" d="M2.7386127875258306,0A2.7386127875258306,2.7386127875258306,0,1,1,-2.7386127875258306,0A2.7386127875258306,2.7386127875258306,0,1,1,2.7386127875258306,0" stroke="#58728C" stroke-width="2" opacity="0.7"/><path aria-label="paxdb abundance, normalized: 0.781206926088; column: RPLC" role="graphics-symbol" aria-roledescription="point" transform="translate(26.5,65.63792217361902)" d="M2.7386127875258306,0A2.7386127875258306,2.7386127875258306,0,1,1,-2.7386127875258306,0A2.7386127875258306,2.7386127875258306,0,1,1,2.7386127875258306,0" stroke="#58728C" stroke-width="2" opacity="0.7"/><path aria-label="paxdb abundance, normalized: 0.779644642687; column: RPLC" role="graphics-symbol" aria-roledescription="point" transform="translate(26.5,66.10660719394357)" d="M2.7386127875258306,0A2.7386127875258306,2.7386127875258306,0,1,1,-2.7386127875258306,0A2.7386127875258306,2.7386127875258306,0,1,1,2.7386127875258306,0" stroke="#58728C" stroke-width="2" opacity="0.7"/><path aria-label="paxdb abundance, normalized: 0.75794342082; column: RPLC" role="graphics-symbol" aria-roledescription="point" transform="translate(26.5,72.6169737539206)" d="M2.7386127875258306,0A2.7386127875258306,2.7386127875258306,0,1,1,-2.7386127875258306,0A2.7386127875258306,2.7386127875258306,0,1,1,2.7386127875258306,0" stroke="#58728C" stroke-width="2" opacity="0.7"/><path aria-label="paxdb abundance, normalized: 0.750312091007; column: RPLC" role="graphics-symbol" aria-roledescription="point" transform="translate(26.5,74.90637269777123)" d="M2.7386127875258306,0A2.7386127875258306,2.7386127875258306,0,1,1,-2.7386127875258306,0A2.7386127875258306,2.7386127875258306,0,1,1,2.7386127875258306,0" stroke="#58728C" stroke-width="2" opacity="0.7"/><path aria-label="paxdb abundance, normalized: 0.746593195782; column: RPLC" role="graphics-symbol" aria-roledescription="point" transform="translate(26.5,76.02204126528508)" d="M2.7386127875258306,0A2.7386127875258306,2.7386127875258306,0,1,1,-2.7386127875258306,0A2.7386127875258306,2.7386127875258306,0,1,1,2.7386127875258306,0" stroke="#58728C" stroke-width="2" opacity="0.7"/><path aria-label="paxdb abundance, normalized: 0.236793772354; column: RPLC" role="graphics-symbol" aria-roledescription="point" transform="translate(26.5,228.9618682937764)" d="M2.7386127875258306,0A2.7386127875258306,2.7386127875258306,0,1,1,-2.7386127875258306,0A2.7386127875258306,2.7386127875258306,0,1,1,2.7386127875258306,0" stroke="#58728C" stroke-width="2" opacity="0.7"/><path aria-label="paxdb abundance, normalized: 0.233948154622; column: RPLC" role="graphics-symbol" aria-roledescription="point" transform="translate(26.5,229.81555361346247)" d="M2.7386127875258306,0A2.7386127875258306,2.7386127875258306,0,1,1,-2.7386127875258306,0A2.7386127875258306,2.7386127875258306,0,1,1,2.7386127875258306,0" stroke="#58728C" stroke-width="2" opacity="0.7"/><path aria-label="paxdb abundance, normalized: 0.224451786292; column: RPLC" role="graphics-symbol" aria-roledescription="point" transform="translate(26.5,232.66446411234438)" d="M2.7386127875258306,0A2.7386127875258306,2.7386127875258306,0,1,1,-2.7386127875258306,0A2.7386127875258306,2.7386127875258306,0,1,1,2.7386127875258306,0" stroke="#58728C" stroke-width="2" opacity="0.7"/><path aria-label="paxdb abundance, normalized: 0.223292658716; column: RPLC" role="graphics-symbol" aria-roledescription="point" transform="translate(26.5,233.01220238528373)" d="M2.7386127875258306,0A2.7386127875258306,2.7386127875258306,0,1,1,-2.7386127875258306,0A2.7386127875258306,2.7386127875258306,0,1,1,2.7386127875258306,0" stroke="#58728C" stroke-width="2" opacity="0.7"/><path aria-label="paxdb abundance, normalized: 0.219667777854; column: RPLC" role="graphics-symbol" aria-roledescription="point" transform="translate(26.5,234.09966664394898)" d="M2.7386127875258306,0A2.7386127875258306,2.7386127875258306,0,1,1,-2.7386127875258306,0A2.7386127875258306,2.7386127875258306,0,1,1,2.7386127875258306,0" stroke="#58728C" stroke-width="2" opacity="0.7"/><path aria-label="paxdb abundance, normalized: 0.211648955475; column: RPLC" role="graphics-symbol" aria-roledescription="point" transform="translate(26.5,236.50531335754775)" d="M2.7386127875258306,0A2.7386127875258306,2.7386127875258306,0,1,1,-2.7386127875258306,0A2.7386127875258306,2.7386127875258306,0,1,1,2.7386127875258306,0" stroke="#58728C" stroke-width="2" opacity="0.7"/><path aria-label="paxdb abundance, normalized: 0.210196349695; column: RPLC" role="graphics-symbol" aria-roledescription="point" transform="translate(26.5,236.9410950913866)" d="M2.7386127875258306,0A2.7386127875258306,2.7386127875258306,0,1,1,-2.7386127875258306,0A2.7386127875258306,2.7386127875258306,0,1,1,2.7386127875258306,0" stroke="#58728C" stroke-width="2" opacity="0.7"/><path aria-label="paxdb abundance, normalized: 0.207175922668; column: RPLC" role="graphics-symbol" aria-roledescription="point" transform="translate(26.5,237.84722319964393)" d="M2.7386127875258306,0A2.7386127875258306,2.7386127875258306,0,1,1,-2.7386127875258306,0A2.7386127875258306,2.7386127875258306,0,1,1,2.7386127875258306,0" stroke="#58728C" stroke-width="2" opacity="0.7"/><path aria-label="paxdb abundance, normalized: 0.193198138908; column: RPLC" role="graphics-symbol" aria-roledescription="point" transform="translate(26.5,242.04055832754688)" d="M2.7386127875258306,0A2.7386127875258306,2.7386127875258306,0,1,1,-2.7386127875258306,0A2.7386127875258306,2.7386127875258306,0,1,1,2.7386127875258306,0" stroke="#58728C" stroke-width="2" opacity="0.7"/><path aria-label="paxdb abundance, normalized: 0.191184779221; column: RPLC" role="graphics-symbol" aria-roledescription="point" transform="translate(26.5,242.6445662337423)" d="M2.7386127875258306,0A2.7386127875258306,2.7386127875258306,0,1,1,-2.7386127875258306,0A2.7386127875258306,2.7386127875258306,0,1,1,2.7386127875258306,0" stroke="#58728C" stroke-width="2" opacity="0.7"/><path aria-label="paxdb abundance, normalized: 0.168936784775; column: RPLC" role="graphics-symbol" aria-roledescription="point" transform="translate(26.5,249.3189645675473)" d="M2.7386127875258306,0A2.7386127875258306,2.7386127875258306,0,1,1,-2.7386127875258306,0A2.7386127875258306,2.7386127875258306,0,1,1,2.7386127875258306,0" stroke="#58728C" stroke-width="2" opacity="0.7"/></g><g class="mark-rule role-mark child_layer_0_layer_1_layer_0_marks" aria-hidden="true"><line transform="translate(26.5,226.15064244941473)" x2="0" y2="-53.56503631802536" stroke="black"/></g><g class="mark-rule role-mark child_layer_0_layer_1_layer_1_marks" aria-hidden="true"><line transform="translate(26.5,135.19098859559278)" x2="0" y2="-55.736242788414074" stroke="black"/></g><g class="mark-rect role-mark child_layer_1_layer_0_marks" role="graphics-object" aria-roledescription="rect mark container"><path aria-label="paxdb abundance, normalized: 0.424714646229; upper_box_norm10_abundance: 0.549363371348; column: RPLC; Max of paxdb abundance, normalized: 0.88330402145; Q3 of paxdb abundance, normalized: 0.549363371348; Median of paxdb abundance, normalized: 0.487863873653; Q1 of paxdb abundance, normalized: 0.424714646229; Min of paxdb abundance, normalized: 0.168936784775" role="graphics-symbol" aria-roledescription="box" d="M6.5,135.19098859559278h40v37.394617535796584h-40Z" fill="#58728C"/></g><g class="mark-rect role-mark child_layer_1_layer_1_marks" aria-hidden="true"><path d="M6.5,153.14083790414526h40v1h-40Z" fill="white" opacity="0.7"/></g></g><path class="foreground" aria-hidden="true" d="" display="none"/></g><g transform="translate(106,0)"><path class="background" aria-hidden="true" d="M0,0h53v300h-53Z"/><g><g class="mark-group role-axis" aria-hidden="true"><g transform="translate(0.5,0.5)"><path class="background" aria-hidden="true" d="M0,0h0v0h0Z" pointer-events="none"/><g><g class="mark-rule role-axis-grid" pointer-events="none"><line transform="translate(0,300)" x2="53" y2="0" stroke="#ddd" stroke-width="1" opacity="1"/><line transform="translate(0,270)" x2="53" y2="0" stroke="#ddd" stroke-width="1" opacity="1"/><line transform="translate(0,240)" x2="53" y2="0" stroke="#ddd" stroke-width="1" opacity="1"/><line transform="translate(0,210)" x2="53" y2="0" stroke="#ddd" stroke-width="1" opacity="1"/><line transform="translate(0,180)" x2="53" y2="0" stroke="#ddd" stroke-width="1" opacity="1"/><line transform="translate(0,150)" x2="53" y2="0" stroke="#ddd" stroke-width="1" opacity="1"/><line transform="translate(0,120)" x2="53" y2="0" stroke="#ddd" stroke-width="1" opacity="1"/><line transform="translate(0,90)" x2="53" y2="0" stroke="#ddd" stroke-width="1" opacity="1"/><line transform="translate(0,60)" x2="53" y2="0" stroke="#ddd" stroke-width="1" opacity="1"/><line transform="translate(0,30)" x2="53" y2="0" stroke="#ddd" stroke-width="1" opacity="1"/><line transform="translate(0,0)" x2="53" y2="0" stroke="#ddd" stroke-width="1" opacity="1"/></g></g><path class="foreground" aria-hidden="true" d="" pointer-events="none" display="none"/></g></g><g class="mark-symbol role-mark child_layer_0_layer_0_marks" role="graphics-object" aria-roledescription="symbol mark container"><path aria-label="paxdb abundance, normalized: 1; column: both" role="graphics-symbol" aria-roledescription="point" transform="translate(26.5,0)" d="M2.7386127875258306,0A2.7386127875258306,2.7386127875258306,0,1,1,-2.7386127875258306,0A2.7386127875258306,2.7386127875258306,0,1,1,2.7386127875258306,0" stroke="#AAAAAA" stroke-width="2" opacity="0.7"/><path aria-label="paxdb abundance, normalized: 0.969825709014; column: both" role="graphics-symbol" aria-roledescription="point" transform="translate(26.5,9.052287295655148)" d="M2.7386127875258306,0A2.7386127875258306,2.7386127875258306,0,1,1,-2.7386127875258306,0A2.7386127875258306,2.7386127875258306,0,1,1,2.7386127875258306,0" stroke="#AAAAAA" stroke-width="2" opacity="0.7"/><path aria-label="paxdb abundance, normalized: 0.924853807917; column: both" role="graphics-symbol" aria-roledescription="point" transform="translate(26.5,22.543857624906593)" d="M2.7386127875258306,0A2.7386127875258306,2.7386127875258306,0,1,1,-2.7386127875258306,0A2.7386127875258306,2.7386127875258306,0,1,1,2.7386127875258306,0" stroke="#AAAAAA" stroke-width="2" opacity="0.7"/><path aria-label="paxdb abundance, normalized: 0.906654142187; column: both" role="graphics-symbol" aria-roledescription="point" transform="translate(26.5,28.003757343933167)" d="M2.7386127875258306,0A2.7386127875258306,2.7386127875258306,0,1,1,-2.7386127875258306,0A2.7386127875258306,2.7386127875258306,0,1,1,2.7386127875258306,0" stroke="#AAAAAA" stroke-width="2" opacity="0.7"/><path aria-label="paxdb abundance, normalized: 0.906140416579; column: both" role="graphics-symbol" aria-roledescription="point" transform="translate(26.5,28.157875026235747)" d="M2.7386127875258306,0A2.7386127875258306,2.7386127875258306,0,1,1,-2.7386127875258306,0A2.7386127875258306,2.7386127875258306,0,1,1,2.7386127875258306,0" stroke="#AAAAAA" stroke-width="2" opacity="0.7"/><path aria-label="paxdb abundance, normalized: 0.895426726137; column: both" role="graphics-symbol" aria-roledescription="point" transform="translate(26.5,31.37198215889213)" d="M2.7386127875258306,0A2.7386127875258306,2.7386127875258306,0,1,1,-2.7386127875258306,0A2.7386127875258306,2.7386127875258306,0,1,1,2.7386127875258306,0" stroke="#AAAAAA" stroke-width="2" opacity="0.7"/><path aria-label="paxdb abundance, normalized: 0.887463854279; column: both" role="graphics-symbol" aria-roledescription="point" transform="translate(26.5,33.7608437162208)" d="M2.7386127875258306,0A2.7386127875258306,2.7386127875258306,0,1,1,-2.7386127875258306,0A2.7386127875258306,2.7386127875258306,0,1,1,2.7386127875258306,0" stroke="#AAAAAA" stroke-width="2" opacity="0.7"/><path aria-label="paxdb abundance, normalized: 0.883856894736; column: both" role="graphics-symbol" aria-roledescription="point" transform="translate(26.5,34.84293157916471)" d="M2.7386127875258306,0A2.7386127875258306,2.7386127875258306,0,1,1,-2.7386127875258306,0A2.7386127875258306,2.7386127875258306,0,1,1,2.7386127875258306,0" stroke="#AAAAAA" stroke-width="2" opacity="0.7"/><path aria-label="paxdb abundance, normalized: 0.877708997994; column: both" role="graphics-symbol" aria-roledescription="point" transform="translate(26.5,36.68730060177874)" d="M2.7386127875258306,0A2.7386127875258306,2.7386127875258306,0,1,1,-2.7386127875258306,0A2.7386127875258306,2.7386127875258306,0,1,1,2.7386127875258306,0" stroke="#AAAAAA" stroke-width="2" opacity="0.7"/><path aria-label="paxdb abundance, normalized: 0.877290487902; column: both" role="graphics-symbol" aria-roledescription="point" transform="translate(26.5,36.81285362950687)" d="M2.7386127875258306,0A2.7386127875258306,2.7386127875258306,0,1,1,-2.7386127875258306,0A2.7386127875258306,2.7386127875258306,0,1,1,2.7386127875258306,0" stroke="#AAAAAA" stroke-width="2" opacity="0.7"/><path aria-label="paxdb abundance, normalized: 0.873646199727; column: both" role="graphics-symbol" aria-roledescription="point" transform="translate(26.5,37.906140081794895)" d="M2.7386127875258306,0A2.7386127875258306,2.7386127875258306,0,1,1,-2.7386127875258306,0A2.7386127875258306,2.7386127875258306,0,1,1,2.7386127875258306,0" stroke="#AAAAAA" stroke-width="2" opacity="0.7"/><path aria-label="paxdb abundance, normalized: 0.870866449238; column: both" role="graphics-symbol" aria-roledescription="point" transform="translate(26.5,38.7400652287466)" d="M2.7386127875258306,0A2.7386127875258306,2.7386127875258306,0,1,1,-2.7386127875258306,0A2.7386127875258306,2.7386127875258306,0,1,1,2.7386127875258306,0" stroke="#AAAAAA" stroke-width="2" opacity="0.7"/><path aria-label="paxdb abundance, normalized: 0.868940586791; column: both" role="graphics-symbol" aria-roledescription="point" transform="translate(26.5,39.31782396275857)" d="M2.7386127875258306,0A2.7386127875258306,2.7386127875258306,0,1,1,-2.7386127875258306,0A2.7386127875258306,2.7386127875258306,0,1,1,2.7386127875258306,0" stroke="#AAAAAA" stroke-width="2" opacity="0.7"/><path aria-label="paxdb abundance, normalized: 0.863980057462; column: both" role="graphics-symbol" aria-roledescription="point" transform="translate(26.5,40.80598276137898)" d="M2.7386127875258306,0A2.7386127875258306,2.7386127875258306,0,1,1,-2.7386127875258306,0A2.7386127875258306,2.7386127875258306,0,1,1,2.7386127875258306,0" stroke="#AAAAAA" stroke-width="2" opacity="0.7"/><path aria-label="paxdb abundance, normalized: 0.855561732758; column: both" role="graphics-symbol" aria-roledescription="point" transform="translate(26.5,43.33148017259821)" d="M2.7386127875258306,0A2.7386127875258306,2.7386127875258306,0,1,1,-2.7386127875258306,0A2.7386127875258306,2.7386127875258306,0,1,1,2.7386127875258306,0" stroke="#AAAAAA" stroke-width="2" opacity="0.7"/><path aria-label="paxdb abundance, normalized: 0.854223539399; column: both" role="graphics-symbol" aria-roledescription="point" transform="translate(26.5,43.7329381803091)" d="M2.7386127875258306,0A2.7386127875258306,2.7386127875258306,0,1,1,-2.7386127875258306,0A2.7386127875258306,2.7386127875258306,0,1,1,2.7386127875258306,0" stroke="#AAAAAA" stroke-width="2" opacity="0.7"/><path aria-label="paxdb abundance, normalized: 0.852003074093; column: both" role="graphics-symbol" aria-roledescription="point" transform="translate(26.5,44.39907777211965)" d="M2.7386127875258306,0A2.7386127875258306,2.7386127875258306,0,1,1,-2.7386127875258306,0A2.7386127875258306,2.7386127875258306,0,1,1,2.7386127875258306,0" stroke="#AAAAAA" stroke-width="2" opacity="0.7"/><path aria-label="paxdb abundance, normalized: 0.849947449311; column: both" role="graphics-symbol" aria-roledescription="point" transform="translate(26.5,45.015765206753365)" d="M2.7386127875258306,0A2.7386127875258306,2.7386127875258306,0,1,1,-2.7386127875258306,0A2.7386127875258306,2.7386127875258306,0,1,1,2.7386127875258306,0" stroke="#AAAAAA" stroke-width="2" opacity="0.7"/><path aria-label="paxdb abundance, normalized: 0.848534941943; column: both" role="graphics-symbol" aria-roledescription="point" transform="translate(26.5,45.439517417217225)" d="M2.7386127875258306,0A2.7386127875258306,2.7386127875258306,0,1,1,-2.7386127875258306,0A2.7386127875258306,2.7386127875258306,0,1,1,2.7386127875258306,0" stroke="#AAAAAA" stroke-width="2" opacity="0.7"/><path aria-label="paxdb abundance, normalized: 0.84772760025; column: both" role="graphics-symbol" aria-roledescription="point" transform="translate(26.5,45.68171992497794)" d="M2.7386127875258306,0A2.7386127875258306,2.7386127875258306,0,1,1,-2.7386127875258306,0A2.7386127875258306,2.7386127875258306,0,1,1,2.7386127875258306,0" stroke="#AAAAAA" stroke-width="2" opacity="0.7"/><path aria-label="paxdb abundance, normalized: 0.845646708381; column: both" role="graphics-symbol" aria-roledescription="point" transform="translate(26.5,46.30598748561101)" d="M2.7386127875258306,0A2.7386127875258306,2.7386127875258306,0,1,1,-2.7386127875258306,0A2.7386127875258306,2.7386127875258306,0,1,1,2.7386127875258306,0" stroke="#AAAAAA" stroke-width="2" opacity="0.7"/><path aria-label="paxdb abundance, normalized: 0.843179092567; column: both" role="graphics-symbol" aria-roledescription="point" transform="translate(26.5,47.046272229984176)" d="M2.7386127875258306,0A2.7386127875258306,2.7386127875258306,0,1,1,-2.7386127875258306,0A2.7386127875258306,2.7386127875258306,0,1,1,2.7386127875258306,0" stroke="#AAAAAA" stroke-width="2" opacity="0.7"/><path aria-label="paxdb abundance, normalized: 0.843155300377; column: both" role="graphics-symbol" aria-roledescription="point" transform="translate(26.5,47.05340988676346)" d="M2.7386127875258306,0A2.7386127875258306,2.7386127875258306,0,1,1,-2.7386127875258306,0A2.7386127875258306,2.7386127875258306,0,1,1,2.7386127875258306,0" stroke="#AAAAAA" stroke-width="2" opacity="0.7"/><path aria-label="paxdb abundance, normalized: 0.336425038834; column: both" role="graphics-symbol" aria-roledescription="point" transform="translate(26.5,199.07248834973294)" d="M2.7386127875258306,0A2.7386127875258306,2.7386127875258306,0,1,1,-2.7386127875258306,0A2.7386127875258306,2.7386127875258306,0,1,1,2.7386127875258306,0" stroke="#AAAAAA" stroke-width="2" opacity="0.7"/><path aria-label="paxdb abundance, normalized: 0.33358494615; column: both" role="graphics-symbol" aria-roledescription="point" transform="translate(26.5,199.92451615494164)" d="M2.7386127875258306,0A2.7386127875258306,2.7386127875258306,0,1,1,-2.7386127875258306,0A2.7386127875258306,2.7386127875258306,0,1,1,2.7386127875258306,0" stroke="#AAAAAA" stroke-width="2" opacity="0.7"/><path aria-label="paxdb abundance, normalized: 0.323499830018; column: both" role="graphics-symbol" aria-roledescription="point" transform="translate(26.5,202.95005099472786)" d="M2.7386127875258306,0A2.7386127875258306,2.7386127875258306,0,1,1,-2.7386127875258306,0A2.7386127875258306,2.7386127875258306,0,1,1,2.7386127875258306,0" stroke="#AAAAAA" stroke-width="2" opacity="0.7"/><path aria-label="paxdb abundance, normalized: 0.315633939396; column: both" role="graphics-symbol" aria-roledescription="point" transform="translate(26.5,205.30981818118084)" d="M2.7386127875258306,0A2.7386127875258306,2.7386127875258306,0,1,1,-2.7386127875258306,0A2.7386127875258306,2.7386127875258306,0,1,1,2.7386127875258306,0" stroke="#AAAAAA" stroke-width="2" opacity="0.7"/><path aria-label="paxdb abundance, normalized: 0.31421134924; column: both" role="graphics-symbol" aria-roledescription="point" transform="translate(26.5,205.73659522787912)" d="M2.7386127875258306,0A2.7386127875258306,2.7386127875258306,0,1,1,-2.7386127875258306,0A2.7386127875258306,2.7386127875258306,0,1,1,2.7386127875258306,0" stroke="#AAAAAA" stroke-width="2" opacity="0.7"/><path aria-label="paxdb abundance, normalized: 0.301946131698; column: both" role="graphics-symbol" aria-roledescription="point" transform="translate(26.5,209.41616049064237)" d="M2.7386127875258306,0A2.7386127875258306,2.7386127875258306,0,1,1,-2.7386127875258306,0A2.7386127875258306,2.7386127875258306,0,1,1,2.7386127875258306,0" stroke="#AAAAAA" stroke-width="2" opacity="0.7"/><path aria-label="paxdb abundance, normalized: 0.283526059901; column: both" role="graphics-symbol" aria-roledescription="point" transform="translate(26.5,214.94218202963938)" d="M2.7386127875258306,0A2.7386127875258306,2.7386127875258306,0,1,1,-2.7386127875258306,0A2.7386127875258306,2.7386127875258306,0,1,1,2.7386127875258306,0" stroke="#AAAAAA" stroke-width="2" opacity="0.7"/><path aria-label="paxdb abundance, normalized: 0.282283234478; column: both" role="graphics-symbol" aria-roledescription="point" transform="translate(26.5,215.3150296565234)" d="M2.7386127875258306,0A2.7386127875258306,2.7386127875258306,0,1,1,-2.7386127875258306,0A2.7386127875258306,2.7386127875258306,0,1,1,2.7386127875258306,0" stroke="#AAAAAA" stroke-width="2" opacity="0.7"/><path aria-label="paxdb abundance, normalized: 0.256886588971; column: both" role="graphics-symbol" aria-roledescription="point" transform="translate(26.5,222.93402330863248)" d="M2.7386127875258306,0A2.7386127875258306,2.7386127875258306,0,1,1,-2.7386127875258306,0A2.7386127875258306,2.7386127875258306,0,1,1,2.7386127875258306,0" stroke="#AAAAAA" stroke-width="2" opacity="0.7"/></g><g class="mark-rule role-mark child_layer_0_layer_1_layer_0_marks" aria-hidden="true"><line transform="translate(26.5,198.26065465433888)" x2="0" y2="-55.796761841833955" stroke="black"/></g><g class="mark-rule role-mark child_layer_0_layer_1_layer_1_marks" aria-hidden="true"><line transform="translate(26.5,104.91745198852416)" x2="0" y2="-54.91187615867744" stroke="black"/></g><g class="mark-rect role-mark child_layer_1_layer_0_marks" role="graphics-object" aria-roledescription="rect mark container"><path aria-label="paxdb abundance, normalized: 0.525120357292; upper_box_norm10_abundance: 0.650275160038; column: both; Max of paxdb abundance, normalized: 1; Q3 of paxdb abundance, normalized: 0.650275160038; Median of paxdb abundance, normalized: 0.586377978697; Q1 of paxdb abundance, normalized: 0.525120357292; Min of paxdb abundance, normalized: 0.256886588971" role="graphics-symbol" aria-roledescription="box" d="M6.5,104.91745198852416h40v37.54644082398076h-40Z" fill="#AAAAAA"/></g><g class="mark-rect role-mark child_layer_1_layer_1_marks" aria-hidden="true"><path d="M6.5,123.58660639081938h40v1h-40Z" fill="white" opacity="0.7"/></g></g><path class="foreground" aria-hidden="true" d="" display="none"/></g></g><g class="mark-group role-legend" role="graphics-symbol" aria-roledescription="legend" aria-label="Symbol legend titled 'column' for fill color and stroke color with 3 values: PGC, RPLC, both"><g transform="translate(177,0)"><path class="background" aria-hidden="true" d="M0,0h43v61h-43Z" pointer-events="none"/><g><g class="mark-group role-legend-entry"><g transform="translate(0,16)"><path class="background" aria-hidden="true" d="M0,0h0v0h0Z" pointer-events="none"/><g><g class="mark-group role-scope" role="graphics-object" aria-roledescription="group mark container"><g transform="translate(0,0)"><path class="background" aria-hidden="true" d="M0,0h42.6748046875v12.5h-42.6748046875Z" pointer-events="none" opacity="1"/><g><g class="mark-symbol role-legend-symbol" pointer-events="none"><path transform="translate(6,6)" d="M5,0A5,5,0,1,1,-5,0A5,5,0,1,1,5,0" fill="#D56E3B" stroke="#D56E3B" stroke-width="1.5" opacity="0.7"/></g><g class="mark-text role-legend-label" pointer-events="none"><text text-anchor="start" transform="translate(16,9)" font-family="sans-serif" font-size="10px" fill="#000" opacity="1">PGC</text></g></g><path class="foreground" aria-hidden="true" d="" pointer-events="none" display="none"/></g><g transform="translate(0,16)"><path class="background" aria-hidden="true" d="M0,0h42.6748046875v12.5h-42.6748046875Z" pointer-events="none" opacity="1"/><g><g class="mark-symbol role-legend-symbol" pointer-events="none"><path transform="translate(6,6)" d="M5,0A5,5,0,1,1,-5,0A5,5,0,1,1,5,0" fill="#58728C" stroke="#58728C" stroke-width="1.5" opacity="0.7"/></g><g class="mark-text role-legend-label" pointer-events="none"><text text-anchor="start" transform="translate(16,9)" font-family="sans-serif" font-size="10px" fill="#000" opacity="1">RPLC</text></g></g><path class="foreground" aria-hidden="true" d="" pointer-events="none" display="none"/></g><g transform="translate(0,32)"><path class="background" aria-hidden="true" d="M0,0h42.6748046875v12.5h-42.6748046875Z" pointer-events="none" opacity="1"/><g><g class="mark-symbol role-legend-symbol" pointer-events="none"><path transform="translate(6,6)" d="M5,0A5,5,0,1,1,-5,0A5,5,0,1,1,5,0" fill="#AAAAAA" stroke="#AAAAAA" stroke-width="1.5" opacity="0.7"/></g><g class="mark-text role-legend-label" pointer-events="none"><text text-anchor="start" transform="translate(16,9)" font-family="sans-serif" font-size="10px" fill="#000" opacity="1">both</text></g></g><path class="foreground" aria-hidden="true" d="" pointer-events="none" display="none"/></g></g></g><path class="foreground" aria-hidden="true" d="" pointer-events="none" display="none"/></g></g><g class="mark-text role-legend-title" pointer-events="none"><text text-anchor="start" transform="translate(0,9)" font-family="sans-serif" font-size="11px" font-weight="bold" fill="#000" opacity="1">column</text></g></g><path class="foreground" aria-hidden="true" d="" pointer-events="none" display="none"/></g></g></g><path class="foreground" aria-hidden="true" d="" display="none"/></g></g></g></svg>