<svg xmlns="http://www.w3.org/2000/svg" xmlns:xlink="http://www.w3.org/1999/xlink" version="1.1" class="marks" width="434" height="338" viewBox="0 0 434 338"><rect width="434" height="338" fill="white"/><g fill="none" stroke-miterlimit="10" transform="translate(47,12)"><g class="mark-group role-frame root" role="graphics-object" aria-roledescription="group mark container"><g transform="translate(0,0)"><path class="background" aria-hidden="true" d="M0.5,0.5h321v300h-321Z" stroke="#ddd"/><g><g class="mark-group role-axis" aria-hidden="true"><g transform="translate(0.5,0.5)"><path class="background" aria-hidden="true" d="M0,0h0v0h0Z" pointer-events="none"/><g><g class="mark-rule role-axis-grid" pointer-events="none"><line transform="translate(0,300)" x2="321" y2="0" stroke="#ddd" stroke-width="1" opacity="1"/><line transform="translate(0,267)" x2="321" y2="0" stroke="#ddd" stroke-width="1" opacity="1"/><line transform="translate(0,233)" x2="321" y2="0" stroke="#ddd" stroke-width="1" opacity="1"/><line transform="translate(0,200)" x2="321" y2="0" stroke="#ddd" stroke-width="1" opacity="1"/><line transform="translate(0,167)" x2="321" y2="0" stroke="#ddd" stroke-width="1" opacity="1"/><line transform="translate(0,133)" x2="321" y2="0" stroke="#ddd" stroke-width="1" opacity="1"/><line transform="translate(0,100)" x2="321" y2="0" stroke="#ddd" stroke-width="1" opacity="1"/><line transform="translate(0,67)" x2="321" y2="0" stroke="#ddd" stroke-width="1" opacity="1"/><line transform="translate(0,33)" x2="321" y2="0" stroke="#ddd" stroke-width="1" opacity="1"/><line transform="translate(0,0)" x2="321" y2="0" stroke="#ddd" stroke-width="1" opacity="1"/></g></g><path class="foreground" aria-hidden="true" d="" pointer-events="none" display="none"/></g></g><g class="mark-group role-axis" role="graphics-symbol" aria-roledescription="axis" aria-label="X-axis for a discrete scale with 8 values: F1, F2, F3, F4, F5, ending with F8"><g transform="translate(0.5,300.5)"><path class="background" aria-hidden="true" d="M0,0h0v0h0Z" pointer-events="none"/><g><g class="mark-rule role-axis-tick" pointer-events="none"><line transform="translate(20,0)" x2="0" y2="5" stroke="#888" stroke-width="1" opacity="1"/><line transform="translate(60,0)" x2="0" y2="5" stroke="#888" stroke-width="1" opacity="1"/><line transform="translate(100,0)" x2="0" y2="5" stroke="#888" stroke-width="1" opacity="1"/><line transform="translate(140,0)" x2="0" y2="5" stroke="#888" stroke-width="1" opacity="1"/><line transform="translate(180,0)" x2="0" y2="5" stroke="#888" stroke-width="1" opacity="1"/><line transform="translate(220,0)" x2="0" y2="5" stroke="#888" stroke-width="1" opacity="1"/><line transform="translate(260,0)" x2="0" y2="5" stroke="#888" stroke-width="1" opacity="1"/><line transform="translate(300,0)" x2="0" y2="5" stroke="#888" stroke-width="1" opacity="1"/></g><g class="mark-text role-axis-label" pointer-events="none"><text text-anchor="middle" transform="translate(19.5625,18)" font-family="sans-serif" font-size="14px" font-weight="600" fill="#000" opacity="1">F1</text><text text-anchor="middle" transform="translate(59.6875,18)" font-family="sans-serif" font-size="14px" font-weight="600" fill="#000" opacity="1">F2</text><text text-anchor="middle" transform="translate(99.8125,18)" font-family="sans-serif" font-size="14px" font-weight="600" fill="#000" opacity="1">F3</text><text text-anchor="middle" transform="translate(139.9375,18)" font-family="sans-serif" font-size="14px" font-weight="600" fill="#000" opacity="1">F4</text><text text-anchor="middle" transform="translate(180.0625,18)" font-family="sans-serif" font-size="14px" font-weight="600" fill="#000" opacity="1">F5</text><text text-anchor="middle" transform="translate(220.1875,18)" font-family="sans-serif" font-size="14px" font-weight="600" fill="#000" opacity="1">F6</text><text text-anchor="middle" transform="translate(260.3125,18)" font-family="sans-serif" font-size="14px" font-weight="600" fill="#000" opacity="1">F7</text><text text-anchor="middle" transform="translate(300.4375,18)" font-family="sans-serif" font-size="14px" font-weight="600" fill="#000" opacity="1">F8</text></g><g class="mark-rule role-axis-domain" pointer-events="none"><line transform="translate(0,0)" x2="321" y2="0" stroke="#888" stroke-width="1" opacity="1"/></g></g><path class="foreground" aria-hidden="true" d="" pointer-events="none" display="none"/></g></g><g class="mark-group role-axis" role="graphics-symbol" aria-roledescription="axis" aria-label="Y-axis titled 'PSMs per Peptide' for a linear scale with values from 0 to 5"><g transform="translate(0.5,0.5)"><path class="background" aria-hidden="true" d="M0,0h0v0h0Z" pointer-events="none"/><g><g class="mark-rule role-axis-tick" pointer-events="none"><line transform="translate(0,300)" x2="-5" y2="0" stroke="#888" stroke-width="1" opacity="1"/><line transform="translate(0,267)" x2="-5" y2="0" stroke="#888" stroke-width="1" opacity="1"/><line transform="translate(0,233)" x2="-5" y2="0" stroke="#888" stroke-width="1" opacity="1"/><line transform="translate(0,200)" x2="-5" y2="0" stroke="#888" stroke-width="1" opacity="1"/><line transform="translate(0,167)" x2="-5" y2="0" stroke="#888" stroke-width="1" opacity="1"/><line transform="translate(0,133)" x2="-5" y2="0" stroke="#888" stroke-width="1" opacity="1"/><line transform="translate(0,100)" x2="-5" y2="0" stroke="#888" stroke-width="1" opacity="1"/><line transform="translate(0,67)" x2="-5" y2="0" stroke="#888" stroke-width="1" opacity="1"/><line transform="translate(0,33)" x2="-5" y2="0" stroke="#888" stroke-width="1" opacity="1"/><line transform="translate(0,0)" x2="-5" y2="0" stroke="#888" stroke-width="1" opacity="1"/></g><g class="mark-text role-axis-label" pointer-events="none"><text text-anchor="end" transform="translate(-7,304)" font-family="sans-serif" font-size="14px" font-weight="600" fill="#000" opacity="1">0.0</text><text text-anchor="end" transform="translate(-7,270.66666666666663)" font-family="sans-serif" font-size="14px" font-weight="600" fill="#000" opacity="1">0.5</text><text text-anchor="end" transform="translate(-7,237.33333333333334)" font-family="sans-serif" font-size="14px" font-weight="600" fill="#000" opacity="1">1.0</text><text text-anchor="end" transform="translate(-7,204.00000000000003)" font-family="sans-serif" font-size="14px" font-weight="600" fill="#000" opacity="1">1.5</text><text text-anchor="end" transform="translate(-7,170.66666666666669)" font-family="sans-serif" font-size="14px" font-weight="600" fill="#000" opacity="1">2.0</text><text text-anchor="end" transform="translate(-7,137.33333333333331)" font-family="sans-serif" font-size="14px" font-weight="600" fill="#000" opacity="1">2.5</text><text text-anchor="end" transform="translate(-7,104.00000000000001)" font-family="sans-serif" font-size="14px" font-weight="600" fill="#000" opacity="1">3.0</text><text text-anchor="end" transform="translate(-7,70.66666666666666)" font-family="sans-serif" font-size="14px" font-weight="600" fill="#000" opacity="1">3.5</text><text text-anchor="end" transform="translate(-7,37.33333333333335)" font-family="sans-serif" font-size="14px" font-weight="600" fill="#000" opacity="1">4.0</text><text text-anchor="end" transform="translate(-7,4)" font-family="sans-serif" font-size="14px" font-weight="600" fill="#000" opacity="1">4.5</text></g><g class="mark-rule role-axis-domain" pointer-events="none"><line transform="translate(0,300)" x2="0" y2="-300" stroke="#888" stroke-width="1" opacity="1"/></g><g class="mark-text role-axis-title" pointer-events="none"><text text-anchor="middle" transform="translate(-30.4619140625,150) rotate(-90) translate(0,-2)" font-family="sans-serif" font-size="11px" font-weight="bold" fill="#000" opacity="1">PSMs per Peptide</text></g></g><path class="foreground" aria-hidden="true" d="" pointer-events="none" display="none"/></g></g><g class="mark-symbol role-mark layer_0_marks" role="graphics-object" aria-roledescription="symbol mark container"><path aria-label="column: PGC; fraction: F1; PSMs per Peptide: 2.14077315828" role="graphics-symbol" aria-roledescription="point" transform="translate(20.0625,157.28178944809144)" d="M2.7386127875258306,0A2.7386127875258306,2.7386127875258306,0,1,1,-2.7386127875258306,0A2.7386127875258306,2.7386127875258306,0,1,1,2.7386127875258306,0" stroke="#D56E3B" stroke-width="2"/><path aria-label="column: PGC; fraction: F2; PSMs per Peptide: 2.26445619093" role="graphics-symbol" aria-roledescription="point" transform="translate(60.1875,149.0362539377433)" d="M2.7386127875258306,0A2.7386127875258306,2.7386127875258306,0,1,1,-2.7386127875258306,0A2.7386127875258306,2.7386127875258306,0,1,1,2.7386127875258306,0" stroke="#D56E3B" stroke-width="2"/><path aria-label="column: PGC; fraction: F3; PSMs per Peptide: 2.15971163178" role="graphics-symbol" aria-roledescription="point" transform="translate(100.3125,156.01922454826925)" d="M2.7386127875258306,0A2.7386127875258306,2.7386127875258306,0,1,1,-2.7386127875258306,0A2.7386127875258306,2.7386127875258306,0,1,1,2.7386127875258306,0" stroke="#D56E3B" stroke-width="2"/><path aria-label="column: PGC; fraction: F4; PSMs per Peptide: 2.67765168049" role="graphics-symbol" aria-roledescription="point" transform="translate(140.4375,121.48988796740841)" d="M2.7386127875258306,0A2.7386127875258306,2.7386127875258306,0,1,1,-2.7386127875258306,0A2.7386127875258306,2.7386127875258306,0,1,1,2.7386127875258306,0" stroke="#D56E3B" stroke-width="2"/><path aria-label="column: PGC; fraction: F5; PSMs per Peptide: 2.94012809802" role="graphics-symbol" aria-roledescription="point" transform="translate(180.5625,103.99146013181127)" d="M2.7386127875258306,0A2.7386127875258306,2.7386127875258306,0,1,1,-2.7386127875258306,0A2.7386127875258306,2.7386127875258306,0,1,1,2.7386127875258306,0" stroke="#D56E3B" stroke-width="2"/><path aria-label="column: PGC; fraction: F6; PSMs per Peptide: 3.09802513465" role="graphics-symbol" aria-roledescription="point" transform="translate(220.6875,93.46499102333898)" d="M2.7386127875258306,0A2.7386127875258306,2.7386127875258306,0,1,1,-2.7386127875258306,0A2.7386127875258306,2.7386127875258306,0,1,1,2.7386127875258306,0" stroke="#D56E3B" stroke-width="2"/><path aria-label="column: PGC; fraction: F7; PSMs per Peptide: 3.7532874139" role="graphics-symbol" aria-roledescription="point" transform="translate(260.8125,49.78083907326295)" d="M2.7386127875258306,0A2.7386127875258306,2.7386127875258306,0,1,1,-2.7386127875258306,0A2.7386127875258306,2.7386127875258306,0,1,1,2.7386127875258306,0" stroke="#D56E3B" stroke-width="2"/><path aria-label="column: PGC; fraction: F8; PSMs per Peptide: 3.98002103049" role="graphics-symbol" aria-roledescription="point" transform="translate(300.9375,34.66526463371872)" d="M2.7386127875258306,0A2.7386127875258306,2.7386127875258306,0,1,1,-2.7386127875258306,0A2.7386127875258306,2.7386127875258306,0,1,1,2.7386127875258306,0" stroke="#D56E3B" stroke-width="2"/><path aria-label="column: RPLC; fraction: F1; PSMs per Peptide: 2.09134615385" role="graphics-symbol" aria-roledescription="point" transform="translate(20.0625,160.57692307692324)" d="M2.7386127875258306,0A2.7386127875258306,2.7386127875258306,0,1,1,-2.7386127875258306,0A2.7386127875258306,2.7386127875258306,0,1,1,2.7386127875258306,0" stroke="#58728C" stroke-width="2"/><path aria-label="column: RPLC; fraction: F2; PSMs per Peptide: 2.39920287992" role="graphics-symbol" aria-roledescription="point" transform="translate(60.1875,140.05314133881905)" d="M2.7386127875258306,0A2.7386127875258306,2.7386127875258306,0,1,1,-2.7386127875258306,0A2.7386127875258306,2.7386127875258306,0,1,1,2.7386127875258306,0" stroke="#58728C" stroke-width="2"/><path aria-label="column: RPLC; fraction: F3; PSMs per Peptide: 2.41226404557" role="graphics-symbol" aria-roledescription="point" transform="translate(100.3125,139.18239696191227)" d="M2.7386127875258306,0A2.7386127875258306,2.7386127875258306,0,1,1,-2.7386127875258306,0A2.7386127875258306,2.7386127875258306,0,1,1,2.7386127875258306,0" stroke="#58728C" stroke-width="2"/><path aria-label="column: RPLC; fraction: F4; PSMs per Peptide: 2.2202631222" role="graphics-symbol" aria-roledescription="point" transform="translate(140.4375,151.98245851982477)" d="M2.7386127875258306,0A2.7386127875258306,2.7386127875258306,0,1,1,-2.7386127875258306,0A2.7386127875258306,2.7386127875258306,0,1,1,2.7386127875258306,0" stroke="#58728C" stroke-width="2"/><path aria-label="column: RPLC; fraction: F5; PSMs per Peptide: 2.43278179938" role="graphics-symbol" aria-roledescription="point" transform="translate(180.5625,137.8145467080317)" d="M2.7386127875258306,0A2.7386127875258306,2.7386127875258306,0,1,1,-2.7386127875258306,0A2.7386127875258306,2.7386127875258306,0,1,1,2.7386127875258306,0" stroke="#58728C" stroke-width="2"/><path aria-label="column: RPLC; fraction: F6; PSMs per Peptide: 2.39077576225" role="graphics-symbol" aria-roledescription="point" transform="translate(220.6875,140.6149491830696)" d="M2.7386127875258306,0A2.7386127875258306,2.7386127875258306,0,1,1,-2.7386127875258306,0A2.7386127875258306,2.7386127875258306,0,1,1,2.7386127875258306,0" stroke="#58728C" stroke-width="2"/><path aria-label="column: RPLC; fraction: F7; PSMs per Peptide: 2.24246371418" role="graphics-symbol" aria-roledescription="point" transform="translate(260.8125,150.50241905470722)" d="M2.7386127875258306,0A2.7386127875258306,2.7386127875258306,0,1,1,-2.7386127875258306,0A2.7386127875258306,2.7386127875258306,0,1,1,2.7386127875258306,0" stroke="#58728C" stroke-width="2"/><path aria-label="column: RPLC; fraction: F8; PSMs per Peptide: 1.90342448879" role="graphics-symbol" aria-roledescription="point" transform="translate(300.9375,173.10503408064392)" d="M2.7386127875258306,0A2.7386127875258306,2.7386127875258306,0,1,1,-2.7386127875258306,0A2.7386127875258306,2.7386127875258306,0,1,1,2.7386127875258306,0" stroke="#58728C" stroke-width="2"/></g><g class="mark-group role-scope layer_1_pathgroup" role="graphics-object" aria-roledescription="group mark container"><g transform="translate(0,0)"><path class="background" aria-hidden="true" d="M0,0h321v300h-321Z"/><g><g class="mark-line role-mark layer_1_marks" role="graphics-object" aria-roledescription="line mark container"><path aria-label="column: PGC; fraction: F1; PSMs per Peptide: 2.14077315828" role="graphics-symbol" aria-roledescription="line mark" d="M20.0625,157.28178944809144L60.1875,149.0362539377433L100.3125,156.01922454826925L140.4375,121.48988796740841L180.5625,103.99146013181127L220.6875,93.46499102333898L260.8125,49.78083907326295L300.9375,34.66526463371872" stroke="#D56E3B" stroke-width="2" stroke-dasharray="5,3"/></g></g><path class="foreground" aria-hidden="true" d="" display="none"/></g><g transform="translate(0,0)"><path class="background" aria-hidden="true" d="M0,0h321v300h-321Z"/><g><g class="mark-line role-mark layer_1_marks" role="graphics-object" aria-roledescription="line mark container"><path aria-label="column: RPLC; fraction: F1; PSMs per Peptide: 2.09134615385" role="graphics-symbol" aria-roledescription="line mark" d="M20.0625,160.57692307692324L60.1875,140.05314133881905L100.3125,139.18239696191227L140.4375,151.98245851982477L180.5625,137.8145467080317L220.6875,140.6149491830696L260.8125,150.50241905470722L300.9375,173.10503408064392" stroke="#58728C" stroke-width="2" stroke-dasharray="5,3"/></g></g><path class="foreground" aria-hidden="true" d="" display="none"/></g></g><g class="mark-rule role-mark layer_2_marks" role="graphics-object" aria-roledescription="rule mark container"><line aria-label="PSMs per Peptide: 2.09094145039; upper_spectrum: 2.19060486616; column: PGC; fraction: F1; Mean of PSMs per Peptide: 2.14077315828; Mean + stderr of PSMs per Peptide: 2.19060486616; Mean - stderr of PSMs per Peptide: 2.09094145039" role="graphics-symbol" aria-roledescription="errorbar" transform="translate(20.0625,160.6039033071695)" x2="0" y2="-6.644227718156088" stroke="#D56E3B"/><line aria-label="PSMs per Peptide: 2.22512373508; upper_spectrum: 2.30378864679; column: PGC; fraction: F2; Mean of PSMs per Peptide: 2.26445619093; Mean + stderr of PSMs per Peptide: 2.30378864679; Mean - stderr of PSMs per Peptide: 2.22512373508" role="graphics-symbol" aria-roledescription="errorbar" transform="translate(60.1875,151.6584176614032)" x2="0" y2="-5.24432744731979" stroke="#D56E3B"/><line aria-label="PSMs per Peptide: 2.12974501184; upper_spectrum: 2.18967825171; column: PGC; fraction: F3; Mean of PSMs per Peptide: 2.15971163178; Mean + stderr of PSMs per Peptide: 2.18967825171; Mean - stderr of PSMs per Peptide: 2.12974501184" role="graphics-symbol" aria-roledescription="errorbar" transform="translate(100.3125,158.01699921079836)" x2="0" y2="-3.9955493250582776" stroke="#D56E3B"/><line aria-label="PSMs per Peptide: 2.62606858901; upper_spectrum: 2.72923477196; column: PGC; fraction: F4; Mean of PSMs per Peptide: 2.67765168049; Mean + stderr of PSMs per Peptide: 2.72923477196; Mean - stderr of PSMs per Peptide: 2.62606858901" role="graphics-symbol" aria-roledescription="errorbar" transform="translate(140.4375,124.92876073244179)" x2="0" y2="-6.877745530066804" stroke="#D56E3B"/><line aria-label="PSMs per Peptide: 2.8687754769; upper_spectrum: 3.01148071915; column: PGC; fraction: F5; Mean of PSMs per Peptide: 2.94012809802; Mean + stderr of PSMs per Peptide: 3.01148071915; Mean - stderr of PSMs per Peptide: 2.8687754769" role="graphics-symbol" aria-roledescription="errorbar" transform="translate(180.5625,108.74830154015088)" x2="0" y2="-9.513682816679193" stroke="#D56E3B"/><line aria-label="PSMs per Peptide: 2.9968889741; upper_spectrum: 3.1991612952; column: PGC; fraction: F6; Mean of PSMs per Peptide: 3.09802513465; Mean + stderr of PSMs per Peptide: 3.1991612952; Mean - stderr of PSMs per Peptide: 2.9968889741" role="graphics-symbol" aria-roledescription="errorbar" transform="translate(220.6875,100.20740172648348)" x2="0" y2="-13.484821406288958" stroke="#D56E3B"/><line aria-label="PSMs per Peptide: 3.53663864599; upper_spectrum: 3.96993618181; column: PGC; fraction: F7; Mean of PSMs per Peptide: 3.7532874139; Mean + stderr of PSMs per Peptide: 3.96993618181; Mean - stderr of PSMs per Peptide: 3.53663864599" role="graphics-symbol" aria-roledescription="errorbar" transform="translate(260.8125,64.22409026744576)" x2="0" y2="-28.886502388365656" stroke="#D56E3B"/><line aria-label="PSMs per Peptide: 3.52702768965; upper_spectrum: 4.43301437134; column: PGC; fraction: F8; Mean of PSMs per Peptide: 3.98002103049; Mean + stderr of PSMs per Peptide: 4.43301437134; Mean - stderr of PSMs per Peptide: 3.52702768965" role="graphics-symbol" aria-roledescription="errorbar" transform="translate(300.9375,64.86482068997259)" x2="0" y2="-60.39911211250778" stroke="#D56E3B"/><line aria-label="PSMs per Peptide: 2.0106983952; upper_spectrum: 2.17199391249; column: RPLC; fraction: F1; Mean of PSMs per Peptide: 2.09134615385; Mean + stderr of PSMs per Peptide: 2.17199391249; Mean - stderr of PSMs per Peptide: 2.0106983952" role="graphics-symbol" aria-roledescription="errorbar" transform="translate(20.0625,165.95344031982714)" x2="0" y2="-10.753034485807774" stroke="#58728C"/><line aria-label="PSMs per Peptide: 2.32904495559; upper_spectrum: 2.46936080425; column: RPLC; fraction: F2; Mean of PSMs per Peptide: 2.39920287992; Mean + stderr of PSMs per Peptide: 2.46936080425; Mean - stderr of PSMs per Peptide: 2.32904495559" role="graphics-symbol" aria-roledescription="errorbar" transform="translate(60.1875,144.73033629403375)" x2="0" y2="-9.354389910429433" stroke="#58728C"/><line aria-label="PSMs per Peptide: 2.35444589685; upper_spectrum: 2.47008219429; column: RPLC; fraction: F3; Mean of PSMs per Peptide: 2.41226404557; Mean + stderr of PSMs per Peptide: 2.47008219429; Mean - stderr of PSMs per Peptide: 2.35444589685" role="graphics-symbol" aria-roledescription="errorbar" transform="translate(100.3125,143.0369402096943)" x2="0" y2="-7.709086495564009" stroke="#58728C"/><line aria-label="PSMs per Peptide: 2.16966328401; upper_spectrum: 2.2708629604; column: RPLC; fraction: F4; Mean of PSMs per Peptide: 2.2202631222; Mean + stderr of PSMs per Peptide: 2.2708629604; Mean - stderr of PSMs per Peptide: 2.16966328401" role="graphics-symbol" aria-roledescription="errorbar" transform="translate(140.4375,155.35578106616492)" x2="0" y2="-6.7466450926802395" stroke="#58728C"/><line aria-label="PSMs per Peptide: 2.3685173672; upper_spectrum: 2.49704623156; column: RPLC; fraction: F5; Mean of PSMs per Peptide: 2.43278179938; Mean + stderr of PSMs per Peptide: 2.49704623156; Mean - stderr of PSMs per Peptide: 2.3685173672" role="graphics-symbol" aria-roledescription="errorbar" transform="translate(180.5625,142.09884218690354)" x2="0" y2="-8.568590957743652" stroke="#58728C"/><line aria-label="PSMs per Peptide: 2.32271148841; upper_spectrum: 2.45884003609; column: RPLC; fraction: F6; Mean of PSMs per Peptide: 2.39077576225; Mean + stderr of PSMs per Peptide: 2.45884003609; Mean - stderr of PSMs per Peptide: 2.32271148841" role="graphics-symbol" aria-roledescription="errorbar" transform="translate(220.6875,145.1525674390062)" x2="0" y2="-9.075236511873186" stroke="#58728C"/><line aria-label="PSMs per Peptide: 2.20000835238; upper_spectrum: 2.28491907598; column: RPLC; fraction: F7; Mean of PSMs per Peptide: 2.24246371418; Mean + stderr of PSMs per Peptide: 2.28491907598; Mean - stderr of PSMs per Peptide: 2.20000835238" role="graphics-symbol" aria-roledescription="errorbar" transform="translate(260.8125,153.33277650806988)" x2="0" y2="-5.66071490672536" stroke="#58728C"/><line aria-label="PSMs per Peptide: 1.88048162809; upper_spectrum: 1.92636734949; column: RPLC; fraction: F8; Mean of PSMs per Peptide: 1.90342448879; Mean + stderr of PSMs per Peptide: 1.92636734949; Mean - stderr of PSMs per Peptide: 1.88048162809" role="graphics-symbol" aria-roledescription="errorbar" transform="translate(300.9375,174.6345581271455)" x2="0" y2="-3.059048093003213" stroke="#58728C"/></g><g class="mark-group role-legend" role="graphics-symbol" aria-roledescription="legend" aria-label="Symbol legend titled 'column' for stroke color with 2 values: PGC, RPLC"><g transform="translate(339,0)"><path class="background" aria-hidden="true" d="M0,0h43v45h-43Z" pointer-events="none"/><g><g class="mark-group role-legend-entry"><g transform="translate(0,16)"><path class="background" aria-hidden="true" d="M0,0h0v0h0Z" pointer-events="none"/><g><g class="mark-group role-scope" role="graphics-object" aria-roledescription="group mark container"><g transform="translate(0,0)"><path class="background" aria-hidden="true" d="M0,0h42.6748046875v12.5h-42.6748046875Z" pointer-events="none" opacity="1"/><g><g class="mark-symbol role-legend-symbol" pointer-events="none"><path transform="translate(6,6)" d="M5,0A5,5,0,1,1,-5,0A5,5,0,1,1,5,0" stroke="#D56E3B" stroke-width="1.5" opacity="1"/></g><g class="mark-text role-legend-label" pointer-events="none"><text text-anchor="start" transform="translate(16,9)" font-family="sans-serif" font-size="10px" fill="#000" opacity="1">PGC</text></g></g><path class="foreground" aria-hidden="true" d="" pointer-events="none" display="none"/></g><g transform="translate(0,16)"><path class="background" aria-hidden="true" d="M0,0h42.6748046875v12.5h-42.6748046875Z" pointer-events="none" opacity="1"/><g><g class="mark-symbol role-legend-symbol" pointer-events="none"><path transform="translate(6,6)" d="M5,0A5,5,0,1,1,-5,0A5,5,0,1,1,5,0" stroke="#58728C" stroke-width="1.5" opacity="1"/></g><g class="mark-text role-legend-label" pointer-events="none"><text text-anchor="start" transform="translate(16,9)" font-family="sans-serif" font-size="10px" fill="#000" opacity="1">RPLC</text></g></g><path class="foreground" aria-hidden="true" d="" pointer-events="none" display="none"/></g></g></g><path class="foreground" aria-hidden="true" d="" pointer-events="none" display="none"/></g></g><g class="mark-text role-legend-title" pointer-events="none"><text text-anchor="start" transform="translate(0,9)" font-family="sans-serif" font-size="11px" font-weight="bold" fill="#000" opacity="1">column</text></g></g><path class="foreground" aria-hidden="true" d="" pointer-events="none" display="none"/></g></g><g class="mark-group role-legend" role="graphics-symbol" aria-roledescription="legend" aria-label="Symbol legend titled 'column' for stroke color with 2 values: PGC, RPLC"><g transform="translate(339,53)"><path class="background" aria-hidden="true" d="M0,0h43v40h-43Z" pointer-events="none"/><g><g class="mark-group role-legend-entry"><g transform="translate(0,16)"><path class="background" aria-hidden="true" d="M0,0h0v0h0Z" pointer-events="none"/><g><g class="mark-group role-scope" role="graphics-object" aria-roledescription="group mark container"><g transform="translate(0,0)"><path class="background" aria-hidden="true" d="M0,0h42.6748046875v11h-42.6748046875Z" pointer-events="none" opacity="1"/><g><g class="mark-symbol role-legend-symbol" pointer-events="none"><path transform="translate(6,6)" d="M-5,0L5,0" stroke="#D56E3B" stroke-width="1.5" opacity="1"/></g><g class="mark-text role-legend-label" pointer-events="none"><text text-anchor="start" transform="translate(16,9)" font-family="sans-serif" font-size="10px" fill="#000" opacity="1">PGC</text></g></g><path class="foreground" aria-hidden="true" d="" pointer-events="none" display="none"/></g><g transform="translate(0,13)"><path class="background" aria-hidden="true" d="M0,0h42.6748046875v11h-42.6748046875Z" pointer-events="none" opacity="1"/><g><g class="mark-symbol role-legend-symbol" pointer-events="none"><path transform="translate(6,6)" d="M-5,0L5,0" stroke="#58728C" stroke-width="1.5" opacity="1"/></g><g class="mark-text role-legend-label" pointer-events="none"><text text-anchor="start" transform="translate(16,9)" font-family="sans-serif" font-size="10px" fill="#000" opacity="1">RPLC</text></g></g><path class="foreground" aria-hidden="true" d="" pointer-events="none" display="none"/></g></g></g><path class="foreground" aria-hidden="true" d="" pointer-events="none" display="none"/></g></g><g class="mark-text role-legend-title" pointer-events="none"><text text-anchor="start" transform="translate(0,9)" font-family="sans-serif" font-size="11px" font-weight="bold" fill="#000" opacity="1">column</text></g></g><path class="foreground" aria-hidden="true" d="" pointer-events="none" display="none"/></g></g><g class="mark-group role-legend" role="graphics-symbol" aria-roledescription="legend" aria-label="Symbol legend titled 'column' for stroke color with 2 values: PGC, RPLC"><g transform="translate(339,101)"><path class="background" aria-hidden="true" d="M0,0h43v40h-43Z" pointer-events="none"/><g><g class="mark-group role-legend-entry"><g transform="translate(0,16)"><path class="background" aria-hidden="true" d="M0,0h0v0h0Z" pointer-events="none"/><g><g class="mark-group role-scope" role="graphics-object" aria-roledescription="group mark container"><g transform="translate(0,0)"><path class="background" aria-hidden="true" d="M0,0h42.6748046875v11h-42.6748046875Z" pointer-events="none" opacity="1"/><g><g class="mark-symbol role-legend-symbol" pointer-events="none"><path transform="translate(6,6)" d="M-5,0L5,0" stroke="#D56E3B" stroke-width="1.5" opacity="1"/></g><g class="mark-text role-legend-label" pointer-events="none"><text text-anchor="start" transform="translate(16,9)" font-family="sans-serif" font-size="10px" fill="#000" opacity="1">PGC</text></g></g><path class="foreground" aria-hidden="true" d="" pointer-events="none" display="none"/></g><g transform="translate(0,13)"><path class="background" aria-hidden="true" d="M0,0h42.6748046875v11h-42.6748046875Z" pointer-events="none" opacity="1"/><g><g class="mark-symbol role-legend-symbol" pointer-events="none"><path transform="translate(6,6)" d="M-5,0L5,0" stroke="#58728C" stroke-width="1.5" opacity="1"/></g><g class="mark-text role-legend-label" pointer-events="none"><text text-anchor="start" transform="translate(16,9)" font-family="sans-serif" font-size="10px" fill="#000" opacity="1">RPLC</text></g></g><path class="foreground" aria-hidden="true" d="" pointer-events="none" display="none"/></g></g></g><path class="foreground" aria-hidden="true" d="" pointer-events="none" display="none"/></g></g><g class="mark-text role-legend-title" pointer-events="none"><text text-anchor="start" transform="translate(0,9)" font-family="sans-serif" font-size="11px" font-weight="bold" fill="#000" opacity="1">column</text></g></g><path class="foreground" aria-hidden="true" d="" pointer-events="none" display="none"/></g></g></g><path class="foreground" aria-hidden="true" d="" display="none"/></g></g></g></svg>