<svg xmlns="http://www.w3.org/2000/svg" xmlns:xlink="http://www.w3.org/1999/xlink" version="1.1" class="marks" width="499" height="197" viewBox="0 0 499 197"><rect width="499" height="197" fill="white"/><g fill="none" stroke-miterlimit="10" transform="translate(63,12)"><g class="mark-group role-frame root" role="graphics-object" aria-roledescription="group mark container"><g transform="translate(0,0)"><path class="background" aria-hidden="true" d="M0.5,0.5h370v144h-370Z" stroke="#ddd"/><g><g class="mark-group role-axis" aria-hidden="true"><g transform="translate(0.5,0.5)"><path class="background" aria-hidden="true" d="M0,0h0v0h0Z" pointer-events="none"/><g><g class="mark-rule role-axis-grid" pointer-events="none"><line transform="translate(0,144)" x2="370" y2="0" stroke="#ddd" stroke-width="1" opacity="1"/><line transform="translate(0,96)" x2="370" y2="0" stroke="#ddd" stroke-width="1" opacity="1"/><line transform="translate(0,48)" x2="370" y2="0" stroke="#ddd" stroke-width="1" opacity="1"/><line transform="translate(0,0)" x2="370" y2="0" stroke="#ddd" stroke-width="1" opacity="1"/></g></g><path class="foreground" aria-hidden="true" d="" pointer-events="none" display="none"/></g></g><g class="mark-group role-axis" role="graphics-symbol" aria-roledescription="axis" aria-label="X-axis titled 'Fraction' for a discrete scale with 8 values: F1, F2, F3, F4, F5, ending with F8"><g transform="translate(0.5,144.5)"><path class="background" aria-hidden="true" d="M0,0h0v0h0Z" pointer-events="none"/><g><g class="mark-rule role-axis-tick" pointer-events="none"><line transform="translate(23,0)" x2="0" y2="5" stroke="#888" stroke-width="1" opacity="1"/><line transform="translate(69,0)" x2="0" y2="5" stroke="#888" stroke-width="1" opacity="1"/><line transform="translate(116,0)" x2="0" y2="5" stroke="#888" stroke-width="1" opacity="1"/><line transform="translate(162,0)" x2="0" y2="5" stroke="#888" stroke-width="1" opacity="1"/><line transform="translate(208,0)" x2="0" y2="5" stroke="#888" stroke-width="1" opacity="1"/><line transform="translate(254,0)" x2="0" y2="5" stroke="#888" stroke-width="1" opacity="1"/><line transform="translate(301,0)" x2="0" y2="5" stroke="#888" stroke-width="1" opacity="1"/><line transform="translate(347,0)" x2="0" y2="5" stroke="#888" stroke-width="1" opacity="1"/></g><g class="mark-text role-axis-label" pointer-events="none"><text text-anchor="middle" transform="translate(23.125,18)" font-family="sans-serif" font-size="14px" font-weight="600" fill="#000" opacity="1">F1</text><text text-anchor="middle" transform="translate(69.375,18)" font-family="sans-serif" font-size="14px" font-weight="600" fill="#000" opacity="1">F2</text><text text-anchor="middle" transform="translate(115.625,18)" font-family="sans-serif" font-size="14px" font-weight="600" fill="#000" opacity="1">F3</text><text text-anchor="middle" transform="translate(161.875,18)" font-family="sans-serif" font-size="14px" font-weight="600" fill="#000" opacity="1">F4</text><text text-anchor="middle" transform="translate(208.125,18)" font-family="sans-serif" font-size="14px" font-weight="600" fill="#000" opacity="1">F5</text><text text-anchor="middle" transform="translate(254.375,18)" font-family="sans-serif" font-size="14px" font-weight="600" fill="#000" opacity="1">F6</text><text text-anchor="middle" transform="translate(300.625,18)" font-family="sans-serif" font-size="14px" font-weight="600" fill="#000" opacity="1">F7</text><text text-anchor="middle" transform="translate(346.875,18)" font-family="sans-serif" font-size="14px" font-weight="600" fill="#000" opacity="1">F8</text></g><g class="mark-rule role-axis-domain" pointer-events="none"><line transform="translate(0,0)" x2="370" y2="0" stroke="#888" stroke-width="1" opacity="1"/></g><g class="mark-text role-axis-title" pointer-events="none"><text text-anchor="middle" transform="translate(185,34)" font-family="sans-serif" font-size="11px" font-weight="bold" fill="#000" opacity="1">Fraction</text></g></g><path class="foreground" aria-hidden="true" d="" pointer-events="none" display="none"/></g></g><g class="mark-group role-axis" role="graphics-symbol" aria-roledescription="axis" aria-label="Y-axis titled 'Unique Proteins' for a linear scale with values from 0 to 3,000"><g transform="translate(0.5,0.5)"><path class="background" aria-hidden="true" d="M0,0h0v0h0Z" pointer-events="none"/><g><g class="mark-rule role-axis-tick" pointer-events="none"><line transform="translate(0,144)" x2="-5" y2="0" stroke="#888" stroke-width="1" opacity="1"/><line transform="translate(0,96)" x2="-5" y2="0" stroke="#888" stroke-width="1" opacity="1"/><line transform="translate(0,48)" x2="-5" y2="0" stroke="#888" stroke-width="1" opacity="1"/><line transform="translate(0,0)" x2="-5" y2="0" stroke="#888" stroke-width="1" opacity="1"/></g><g class="mark-text role-axis-label" pointer-events="none"><text text-anchor="end" transform="translate(-7,148)" font-family="sans-serif" font-size="14px" font-weight="600" fill="#000" opacity="1">0</text><text text-anchor="end" transform="translate(-7,100.00000000000001)" font-family="sans-serif" font-size="14px" font-weight="600" fill="#000" opacity="1">1,000</text><text text-anchor="end" transform="translate(-7,52.00000000000001)" font-family="sans-serif" font-size="14px" font-weight="600" fill="#000" opacity="1">2,000</text><text text-anchor="end" transform="translate(-7,4)" font-family="sans-serif" font-size="14px" font-weight="600" fill="#000" opacity="1">3,000</text></g><g class="mark-rule role-axis-domain" pointer-events="none"><line transform="translate(0,144)" x2="0" y2="-144" stroke="#888" stroke-width="1" opacity="1"/></g><g class="mark-text role-axis-title" pointer-events="none"><text text-anchor="middle" transform="translate(-46.0341796875,72) rotate(-90) translate(0,-2)" font-family="sans-serif" font-size="11px" font-weight="bold" fill="#000" opacity="1">Unique Proteins</text></g></g><path class="foreground" aria-hidden="true" d="" pointer-events="none" display="none"/></g></g><g class="mark-group role-scope layer_0_pathgroup" role="graphics-object" aria-roledescription="group mark container"><g transform="translate(0,0)"><path class="background" aria-hidden="true" d="M0,0h370v144h-370Z"/><g><g class="mark-line role-mark layer_0_marks" role="graphics-object" aria-roledescription="line mark container"><path aria-label="column: PGC; Fraction: F1; Unique Proteins: 2079" role="graphics-symbol" aria-roledescription="line mark" d="M23.125,44.208000000000006L69.375,18.432000000000002L115.625,11.424000000000005L161.875,31.679999999999996L208.125,48.57600000000001L254.375,67.632L300.625,97.008L346.875,116.352" stroke="#D56E3B" stroke-width="3" stroke-dasharray="5,3" opacity="0.6"/></g></g><path class="foreground" aria-hidden="true" d="" display="none"/></g><g transform="translate(0,0)"><path class="background" aria-hidden="true" d="M0,0h370v144h-370Z"/><g><g class="mark-line role-mark layer_0_marks" role="graphics-object" aria-roledescription="line mark container"><path aria-label="column: RPLC; Fraction: F1; Unique Proteins: 2114" role="graphics-symbol" aria-roledescription="line mark" d="M23.125,42.528L69.375,13.440000000000007L115.625,19.775999999999996L161.875,35.327999999999996L208.125,49.056L254.375,60.431999999999995L300.625,53.80800000000001L346.875,70.032" stroke="#58728C" stroke-width="3" stroke-dasharray="5,3" opacity="0.6"/></g></g><path class="foreground" aria-hidden="true" d="" display="none"/></g></g><g class="mark-symbol role-mark layer_1_marks" role="graphics-object" aria-roledescription="symbol mark container"><path aria-label="column: PGC; Fraction: F1; Unique Proteins: 2079" role="graphics-symbol" aria-roledescription="circle" transform="translate(23.125,44.208000000000006)" d="M4.330127018922194,0A4.330127018922194,4.330127018922194,0,1,1,-4.330127018922194,0A4.330127018922194,4.330127018922194,0,1,1,4.330127018922194,0" fill="#D56E3B" stroke-width="2"/><path aria-label="column: PGC; Fraction: F2; Unique Proteins: 2616" role="graphics-symbol" aria-roledescription="circle" transform="translate(69.375,18.432000000000002)" d="M4.330127018922194,0A4.330127018922194,4.330127018922194,0,1,1,-4.330127018922194,0A4.330127018922194,4.330127018922194,0,1,1,4.330127018922194,0" fill="#D56E3B" stroke-width="2"/><path aria-label="column: PGC; Fraction: F3; Unique Proteins: 2762" role="graphics-symbol" aria-roledescription="circle" transform="translate(115.625,11.424000000000005)" d="M4.330127018922194,0A4.330127018922194,4.330127018922194,0,1,1,-4.330127018922194,0A4.330127018922194,4.330127018922194,0,1,1,4.330127018922194,0" fill="#D56E3B" stroke-width="2"/><path aria-label="column: PGC; Fraction: F4; Unique Proteins: 2340" role="graphics-symbol" aria-roledescription="circle" transform="translate(161.875,31.679999999999996)" d="M4.330127018922194,0A4.330127018922194,4.330127018922194,0,1,1,-4.330127018922194,0A4.330127018922194,4.330127018922194,0,1,1,4.330127018922194,0" fill="#D56E3B" stroke-width="2"/><path aria-label="column: PGC; Fraction: F5; Unique Proteins: 1988" role="graphics-symbol" aria-roledescription="circle" transform="translate(208.125,48.57600000000001)" d="M4.330127018922194,0A4.330127018922194,4.330127018922194,0,1,1,-4.330127018922194,0A4.330127018922194,4.330127018922194,0,1,1,4.330127018922194,0" fill="#D56E3B" stroke-width="2"/><path aria-label="column: PGC; Fraction: F6; Unique Proteins: 1591" role="graphics-symbol" aria-roledescription="circle" transform="translate(254.375,67.632)" d="M4.330127018922194,0A4.330127018922194,4.330127018922194,0,1,1,-4.330127018922194,0A4.330127018922194,4.330127018922194,0,1,1,4.330127018922194,0" fill="#D56E3B" stroke-width="2"/><path aria-label="column: PGC; Fraction: F7; Unique Proteins: 979" role="graphics-symbol" aria-roledescription="circle" transform="translate(300.625,97.008)" d="M4.330127018922194,0A4.330127018922194,4.330127018922194,0,1,1,-4.330127018922194,0A4.330127018922194,4.330127018922194,0,1,1,4.330127018922194,0" fill="#D56E3B" stroke-width="2"/><path aria-label="column: PGC; Fraction: F8; Unique Proteins: 576" role="graphics-symbol" aria-roledescription="circle" transform="translate(346.875,116.352)" d="M4.330127018922194,0A4.330127018922194,4.330127018922194,0,1,1,-4.330127018922194,0A4.330127018922194,4.330127018922194,0,1,1,4.330127018922194,0" fill="#D56E3B" stroke-width="2"/><path aria-label="column: RPLC; Fraction: F1; Unique Proteins: 2114" role="graphics-symbol" aria-roledescription="circle" transform="translate(23.125,42.528)" d="M4.330127018922194,0A4.330127018922194,4.330127018922194,0,1,1,-4.330127018922194,0A4.330127018922194,4.330127018922194,0,1,1,4.330127018922194,0" fill="#58728C" stroke-width="2"/><path aria-label="column: RPLC; Fraction: F2; Unique Proteins: 2720" role="graphics-symbol" aria-roledescription="circle" transform="translate(69.375,13.440000000000007)" d="M4.330127018922194,0A4.330127018922194,4.330127018922194,0,1,1,-4.330127018922194,0A4.330127018922194,4.330127018922194,0,1,1,4.330127018922194,0" fill="#58728C" stroke-width="2"/><path aria-label="column: RPLC; Fraction: F3; Unique Proteins: 2588" role="graphics-symbol" aria-roledescription="circle" transform="translate(115.625,19.775999999999996)" d="M4.330127018922194,0A4.330127018922194,4.330127018922194,0,1,1,-4.330127018922194,0A4.330127018922194,4.330127018922194,0,1,1,4.330127018922194,0" fill="#58728C" stroke-width="2"/><path aria-label="column: RPLC; Fraction: F4; Unique Proteins: 2264" role="graphics-symbol" aria-roledescription="circle" transform="translate(161.875,35.327999999999996)" d="M4.330127018922194,0A4.330127018922194,4.330127018922194,0,1,1,-4.330127018922194,0A4.330127018922194,4.330127018922194,0,1,1,4.330127018922194,0" fill="#58728C" stroke-width="2"/><path aria-label="column: RPLC; Fraction: F5; Unique Proteins: 1978" role="graphics-symbol" aria-roledescription="circle" transform="translate(208.125,49.056)" d="M4.330127018922194,0A4.330127018922194,4.330127018922194,0,1,1,-4.330127018922194,0A4.330127018922194,4.330127018922194,0,1,1,4.330127018922194,0" fill="#58728C" stroke-width="2"/><path aria-label="column: RPLC; Fraction: F6; Unique Proteins: 1741" role="graphics-symbol" aria-roledescription="circle" transform="translate(254.375,60.431999999999995)" d="M4.330127018922194,0A4.330127018922194,4.330127018922194,0,1,1,-4.330127018922194,0A4.330127018922194,4.330127018922194,0,1,1,4.330127018922194,0" fill="#58728C" stroke-width="2"/><path aria-label="column: RPLC; Fraction: F7; Unique Proteins: 1879" role="graphics-symbol" aria-roledescription="circle" transform="translate(300.625,53.80800000000001)" d="M4.330127018922194,0A4.330127018922194,4.330127018922194,0,1,1,-4.330127018922194,0A4.330127018922194,4.330127018922194,0,1,1,4.330127018922194,0" fill="#58728C" stroke-width="2"/><path aria-label="column: RPLC; Fraction: F8; Unique Proteins: 1541" role="graphics-symbol" aria-roledescription="circle" transform="translate(346.875,70.032)" d="M4.330127018922194,0A4.330127018922194,4.330127018922194,0,1,1,-4.330127018922194,0A4.330127018922194,4.330127018922194,0,1,1,4.330127018922194,0" fill="#58728C" stroke-width="2"/></g><g class="mark-group role-legend" role="graphics-symbol" aria-roledescription="legend" aria-label="Symbol legend titled 'column' for fill color and stroke color with 2 values: PGC, RPLC"><g transform="translate(388,0)"><path class="background" aria-hidden="true" d="M0,0h43v45h-43Z" pointer-events="none"/><g><g class="mark-group role-legend-entry"><g transform="translate(0,16)"><path class="background" aria-hidden="true" d="M0,0h0v0h0Z" pointer-events="none"/><g><g class="mark-group role-scope" role="graphics-object" aria-roledescription="group mark container"><g transform="translate(0,0)"><path class="background" aria-hidden="true" d="M0,0h42.6748046875v12.5h-42.6748046875Z" pointer-events="none" opacity="1"/><g><g class="mark-symbol role-legend-symbol" pointer-events="none"><path transform="translate(6,6)" d="M5,0A5,5,0,1,1,-5,0A5,5,0,1,1,5,0" fill="#D56E3B" stroke="#D56E3B" stroke-width="1.5" opacity="0.6"/></g><g class="mark-text role-legend-label" pointer-events="none"><text text-anchor="start" transform="translate(16,9)" font-family="sans-serif" font-size="10px" fill="#000" opacity="1">PGC</text></g></g><path class="foreground" aria-hidden="true" d="" pointer-events="none" display="none"/></g><g transform="translate(0,16)"><path class="background" aria-hidden="true" d="M0,0h42.6748046875v12.5h-42.6748046875Z" pointer-events="none" opacity="1"/><g><g class="mark-symbol role-legend-symbol" pointer-events="none"><path transform="translate(6,6)" d="M5,0A5,5,0,1,1,-5,0A5,5,0,1,1,5,0" fill="#58728C" stroke="#58728C" stroke-width="1.5" opacity="0.6"/></g><g class="mark-text role-legend-label" pointer-events="none"><text text-anchor="start" transform="translate(16,9)" font-family="sans-serif" font-size="10px" fill="#000" opacity="1">RPLC</text></g></g><path class="foreground" aria-hidden="true" d="" pointer-events="none" display="none"/></g></g></g><path class="foreground" aria-hidden="true" d="" pointer-events="none" display="none"/></g></g><g class="mark-text role-legend-title" pointer-events="none"><text text-anchor="start" transform="translate(0,9)" font-family="sans-serif" font-size="11px" font-weight="bold" fill="#000" opacity="1">column</text></g></g><path class="foreground" aria-hidden="true" d="" pointer-events="none" display="none"/></g></g></g><path class="foreground" aria-hidden="true" d="" display="none"/></g></g></g></svg>