<svg xmlns="http://www.w3.org/2000/svg" xmlns:xlink="http://www.w3.org/1999/xlink" version="1.1" class="marks" width="517" height="196" viewBox="0 0 517 196"><rect width="517" height="196" fill="white"/><g fill="none" stroke-miterlimit="10" transform="translate(51,5)"><g class="mark-group role-frame root" role="graphics-object" aria-roledescription="group mark container"><g transform="translate(0,0)"><path class="background" aria-hidden="true" d="M0.5,0.5h400v150h-400Z" stroke="#ddd"/><g><g class="mark-group role-axis" aria-hidden="true"><g transform="translate(0.5,0.5)"><path class="background" aria-hidden="true" d="M0,0h0v0h0Z" pointer-events="none"/><g><g class="mark-rule role-axis-grid" pointer-events="none"><line transform="translate(0,150)" x2="400" y2="0" stroke="#ddd" stroke-width="1" opacity="1"/><line transform="translate(0,103)" x2="400" y2="0" stroke="#ddd" stroke-width="1" opacity="1"/><line transform="translate(0,56)" x2="400" y2="0" stroke="#ddd" stroke-width="1" opacity="1"/><line transform="translate(0,9)" x2="400" y2="0" stroke="#ddd" stroke-width="1" opacity="1"/></g></g><path class="foreground" aria-hidden="true" d="" pointer-events="none" display="none"/></g></g><g class="mark-group role-axis" role="graphics-symbol" aria-roledescription="axis" aria-label="X-axis titled 'Fraction' for a discrete scale with 8 values: F1, F2, F3, F4, F5, ending with F8"><g transform="translate(0.5,150.5)"><path class="background" aria-hidden="true" d="M0,0h0v0h0Z" pointer-events="none"/><g><g class="mark-rule role-axis-tick" pointer-events="none"><line transform="translate(25,0)" x2="0" y2="5" stroke="#888" stroke-width="1" opacity="1"/><line transform="translate(75,0)" x2="0" y2="5" stroke="#888" stroke-width="1" opacity="1"/><line transform="translate(125,0)" x2="0" y2="5" stroke="#888" stroke-width="1" opacity="1"/><line transform="translate(175,0)" x2="0" y2="5" stroke="#888" stroke-width="1" opacity="1"/><line transform="translate(225,0)" x2="0" y2="5" stroke="#888" stroke-width="1" opacity="1"/><line transform="translate(275,0)" x2="0" y2="5" stroke="#888" stroke-width="1" opacity="1"/><line transform="translate(325,0)" x2="0" y2="5" stroke="#888" stroke-width="1" opacity="1"/><line transform="translate(375,0)" x2="0" y2="5" stroke="#888" stroke-width="1" opacity="1"/></g><g class="mark-text role-axis-label" pointer-events="none"><text text-anchor="middle" transform="translate(25,18)" font-family="sans-serif" font-size="14px" font-weight="600" fill="#000" opacity="1">F1</text><text text-anchor="middle" transform="translate(75,18)" font-family="sans-serif" font-size="14px" font-weight="600" fill="#000" opacity="1">F2</text><text text-anchor="middle" transform="translate(125,18)" font-family="sans-serif" font-size="14px" font-weight="600" fill="#000" opacity="1">F3</text><text text-anchor="middle" transform="translate(175,18)" font-family="sans-serif" font-size="14px" font-weight="600" fill="#000" opacity="1">F4</text><text text-anchor="middle" transform="translate(225,18)" font-family="sans-serif" font-size="14px" font-weight="600" fill="#000" opacity="1">F5</text><text text-anchor="middle" transform="translate(275,18)" font-family="sans-serif" font-size="14px" font-weight="600" fill="#000" opacity="1">F6</text><text text-anchor="middle" transform="translate(325,18)" font-family="sans-serif" font-size="14px" font-weight="600" fill="#000" opacity="1">F7</text><text text-anchor="middle" transform="translate(375,18)" font-family="sans-serif" font-size="14px" font-weight="600" fill="#000" opacity="1">F8</text></g><g class="mark-rule role-axis-domain" pointer-events="none"><line transform="translate(0,0)" x2="400" y2="0" stroke="#888" stroke-width="1" opacity="1"/></g><g class="mark-text role-axis-title" pointer-events="none"><text text-anchor="middle" transform="translate(200,34)" font-family="sans-serif" font-size="11px" font-weight="bold" fill="#000" opacity="1">Fraction</text></g></g><path class="foreground" aria-hidden="true" d="" pointer-events="none" display="none"/></g></g><g class="mark-group role-axis" role="graphics-symbol" aria-roledescription="axis" aria-label="Y-axis titled 'Unique Proteins' for a linear scale with values from 0 to 160"><g transform="translate(0.5,0.5)"><path class="background" aria-hidden="true" d="M0,0h0v0h0Z" pointer-events="none"/><g><g class="mark-rule role-axis-tick" pointer-events="none"><line transform="translate(0,150)" x2="-5" y2="0" stroke="#888" stroke-width="1" opacity="1"/><line transform="translate(0,103)" x2="-5" y2="0" stroke="#888" stroke-width="1" opacity="1"/><line transform="translate(0,56)" x2="-5" y2="0" stroke="#888" stroke-width="1" opacity="1"/><line transform="translate(0,9)" x2="-5" y2="0" stroke="#888" stroke-width="1" opacity="1"/></g><g class="mark-text role-axis-label" pointer-events="none"><text text-anchor="end" transform="translate(-7,154)" font-family="sans-serif" font-size="14px" font-weight="600" fill="#000" opacity="1">0</text><text text-anchor="end" transform="translate(-7,107.125)" font-family="sans-serif" font-size="14px" font-weight="600" fill="#000" opacity="1">50</text><text text-anchor="end" transform="translate(-7,60.25)" font-family="sans-serif" font-size="14px" font-weight="600" fill="#000" opacity="1">100</text><text text-anchor="end" transform="translate(-7,13.375)" font-family="sans-serif" font-size="14px" font-weight="600" fill="#000" opacity="1">150</text></g><g class="mark-rule role-axis-domain" pointer-events="none"><line transform="translate(0,150)" x2="0" y2="-150" stroke="#888" stroke-width="1" opacity="1"/></g><g class="mark-text role-axis-title" pointer-events="none"><text text-anchor="middle" transform="translate(-34.3583984375,75) rotate(-90) translate(0,-2)" font-family="sans-serif" font-size="11px" font-weight="bold" fill="#000" opacity="1">Unique Proteins</text></g></g><path class="foreground" aria-hidden="true" d="" pointer-events="none" display="none"/></g></g><g class="mark-group role-scope layer_0_pathgroup" role="graphics-object" aria-roledescription="group mark container"><g transform="translate(0,0)"><path class="background" aria-hidden="true" d="M0,0h400v150h-400Z"/><g><g class="mark-line role-mark layer_0_marks" role="graphics-object" aria-roledescription="line mark container"><path aria-label="column: PGC; Fraction: F1; Unique Proteins: 55" role="graphics-symbol" aria-roledescription="line mark" d="M25,98.4375L75,48.74999999999999L125,33.75L175,11.249999999999993L225,19.687499999999996L275,53.43749999999999L325,117.1875L375,142.5" stroke="#D56E3B" stroke-width="3" stroke-dasharray="5,3" opacity="0.6"/></g></g><path class="foreground" aria-hidden="true" d="" display="none"/></g><g transform="translate(0,0)"><path class="background" aria-hidden="true" d="M0,0h400v150h-400Z"/><g><g class="mark-line role-mark layer_0_marks" role="graphics-object" aria-roledescription="line mark container"><path aria-label="column: RPLC; Fraction: F1; Unique Proteins: 101" role="graphics-symbol" aria-roledescription="line mark" d="M25,55.3125L75,50.625L125,67.5L175,90L225,95.625L275,124.6875L325,116.25L375,125.625" stroke="#58728C" stroke-width="3" stroke-dasharray="5,3" opacity="0.6"/></g></g><path class="foreground" aria-hidden="true" d="" display="none"/></g></g><g class="mark-symbol role-mark layer_1_marks" role="graphics-object" aria-roledescription="symbol mark container"><path aria-label="column: PGC; Fraction: F1; Unique Proteins: 55" role="graphics-symbol" aria-roledescription="circle" transform="translate(25,98.4375)" d="M4.330127018922194,0A4.330127018922194,4.330127018922194,0,1,1,-4.330127018922194,0A4.330127018922194,4.330127018922194,0,1,1,4.330127018922194,0" fill="#D56E3B" stroke-width="2"/><path aria-label="column: PGC; Fraction: F2; Unique Proteins: 108" role="graphics-symbol" aria-roledescription="circle" transform="translate(75,48.74999999999999)" d="M4.330127018922194,0A4.330127018922194,4.330127018922194,0,1,1,-4.330127018922194,0A4.330127018922194,4.330127018922194,0,1,1,4.330127018922194,0" fill="#D56E3B" stroke-width="2"/><path aria-label="column: PGC; Fraction: F3; Unique Proteins: 124" role="graphics-symbol" aria-roledescription="circle" transform="translate(125,33.75)" d="M4.330127018922194,0A4.330127018922194,4.330127018922194,0,1,1,-4.330127018922194,0A4.330127018922194,4.330127018922194,0,1,1,4.330127018922194,0" fill="#D56E3B" stroke-width="2"/><path aria-label="column: PGC; Fraction: F4; Unique Proteins: 148" role="graphics-symbol" aria-roledescription="circle" transform="translate(175,11.249999999999993)" d="M4.330127018922194,0A4.330127018922194,4.330127018922194,0,1,1,-4.330127018922194,0A4.330127018922194,4.330127018922194,0,1,1,4.330127018922194,0" fill="#D56E3B" stroke-width="2"/><path aria-label="column: PGC; Fraction: F5; Unique Proteins: 139" role="graphics-symbol" aria-roledescription="circle" transform="translate(225,19.687499999999996)" d="M4.330127018922194,0A4.330127018922194,4.330127018922194,0,1,1,-4.330127018922194,0A4.330127018922194,4.330127018922194,0,1,1,4.330127018922194,0" fill="#D56E3B" stroke-width="2"/><path aria-label="column: PGC; Fraction: F6; Unique Proteins: 103" role="graphics-symbol" aria-roledescription="circle" transform="translate(275,53.43749999999999)" d="M4.330127018922194,0A4.330127018922194,4.330127018922194,0,1,1,-4.330127018922194,0A4.330127018922194,4.330127018922194,0,1,1,4.330127018922194,0" fill="#D56E3B" stroke-width="2"/><path aria-label="column: PGC; Fraction: F7; Unique Proteins: 35" role="graphics-symbol" aria-roledescription="circle" transform="translate(325,117.1875)" d="M4.330127018922194,0A4.330127018922194,4.330127018922194,0,1,1,-4.330127018922194,0A4.330127018922194,4.330127018922194,0,1,1,4.330127018922194,0" fill="#D56E3B" stroke-width="2"/><path aria-label="column: PGC; Fraction: F8; Unique Proteins: 8" role="graphics-symbol" aria-roledescription="circle" transform="translate(375,142.5)" d="M4.330127018922194,0A4.330127018922194,4.330127018922194,0,1,1,-4.330127018922194,0A4.330127018922194,4.330127018922194,0,1,1,4.330127018922194,0" fill="#D56E3B" stroke-width="2"/><path aria-label="column: RPLC; Fraction: F1; Unique Proteins: 101" role="graphics-symbol" aria-roledescription="circle" transform="translate(25,55.3125)" d="M4.330127018922194,0A4.330127018922194,4.330127018922194,0,1,1,-4.330127018922194,0A4.330127018922194,4.330127018922194,0,1,1,4.330127018922194,0" fill="#58728C" stroke-width="2"/><path aria-label="column: RPLC; Fraction: F2; Unique Proteins: 106" role="graphics-symbol" aria-roledescription="circle" transform="translate(75,50.625)" d="M4.330127018922194,0A4.330127018922194,4.330127018922194,0,1,1,-4.330127018922194,0A4.330127018922194,4.330127018922194,0,1,1,4.330127018922194,0" fill="#58728C" stroke-width="2"/><path aria-label="column: RPLC; Fraction: F3; Unique Proteins: 88" role="graphics-symbol" aria-roledescription="circle" transform="translate(125,67.5)" d="M4.330127018922194,0A4.330127018922194,4.330127018922194,0,1,1,-4.330127018922194,0A4.330127018922194,4.330127018922194,0,1,1,4.330127018922194,0" fill="#58728C" stroke-width="2"/><path aria-label="column: RPLC; Fraction: F4; Unique Proteins: 64" role="graphics-symbol" aria-roledescription="circle" transform="translate(175,90)" d="M4.330127018922194,0A4.330127018922194,4.330127018922194,0,1,1,-4.330127018922194,0A4.330127018922194,4.330127018922194,0,1,1,4.330127018922194,0" fill="#58728C" stroke-width="2"/><path aria-label="column: RPLC; Fraction: F5; Unique Proteins: 58" role="graphics-symbol" aria-roledescription="circle" transform="translate(225,95.625)" d="M4.330127018922194,0A4.330127018922194,4.330127018922194,0,1,1,-4.330127018922194,0A4.330127018922194,4.330127018922194,0,1,1,4.330127018922194,0" fill="#58728C" stroke-width="2"/><path aria-label="column: RPLC; Fraction: F6; Unique Proteins: 27" role="graphics-symbol" aria-roledescription="circle" transform="translate(275,124.6875)" d="M4.330127018922194,0A4.330127018922194,4.330127018922194,0,1,1,-4.330127018922194,0A4.330127018922194,4.330127018922194,0,1,1,4.330127018922194,0" fill="#58728C" stroke-width="2"/><path aria-label="column: RPLC; Fraction: F7; Unique Proteins: 36" role="graphics-symbol" aria-roledescription="circle" transform="translate(325,116.25)" d="M4.330127018922194,0A4.330127018922194,4.330127018922194,0,1,1,-4.330127018922194,0A4.330127018922194,4.330127018922194,0,1,1,4.330127018922194,0" fill="#58728C" stroke-width="2"/><path aria-label="column: RPLC; Fraction: F8; Unique Proteins: 26" role="graphics-symbol" aria-roledescription="circle" transform="translate(375,125.625)" d="M4.330127018922194,0A4.330127018922194,4.330127018922194,0,1,1,-4.330127018922194,0A4.330127018922194,4.330127018922194,0,1,1,4.330127018922194,0" fill="#58728C" stroke-width="2"/></g><g class="mark-group role-legend" role="graphics-symbol" aria-roledescription="legend" aria-label="Symbol legend titled 'column' for fill color and stroke color with 2 values: PGC, RPLC"><g transform="translate(418,0)"><path class="background" aria-hidden="true" d="M0,0h43v45h-43Z" pointer-events="none"/><g><g class="mark-group role-legend-entry"><g transform="translate(0,16)"><path class="background" aria-hidden="true" d="M0,0h0v0h0Z" pointer-events="none"/><g><g class="mark-group role-scope" role="graphics-object" aria-roledescription="group mark container"><g transform="translate(0,0)"><path class="background" aria-hidden="true" d="M0,0h42.6748046875v12.5h-42.6748046875Z" pointer-events="none" opacity="1"/><g><g class="mark-symbol role-legend-symbol" pointer-events="none"><path transform="translate(6,6)" d="M5,0A5,5,0,1,1,-5,0A5,5,0,1,1,5,0" fill="#D56E3B" stroke="#D56E3B" stroke-width="1.5" opacity="0.6"/></g><g class="mark-text role-legend-label" pointer-events="none"><text text-anchor="start" transform="translate(16,9)" font-family="sans-serif" font-size="10px" fill="#000" opacity="1">PGC</text></g></g><path class="foreground" aria-hidden="true" d="" pointer-events="none" display="none"/></g><g transform="translate(0,16)"><path class="background" aria-hidden="true" d="M0,0h42.6748046875v12.5h-42.6748046875Z" pointer-events="none" opacity="1"/><g><g class="mark-symbol role-legend-symbol" pointer-events="none"><path transform="translate(6,6)" d="M5,0A5,5,0,1,1,-5,0A5,5,0,1,1,5,0" fill="#58728C" stroke="#58728C" stroke-width="1.5" opacity="0.6"/></g><g class="mark-text role-legend-label" pointer-events="none"><text text-anchor="start" transform="translate(16,9)" font-family="sans-serif" font-size="10px" fill="#000" opacity="1">RPLC</text></g></g><path class="foreground" aria-hidden="true" d="" pointer-events="none" display="none"/></g></g></g><path class="foreground" aria-hidden="true" d="" pointer-events="none" display="none"/></g></g><g class="mark-text role-legend-title" pointer-events="none"><text text-anchor="start" transform="translate(0,9)" font-family="sans-serif" font-size="11px" font-weight="bold" fill="#000" opacity="1">column</text></g></g><path class="foreground" aria-hidden="true" d="" pointer-events="none" display="none"/></g></g></g><path class="foreground" aria-hidden="true" d="" display="none"/></g></g></g></svg>