<svg xmlns="http://www.w3.org/2000/svg" xmlns:xlink="http://www.w3.org/1999/xlink" version="1.1" class="marks" width="487" height="190" viewBox="0 0 487 190"><rect width="487" height="190" fill="white"/><g fill="none" stroke-miterlimit="10" transform="translate(51,5)"><g class="mark-group role-frame root" role="graphics-object" aria-roledescription="group mark container"><g transform="translate(0,0)"><path class="background" aria-hidden="true" d="M0.5,0.5h370v144h-370Z" stroke="#ddd"/><g><g class="mark-group role-axis" aria-hidden="true"><g transform="translate(0.5,0.5)"><path class="background" aria-hidden="true" d="M0,0h0v0h0Z" pointer-events="none"/><g><g class="mark-rule role-axis-grid" pointer-events="none"><line transform="translate(0,144)" x2="370" y2="0" stroke="#ddd" stroke-width="1" opacity="1"/><line transform="translate(0,99)" x2="370" y2="0" stroke="#ddd" stroke-width="1" opacity="1"/><line transform="translate(0,54)" x2="370" y2="0" stroke="#ddd" stroke-width="1" opacity="1"/><line transform="translate(0,9)" x2="370" y2="0" stroke="#ddd" stroke-width="1" opacity="1"/></g></g><path class="foreground" aria-hidden="true" d="" pointer-events="none" display="none"/></g></g><g class="mark-group role-axis" role="graphics-symbol" aria-roledescription="axis" aria-label="X-axis titled 'Fraction' for a discrete scale with 8 values: F1, F2, F3, F4, F5, ending with F8"><g transform="translate(0.5,144.5)"><path class="background" aria-hidden="true" d="M0,0h0v0h0Z" pointer-events="none"/><g><g class="mark-rule role-axis-tick" pointer-events="none"><line transform="translate(23,0)" x2="0" y2="5" stroke="#888" stroke-width="1" opacity="1"/><line transform="translate(69,0)" x2="0" y2="5" stroke="#888" stroke-width="1" opacity="1"/><line transform="translate(116,0)" x2="0" y2="5" stroke="#888" stroke-width="1" opacity="1"/><line transform="translate(162,0)" x2="0" y2="5" stroke="#888" stroke-width="1" opacity="1"/><line transform="translate(208,0)" x2="0" y2="5" stroke="#888" stroke-width="1" opacity="1"/><line transform="translate(254,0)" x2="0" y2="5" stroke="#888" stroke-width="1" opacity="1"/><line transform="translate(301,0)" x2="0" y2="5" stroke="#888" stroke-width="1" opacity="1"/><line transform="translate(347,0)" x2="0" y2="5" stroke="#888" stroke-width="1" opacity="1"/></g><g class="mark-text role-axis-label" pointer-events="none"><text text-anchor="middle" transform="translate(23.125,18)" font-family="sans-serif" font-size="14px" font-weight="600" fill="#000" opacity="1">F1</text><text text-anchor="middle" transform="translate(69.375,18)" font-family="sans-serif" font-size="14px" font-weight="600" fill="#000" opacity="1">F2</text><text text-anchor="middle" transform="translate(115.625,18)" font-family="sans-serif" font-size="14px" font-weight="600" fill="#000" opacity="1">F3</text><text text-anchor="middle" transform="translate(161.875,18)" font-family="sans-serif" font-size="14px" font-weight="600" fill="#000" opacity="1">F4</text><text text-anchor="middle" transform="translate(208.125,18)" font-family="sans-serif" font-size="14px" font-weight="600" fill="#000" opacity="1">F5</text><text text-anchor="middle" transform="translate(254.375,18)" font-family="sans-serif" font-size="14px" font-weight="600" fill="#000" opacity="1">F6</text><text text-anchor="middle" transform="translate(300.625,18)" font-family="sans-serif" font-size="14px" font-weight="600" fill="#000" opacity="1">F7</text><text text-anchor="middle" transform="translate(346.875,18)" font-family="sans-serif" font-size="14px" font-weight="600" fill="#000" opacity="1">F8</text></g><g class="mark-rule role-axis-domain" pointer-events="none"><line transform="translate(0,0)" x2="370" y2="0" stroke="#888" stroke-width="1" opacity="1"/></g><g class="mark-text role-axis-title" pointer-events="none"><text text-anchor="middle" transform="translate(185,34)" font-family="sans-serif" font-size="11px" font-weight="bold" fill="#000" opacity="1">Fraction</text></g></g><path class="foreground" aria-hidden="true" d="" pointer-events="none" display="none"/></g></g><g class="mark-group role-axis" role="graphics-symbol" aria-roledescription="axis" aria-label="Y-axis titled 'Unique Proteins' for a linear scale with values from 0 to 160"><g transform="translate(0.5,0.5)"><path class="background" aria-hidden="true" d="M0,0h0v0h0Z" pointer-events="none"/><g><g class="mark-rule role-axis-tick" pointer-events="none"><line transform="translate(0,144)" x2="-5" y2="0" stroke="#888" stroke-width="1" opacity="1"/><line transform="translate(0,99)" x2="-5" y2="0" stroke="#888" stroke-width="1" opacity="1"/><line transform="translate(0,54)" x2="-5" y2="0" stroke="#888" stroke-width="1" opacity="1"/><line transform="translate(0,9)" x2="-5" y2="0" stroke="#888" stroke-width="1" opacity="1"/></g><g class="mark-text role-axis-label" pointer-events="none"><text text-anchor="end" transform="translate(-7,148)" font-family="sans-serif" font-size="14px" font-weight="600" fill="#000" opacity="1">0</text><text text-anchor="end" transform="translate(-7,103)" font-family="sans-serif" font-size="14px" font-weight="600" fill="#000" opacity="1">50</text><text text-anchor="end" transform="translate(-7,58)" font-family="sans-serif" font-size="14px" font-weight="600" fill="#000" opacity="1">100</text><text text-anchor="end" transform="translate(-7,13)" font-family="sans-serif" font-size="14px" font-weight="600" fill="#000" opacity="1">150</text></g><g class="mark-rule role-axis-domain" pointer-events="none"><line transform="translate(0,144)" x2="0" y2="-144" stroke="#888" stroke-width="1" opacity="1"/></g><g class="mark-text role-axis-title" pointer-events="none"><text text-anchor="middle" transform="translate(-34.3583984375,72) rotate(-90) translate(0,-2)" font-family="sans-serif" font-size="11px" font-weight="bold" fill="#000" opacity="1">Unique Proteins</text></g></g><path class="foreground" aria-hidden="true" d="" pointer-events="none" display="none"/></g></g><g class="mark-group role-scope layer_0_pathgroup" role="graphics-object" aria-roledescription="group mark container"><g transform="translate(0,0)"><path class="background" aria-hidden="true" d="M0,0h370v144h-370Z"/><g><g class="mark-line role-mark layer_0_marks" role="graphics-object" aria-roledescription="line mark container"><path aria-label="column: PGC; Fraction: F1; Unique Proteins: 55" role="graphics-symbol" aria-roledescription="line mark" d="M23.125,94.5L69.375,46.8L115.625,32.4L161.875,10.799999999999994L208.125,18.9L254.375,51.3L300.625,112.5L346.875,136.79999999999998" stroke="#D56E3B" stroke-width="3" stroke-dasharray="5,3" opacity="0.6"/></g></g><path class="foreground" aria-hidden="true" d="" display="none"/></g><g transform="translate(0,0)"><path class="background" aria-hidden="true" d="M0,0h370v144h-370Z"/><g><g class="mark-line role-mark layer_0_marks" role="graphics-object" aria-roledescription="line mark container"><path aria-label="column: RPLC; Fraction: F1; Unique Proteins: 101" role="graphics-symbol" aria-roledescription="line mark" d="M23.125,53.1L69.375,48.6L115.625,64.8L161.875,86.39999999999999L208.125,91.8L254.375,119.7L300.625,111.60000000000001L346.875,120.60000000000001" stroke="#58728C" stroke-width="3" stroke-dasharray="5,3" opacity="0.6"/></g></g><path class="foreground" aria-hidden="true" d="" display="none"/></g></g><g class="mark-symbol role-mark layer_1_marks" role="graphics-object" aria-roledescription="symbol mark container"><path aria-label="column: PGC; Fraction: F1; Unique Proteins: 55" role="graphics-symbol" aria-roledescription="circle" transform="translate(23.125,94.5)" d="M4.330127018922194,0A4.330127018922194,4.330127018922194,0,1,1,-4.330127018922194,0A4.330127018922194,4.330127018922194,0,1,1,4.330127018922194,0" fill="#D56E3B" stroke-width="2"/><path aria-label="column: PGC; Fraction: F2; Unique Proteins: 108" role="graphics-symbol" aria-roledescription="circle" transform="translate(69.375,46.8)" d="M4.330127018922194,0A4.330127018922194,4.330127018922194,0,1,1,-4.330127018922194,0A4.330127018922194,4.330127018922194,0,1,1,4.330127018922194,0" fill="#D56E3B" stroke-width="2"/><path aria-label="column: PGC; Fraction: F3; Unique Proteins: 124" role="graphics-symbol" aria-roledescription="circle" transform="translate(115.625,32.4)" d="M4.330127018922194,0A4.330127018922194,4.330127018922194,0,1,1,-4.330127018922194,0A4.330127018922194,4.330127018922194,0,1,1,4.330127018922194,0" fill="#D56E3B" stroke-width="2"/><path aria-label="column: PGC; Fraction: F4; Unique Proteins: 148" role="graphics-symbol" aria-roledescription="circle" transform="translate(161.875,10.799999999999994)" d="M4.330127018922194,0A4.330127018922194,4.330127018922194,0,1,1,-4.330127018922194,0A4.330127018922194,4.330127018922194,0,1,1,4.330127018922194,0" fill="#D56E3B" stroke-width="2"/><path aria-label="column: PGC; Fraction: F5; Unique Proteins: 139" role="graphics-symbol" aria-roledescription="circle" transform="translate(208.125,18.9)" d="M4.330127018922194,0A4.330127018922194,4.330127018922194,0,1,1,-4.330127018922194,0A4.330127018922194,4.330127018922194,0,1,1,4.330127018922194,0" fill="#D56E3B" stroke-width="2"/><path aria-label="column: PGC; Fraction: F6; Unique Proteins: 103" role="graphics-symbol" aria-roledescription="circle" transform="translate(254.375,51.3)" d="M4.330127018922194,0A4.330127018922194,4.330127018922194,0,1,1,-4.330127018922194,0A4.330127018922194,4.330127018922194,0,1,1,4.330127018922194,0" fill="#D56E3B" stroke-width="2"/><path aria-label="column: PGC; Fraction: F7; Unique Proteins: 35" role="graphics-symbol" aria-roledescription="circle" transform="translate(300.625,112.5)" d="M4.330127018922194,0A4.330127018922194,4.330127018922194,0,1,1,-4.330127018922194,0A4.330127018922194,4.330127018922194,0,1,1,4.330127018922194,0" fill="#D56E3B" stroke-width="2"/><path aria-label="column: PGC; Fraction: F8; Unique Proteins: 8" role="graphics-symbol" aria-roledescription="circle" transform="translate(346.875,136.79999999999998)" d="M4.330127018922194,0A4.330127018922194,4.330127018922194,0,1,1,-4.330127018922194,0A4.330127018922194,4.330127018922194,0,1,1,4.330127018922194,0" fill="#D56E3B" stroke-width="2"/><path aria-label="column: RPLC; Fraction: F1; Unique Proteins: 101" role="graphics-symbol" aria-roledescription="circle" transform="translate(23.125,53.1)" d="M4.330127018922194,0A4.330127018922194,4.330127018922194,0,1,1,-4.330127018922194,0A4.330127018922194,4.330127018922194,0,1,1,4.330127018922194,0" fill="#58728C" stroke-width="2"/><path aria-label="column: RPLC; Fraction: F2; Unique Proteins: 106" role="graphics-symbol" aria-roledescription="circle" transform="translate(69.375,48.6)" d="M4.330127018922194,0A4.330127018922194,4.330127018922194,0,1,1,-4.330127018922194,0A4.330127018922194,4.330127018922194,0,1,1,4.330127018922194,0" fill="#58728C" stroke-width="2"/><path aria-label="column: RPLC; Fraction: F3; Unique Proteins: 88" role="graphics-symbol" aria-roledescription="circle" transform="translate(115.625,64.8)" d="M4.330127018922194,0A4.330127018922194,4.330127018922194,0,1,1,-4.330127018922194,0A4.330127018922194,4.330127018922194,0,1,1,4.330127018922194,0" fill="#58728C" stroke-width="2"/><path aria-label="column: RPLC; Fraction: F4; Unique Proteins: 64" role="graphics-symbol" aria-roledescription="circle" transform="translate(161.875,86.39999999999999)" d="M4.330127018922194,0A4.330127018922194,4.330127018922194,0,1,1,-4.330127018922194,0A4.330127018922194,4.330127018922194,0,1,1,4.330127018922194,0" fill="#58728C" stroke-width="2"/><path aria-label="column: RPLC; Fraction: F5; Unique Proteins: 58" role="graphics-symbol" aria-roledescription="circle" transform="translate(208.125,91.8)" d="M4.330127018922194,0A4.330127018922194,4.330127018922194,0,1,1,-4.330127018922194,0A4.330127018922194,4.330127018922194,0,1,1,4.330127018922194,0" fill="#58728C" stroke-width="2"/><path aria-label="column: RPLC; Fraction: F6; Unique Proteins: 27" role="graphics-symbol" aria-roledescription="circle" transform="translate(254.375,119.7)" d="M4.330127018922194,0A4.330127018922194,4.330127018922194,0,1,1,-4.330127018922194,0A4.330127018922194,4.330127018922194,0,1,1,4.330127018922194,0" fill="#58728C" stroke-width="2"/><path aria-label="column: RPLC; Fraction: F7; Unique Proteins: 36" role="graphics-symbol" aria-roledescription="circle" transform="translate(300.625,111.60000000000001)" d="M4.330127018922194,0A4.330127018922194,4.330127018922194,0,1,1,-4.330127018922194,0A4.330127018922194,4.330127018922194,0,1,1,4.330127018922194,0" fill="#58728C" stroke-width="2"/><path aria-label="column: RPLC; Fraction: F8; Unique Proteins: 26" role="graphics-symbol" aria-roledescription="circle" transform="translate(346.875,120.60000000000001)" d="M4.330127018922194,0A4.330127018922194,4.330127018922194,0,1,1,-4.330127018922194,0A4.330127018922194,4.330127018922194,0,1,1,4.330127018922194,0" fill="#58728C" stroke-width="2"/></g><g class="mark-group role-legend" role="graphics-symbol" aria-roledescription="legend" aria-label="Symbol legend titled 'column' for fill color and stroke color with 2 values: PGC, RPLC"><g transform="translate(388,0)"><path class="background" aria-hidden="true" d="M0,0h43v45h-43Z" pointer-events="none"/><g><g class="mark-group role-legend-entry"><g transform="translate(0,16)"><path class="background" aria-hidden="true" d="M0,0h0v0h0Z" pointer-events="none"/><g><g class="mark-group role-scope" role="graphics-object" aria-roledescription="group mark container"><g transform="translate(0,0)"><path class="background" aria-hidden="true" d="M0,0h42.6748046875v12.5h-42.6748046875Z" pointer-events="none" opacity="1"/><g><g class="mark-symbol role-legend-symbol" pointer-events="none"><path transform="translate(6,6)" d="M5,0A5,5,0,1,1,-5,0A5,5,0,1,1,5,0" fill="#D56E3B" stroke="#D56E3B" stroke-width="1.5" opacity="0.6"/></g><g class="mark-text role-legend-label" pointer-events="none"><text text-anchor="start" transform="translate(16,9)" font-family="sans-serif" font-size="10px" fill="#000" opacity="1">PGC</text></g></g><path class="foreground" aria-hidden="true" d="" pointer-events="none" display="none"/></g><g transform="translate(0,16)"><path class="background" aria-hidden="true" d="M0,0h42.6748046875v12.5h-42.6748046875Z" pointer-events="none" opacity="1"/><g><g class="mark-symbol role-legend-symbol" pointer-events="none"><path transform="translate(6,6)" d="M5,0A5,5,0,1,1,-5,0A5,5,0,1,1,5,0" fill="#58728C" stroke="#58728C" stroke-width="1.5" opacity="0.6"/></g><g class="mark-text role-legend-label" pointer-events="none"><text text-anchor="start" transform="translate(16,9)" font-family="sans-serif" font-size="10px" fill="#000" opacity="1">RPLC</text></g></g><path class="foreground" aria-hidden="true" d="" pointer-events="none" display="none"/></g></g></g><path class="foreground" aria-hidden="true" d="" pointer-events="none" display="none"/></g></g><g class="mark-text role-legend-title" pointer-events="none"><text text-anchor="start" transform="translate(0,9)" font-family="sans-serif" font-size="11px" font-weight="bold" fill="#000" opacity="1">column</text></g></g><path class="foreground" aria-hidden="true" d="" pointer-events="none" display="none"/></g></g></g><path class="foreground" aria-hidden="true" d="" display="none"/></g></g></g></svg>